<?xml version="1.0" encoding="UTF-8" standalone="no"?>
<!DOCTYPE svg PUBLIC "-//W3C//DTD SVG 1.1//EN" "http://www.w3.org/Graphics/SVG/1.1/DTD/svg11.dtd">
<svg xmlns="http://www.w3.org/2000/svg" version="1.1" viewBox="0.00 0.00 512.00 512.00">
<g stroke-width="1.10" fill="none" stroke-linecap="butt">
<path stroke="#1274af" stroke-opacity="0.702" vector-effect="non-scaling-stroke" d="
  M 478.33 12.10
  L 462.09 41.95"
/>
<path stroke="#1276b0" stroke-opacity="0.741" vector-effect="non-scaling-stroke" d="
  M 462.09 41.95
  L 448.69 68.02"
/>
<path stroke="#1178b3" stroke-opacity="0.776" vector-effect="non-scaling-stroke" d="
  M 448.69 68.02
  L 435.95 93.80"
/>
<path stroke="#187bb7" stroke-opacity="0.831" vector-effect="non-scaling-stroke" d="
  M 435.95 93.80
  L 420.21 126.20"
/>
<path stroke="#1781c7" vector-effect="non-scaling-stroke" d="
  M 420.21 126.20
  Q 419.07 126.69 418.80 127.64
  Q 418.73 127.88 418.48 127.88
  L 368.51 127.88
  A 0.42 0.42 0.0 0 0 368.12 128.46
  Q 368.21 128.70 368.00 128.62
  Q 367.74 128.53 367.75 128.50
  Q 367.82 128.35 367.89 128.21
  A 0.17 0.17 0.0 0 0 367.69 127.97
  Q 367.02 128.19 366.70 127.97"
/>
<path stroke="#1276b0" stroke-opacity="0.741" vector-effect="non-scaling-stroke" d="
  M 366.70 127.97
  L 366.95 127.18"
/>
<path stroke="#2292d6" vector-effect="non-scaling-stroke" d="
  M 366.95 127.18
  L 367.47 127.13
  A 1.00 1.00 0.0 0 0 368.18 126.71
  Q 377.14 114.06 380.94 108.08
  Q 408.96 63.91 430.90 16.25"
/>
<path stroke="#249adb" vector-effect="non-scaling-stroke" d="
  M 430.90 16.25
  L 432.80 12.23"
/>
<path stroke="#1671ac" stroke-opacity="0.831" vector-effect="non-scaling-stroke" d="
  M 419.97 126.92
  Q 420.04 126.41 420.21 126.20"
/>
<path stroke="#1671ac" stroke-opacity="0.831" vector-effect="non-scaling-stroke" d="
  M 417.09 132.71
  L 414.19 138.93"
/>
<path stroke="#1577b6" stroke-opacity="0.902" vector-effect="non-scaling-stroke" d="
  M 414.19 138.93
  L 412.46 141.77"
/>
<path stroke="#1470b5" vector-effect="non-scaling-stroke" d="
  M 412.46 141.77
  L 410.81 143.77
  Q 410.51 144.13 410.05 144.13
  Q 386.40 144.11 362.75 144.13
  Q 362.26 144.13 361.67 144.45
  Q 361.32 144.65 361.31 144.25
  Q 361.29 143.88 361.07 143.62"
/>
<path stroke="#208acc" vector-effect="non-scaling-stroke" d="
  M 361.07 143.62
  Q 362.43 139.16 364.13 134.75
  Q 364.58 133.59 363.74 133.46"
/>
<path stroke="#1069a1" stroke-opacity="0.702" vector-effect="non-scaling-stroke" d="
  M 363.74 133.46
  L 364.83 131.75"
/>
<path stroke="#1d81b8" stroke-opacity="0.741" vector-effect="non-scaling-stroke" d="
  M 366.95 127.18
  L 370.78 115.17"
/>
<path stroke="#2285be" stroke-opacity="0.831" vector-effect="non-scaling-stroke" d="
  M 370.78 115.17
  L 381.19 82.27"
/>
<path stroke="#2b8bc2" stroke-opacity="0.863" vector-effect="non-scaling-stroke" d="
  M 381.19 82.27
  L 386.27 66.08"
/>
<path stroke="#218ac7" stroke-opacity="0.902" vector-effect="non-scaling-stroke" d="
  M 386.27 66.08
  L 392.27 50.54"
/>
<path stroke="#2285be" stroke-opacity="0.831" vector-effect="non-scaling-stroke" d="
  M 392.27 50.54
  L 396.16 43.23"
/>
<path stroke="#269bd1" stroke-opacity="0.933" vector-effect="non-scaling-stroke" d="
  M 396.16 43.23
  Q 401.47 35.56 408.33 28.63"
/>
<path stroke="#2da2e1" vector-effect="non-scaling-stroke" d="
  M 430.90 16.25
  Q 417.90 20.23 408.33 28.63"
/>
<path stroke="#29a4d7" stroke-opacity="0.933" vector-effect="non-scaling-stroke" d="
  M 408.33 28.63
  Q 408.12 28.71 407.94 28.74
  Q 407.39 28.84 407.38 28.28
  Q 407.38 28.15 407.37 28.02
  Q 407.35 27.87 407.21 27.87
  L 390.51 27.87
  A 0.27 0.27 0.0 0 1 390.36 27.37
  L 390.84 27.06
  A 0.51 0.51 0.0 0 0 390.94 26.29
  L 390.61 25.92"
/>
<path stroke="#0f6ba3" stroke-opacity="0.741" vector-effect="non-scaling-stroke" d="
  M 366.70 127.97
  Q 366.00 131.64 364.83 131.75"
/>
<path stroke="#1f78b0" stroke-opacity="0.863" vector-effect="non-scaling-stroke" d="
  M 417.09 132.71
  L 419.97 126.92"
/>
<path stroke="#136dad" stroke-opacity="0.902" vector-effect="non-scaling-stroke" d="
  M 399.07 166.39
  L 412.46 141.77"
/>
<path stroke="#1f81b7" stroke-opacity="0.702" vector-effect="non-scaling-stroke" d="
  M 363.74 133.46
  L 352.77 147.57"
/>
<path stroke="#1e80c4" vector-effect="non-scaling-stroke" d="
  M 361.07 143.62
  L 349.86 173.37"
/>
<path stroke="#1f7cc0" vector-effect="non-scaling-stroke" d="
  M 349.86 173.37
  Q 345.39 183.52 338.97 192.86
  A 1.11 1.10 -41.3 0 1 337.08 192.74
  Q 332.27 183.43 329.17 173.35"
/>
<path stroke="#2081b8" stroke-opacity="0.659" vector-effect="non-scaling-stroke" d="
  M 330.16 172.23
  Q 342.57 160.61 352.77 147.57"
/>
<path stroke="#176bae" stroke-opacity="0.965" vector-effect="non-scaling-stroke" d="
  M 399.07 166.39
  L 396.96 170.30"
/>
<path stroke="#1362a9" vector-effect="non-scaling-stroke" d="
  M 396.96 170.30
  Q 396.48 169.94 396.06 169.87
  Q 395.52 169.79 395.44 170.33
  Q 395.11 172.90 392.27 172.89
  Q 372.13 172.87 352.00 172.88
  Q 351.08 172.88 350.33 173.91
  Q 350.15 174.17 350.13 173.86
  Q 350.10 173.54 349.86 173.37"
/>
<path stroke="#176bae" stroke-opacity="0.965" vector-effect="non-scaling-stroke" d="
  M 391.13 194.88
  Q 391.08 194.27 391.86 193.40
  Q 392.27 192.94 391.65 192.93
  L 384.48 192.75
  Q 383.47 192.72 384.28 192.12
  L 385.34 191.33
  A 0.27 0.27 0.0 0 0 385.06 190.87
  Q 383.22 191.81 381.89 193.38
  A 1.87 1.84 -80.6 0 1 381.19 193.89
  Q 379.17 194.74 378.12 194.20"
/>
<path stroke="#1866aa" stroke-opacity="0.965" vector-effect="non-scaling-stroke" d="
  M 378.12 194.20
  Q 389.33 183.31 396.96 170.30"
/>
<path stroke="#1362a9" vector-effect="non-scaling-stroke" d="
  M 378.12 194.20
  Q 376.80 195.57 375.36 197.15
  Q 373.90 198.74 372.30 199.74
  Q 363.24 205.41 352.96 208.51
  Q 351.73 208.88 350.87 208.35
  Q 342.98 203.56 338.02 195.18
  A 0.50 0.50 0.0 0 0 337.18 195.14
  C 334.37 199.01 331.02 201.61 326.94 204.03
  A 1.22 1.22 0.0 0 0 327.38 206.28
  Q 330.53 206.76 333.39 209.25"
/>
<path stroke="#1362a9" vector-effect="non-scaling-stroke" d="
  M 310.13 209.29
  Q 312.26 208.24 314.89 208.87
  Q 315.40 208.99 315.74 208.58
  Q 317.38 206.57 320.23 206.95
  Q 320.55 206.99 320.75 206.74
  Q 321.65 205.62 322.46 205.77
  A 0.94 0.94 0.0 0 0 323.11 204.03
  Q 314.53 198.99 308.53 190.49"
/>
<path stroke="#1773ba" vector-effect="non-scaling-stroke" d="
  M 328.33 171.76
  C 328.19 172.78 328.13 173.61 327.38 174.40
  Q 321.87 180.25 315.20 185.17"
/>
<path stroke="#2292d6" vector-effect="non-scaling-stroke" d="
  M 323.16 153.88
  L 307.29 154.11
  Q 306.88 154.12 306.49 154.25
  L 305.31 154.65
  Q 305.20 154.68 305.15 154.58
  Q 305.01 154.32 304.91 154.03
  A 0.10 0.10 0.0 0 0 304.72 154.09
  Q 308.69 169.88 315.20 185.17"
/>
<path stroke="#1f7cc0" vector-effect="non-scaling-stroke" d="
  M 315.20 185.17
  L 308.53 190.49"
/>
<path stroke="#1e80c4" vector-effect="non-scaling-stroke" d="
  M 308.53 190.49
  Q 308.62 190.58 308.71 190.67"
/>
<path stroke="#1f7cc0" vector-effect="non-scaling-stroke" d="
  M 308.71 190.67
  C 299.99 179.66 294.02 167.36 288.93 154.37"
/>
<path stroke="#29a4d7" stroke-opacity="0.933" vector-effect="non-scaling-stroke" d="
  M 284.57 81.09
  L 287.67 90.74
  Q 287.72 90.87 287.85 90.87
  Q 288.02 90.87 288.13 90.98
  Q 288.19 91.04 288.17 91.11
  Q 287.76 93.08 289.03 94.42
  Q 289.33 94.74 289.15 95.14
  Q 288.91 95.66 289.22 96.24
  Q 289.55 96.87 289.90 96.25
  Q 290.26 95.61 290.13 94.83
  A 0.60 0.60 0.0 0 1 290.72 94.13
  L 307.00 94.13
  Q 307.56 94.13 307.67 94.68
  Q 307.91 95.94 308.92 95.75"
/>
<path stroke="#2da2e1" vector-effect="non-scaling-stroke" d="
  M 317.92 132.65
  L 300.70 133.02
  Q 299.44 133.05 299.08 131.84
  L 298.11 128.50
  Q 297.93 127.90 297.34 128.10
  Q 297.18 128.15 297.00 128.12
  Q 296.49 128.03 296.48 128.00
  L 296.35 127.46
  Q 296.26 127.09 295.87 127.10
  L 279.60 127.57"
/>
<path stroke="#2188ca" vector-effect="non-scaling-stroke" d="
  M 279.60 127.57
  L 278.85 125.39"
/>
<path stroke="#2292d2" vector-effect="non-scaling-stroke" d="
  M 278.85 125.39
  L 272.74 105.89"
/>
<path stroke="#249adb" vector-effect="non-scaling-stroke" d="
  M 272.74 105.89
  L 264.94 82.06"
/>
<path stroke="#1362a9" vector-effect="non-scaling-stroke" d="
  M 308.71 190.67
  Q 297.60 198.69 284.54 204.10
  Q 282.16 205.08 284.44 206.27
  Q 287.87 208.06 292.95 209.28"
/>
<path stroke="#1773ba" vector-effect="non-scaling-stroke" d="
  M 264.96 209.37
  Q 265.72 209.05 265.89 208.12"
/>
<path stroke="#0f558f" stroke-opacity="0.702" vector-effect="non-scaling-stroke" d="
  M 265.89 208.12
  L 269.31 208.17"
/>
<path stroke="#1e80c4" vector-effect="non-scaling-stroke" d="
  M 279.60 127.57
  L 288.93 154.37"
/>
<path stroke="#1362a9" vector-effect="non-scaling-stroke" d="
  M 288.93 154.37
  Q 288.63 155.34 289.25 156.58
  Q 289.49 157.07 288.95 157.13
  L 288.37 157.20
  A 0.35 0.35 0.0 0 0 288.07 157.65
  Q 288.53 159.13 287.25 159.13
  Q 266.38 159.11 245.49 159.13
  Q 244.77 159.13 243.12 157.48"
/>
<path stroke="#1781c7" vector-effect="non-scaling-stroke" d="
  M 272.74 105.89
  Q 272.53 107.68 272.93 108.94
  A 1.47 1.47 0.0 0 1 271.53 110.86
  L 226.01 110.89
  Q 225.51 110.89 225.45 111.38
  Q 225.30 112.51 224.87 112.34"
/>
<path stroke="#249adb" vector-effect="non-scaling-stroke" d="
  M 224.87 112.34
  L 214.33 85.17"
/>
<path stroke="#218ac7" stroke-opacity="0.902" vector-effect="non-scaling-stroke" d="
  M 278.68 64.43
  L 280.61 69.57"
/>
<path stroke="#2da2e1" vector-effect="non-scaling-stroke" d="
  M 280.61 69.57
  Q 270.79 68.06 260.34 69.37"
/>
<path stroke="#1470b5" vector-effect="non-scaling-stroke" d="
  M 278.85 125.39
  L 278.70 129.27
  Q 278.68 129.87 278.08 129.87
  L 232.61 130.14
  Q 232.20 130.14 232.10 129.74
  Q 231.82 128.54 230.92 128.22"
/>
<path stroke="#208acc" vector-effect="non-scaling-stroke" d="
  M 254.45 55.75
  L 260.34 69.37"
/>
<path stroke="#2292d2" vector-effect="non-scaling-stroke" d="
  M 260.34 69.37
  L 264.94 82.06"
/>
<path stroke="#1781c7" vector-effect="non-scaling-stroke" d="
  M 264.94 82.06
  L 213.97 82.16
  Q 213.75 82.16 213.74 81.94
  L 213.72 81.34
  Q 213.71 81.01 213.42 80.82
  Q 212.93 80.50 212.52 80.87"
/>
<path stroke="#2392cd" stroke-opacity="0.902" vector-effect="non-scaling-stroke" d="
  M 284.57 81.09
  L 280.61 69.57"
/>
<path stroke="#1274af" stroke-opacity="0.702" vector-effect="non-scaling-stroke" d="
  M 267.02 207.39
  Q 266.58 208.04 265.89 208.12"
/>
<path stroke="#2292d2" vector-effect="non-scaling-stroke" d="
  M 224.87 112.34
  L 230.92 128.22"
/>
<path stroke="#2188ca" vector-effect="non-scaling-stroke" d="
  M 230.92 128.22
  L 243.12 157.48"
/>
<path stroke="#2284c5" vector-effect="non-scaling-stroke" d="
  M 243.12 157.48
  C 250.93 174.98 261.93 193.64 279.45 204.50
  A 0.62 0.61 53.9 0 1 279.28 205.62
  L 269.31 208.17"
/>
<path stroke="#228cbf" stroke-opacity="0.702" vector-effect="non-scaling-stroke" d="
  M 269.31 208.17
  Q 268.27 207.53 267.02 207.39"
/>
<path stroke="#249adb" vector-effect="non-scaling-stroke" d="
  M 267.02 207.39
  C 251.23 201.53 241.88 189.29 234.09 174.62"
/>
<path stroke="#2da2e1" vector-effect="non-scaling-stroke" d="
  M 234.09 174.62
  L 230.13 166.71
  Q 229.97 166.39 229.97 166.02
  Q 229.96 165.78 229.83 165.58
  Q 229.40 164.92 229.37 165.76
  Q 229.36 166.00 229.51 166.23
  A 0.43 0.43 0.0 0 1 229.14 166.89
  L 211.74 166.89
  Q 211.46 166.89 211.30 166.65
  L 211.14 166.41
  Q 210.96 166.13 210.71 166.34
  L 210.16 166.77"
/>
<path stroke="#208acc" vector-effect="non-scaling-stroke" d="
  M 196.86 49.34
  Q 205.78 64.56 212.52 80.87"
/>
<path stroke="#2292d6" vector-effect="non-scaling-stroke" d="
  M 212.52 80.87
  L 214.33 85.17"
/>
<path stroke="#2da2e1" vector-effect="non-scaling-stroke" d="
  M 214.33 85.17
  Q 212.84 84.82 212.82 83.34
  A 0.56 0.55 87.1 0 0 212.22 82.79
  Q 205.87 83.32 200.92 82.11"
/>
<path stroke="#42afe6" vector-effect="non-scaling-stroke" d="
  M 200.92 82.11
  L 195.89 68.74"
/>
<path stroke="#2da2e1" vector-effect="non-scaling-stroke" d="
  M 195.89 68.74
  Q 191.75 58.19 185.55 46.98"
/>
<path stroke="#2b8bc2" stroke-opacity="0.863" vector-effect="non-scaling-stroke" d="
  M 278.68 64.43
  L 274.43 54.84"
/>
<path stroke="#2181bb" stroke-opacity="0.863" vector-effect="non-scaling-stroke" d="
  M 263.43 36.14
  Q 270.18 45.54 274.43 54.84"
/>
<path stroke="#2292d6" vector-effect="non-scaling-stroke" d="
  M 274.43 54.84
  Q 265.80 53.18 254.98 53.94
  A 0.69 0.69 0.0 0 0 254.34 54.70
  L 254.45 55.75"
/>
<path stroke="#1781c7" vector-effect="non-scaling-stroke" d="
  M 254.45 55.75
  L 249.72 46.96"
/>
<path stroke="#1678bf" vector-effect="non-scaling-stroke" d="
  M 249.72 46.96
  Q 241.71 31.14 226.53 21.13"
/>
<path stroke="#1470b5" vector-effect="non-scaling-stroke" d="
  M 249.72 46.96
  Q 249.69 48.11 250.57 49.47
  Q 251.00 50.13 250.21 50.13
  L 199.73 50.12
  Q 199.30 50.12 199.20 50.53
  L 199.03 51.20
  A 0.28 0.28 0.0 0 1 198.47 51.14
  Q 198.40 48.60 196.86 49.34"
/>
<path stroke="#1e80c4" vector-effect="non-scaling-stroke" d="
  M 196.86 49.34
  L 191.26 41.84"
/>
<path stroke="#2292d6" vector-effect="non-scaling-stroke" d="
  M 234.09 174.62
  L 234.79 177.43
  Q 234.96 178.12 234.25 178.12
  L 217.83 178.12
  Q 217.37 178.12 217.05 178.44
  L 216.72 178.78
  Q 216.54 178.96 216.47 178.71
  L 216.37 178.30
  Q 216.31 178.09 216.12 178.18
  Q 215.89 178.27 215.68 178.28"
/>
<path stroke="#45b7eb" vector-effect="non-scaling-stroke" d="
  M 200.92 82.11
  Q 208.27 103.51 213.63 121.50
  Q 214.04 122.88 214.07 124.74
  Q 214.08 125.30 213.52 125.26
  Q 205.25 124.69 197.09 125.69"
/>
<path stroke="#1773ba" vector-effect="non-scaling-stroke" d="
  M 236.34 17.92
  L 226.53 21.13"
/>
<path stroke="#1362a9" vector-effect="non-scaling-stroke" d="
  M 226.53 21.13
  Q 213.34 25.18 202.66 33.94
  Q 202.29 34.25 201.81 34.37
  Q 200.95 34.60 199.45 35.69
  Q 194.75 39.12 191.26 41.84"
/>
<path stroke="#1f7cc0" vector-effect="non-scaling-stroke" d="
  M 191.26 41.84
  L 185.21 47.18"
/>
<path stroke="#389fd7" vector-effect="non-scaling-stroke" d="
  M 149.78 16.52
  Q 166.98 21.42 177.38 34.71"
/>
<path stroke="#156bb1" vector-effect="non-scaling-stroke" d="
  M 177.38 34.71
  L 184.21 44.91
  Q 184.42 45.22 184.69 45.46
  Q 184.96 45.70 185.21 45.96
  Q 185.48 46.23 185.37 46.60
  L 185.21 47.18"
/>
<path stroke="#208acc" vector-effect="non-scaling-stroke" d="
  M 185.21 47.18
  Q 185.38 47.08 185.55 46.98"
/>
<path stroke="#2292d2" vector-effect="non-scaling-stroke" d="
  M 185.55 46.98
  L 179.38 52.66"
/>
<path stroke="#1b89c1" stroke-opacity="0.933" vector-effect="non-scaling-stroke" d="
  M 178.53 52.68
  L 172.84 37.74
  A 0.24 0.24 0.0 0 0 172.38 37.82
  L 172.38 38.27
  Q 172.38 38.76 172.00 39.08
  L 163.54 46.18"
/>
<path stroke="#1f78b0" stroke-opacity="0.863" vector-effect="non-scaling-stroke" d="
  M 163.54 46.18
  L 159.56 49.31
  A 0.52 0.52 0.0 0 1 158.72 48.85
  L 158.78 48.27
  A 0.13 0.13 0.0 0 0 158.57 48.16
  Q 158.17 48.51 158.28 48.90
  Q 158.41 49.36 158.17 49.77
  L 156.92 51.98"
/>
<path stroke="#1b89c1" stroke-opacity="0.933" vector-effect="non-scaling-stroke" d="
  M 156.92 51.98
  L 155.48 53.82"
/>
<path stroke="#389fd7" vector-effect="non-scaling-stroke" d="
  M 155.48 53.82
  Q 142.84 66.01 131.11 81.00"
/>
<path stroke="#2292d2" vector-effect="non-scaling-stroke" d="
  M 131.11 81.00
  L 125.94 87.39"
/>
<path stroke="#1470b5" vector-effect="non-scaling-stroke" d="
  M 125.94 87.39
  Q 124.43 87.00 122.72 88.05
  Q 120.42 89.46 118.34 89.03
  Q 117.88 88.94 117.50 89.20
  Q 115.32 90.72 112.49 89.94
  A 0.86 0.85 34.7 0 0 111.74 90.07
  Q 109.43 91.74 106.47 90.94
  A 1.15 1.12 -58.5 0 0 105.39 91.21
  Q 103.80 92.67 101.51 91.97
  Q 100.99 91.80 100.56 92.14
  Q 98.49 93.73 95.75 92.90
  A 1.16 1.15 -54.5 0 0 94.75 93.07
  Q 92.44 94.74 89.47 93.94
  A 1.17 1.16 -58.7 0 0 88.39 94.21
  Q 86.80 95.67 84.51 94.97
  Q 83.99 94.80 83.56 95.14
  Q 81.50 96.72 78.78 95.91
  A 1.13 1.10 36.1 0 0 77.87 96.04
  Q 75.24 97.76 71.99 96.94
  A 0.78 0.77 -74.1 0 0 71.05 97.47
  Q 70.85 98.16 70.19 98.06
  Q 69.66 97.97 69.61 97.44
  Q 69.58 97.16 69.62 96.85
  Q 69.63 96.81 69.61 96.86
  Q 69.58 96.94 69.53 96.98
  Q 69.33 97.14 69.35 96.79
  Q 69.38 96.35 69.10 96.11"
/>
<path stroke="#208acc" vector-effect="non-scaling-stroke" d="
  M 69.10 96.11
  Q 79.77 74.87 92.78 55.02
  Q 100.07 43.89 108.97 34.72"
/>
<path stroke="#1577b6" stroke-opacity="0.902" vector-effect="non-scaling-stroke" d="
  M 108.97 34.72
  L 114.97 30.15"
/>
<path stroke="#1671ac" stroke-opacity="0.831" vector-effect="non-scaling-stroke" d="
  M 114.97 30.15
  L 120.01 26.14"
/>
<path stroke="#0f6ea7" stroke-opacity="0.776" vector-effect="non-scaling-stroke" d="
  M 120.01 26.14
  L 125.85 22.69"
/>
<path stroke="#1577b6" stroke-opacity="0.902" vector-effect="non-scaling-stroke" d="
  M 125.85 22.69
  Q 131.62 19.68 137.95 17.80
  Q 138.50 17.64 137.88 16.39"
/>
<path stroke="#45b7eb" vector-effect="non-scaling-stroke" d="
  M 195.89 68.74
  Q 191.04 67.58 184.80 68.21
  Q 184.34 68.25 184.22 68.69
  Q 183.98 69.57 183.51 69.75"
/>
<path stroke="#1178b3" stroke-opacity="0.776" vector-effect="non-scaling-stroke" d="
  M 263.43 36.14
  Q 254.32 23.23 239.75 18.05
  Q 238.74 17.69 236.34 17.92"
/>
<path stroke="#0e5c97" stroke-opacity="0.776" vector-effect="non-scaling-stroke" d="
  M 236.34 17.92
  Q 238.85 16.66 238.44 16.18"
/>
<path stroke="#3791ca" vector-effect="non-scaling-stroke" d="
  M 220.75 16.41
  Q 200.53 19.70 183.55 30.95
  Q 183.25 31.14 182.97 30.93
  L 182.74 30.75
  A 0.20 0.20 0.0 0 0 182.44 31.00
  Q 182.50 31.13 182.56 31.25
  Q 182.69 31.52 182.44 31.68
  L 177.38 34.71"
/>
<path stroke="#1e80c4" vector-effect="non-scaling-stroke" d="
  M 101.27 123.12
  L 91.71 138.67"
/>
<path stroke="#1678bf" vector-effect="non-scaling-stroke" d="
  M 91.71 138.67
  L 86.63 147.18"
/>
<path stroke="#1362a9" vector-effect="non-scaling-stroke" d="
  M 86.63 147.18
  Q 86.60 146.09 86.45 145.55
  Q 86.31 145.02 85.29 144.84
  Q 83.29 144.47 81.74 145.63
  Q 81.40 145.89 80.97 145.89
  L 76.52 145.89
  A 0.45 0.44 15.7 0 0 76.14 146.10
  L 75.86 146.53
  Q 75.63 146.89 75.20 146.89
  L 70.53 146.89
  Q 70.20 146.89 70.05 147.18
  Q 69.98 147.32 69.92 147.46
  Q 69.73 147.89 69.26 147.89
  L 65.53 147.89
  Q 65.20 147.89 65.05 148.18
  Q 64.98 148.32 64.92 148.46
  Q 64.73 148.89 64.26 148.89
  L 59.53 148.89
  Q 59.20 148.89 59.05 149.18
  Q 58.98 149.32 58.92 149.46
  Q 58.73 149.89 58.26 149.89
  L 53.53 149.89
  Q 53.20 149.89 53.05 150.18
  Q 52.98 150.32 52.92 150.46
  Q 52.73 150.89 52.26 150.89
  L 48.53 150.89
  Q 48.20 150.89 48.05 151.18
  Q 47.98 151.31 47.92 151.45
  Q 47.73 151.89 47.26 151.89
  L 42.67 151.89
  A 0.87 0.84 -71.4 0 0 41.98 152.25
  L 40.19 154.70
  Q 39.95 155.03 39.99 154.62
  L 40.17 152.87"
/>
<path stroke="#2e95c8" stroke-opacity="0.863" vector-effect="non-scaling-stroke" d="
  M 145.60 81.32
  L 144.76 84.30"
/>
<path stroke="#2392cd" stroke-opacity="0.902" vector-effect="non-scaling-stroke" d="
  M 139.17 101.23
  Q 130.55 112.30 123.69 123.75"
/>
<path stroke="#2da2e1" vector-effect="non-scaling-stroke" d="
  M 123.69 123.75
  L 123.11 124.05
  A 0.32 0.32 0.0 0 1 122.65 123.76
  Q 122.66 123.63 122.66 123.49
  Q 122.66 123.38 122.55 123.38
  L 101.27 123.12"
/>
<path stroke="#2188ca" vector-effect="non-scaling-stroke" d="
  M 101.27 123.12
  Q 113.17 104.13 125.94 87.39"
/>
<path stroke="#1e80c4" vector-effect="non-scaling-stroke" d="
  M 69.10 96.11
  L 40.17 152.87"
/>
<path stroke="#1f7cc0" vector-effect="non-scaling-stroke" d="
  M 40.17 152.87
  L 33.76 164.51"
/>
<path stroke="#1f81b7" stroke-opacity="0.702" vector-effect="non-scaling-stroke" d="
  M 33.76 164.51
  L 41.44 138.70"
/>
<path stroke="#1d81b8" stroke-opacity="0.741" vector-effect="non-scaling-stroke" d="
  M 41.44 138.70
  L 53.04 110.26"
/>
<path stroke="#1c83ba" stroke-opacity="0.776" vector-effect="non-scaling-stroke" d="
  M 53.04 110.26
  Q 62.16 90.11 74.54 71.72"
/>
<path stroke="#2285be" stroke-opacity="0.831" vector-effect="non-scaling-stroke" d="
  M 74.54 71.72
  Q 87.95 51.62 106.26 35.42"
/>
<path stroke="#3ba1d3" stroke-opacity="0.902" vector-effect="non-scaling-stroke" d="
  M 156.08 54.25
  Q 149.92 67.69 145.74 81.52"
/>
<path stroke="#47a4ce" stroke-opacity="0.863" vector-effect="non-scaling-stroke" d="
  M 145.74 81.52
  Q 145.67 81.42 145.60 81.32"
/>
<path stroke="#45b7eb" vector-effect="non-scaling-stroke" d="
  M 145.60 81.32
  L 131.11 81.00"
/>
<path stroke="#40b1dc" stroke-opacity="0.933" vector-effect="non-scaling-stroke" d="
  M 156.08 54.25
  L 155.48 53.82"
/>
<path stroke="#218ac7" stroke-opacity="0.902" vector-effect="non-scaling-stroke" d="
  M 108.97 34.72
  Q 110.88 33.34 111.24 32.15
  Q 111.48 31.32 110.80 31.85
  L 106.26 35.42"
/>
<path stroke="#1362a9" vector-effect="non-scaling-stroke" d="
  M 73.96 170.28
  Q 63.50 190.14 53.95 210.44
  Q 53.92 210.50 53.18 211.73
  Q 52.30 213.19 53.68 214.25"
/>
<path stroke="#1f7cc0" vector-effect="non-scaling-stroke" d="
  M 23.60 214.49
  Q 26.43 192.25 31.81 170.15"
/>
<path stroke="#2285be" stroke-opacity="0.831" vector-effect="non-scaling-stroke" d="
  M 118.48 131.93
  L 113.71 139.71"
/>
<path stroke="#2292d6" vector-effect="non-scaling-stroke" d="
  M 113.71 139.71
  Q 113.34 139.58 113.06 139.63
  Q 112.77 139.69 112.61 140.02
  Q 112.49 140.26 112.43 140.52
  Q 112.34 140.88 111.98 140.88
  L 92.01 140.88
  Q 91.55 140.88 91.69 140.44
  Q 91.97 139.51 91.71 138.67"
/>
<path stroke="#2292d6" vector-effect="non-scaling-stroke" d="
  M 97.88 167.02
  L 94.14 174.08"
/>
<path stroke="#1678bf" vector-effect="non-scaling-stroke" d="
  M 94.14 174.08
  L 73.73 174.12
  Q 73.21 174.12 73.20 173.60
  Q 73.16 172.01 73.96 170.28"
/>
<path stroke="#1773ba" vector-effect="non-scaling-stroke" d="
  M 73.96 170.28
  L 86.63 147.18"
/>
<path stroke="#218ac7" stroke-opacity="0.902" vector-effect="non-scaling-stroke" d="
  M 118.48 131.93
  L 123.69 123.75"
/>
<path stroke="#2392cd" stroke-opacity="0.902" vector-effect="non-scaling-stroke" d="
  M 140.17 99.43
  L 144.76 84.30"
/>
<path stroke="#0f558f" stroke-opacity="0.702" vector-effect="non-scaling-stroke" d="
  M 33.76 164.51
  Q 33.40 167.83 31.81 170.15"
/>
<path stroke="#1f81b7" stroke-opacity="0.702" vector-effect="non-scaling-stroke" d="
  M 31.81 170.15
  L 23.33 185.58"
/>
<path stroke="#187bb7" stroke-opacity="0.831" vector-effect="non-scaling-stroke" d="
  M 108.96 147.96
  L 113.71 139.71"
/>
<path stroke="#1893d2" stroke-opacity="0.933" vector-effect="non-scaling-stroke" d="
  M 118.69 166.96
  Q 118.38 167.26 118.12 167.08
  Q 117.67 166.78 117.99 166.35
  L 118.38 165.80
  Q 118.88 165.12 118.04 165.12
  L 101.21 165.12
  Q 100.62 165.12 100.29 165.61
  Q 99.12 167.40 97.88 167.02"
/>
<path stroke="#0f8acc" stroke-opacity="0.933" vector-effect="non-scaling-stroke" d="
  M 97.88 167.02
  L 108.96 147.96"
/>
<path stroke="#1e80c4" vector-effect="non-scaling-stroke" d="
  M 57.40 213.68
  Q 74.28 207.88 83.07 194.00
  Q 87.30 187.32 94.14 174.08"
/>
<path stroke="#2081b8" stroke-opacity="0.659" vector-effect="non-scaling-stroke" d="
  M 23.33 185.58
  L 7.61 214.52"
/>
</g>
<path fill="#1989d0" d="
  M 478.33 12.10
  L 462.09 41.95
  L 448.69 68.02
  L 435.95 93.80
  L 420.21 126.20
  Q 419.07 126.69 418.80 127.64
  Q 418.73 127.88 418.48 127.88
  L 368.51 127.88
  A 0.42 0.42 0.0 0 0 368.12 128.46
  Q 368.21 128.70 368.00 128.62
  Q 367.74 128.53 367.75 128.50
  Q 367.82 128.35 367.89 128.21
  A 0.17 0.17 0.0 0 0 367.69 127.97
  Q 367.02 128.19 366.70 127.97
  L 366.95 127.18
  L 367.47 127.13
  A 1.00 1.00 0.0 0 0 368.18 126.71
  Q 377.14 114.06 380.94 108.08
  Q 408.96 63.91 430.90 16.25
  L 432.80 12.23
  L 478.33 12.10
  Z"
/>
<path fill="#02415c" fill-opacity="0.400" d="
  M 483.14 12.08
  L 481.01 20.91
  A 1.86 1.86 0.0 0 0 482.78 23.20
  L 503.98 23.57
  L 489.47 49.48
  L 474.44 49.18
  Q 474.07 49.18 473.76 49.38
  L 472.37 50.33
  Q 472.12 50.50 472.16 50.80
  Q 472.30 51.84 471.36 52.15
  Q 470.84 52.32 470.96 51.79
  L 472.62 44.58
  A 0.53 0.53 0.0 0 0 471.99 43.94
  Q 468.96 44.59 466.43 43.21
  Q 465.97 42.96 465.46 43.01
  Q 463.38 43.21 462.09 41.95
  L 478.33 12.10
  L 483.14 12.08
  Z"
/>
<path fill="#023349" fill-opacity="0.318" d="
  M 483.14 12.08
  L 509.75 12.11
  Q 510.42 12.11 510.09 12.69
  L 503.98 23.57
  L 482.78 23.20
  A 1.86 1.86 0.0 0 1 481.01 20.91
  L 483.14 12.08
  Z"
/>
<path fill="#2faae6" d="
  M 432.80 12.23
  L 430.90 16.25
  Q 417.90 20.23 408.33 28.63
  Q 408.12 28.71 407.94 28.74
  Q 407.39 28.84 407.38 28.28
  Q 407.38 28.15 407.37 28.02
  Q 407.35 27.87 407.21 27.87
  L 390.51 27.87
  A 0.27 0.27 0.0 0 1 390.36 27.37
  L 390.84 27.06
  A 0.51 0.51 0.0 0 0 390.94 26.29
  L 390.61 25.92
  C 403.05 17.03 417.53 13.28 432.80 12.23
  Z"
/>
<path fill="#03597f" fill-opacity="0.553" d="
  M 283.63 35.12
  L 265.21 35.11
  Q 264.77 35.11 264.50 35.47
  Q 264.20 35.87 263.43 36.14
  Q 254.32 23.23 239.75 18.05
  Q 238.74 17.69 236.34 17.92
  Q 238.85 16.66 238.44 16.18
  Q 248.45 16.00 253.63 16.62
  Q 271.97 18.83 283.63 35.12
  Z"
/>
<path fill="#1579bd" d="
  M 149.78 16.52
  Q 166.98 21.42 177.38 34.71
  L 184.21 44.91
  Q 184.42 45.22 184.69 45.46
  Q 184.96 45.70 185.21 45.96
  Q 185.48 46.23 185.37 46.60
  L 185.21 47.18
  Q 185.38 47.08 185.55 46.98
  L 179.38 52.66
  Q 179.14 52.35 178.53 52.68
  L 172.84 37.74
  A 0.24 0.24 0.0 0 0 172.38 37.82
  L 172.38 38.27
  Q 172.38 38.76 172.00 39.08
  L 163.54 46.18
  L 159.56 49.31
  A 0.52 0.52 0.0 0 1 158.72 48.85
  L 158.78 48.27
  A 0.13 0.13 0.0 0 0 158.57 48.16
  Q 158.17 48.51 158.28 48.90
  Q 158.41 49.36 158.17 49.77
  L 156.92 51.98
  L 155.48 53.82
  Q 142.84 66.01 131.11 81.00
  L 125.94 87.39
  Q 124.43 87.00 122.72 88.05
  Q 120.42 89.46 118.34 89.03
  Q 117.88 88.94 117.50 89.20
  Q 115.32 90.72 112.49 89.94
  A 0.86 0.85 34.7 0 0 111.74 90.07
  Q 109.43 91.74 106.47 90.94
  A 1.15 1.12 -58.5 0 0 105.39 91.21
  Q 103.80 92.67 101.51 91.97
  Q 100.99 91.80 100.56 92.14
  Q 98.49 93.73 95.75 92.90
  A 1.16 1.15 -54.5 0 0 94.75 93.07
  Q 92.44 94.74 89.47 93.94
  A 1.17 1.16 -58.7 0 0 88.39 94.21
  Q 86.80 95.67 84.51 94.97
  Q 83.99 94.80 83.56 95.14
  Q 81.50 96.72 78.78 95.91
  A 1.13 1.10 36.1 0 0 77.87 96.04
  Q 75.24 97.76 71.99 96.94
  A 0.78 0.77 -74.1 0 0 71.05 97.47
  Q 70.85 98.16 70.19 98.06
  Q 69.66 97.97 69.61 97.44
  Q 69.58 97.16 69.62 96.85
  Q 69.63 96.81 69.61 96.86
  Q 69.58 96.94 69.53 96.98
  Q 69.33 97.14 69.35 96.79
  Q 69.38 96.35 69.10 96.11
  Q 79.77 74.87 92.78 55.02
  Q 100.07 43.89 108.97 34.72
  L 114.97 30.15
  L 120.01 26.14
  L 125.85 22.69
  Q 131.62 19.68 137.95 17.80
  Q 138.50 17.64 137.88 16.39
  L 149.78 16.52
  Z"
/>
<path fill="#5ac4f0" d="
  M 220.75 16.41
  Q 200.53 19.70 183.55 30.95
  Q 183.25 31.14 182.97 30.93
  L 182.74 30.75
  A 0.20 0.20 0.0 0 0 182.44 31.00
  Q 182.50 31.13 182.56 31.25
  Q 182.69 31.52 182.44 31.68
  L 177.38 34.71
  Q 166.98 21.42 149.78 16.52
  L 220.75 16.41
  Z"
/>
<path fill="#145da4" d="
  M 220.75 16.41
  L 238.44 16.18
  Q 238.85 16.66 236.34 17.92
  L 226.53 21.13
  Q 213.34 25.18 202.66 33.94
  Q 202.29 34.25 201.81 34.37
  Q 200.95 34.60 199.45 35.69
  Q 194.75 39.12 191.26 41.84
  L 185.21 47.18
  L 185.37 46.60
  Q 185.48 46.23 185.21 45.96
  Q 184.96 45.70 184.69 45.46
  Q 184.42 45.22 184.21 44.91
  L 177.38 34.71
  L 182.44 31.68
  Q 182.69 31.52 182.56 31.25
  Q 182.50 31.13 182.44 31.00
  A 0.20 0.20 0.0 0 1 182.74 30.75
  L 182.97 30.93
  Q 183.25 31.14 183.55 30.95
  Q 200.53 19.70 220.75 16.41
  Z"
/>
<path fill="#2a9adb" d="
  M 430.90 16.25
  Q 408.96 63.91 380.94 108.08
  Q 377.14 114.06 368.18 126.71
  A 1.00 1.00 0.0 0 1 367.47 127.13
  L 366.95 127.18
  L 370.78 115.17
  L 381.19 82.27
  L 386.27 66.08
  L 392.27 50.54
  L 396.16 43.23
  Q 401.47 35.56 408.33 28.63
  Q 417.90 20.23 430.90 16.25
  Z"
/>
<path fill="#1575ae" fill-opacity="0.804" d="
  M 137.88 16.39
  Q 138.50 17.64 137.95 17.80
  Q 131.62 19.68 125.85 22.69
  Q 122.55 23.35 119.83 25.65
  Q 115.66 27.15 114.97 30.15
  L 108.97 34.72
  Q 110.88 33.34 111.24 32.15
  Q 111.48 31.32 110.80 31.85
  L 106.26 35.42
  L 98.96 41.06
  A 0.89 0.89 0.0 0 1 97.57 40.10
  Q 98.18 38.11 96.19 38.15
  C 108.05 27.53 121.85 18.54 137.88 16.39
  Z"
/>
<path fill="#1989d0" d="
  M 236.34 17.92
  Q 238.74 17.69 239.75 18.05
  Q 254.32 23.23 263.43 36.14
  Q 270.18 45.54 274.43 54.84
  Q 265.80 53.18 254.98 53.94
  A 0.69 0.69 0.0 0 0 254.34 54.70
  L 254.45 55.75
  L 249.72 46.96
  Q 241.71 31.14 226.53 21.13
  L 236.34 17.92
  Z"
/>
<path fill="#1266ad" d="
  M 226.53 21.13
  Q 241.71 31.14 249.72 46.96
  Q 249.69 48.11 250.57 49.47
  Q 251.00 50.13 250.21 50.13
  L 199.73 50.12
  Q 199.30 50.12 199.20 50.53
  L 199.03 51.20
  A 0.28 0.28 0.0 0 1 198.47 51.14
  Q 198.40 48.60 196.86 49.34
  L 191.26 41.84
  Q 194.75 39.12 199.45 35.69
  Q 200.95 34.60 201.81 34.37
  Q 202.29 34.25 202.66 33.94
  Q 213.34 25.18 226.53 21.13
  Z"
/>
<path fill="#03597f" fill-opacity="0.553" d="
  M 125.85 22.69
  L 120.01 26.14
  Q 119.19 25.43 119.83 25.65
  Q 122.55 23.35 125.85 22.69
  Z"
/>
<path fill="#176592" fill-opacity="0.663" d="
  M 119.83 25.65
  Q 119.19 25.43 120.01 26.14
  L 114.97 30.15
  Q 115.66 27.15 119.83 25.65
  Z"
/>
<path fill="#229cc5" fill-opacity="0.863" d="
  M 390.61 25.92
  L 390.94 26.29
  A 0.51 0.51 0.0 0 1 390.84 27.06
  L 390.36 27.37
  A 0.27 0.27 0.0 0 0 390.51 27.87
  L 407.21 27.87
  Q 407.35 27.87 407.37 28.02
  Q 407.38 28.15 407.38 28.28
  Q 407.39 28.84 407.94 28.74
  Q 408.12 28.71 408.33 28.63
  Q 401.47 35.56 396.16 43.23
  L 391.93 50.03
  L 387.67 57.64
  Q 387.43 58.06 386.95 58.05
  L 367.73 57.68
  Q 375.14 37.59 390.61 25.92
  Z"
/>
<path fill="#2a9adb" d="
  M 108.97 34.72
  Q 100.07 43.89 92.78 55.02
  Q 79.77 74.87 69.10 96.11
  L 40.17 152.87
  L 33.76 164.51
  L 41.44 138.70
  L 53.04 110.26
  Q 62.16 90.11 74.54 71.72
  Q 87.95 51.62 106.26 35.42
  L 110.80 31.85
  Q 111.48 31.32 111.24 32.15
  Q 110.88 33.34 108.97 34.72
  Z"
/>
<path fill="#2d779f" fill-opacity="0.722" d="
  M 283.63 35.12
  Q 291.50 45.53 296.75 58.67
  L 277.50 58.46
  A 0.58 0.58 0.0 0 0 277.08 59.45
  Q 278.87 61.28 278.68 64.43
  L 274.43 54.84
  Q 270.18 45.54 263.43 36.14
  Q 264.20 35.87 264.50 35.47
  Q 264.77 35.11 265.21 35.11
  L 283.63 35.12
  Z"
/>
<path fill="#176592" fill-opacity="0.663" d="
  M 106.26 35.42
  Q 87.95 51.62 74.54 71.72
  Q 72.84 71.48 72.58 72.36
  A 0.35 0.35 0.0 0 1 71.89 72.26
  L 71.89 67.02
  Q 71.89 66.58 71.52 66.82
  Q 70.73 67.33 70.02 66.98
  Q 81.78 51.20 96.19 38.15
  Q 98.18 38.11 97.57 40.10
  A 0.89 0.89 0.0 0 0 98.96 41.06
  L 106.26 35.42
  Z"
/>
<path fill="#229cc5" fill-opacity="0.863" d="
  M 178.53 52.68
  Q 179.03 52.49 178.61 53.26
  Q 178.49 53.48 178.28 53.69
  Q 164.38 67.81 152.17 83.50
  L 152.13 83.24
  Q 152.10 82.97 151.83 82.93
  L 151.06 82.82
  A 0.23 0.22 4.5 0 1 150.87 82.60
  L 150.87 71.51
  Q 150.87 71.02 151.07 70.58
  Q 151.64 69.32 151.25 68.01
  Q 151.13 67.60 151.50 67.39
  Q 151.95 67.13 152.06 66.86
  Q 154.67 60.81 156.08 54.25
  L 155.48 53.82
  L 156.92 51.98
  L 163.54 46.18
  L 172.00 39.08
  Q 172.38 38.76 172.38 38.27
  L 172.38 37.82
  A 0.24 0.24 0.0 0 1 172.84 37.74
  L 178.53 52.68
  Z"
/>
<path fill="#2a9adb" d="
  M 196.86 49.34
  Q 205.78 64.56 212.52 80.87
  L 214.33 85.17
  Q 212.84 84.82 212.82 83.34
  A 0.56 0.55 87.1 0 0 212.22 82.79
  Q 205.87 83.32 200.92 82.11
  L 195.89 68.74
  Q 191.75 58.19 185.55 46.98
  Q 185.38 47.08 185.21 47.18
  L 191.26 41.84
  L 196.86 49.34
  Z"
/>
<path fill="#024d6e" fill-opacity="0.478" d="
  M 462.09 41.95
  Q 463.38 43.21 465.46 43.01
  Q 465.97 42.96 466.43 43.21
  Q 468.96 44.59 471.99 43.94
  A 0.53 0.53 0.0 0 1 472.62 44.58
  L 470.96 51.79
  Q 470.84 52.32 471.36 52.15
  Q 472.30 51.84 472.16 50.80
  Q 472.12 50.50 472.37 50.33
  L 473.76 49.38
  Q 474.07 49.18 474.44 49.18
  L 489.47 49.48
  L 477.73 70.13
  Q 472.16 68.36 465.75 69.34
  Q 465.37 69.39 465.37 69.78
  L 465.37 70.50
  Q 465.37 71.15 464.72 71.09
  Q 464.24 71.04 464.17 71.51
  Q 463.89 73.25 462.47 75.00
  A 0.31 0.31 0.0 0 1 461.94 74.70
  L 463.39 70.53
  A 1.34 1.33 -61.0 0 0 462.97 69.05
  Q 460.74 67.23 457.80 67.99
  A 0.53 0.53 0.0 0 1 457.18 67.67
  Q 456.82 66.72 455.75 66.83
  Q 453.03 67.11 450.67 66.58
  Q 450.20 66.48 450.12 66.95
  Q 449.86 68.49 448.69 68.02
  L 462.09 41.95
  Z"
/>
<path fill="#176592" fill-opacity="0.663" d="
  M 396.16 43.23
  L 392.27 50.54
  L 391.93 50.03
  L 396.16 43.23
  Z"
/>
<path fill="#2d779f" fill-opacity="0.722" d="
  M 163.54 46.18
  L 156.92 51.98
  L 158.17 49.77
  Q 158.41 49.36 158.28 48.90
  Q 158.17 48.51 158.57 48.16
  A 0.13 0.13 0.0 0 1 158.78 48.27
  L 158.72 48.85
  A 0.52 0.52 0.0 0 0 159.56 49.31
  L 163.54 46.18
  Z"
/>
<path fill="#1579bd" d="
  M 249.72 46.96
  L 254.45 55.75
  L 260.34 69.37
  L 264.94 82.06
  L 213.97 82.16
  Q 213.75 82.16 213.74 81.94
  L 213.72 81.34
  Q 213.71 81.01 213.42 80.82
  Q 212.93 80.50 212.52 80.87
  Q 205.78 64.56 196.86 49.34
  Q 198.40 48.60 198.47 51.14
  A 0.28 0.28 0.0 0 0 199.03 51.20
  L 199.20 50.53
  Q 199.30 50.12 199.73 50.12
  L 250.21 50.13
  Q 251.00 50.13 250.57 49.47
  Q 249.69 48.11 249.72 46.96
  Z"
/>
<path fill="#2faae6" d="
  M 185.55 46.98
  Q 191.75 58.19 195.89 68.74
  Q 191.04 67.58 184.80 68.21
  Q 184.34 68.25 184.22 68.69
  Q 183.98 69.57 183.51 69.75
  Q 180.38 59.38 178.87 53.75
  Q 178.64 52.89 179.38 52.66
  L 185.55 46.98
  Z"
/>
<path fill="#1575ae" fill-opacity="0.804" d="
  M 391.93 50.03
  L 392.27 50.54
  L 386.27 66.08
  Q 385.38 65.61 384.85 66.09
  A 0.75 0.72 -22.6 0 0 384.62 66.62
  L 384.62 67.47
  A 0.42 0.42 0.0 0 1 384.20 67.89
  L 364.16 67.95
  L 367.73 57.68
  L 386.95 58.05
  Q 387.43 58.06 387.67 57.64
  L 391.93 50.03
  Z"
/>
<path fill="#5ac4f0" d="
  M 155.48 53.82
  L 156.08 54.25
  Q 149.92 67.69 145.74 81.52
  Q 145.67 81.42 145.60 81.32
  L 131.11 81.00
  Q 142.84 66.01 155.48 53.82
  Z"
/>
<path fill="#2a9adb" d="
  M 274.43 54.84
  L 278.68 64.43
  L 280.61 69.57
  Q 270.79 68.06 260.34 69.37
  L 254.45 55.75
  L 254.34 54.70
  A 0.69 0.69 0.0 0 1 254.98 53.94
  Q 265.80 53.18 274.43 54.84
  Z"
/>
<path fill="#1575ae" fill-opacity="0.804" d="
  M 156.08 54.25
  Q 154.67 60.81 152.06 66.86
  Q 151.95 67.13 151.50 67.39
  Q 151.13 67.60 151.25 68.01
  Q 151.64 69.32 151.07 70.58
  Q 150.87 71.02 150.87 71.51
  L 150.87 82.60
  A 0.23 0.22 4.5 0 0 151.06 82.82
  L 151.83 82.93
  Q 152.10 82.97 152.13 83.24
  L 152.17 83.50
  L 140.17 99.43
  L 144.76 84.30
  Q 145.71 84.45 146.12 83.25
  Q 146.29 82.75 145.74 81.52
  Q 149.92 67.69 156.08 54.25
  Z"
/>
<path fill="#1575ae" fill-opacity="0.804" d="
  M 296.75 58.67
  L 302.42 73.80
  L 283.76 73.69
  A 0.94 0.94 0.0 0 0 282.93 75.09
  Q 284.38 77.75 284.57 81.09
  L 280.61 69.57
  L 278.68 64.43
  Q 278.87 61.28 277.08 59.45
  A 0.58 0.58 0.0 0 1 277.50 58.46
  L 296.75 58.67
  Z"
/>
<path fill="#2d779f" fill-opacity="0.722" d="
  M 386.27 66.08
  L 381.19 82.27
  Q 381.03 81.82 380.48 81.80
  Q 380.06 81.79 379.84 82.15
  Q 379.71 82.37 379.68 82.62
  Q 379.62 83.12 379.11 83.11
  L 359.52 82.80
  L 364.16 67.95
  L 384.20 67.89
  A 0.42 0.42 0.0 0 0 384.62 67.47
  L 384.62 66.62
  A 0.75 0.72 -22.6 0 1 384.85 66.09
  Q 385.38 65.61 386.27 66.08
  Z"
/>
<path fill="#03597f" fill-opacity="0.553" d="
  M 74.54 71.72
  Q 62.16 90.11 53.04 110.26
  Q 51.54 109.86 51.59 112.09
  A 0.07 0.07 0.0 0 1 51.49 112.15
  L 51.24 112.01
  Q 51.07 111.92 51.06 111.73
  L 50.73 95.75
  Q 59.15 81.17 70.02 66.98
  Q 70.73 67.33 71.52 66.82
  Q 71.89 66.58 71.89 67.02
  L 71.89 72.26
  A 0.35 0.35 0.0 0 0 72.58 72.36
  Q 72.84 71.48 74.54 71.72
  Z"
/>
<path fill="#03597f" fill-opacity="0.553" d="
  M 477.73 70.13
  L 470.31 82.95
  Q 470.22 81.89 470.58 80.95
  A 0.61 0.61 0.0 0 0 470.01 80.12
  L 462.55 80.12
  Q 462.17 80.12 461.85 80.32
  Q 460.38 81.21 460.24 82.93
  Q 460.23 83.12 460.04 83.12
  Q 459.91 83.12 459.75 83.13
  Q 459.42 83.14 459.27 83.44
  L 445.91 110.79
  Q 445.79 111.03 445.55 110.90
  Q 445.46 110.85 445.34 110.75
  Q 445.28 110.69 445.32 110.61
  Q 448.84 103.91 451.91 96.99
  A 0.80 0.79 11.8 0 0 451.18 95.88
  L 449.19 95.88
  Q 448.66 95.88 448.21 95.58
  Q 446.45 94.39 444.27 94.91
  Q 443.79 95.03 443.39 94.76
  Q 440.28 92.73 436.88 94.49
  Q 436.55 94.66 436.34 94.36
  L 435.95 93.80
  L 448.69 68.02
  Q 449.86 68.49 450.12 66.95
  Q 450.20 66.48 450.67 66.58
  Q 453.03 67.11 455.75 66.83
  Q 456.82 66.72 457.18 67.67
  A 0.53 0.53 0.0 0 0 457.80 67.99
  Q 460.74 67.23 462.97 69.05
  A 1.34 1.33 -61.0 0 1 463.39 70.53
  L 461.94 74.70
  A 0.31 0.31 0.0 0 0 462.47 75.00
  Q 463.89 73.25 464.17 71.51
  Q 464.24 71.04 464.72 71.09
  Q 465.37 71.15 465.37 70.50
  L 465.37 69.78
  Q 465.37 69.39 465.75 69.34
  Q 472.16 68.36 477.73 70.13
  Z"
/>
<path fill="#5ac4f0" d="
  M 195.89 68.74
  L 200.92 82.11
  Q 208.27 103.51 213.63 121.50
  Q 214.04 122.88 214.07 124.74
  Q 214.08 125.30 213.52 125.26
  Q 205.25 124.69 197.09 125.69
  L 183.51 69.75
  Q 183.98 69.57 184.22 68.69
  Q 184.34 68.25 184.80 68.21
  Q 191.04 67.58 195.89 68.74
  Z"
/>
<path fill="#2faae6" d="
  M 280.61 69.57
  L 284.57 81.09
  L 287.67 90.74
  Q 287.72 90.87 287.85 90.87
  Q 288.02 90.87 288.13 90.98
  Q 288.19 91.04 288.17 91.11
  Q 287.76 93.08 289.03 94.42
  Q 289.33 94.74 289.15 95.14
  Q 288.91 95.66 289.22 96.24
  Q 289.55 96.87 289.90 96.25
  Q 290.26 95.61 290.13 94.83
  A 0.60 0.60 0.0 0 1 290.72 94.13
  L 307.00 94.13
  Q 307.56 94.13 307.67 94.68
  Q 307.91 95.94 308.92 95.75
  L 317.92 132.65
  L 300.70 133.02
  Q 299.44 133.05 299.08 131.84
  L 298.11 128.50
  Q 297.93 127.90 297.34 128.10
  Q 297.18 128.15 297.00 128.12
  Q 296.49 128.03 296.48 128.00
  L 296.35 127.46
  Q 296.26 127.09 295.87 127.10
  L 279.60 127.57
  L 278.85 125.39
  L 272.74 105.89
  L 264.94 82.06
  L 260.34 69.37
  Q 270.79 68.06 280.61 69.57
  Z"
/>
<path fill="#229cc5" fill-opacity="0.863" d="
  M 302.42 73.80
  L 308.92 95.75
  Q 307.91 95.94 307.67 94.68
  Q 307.56 94.13 307.00 94.13
  L 290.72 94.13
  A 0.60 0.60 0.0 0 0 290.13 94.83
  Q 290.26 95.61 289.90 96.25
  Q 289.55 96.87 289.22 96.24
  Q 288.91 95.66 289.15 95.14
  Q 289.33 94.74 289.03 94.42
  Q 287.76 93.08 288.17 91.11
  Q 288.19 91.04 288.13 90.98
  Q 288.02 90.87 287.85 90.87
  Q 287.72 90.87 287.67 90.74
  L 284.57 81.09
  Q 284.38 77.75 282.93 75.09
  A 0.94 0.94 0.0 0 1 283.76 73.69
  L 302.42 73.80
  Z"
/>
<path fill="#176592" fill-opacity="0.663" d="
  M 470.31 82.95
  L 452.24 113.57
  L 452.66 110.79
  Q 452.78 109.97 451.95 110.02
  L 446.86 110.34
  Q 446.37 110.37 446.37 110.86
  L 446.37 111.75
  Q 446.37 112.12 446.00 112.12
  Q 445.86 112.11 445.72 112.12
  Q 445.16 112.14 444.88 112.63
  L 439.04 123.01
  Q 438.76 123.52 438.21 123.31
  Q 436.51 122.63 434.66 122.96
  Q 434.35 123.01 434.19 122.74
  L 433.88 122.21
  A 0.59 0.58 -15.5 0 0 433.38 121.93
  L 430.25 121.90
  Q 429.59 121.90 429.04 121.54
  Q 427.41 120.47 424.99 121.01
  Q 423.47 121.35 423.34 122.60
  Q 423.31 122.92 423.05 123.10
  L 422.58 123.45
  Q 422.19 123.74 422.04 124.21
  Q 421.56 125.76 419.97 126.92
  Q 420.04 126.41 420.21 126.20
  L 435.95 93.80
  L 436.34 94.36
  Q 436.55 94.66 436.88 94.49
  Q 440.28 92.73 443.39 94.76
  Q 443.79 95.03 444.27 94.91
  Q 446.45 94.39 448.21 95.58
  Q 448.66 95.88 449.19 95.88
  L 451.18 95.88
  A 0.80 0.79 11.8 0 1 451.91 96.99
  Q 448.84 103.91 445.32 110.61
  Q 445.28 110.69 445.34 110.75
  Q 445.46 110.85 445.55 110.90
  Q 445.79 111.03 445.91 110.79
  L 459.27 83.44
  Q 459.42 83.14 459.75 83.13
  Q 459.91 83.12 460.04 83.12
  Q 460.23 83.12 460.24 82.93
  Q 460.38 81.21 461.85 80.32
  Q 462.17 80.12 462.55 80.12
  L 470.01 80.12
  A 0.61 0.61 0.0 0 1 470.58 80.95
  Q 470.22 81.89 470.31 82.95
  Z"
/>
<path fill="#2faae6" d="
  M 131.11 81.00
  L 145.60 81.32
  L 144.76 84.30
  L 140.17 99.43
  L 139.17 101.23
  Q 130.55 112.30 123.69 123.75
  L 123.11 124.05
  A 0.32 0.32 0.0 0 1 122.65 123.76
  Q 122.66 123.63 122.66 123.49
  Q 122.66 123.38 122.55 123.38
  L 101.27 123.12
  Q 113.17 104.13 125.94 87.39
  L 131.11 81.00
  Z"
/>
<path fill="#1989d0" d="
  M 264.94 82.06
  L 272.74 105.89
  Q 272.53 107.68 272.93 108.94
  A 1.47 1.47 0.0 0 1 271.53 110.86
  L 226.01 110.89
  Q 225.51 110.89 225.45 111.38
  Q 225.30 112.51 224.87 112.34
  L 214.33 85.17
  L 212.52 80.87
  Q 212.93 80.50 213.42 80.82
  Q 213.71 81.01 213.72 81.34
  L 213.74 81.94
  Q 213.75 82.16 213.97 82.16
  L 264.94 82.06
  Z"
/>
<path fill="#2d779f" fill-opacity="0.722" d="
  M 145.60 81.32
  Q 145.67 81.42 145.74 81.52
  Q 146.29 82.75 146.12 83.25
  Q 145.71 84.45 144.76 84.30
  L 145.60 81.32
  Z"
/>
<path fill="#2faae6" d="
  M 200.92 82.11
  Q 205.87 83.32 212.22 82.79
  A 0.56 0.55 87.1 0 1 212.82 83.34
  Q 212.84 84.82 214.33 85.17
  L 224.87 112.34
  L 230.92 128.22
  L 243.12 157.48
  C 250.93 174.98 261.93 193.64 279.45 204.50
  A 0.62 0.61 53.9 0 1 279.28 205.62
  L 269.31 208.17
  Q 268.27 207.53 267.02 207.39
  C 251.23 201.53 241.88 189.29 234.09 174.62
  L 230.13 166.71
  Q 229.97 166.39 229.97 166.02
  Q 229.96 165.78 229.83 165.58
  Q 229.40 164.92 229.37 165.76
  Q 229.36 166.00 229.51 166.23
  A 0.43 0.43 0.0 0 1 229.14 166.89
  L 211.74 166.89
  Q 211.46 166.89 211.30 166.65
  L 211.14 166.41
  Q 210.96 166.13 210.71 166.34
  L 210.16 166.77
  Q 202.47 147.18 197.09 125.69
  Q 205.25 124.69 213.52 125.26
  Q 214.08 125.30 214.07 124.74
  Q 214.04 122.88 213.63 121.50
  Q 208.27 103.51 200.92 82.11
  Z"
/>
<path fill="#176592" fill-opacity="0.663" d="
  M 381.19 82.27
  L 370.78 115.17
  L 349.42 115.14
  L 359.52 82.80
  L 379.11 83.11
  Q 379.62 83.12 379.68 82.62
  Q 379.71 82.37 379.84 82.15
  Q 380.06 81.79 380.48 81.80
  Q 381.03 81.82 381.19 82.27
  Z"
/>
<path fill="#1266ad" d="
  M 125.94 87.39
  Q 113.17 104.13 101.27 123.12
  L 91.71 138.67
  L 86.63 147.18
  Q 86.60 146.09 86.45 145.55
  Q 86.31 145.02 85.29 144.84
  Q 83.29 144.47 81.74 145.63
  Q 81.40 145.89 80.97 145.89
  L 76.52 145.89
  A 0.45 0.44 15.7 0 0 76.14 146.10
  L 75.86 146.53
  Q 75.63 146.89 75.20 146.89
  L 70.53 146.89
  Q 70.20 146.89 70.05 147.18
  Q 69.98 147.32 69.92 147.46
  Q 69.73 147.89 69.26 147.89
  L 65.53 147.89
  Q 65.20 147.89 65.05 148.18
  Q 64.98 148.32 64.92 148.46
  Q 64.73 148.89 64.26 148.89
  L 59.53 148.89
  Q 59.20 148.89 59.05 149.18
  Q 58.98 149.32 58.92 149.46
  Q 58.73 149.89 58.26 149.89
  L 53.53 149.89
  Q 53.20 149.89 53.05 150.18
  Q 52.98 150.32 52.92 150.46
  Q 52.73 150.89 52.26 150.89
  L 48.53 150.89
  Q 48.20 150.89 48.05 151.18
  Q 47.98 151.31 47.92 151.45
  Q 47.73 151.89 47.26 151.89
  L 42.67 151.89
  A 0.87 0.84 -71.4 0 0 41.98 152.25
  L 40.19 154.70
  Q 39.95 155.03 39.99 154.62
  L 40.17 152.87
  L 69.10 96.11
  Q 69.38 96.35 69.35 96.79
  Q 69.33 97.14 69.53 96.98
  Q 69.58 96.94 69.61 96.86
  Q 69.63 96.81 69.62 96.85
  Q 69.58 97.16 69.61 97.44
  Q 69.66 97.97 70.19 98.06
  Q 70.85 98.16 71.05 97.47
  A 0.78 0.77 -74.1 0 1 71.99 96.94
  Q 75.24 97.76 77.87 96.04
  A 1.13 1.10 36.1 0 1 78.78 95.91
  Q 81.50 96.72 83.56 95.14
  Q 83.99 94.80 84.51 94.97
  Q 86.80 95.67 88.39 94.21
  A 1.17 1.16 -58.7 0 1 89.47 93.94
  Q 92.44 94.74 94.75 93.07
  A 1.16 1.15 -54.5 0 1 95.75 92.90
  Q 98.49 93.73 100.56 92.14
  Q 100.99 91.80 101.51 91.97
  Q 103.80 92.67 105.39 91.21
  A 1.15 1.12 -58.5 0 1 106.47 90.94
  Q 109.43 91.74 111.74 90.07
  A 0.86 0.85 34.7 0 1 112.49 89.94
  Q 115.32 90.72 117.50 89.20
  Q 117.88 88.94 118.34 89.03
  Q 120.42 89.46 122.72 88.05
  Q 124.43 87.00 125.94 87.39
  Z"
/>
<path fill="#024d6e" fill-opacity="0.478" d="
  M 50.73 95.75
  L 51.06 111.73
  Q 51.07 111.92 51.24 112.01
  L 51.49 112.15
  A 0.07 0.07 0.0 0 0 51.59 112.09
  Q 51.54 109.86 53.04 110.26
  L 41.44 138.70
  L 40.87 113.22
  L 50.73 95.75
  Z"
/>
<path fill="#1575ae" fill-opacity="0.804" d="
  M 139.17 101.23
  L 130.26 130.28
  Q 129.68 129.63 129.74 128.43
  Q 129.77 127.90 129.24 127.90
  L 123.40 127.90
  Q 122.94 127.90 122.63 128.24
  L 120.96 130.11
  Q 120.87 130.21 120.74 130.16
  L 120.47 130.04
  Q 120.37 129.99 120.30 130.09
  L 118.84 132.27
  Q 118.99 132.01 118.48 131.93
  L 123.69 123.75
  Q 130.55 112.30 139.17 101.23
  Z"
/>
<path fill="#1579bd" d="
  M 272.74 105.89
  L 278.85 125.39
  L 278.70 129.27
  Q 278.68 129.87 278.08 129.87
  L 232.61 130.14
  Q 232.20 130.14 232.10 129.74
  Q 231.82 128.54 230.92 128.22
  L 224.87 112.34
  Q 225.30 112.51 225.45 111.38
  Q 225.51 110.89 226.01 110.89
  L 271.53 110.86
  A 1.47 1.47 0.0 0 0 272.93 108.94
  Q 272.53 107.68 272.74 105.89
  Z"
/>
<path fill="#2d779f" fill-opacity="0.722" d="
  M 452.24 113.57
  L 432.47 144.77
  Q 432.25 144.29 432.47 143.64
  Q 432.62 143.17 432.15 143.04
  Q 428.23 141.88 425.95 144.89
  Q 425.76 145.14 425.46 145.13
  L 425.14 145.12
  Q 424.63 145.11 424.91 144.69
  L 431.43 134.77
  Q 431.69 134.37 431.60 133.90
  L 431.32 132.44
  Q 431.25 132.10 430.91 132.13
  Q 430.24 132.20 429.91 131.62
  Q 429.62 131.12 429.04 131.12
  L 425.31 131.12
  Q 424.90 131.12 424.55 130.89
  Q 421.96 129.11 418.95 130.85
  Q 418.03 131.38 418.30 132.34
  A 0.44 0.43 78.2 0 1 417.95 132.89
  Q 417.74 132.91 417.47 132.79
  Q 417.28 132.75 417.09 132.71
  L 419.97 126.92
  Q 421.56 125.76 422.04 124.21
  Q 422.19 123.74 422.58 123.45
  L 423.05 123.10
  Q 423.31 122.92 423.34 122.60
  Q 423.47 121.35 424.99 121.01
  Q 427.41 120.47 429.04 121.54
  Q 429.59 121.90 430.25 121.90
  L 433.38 121.93
  A 0.59 0.58 -15.5 0 1 433.88 122.21
  L 434.19 122.74
  Q 434.35 123.01 434.66 122.96
  Q 436.51 122.63 438.21 123.31
  Q 438.76 123.52 439.04 123.01
  L 444.88 112.63
  Q 445.16 112.14 445.72 112.12
  Q 445.86 112.11 446.00 112.12
  Q 446.37 112.12 446.37 111.75
  L 446.37 110.86
  Q 446.37 110.37 446.86 110.34
  L 451.95 110.02
  Q 452.78 109.97 452.66 110.79
  L 452.24 113.57
  Z"
/>
<path fill="#02415c" fill-opacity="0.400" d="
  M 40.87 113.22
  L 41.44 138.70
  L 33.76 164.51
  Q 33.40 167.83 31.81 170.15
  L 23.33 185.58
  L 22.85 154.58
  Q 22.85 154.38 22.99 154.23
  L 23.23 153.98
  Q 23.43 153.77 23.29 153.51
  Q 22.96 152.93 22.34 152.97
  Q 30.37 132.89 40.87 113.22
  Z"
/>
<path fill="#024d6e" fill-opacity="0.478" d="
  M 370.78 115.17
  L 366.95 127.18
  L 366.70 127.97
  Q 366.00 131.64 364.83 131.75
  L 344.31 131.32
  L 349.42 115.14
  L 370.78 115.17
  Z"
/>
<path fill="#2a9adb" d="
  M 101.27 123.12
  L 122.55 123.38
  Q 122.66 123.38 122.66 123.49
  Q 122.66 123.63 122.65 123.76
  A 0.32 0.32 0.0 0 0 123.11 124.05
  L 123.69 123.75
  L 118.48 131.93
  L 113.71 139.71
  Q 113.34 139.58 113.06 139.63
  Q 112.77 139.69 112.61 140.02
  Q 112.49 140.26 112.43 140.52
  Q 112.34 140.88 111.98 140.88
  L 92.01 140.88
  Q 91.55 140.88 91.69 140.44
  Q 91.97 139.51 91.71 138.67
  L 101.27 123.12
  Z"
/>
<path fill="#1266ad" d="
  M 278.85 125.39
  L 279.60 127.57
  L 288.93 154.37
  Q 288.63 155.34 289.25 156.58
  Q 289.49 157.07 288.95 157.13
  L 288.37 157.20
  A 0.35 0.35 0.0 0 0 288.07 157.65
  Q 288.53 159.13 287.25 159.13
  Q 266.38 159.11 245.49 159.13
  Q 244.77 159.13 243.12 157.48
  L 230.92 128.22
  Q 231.82 128.54 232.10 129.74
  Q 232.20 130.14 232.61 130.14
  L 278.08 129.87
  Q 278.68 129.87 278.70 129.27
  L 278.85 125.39
  Z"
/>
<path fill="#1579bd" d="
  M 420.21 126.20
  Q 420.04 126.41 419.97 126.92
  L 417.09 132.71
  L 414.19 138.93
  L 412.46 141.77
  L 410.81 143.77
  Q 410.51 144.13 410.05 144.13
  Q 386.40 144.11 362.75 144.13
  Q 362.26 144.13 361.67 144.45
  Q 361.32 144.65 361.31 144.25
  Q 361.29 143.88 361.07 143.62
  Q 362.43 139.16 364.13 134.75
  Q 364.58 133.59 363.74 133.46
  L 364.83 131.75
  Q 366.00 131.64 366.70 127.97
  Q 367.02 128.19 367.69 127.97
  A 0.17 0.17 0.0 0 1 367.89 128.21
  Q 367.82 128.35 367.75 128.50
  Q 367.74 128.53 368.00 128.62
  Q 368.21 128.70 368.12 128.46
  A 0.42 0.42 0.0 0 1 368.51 127.88
  L 418.48 127.88
  Q 418.73 127.88 418.80 127.64
  Q 419.07 126.69 420.21 126.20
  Z"
/>
<path fill="#2a9adb" d="
  M 317.92 132.65
  L 323.16 153.88
  L 307.29 154.11
  Q 306.88 154.12 306.49 154.25
  L 305.31 154.65
  Q 305.20 154.68 305.15 154.58
  Q 305.01 154.32 304.91 154.03
  A 0.10 0.10 0.0 0 0 304.72 154.09
  Q 308.69 169.88 315.20 185.17
  L 308.53 190.49
  Q 308.62 190.58 308.71 190.67
  C 299.99 179.66 294.02 167.36 288.93 154.37
  L 279.60 127.57
  L 295.87 127.10
  Q 296.26 127.09 296.35 127.46
  L 296.48 128.00
  Q 296.49 128.03 297.00 128.12
  Q 297.18 128.15 297.34 128.10
  Q 297.93 127.90 298.11 128.50
  L 299.08 131.84
  Q 299.44 133.05 300.70 133.02
  L 317.92 132.65
  Z"
/>
<path fill="#048bc7" fill-opacity="0.863" d="
  M 130.26 130.28
  L 118.69 166.96
  Q 118.38 167.26 118.12 167.08
  Q 117.67 166.78 117.99 166.35
  L 118.38 165.80
  Q 118.88 165.12 118.04 165.12
  L 101.21 165.12
  Q 100.62 165.12 100.29 165.61
  Q 99.12 167.40 97.88 167.02
  L 108.96 147.96
  L 118.84 132.27
  L 120.30 130.09
  Q 120.37 129.99 120.47 130.04
  L 120.74 130.16
  Q 120.87 130.21 120.96 130.11
  L 122.63 128.24
  Q 122.94 127.90 123.40 127.90
  L 129.24 127.90
  Q 129.77 127.90 129.74 128.43
  Q 129.68 129.63 130.26 130.28
  Z"
/>
<path fill="#1575ae" fill-opacity="0.804" d="
  M 432.47 144.77
  L 417.55 165.76
  L 411.09 165.89
  Q 410.62 165.90 410.39 166.31
  Q 409.78 167.41 408.76 168.15
  Q 404.90 170.95 401.91 174.65
  Q 401.39 175.29 400.87 175.30
  A 0.27 0.27 0.0 0 1 400.71 174.81
  Q 403.92 172.57 405.28 169.07
  Q 405.47 168.58 405.11 168.21
  Q 403.03 166.05 400.22 167.21
  Q 399.79 167.38 399.62 166.95
  Q 399.47 166.55 399.07 166.39
  L 412.46 141.77
  L 414.19 138.93
  Q 416.65 135.89 417.47 132.79
  Q 417.74 132.91 417.95 132.89
  A 0.44 0.43 78.2 0 0 418.30 132.34
  Q 418.03 131.38 418.95 130.85
  Q 421.96 129.11 424.55 130.89
  Q 424.90 131.12 425.31 131.12
  L 429.04 131.12
  Q 429.62 131.12 429.91 131.62
  Q 430.24 132.20 430.91 132.13
  Q 431.25 132.10 431.32 132.44
  L 431.60 133.90
  Q 431.69 134.37 431.43 134.77
  L 424.91 144.69
  Q 424.63 145.11 425.14 145.12
  L 425.46 145.13
  Q 425.76 145.14 425.95 144.89
  Q 428.23 141.88 432.15 143.04
  Q 432.62 143.17 432.47 143.64
  Q 432.25 144.29 432.47 144.77
  Z"
/>
<path fill="#02415c" fill-opacity="0.400" d="
  M 344.31 131.32
  L 364.83 131.75
  L 363.74 133.46
  L 352.77 147.57
  Q 345.28 146.85 338.87 147.80
  L 344.31 131.32
  Z"
/>
<path fill="#176592" fill-opacity="0.663" d="
  M 118.48 131.93
  Q 118.99 132.01 118.84 132.27
  L 108.96 147.96
  L 113.71 139.71
  L 118.48 131.93
  Z"
/>
<path fill="#176592" fill-opacity="0.663" d="
  M 417.09 132.71
  Q 417.28 132.75 417.47 132.79
  Q 416.65 135.89 414.19 138.93
  L 417.09 132.71
  Z"
/>
<path fill="#2a9adb" d="
  M 363.74 133.46
  Q 364.58 133.59 364.13 134.75
  Q 362.43 139.16 361.07 143.62
  L 349.86 173.37
  Q 345.39 183.52 338.97 192.86
  A 1.11 1.10 -41.3 0 1 337.08 192.74
  Q 332.27 183.43 329.17 173.35
  Q 330.94 171.53 330.16 172.23
  Q 342.57 160.61 352.77 147.57
  L 363.74 133.46
  Z"
/>
<path fill="#1989d0" d="
  M 91.71 138.67
  Q 91.97 139.51 91.69 140.44
  Q 91.55 140.88 92.01 140.88
  L 111.98 140.88
  Q 112.34 140.88 112.43 140.52
  Q 112.49 140.26 112.61 140.02
  Q 112.77 139.69 113.06 139.63
  Q 113.34 139.58 113.71 139.71
  L 108.96 147.96
  L 97.88 167.02
  L 94.14 174.08
  L 73.73 174.12
  Q 73.21 174.12 73.20 173.60
  Q 73.16 172.01 73.96 170.28
  L 86.63 147.18
  L 91.71 138.67
  Z"
/>
<path fill="#1266ad" d="
  M 412.46 141.77
  L 399.07 166.39
  L 396.96 170.30
  Q 396.48 169.94 396.06 169.87
  Q 395.52 169.79 395.44 170.33
  Q 395.11 172.90 392.27 172.89
  Q 372.13 172.87 352.00 172.88
  Q 351.08 172.88 350.33 173.91
  Q 350.15 174.17 350.13 173.86
  Q 350.10 173.54 349.86 173.37
  L 361.07 143.62
  Q 361.29 143.88 361.31 144.25
  Q 361.32 144.65 361.67 144.45
  Q 362.26 144.13 362.75 144.13
  Q 386.40 144.11 410.05 144.13
  Q 410.51 144.13 410.81 143.77
  L 412.46 141.77
  Z"
/>
<path fill="#145da4" d="
  M 86.63 147.18
  L 73.96 170.28
  Q 63.50 190.14 53.95 210.44
  Q 53.92 210.50 53.18 211.73
  Q 52.30 213.19 53.68 214.25
  L 23.60 214.49
  Q 26.43 192.25 31.81 170.15
  Q 33.40 167.83 33.76 164.51
  L 40.17 152.87
  L 39.99 154.62
  Q 39.95 155.03 40.19 154.70
  L 41.98 152.25
  A 0.87 0.84 -71.4 0 1 42.67 151.89
  L 47.26 151.89
  Q 47.73 151.89 47.92 151.45
  Q 47.98 151.31 48.05 151.18
  Q 48.20 150.89 48.53 150.89
  L 52.26 150.89
  Q 52.73 150.89 52.92 150.46
  Q 52.98 150.32 53.05 150.18
  Q 53.20 149.89 53.53 149.89
  L 58.26 149.89
  Q 58.73 149.89 58.92 149.46
  Q 58.98 149.32 59.05 149.18
  Q 59.20 148.89 59.53 148.89
  L 64.26 148.89
  Q 64.73 148.89 64.92 148.46
  Q 64.98 148.32 65.05 148.18
  Q 65.20 147.89 65.53 147.89
  L 69.26 147.89
  Q 69.73 147.89 69.92 147.46
  Q 69.98 147.32 70.05 147.18
  Q 70.20 146.89 70.53 146.89
  L 75.20 146.89
  Q 75.63 146.89 75.86 146.53
  L 76.14 146.10
  A 0.45 0.44 15.7 0 1 76.52 145.89
  L 80.97 145.89
  Q 81.40 145.89 81.74 145.63
  Q 83.29 144.47 85.29 144.84
  Q 86.31 145.02 86.45 145.55
  Q 86.60 146.09 86.63 147.18
  Z"
/>
<path fill="#023349" fill-opacity="0.318" d="
  M 352.77 147.57
  Q 342.57 160.61 330.16 172.23
  L 338.87 147.80
  Q 345.28 146.85 352.77 147.57
  Z"
/>
<path fill="#023349" fill-opacity="0.318" d="
  M 22.34 152.97
  Q 22.96 152.93 23.29 153.51
  Q 23.43 153.77 23.23 153.98
  L 22.99 154.23
  Q 22.85 154.38 22.85 154.58
  L 23.33 185.58
  L 7.61 214.52
  L 2.80 214.59
  Q 2.04 214.60 2.23 213.86
  Q 10.25 182.66 22.34 152.97
  Z"
/>
<path fill="#1989d0" d="
  M 323.16 153.88
  L 328.33 171.76
  C 328.19 172.78 328.13 173.61 327.38 174.40
  Q 321.87 180.25 315.20 185.17
  Q 308.69 169.88 304.72 154.09
  A 0.10 0.10 0.0 0 1 304.91 154.03
  Q 305.01 154.32 305.15 154.58
  Q 305.20 154.68 305.31 154.65
  L 306.49 154.25
  Q 306.88 154.12 307.29 154.11
  L 323.16 153.88
  Z"
/>
<path fill="#145da4" d="
  M 288.93 154.37
  C 294.02 167.36 299.99 179.66 308.71 190.67
  Q 297.60 198.69 284.54 204.10
  Q 282.16 205.08 284.44 206.27
  Q 287.87 208.06 292.95 209.28
  L 264.96 209.37
  Q 265.72 209.05 265.89 208.12
  L 269.31 208.17
  L 279.28 205.62
  A 0.62 0.61 53.9 0 0 279.45 204.50
  C 261.93 193.64 250.93 174.98 243.12 157.48
  Q 244.77 159.13 245.49 159.13
  Q 266.38 159.11 287.25 159.13
  Q 288.53 159.13 288.07 157.65
  A 0.35 0.35 0.0 0 1 288.37 157.20
  L 288.95 157.13
  Q 289.49 157.07 289.25 156.58
  Q 288.63 155.34 288.93 154.37
  Z"
/>
<path fill="#2a9adb" d="
  M 118.69 166.96
  Q 102.90 209.78 57.40 213.68
  Q 74.28 207.88 83.07 194.00
  Q 87.30 187.32 94.14 174.08
  L 97.88 167.02
  Q 99.12 167.40 100.29 165.61
  Q 100.62 165.12 101.21 165.12
  L 118.04 165.12
  Q 118.88 165.12 118.38 165.80
  L 117.99 166.35
  Q 117.67 166.78 118.12 167.08
  Q 118.38 167.26 118.69 166.96
  Z"
/>
<path fill="#2a9adb" d="
  M 234.09 174.62
  L 234.79 177.43
  Q 234.96 178.12 234.25 178.12
  L 217.83 178.12
  Q 217.37 178.12 217.05 178.44
  L 216.72 178.78
  Q 216.54 178.96 216.47 178.71
  L 216.37 178.30
  Q 216.31 178.09 216.12 178.18
  Q 215.89 178.27 215.68 178.28
  L 210.16 166.77
  L 210.71 166.34
  Q 210.96 166.13 211.14 166.41
  L 211.30 166.65
  Q 211.46 166.89 211.74 166.89
  L 229.14 166.89
  A 0.43 0.43 0.0 0 0 229.51 166.23
  Q 229.36 166.00 229.37 165.76
  Q 229.40 164.92 229.83 165.58
  Q 229.96 165.78 229.97 166.02
  Q 229.97 166.39 230.13 166.71
  L 234.09 174.62
  Z"
/>
<path fill="#1c70b0" fill-opacity="0.929" d="
  M 417.55 165.76
  Q 405.77 182.01 391.13 194.88
  Q 391.08 194.27 391.86 193.40
  Q 392.27 192.94 391.65 192.93
  L 384.48 192.75
  Q 383.47 192.72 384.28 192.12
  L 385.34 191.33
  A 0.27 0.27 0.0 0 0 385.06 190.87
  Q 383.22 191.81 381.89 193.38
  A 1.87 1.84 -80.6 0 1 381.19 193.89
  Q 379.17 194.74 378.12 194.20
  Q 389.33 183.31 396.96 170.30
  L 399.07 166.39
  Q 399.47 166.55 399.62 166.95
  Q 399.79 167.38 400.22 167.21
  Q 403.03 166.05 405.11 168.21
  Q 405.47 168.58 405.28 169.07
  Q 403.92 172.57 400.71 174.81
  A 0.27 0.27 0.0 0 0 400.87 175.30
  Q 401.39 175.29 401.91 174.65
  Q 404.90 170.95 408.76 168.15
  Q 409.78 167.41 410.39 166.31
  Q 410.62 165.90 411.09 165.89
  L 417.55 165.76
  Z"
/>
<path fill="#145da4" d="
  M 396.96 170.30
  Q 389.33 183.31 378.12 194.20
  Q 376.80 195.57 375.36 197.15
  Q 373.90 198.74 372.30 199.74
  Q 363.24 205.41 352.96 208.51
  Q 351.73 208.88 350.87 208.35
  Q 342.98 203.56 338.02 195.18
  A 0.50 0.50 0.0 0 0 337.18 195.14
  C 334.37 199.01 331.02 201.61 326.94 204.03
  A 1.22 1.22 0.0 0 0 327.38 206.28
  Q 330.53 206.76 333.39 209.25
  L 310.13 209.29
  Q 312.26 208.24 314.89 208.87
  Q 315.40 208.99 315.74 208.58
  Q 317.38 206.57 320.23 206.95
  Q 320.55 206.99 320.75 206.74
  Q 321.65 205.62 322.46 205.77
  A 0.94 0.94 0.0 0 0 323.11 204.03
  Q 314.53 198.99 308.53 190.49
  L 315.20 185.17
  Q 321.87 180.25 327.38 174.40
  C 328.13 173.61 328.19 172.78 328.33 171.76
  Q 328.59 173.22 329.17 173.35
  Q 332.27 183.43 337.08 192.74
  A 1.11 1.10 -41.3 0 0 338.97 192.86
  Q 345.39 183.52 349.86 173.37
  Q 350.10 173.54 350.13 173.86
  Q 350.15 174.17 350.33 173.91
  Q 351.08 172.88 352.00 172.88
  Q 372.13 172.87 392.27 172.89
  Q 395.11 172.90 395.44 170.33
  Q 395.52 169.79 396.06 169.87
  Q 396.48 169.94 396.96 170.30
  Z"
/>
<path fill="#2a9adb" d="
  M 31.81 170.15
  Q 26.43 192.25 23.60 214.49
  L 7.61 214.52
  L 23.33 185.58
  L 31.81 170.15
  Z"
/>
<path fill="#1266ad" d="
  M 73.96 170.28
  Q 73.16 172.01 73.20 173.60
  Q 73.21 174.12 73.73 174.12
  L 94.14 174.08
  Q 87.30 187.32 83.07 194.00
  Q 74.28 207.88 57.40 213.68
  L 53.68 214.25
  Q 52.30 213.19 53.18 211.73
  Q 53.92 210.50 53.95 210.44
  Q 63.50 190.14 73.96 170.28
  Z"
/>
<path fill="#1989d0" d="
  M 234.09 174.62
  C 241.88 189.29 251.23 201.53 267.02 207.39
  Q 266.58 208.04 265.89 208.12
  Q 265.72 209.05 264.96 209.37
  C 260.01 209.37 254.59 209.57 250.05 208.67
  C 234.15 205.52 222.66 192.44 215.68 178.28
  Q 215.89 178.27 216.12 178.18
  Q 216.31 178.09 216.37 178.30
  L 216.47 178.71
  Q 216.54 178.96 216.72 178.78
  L 217.05 178.44
  Q 217.37 178.12 217.83 178.12
  L 234.25 178.12
  Q 234.96 178.12 234.79 177.43
  L 234.09 174.62
  Z"
/>
<path fill="#1266ad" d="
  M 308.71 190.67
  Q 308.62 190.58 308.53 190.49
  Q 314.53 198.99 323.11 204.03
  A 0.94 0.94 0.0 0 1 322.46 205.77
  Q 321.65 205.62 320.75 206.74
  Q 320.55 206.99 320.23 206.95
  Q 317.38 206.57 315.74 208.58
  Q 315.40 208.99 314.89 208.87
  Q 312.26 208.24 310.13 209.29
  L 292.95 209.28
  Q 287.87 208.06 284.44 206.27
  Q 282.16 205.08 284.54 204.10
  Q 297.60 198.69 308.71 190.67
  Z"
/>
<path fill="#1266ad" d="
  M 391.13 194.88
  Q 381.68 203.44 370.31 207.18
  Q 364.81 208.99 356.47 209.29
  Q 345.00 209.71 333.39 209.25
  Q 330.53 206.76 327.38 206.28
  A 1.22 1.22 0.0 0 1 326.94 204.03
  C 331.02 201.61 334.37 199.01 337.18 195.14
  A 0.50 0.50 0.0 0 1 338.02 195.18
  Q 342.98 203.56 350.87 208.35
  Q 351.73 208.88 352.96 208.51
  Q 363.24 205.41 372.30 199.74
  Q 373.90 198.74 375.36 197.15
  Q 376.80 195.57 378.12 194.20
  Q 379.17 194.74 381.19 193.89
  A 1.87 1.84 -80.6 0 0 381.89 193.38
  Q 383.22 191.81 385.06 190.87
  A 0.27 0.27 0.0 0 1 385.34 191.33
  L 384.28 192.12
  Q 383.47 192.72 384.48 192.75
  L 391.65 192.93
  Q 392.27 192.94 391.86 193.40
  Q 391.08 194.27 391.13 194.88
  Z"
/>
<path fill="white" d="
  M 419.78 195.79
  L 419.78 209.24
  A 0.34 0.34 0.0 0 1 419.42 209.58
  L 418.29 209.50
  A 0.34 0.34 0.0 0 1 417.97 209.16
  L 417.97 195.74
  A 0.34 0.34 0.0 0 0 417.62 195.40
  L 413.74 195.45
  A 0.34 0.34 0.0 0 1 413.39 195.10
  L 413.43 194.07
  A 0.34 0.34 0.0 0 1 413.77 193.74
  L 423.96 193.74
  A 0.34 0.34 0.0 0 1 424.30 194.07
  L 424.34 195.08
  A 0.34 0.34 0.0 0 1 424.00 195.43
  L 420.12 195.45
  A 0.34 0.34 0.0 0 0 419.78 195.79
  Z"
/>
<path fill="white" d="
  M 440.87 196.99
  L 435.48 209.19
  A 0.65 0.64 -45.2 0 1 434.30 209.20
  L 428.85 197.00
  Q 428.54 196.30 428.54 197.07
  L 428.59 208.83
  Q 428.59 209.51 427.92 209.50
  L 427.39 209.49
  Q 426.81 209.47 426.81 208.89
  L 426.81 194.78
  A 1.40 1.40 0.0 0 1 429.49 194.22
  L 434.61 205.96
  Q 434.85 206.50 435.09 205.96
  L 440.37 194.17
  A 1.34 1.33 57.1 0 1 442.92 194.72
  L 442.91 208.96
  A 0.59 0.59 0.0 0 1 442.39 209.55
  L 441.87 209.62
  A 0.77 0.77 0.0 0 1 441.00 208.86
  L 441.07 197.03
  Q 441.08 196.52 440.87 196.99
  Z"
/>
<path fill="#02415c" fill-opacity="0.400" d="
  M 267.02 207.39
  Q 268.27 207.53 269.31 208.17
  L 265.89 208.12
  Q 266.58 208.04 267.02 207.39
  Z"
/>
<path fill="white" d="
  M 361.28 274.78
  L 354.78 274.78
  Q 354.28 274.78 354.28 274.28
  L 354.27 269.43
  Q 354.27 268.86 354.83 268.86
  L 361.23 268.86
  Q 361.73 268.86 361.75 268.35
  C 361.89 265.41 361.49 261.84 361.95 259.26
  Q 364.58 244.71 380.40 247.12
  Q 380.97 247.21 380.98 247.79
  L 380.99 253.20
  Q 380.99 253.86 380.38 253.60
  C 374.24 250.95 369.18 253.83 369.01 260.77
  Q 368.88 266.20 368.83 268.21
  Q 368.81 268.86 369.46 268.86
  L 378.68 268.86
  Q 379.24 268.86 379.24 269.43
  L 379.24 274.27
  Q 379.23 274.78 378.73 274.78
  L 369.42 274.78
  Q 368.87 274.78 368.87 275.33
  L 368.88 312.44
  Q 368.88 313.00 368.31 313.00
  L 362.27 313.00
  Q 361.78 313.00 361.78 312.51
  L 361.78 275.28
  Q 361.78 274.78 361.28 274.78
  Z"
/>
<circle fill="white" cx="136.49" cy="253.03" r="4.60"/>
<path fill="white" d="
  M 61.45 260.76
  L 61.54 312.48
  Q 61.54 313.00 61.02 313.00
  L 55.13 313.00
  Q 54.52 313.00 54.52 312.38
  L 54.52 251.75
  Q 54.52 251.14 55.13 251.14
  L 63.51 251.13
  Q 64.13 251.13 64.38 251.70
  L 86.00 301.08
  Q 86.05 301.20 86.10 301.08
  L 108.23 251.68
  Q 108.47 251.14 109.07 251.14
  L 116.98 251.14
  Q 117.57 251.14 117.57 251.74
  L 117.58 312.34
  A 0.66 0.66 0.0 0 1 116.92 313.00
  L 111.00 313.00
  Q 110.25 313.00 110.25 312.25
  L 110.50 260.51
  A 0.01 0.01 0.0 0 0 110.48 260.51
  Q 109.87 263.03 108.81 265.44
  Q 98.41 289.19 88.39 311.82
  A 2.51 2.50 -45.2 0 1 83.81 311.84
  Q 73.63 289.19 63.06 265.48
  C 62.44 264.08 62.13 262.32 61.63 260.74
  Q 61.45 260.18 61.45 260.76
  Z"
/>
<path fill="white" d="
  M 397.79 275.25
  Q 397.63 288.26 397.84 301.25
  C 397.94 307.49 403.06 309.49 408.30 306.89
  Q 408.87 306.60 408.87 307.24
  L 408.86 312.05
  Q 408.85 312.63 408.31 312.84
  C 402.42 315.08 394.52 314.26 391.83 308.01
  Q 390.82 305.67 390.75 299.32
  Q 390.61 287.32 390.72 275.28
  Q 390.72 274.78 390.22 274.78
  L 383.68 274.78
  Q 383.08 274.78 383.08 274.18
  L 383.07 269.48
  Q 383.07 268.78 383.77 268.78
  L 390.22 268.78
  A 0.50 0.49 -90.0 0 0 390.71 268.28
  L 390.66 258.53
  Q 390.66 258.09 391.07 257.96
  L 397.17 255.99
  Q 397.75 255.80 397.75 256.42
  L 397.75 268.26
  Q 397.75 268.78 398.27 268.78
  L 408.27 268.78
  Q 408.88 268.78 408.87 269.38
  L 408.85 274.22
  Q 408.85 274.78 408.28 274.78
  L 398.27 274.78
  Q 397.80 274.78 397.79 275.25
  Z"
/>
<path fill="white" d="
  M 437.1307 268.1684
  A 11.83 11.66 -15.3 0 1 428.7968 282.5367
  A 11.83 11.66 -15.3 0 1 414.3093 274.4116
  A 11.83 11.66 -15.3 0 1 422.6432 260.0433
  A 11.83 11.66 -15.3 0 1 437.1307 268.1684
  Z
  M 436.11 271.34
  A 10.41 10.41 0.0 0 0 425.70 260.93
  A 10.41 10.41 0.0 0 0 415.29 271.34
  A 10.41 10.41 0.0 0 0 425.70 281.75
  A 10.41 10.41 0.0 0 0 436.11 271.34
  Z"
/>
<path fill="white" d="
  M 427.86 272.03
  L 431.12 277.81
  Q 431.46 278.41 430.81 278.63
  Q 429.95 278.93 429.21 278.57
  C 427.14 277.57 427.63 272.00 423.82 272.31
  Q 423.22 272.36 423.22 272.97
  L 423.23 278.08
  Q 423.23 278.65 422.67 278.69
  L 421.75 278.76
  A 0.62 0.61 87.9 0 1 421.09 278.14
  L 421.08 264.28
  Q 421.08 263.81 421.56 263.76
  Q 425.28 263.43 427.75 263.97
  C 431.75 264.84 431.64 269.97 428.05 271.48
  Q 427.65 271.65 427.86 272.03
  Z
  M 423.22 265.85
  L 423.22 270.21
  A 0.36 0.36 0.0 0 0 423.58 270.57
  L 425.71 270.57
  A 2.79 2.28 0.0 0 0 428.50 268.29
  L 428.50 267.77
  A 2.79 2.28 -0.0 0 0 425.71 265.49
  L 423.58 265.49
  A 0.36 0.36 0.0 0 0 423.22 265.85
  Z"
/>
<path fill="white" d="
  M 183.45 276.87
  C 166.29 267.46 153.71 282.57 159.33 298.75
  C 162.84 308.85 175.01 310.42 183.26 304.60
  Q 183.99 304.09 183.99 304.98
  L 183.99 310.31
  Q 183.99 310.91 183.46 311.18
  C 171.34 317.32 156.81 313.67 152.08 300.18
  Q 149.33 292.32 152.24 282.75
  C 156.27 269.52 171.08 264.57 183.61 269.85
  Q 184.06 270.04 184.06 270.53
  L 184.05 276.52
  Q 184.05 277.20 183.45 276.87
  Z"
/>
<path fill="white" d="
  M 241.21 267.72
  C 273.11 265.77 271.07 315.20 242.49 314.08
  Q 223.63 313.34 221.17 294.72
  C 219.36 281.00 226.66 268.61 241.21 267.72
  Z
  M 236.18 306.58
  Q 252.25 311.61 256.23 297.65
  C 259.39 286.55 255.34 272.80 241.29 273.89
  Q 231.11 274.68 228.64 285.71
  C 227.24 291.97 228.68 304.24 236.18 306.58
  Z"
/>
<path fill="white" d="
  M 277.06 306.67
  C 281.03 308.25 290.23 309.53 291.82 303.70
  C 294.03 295.57 280.44 293.56 275.94 289.26
  C 271.05 284.59 271.23 276.97 275.89 272.23
  C 281.16 266.87 290.35 266.77 296.90 269.62
  Q 297.33 269.81 297.33 270.27
  L 297.36 276.26
  Q 297.36 276.92 296.79 276.57
  C 292.35 273.81 281.50 271.25 279.78 278.74
  C 277.24 289.79 301.18 286.66 299.15 302.62
  C 297.54 315.31 281.30 315.83 272.69 311.67
  Q 272.25 311.46 272.25 310.97
  L 272.25 304.50
  Q 272.25 303.83 272.81 304.20
  Q 275.66 306.11 277.06 306.67
  Z"
/>
<path fill="white" d="
  M 349.56 295.04
  C 347.15 309.78 334.69 317.35 320.46 312.83
  C 302.24 307.04 301.50 277.81 318.06 270.13
  C 336.38 261.63 352.82 275.05 349.56 295.04
  Z
  M 327.01 307.80
  C 337.96 308.97 342.75 300.68 342.56 290.72
  C 342.39 281.97 339.32 274.61 329.48 273.89
  C 320.07 273.21 314.27 279.58 313.73 288.72
  C 313.15 298.51 316.13 306.63 327.01 307.80
  Z"
/>
<path fill="white" d="
  M 202.21 277.32
  Q 205.79 266.65 217.13 268.36
  A 0.69 0.69 0.0 0 1 217.71 269.04
  L 217.72 275.24
  Q 217.73 275.82 217.19 275.59
  C 208.51 271.81 202.28 279.31 201.91 287.26
  Q 201.55 294.91 201.82 312.40
  A 0.59 0.59 0.0 0 1 201.23 313.00
  L 195.29 313.00
  Q 194.69 313.00 194.69 312.41
  L 194.70 269.29
  Q 194.70 268.78 195.21 268.78
  L 201.27 268.78
  Q 201.75 268.78 201.75 269.27
  L 201.74 277.24
  A 0.24 0.24 0.0 0 0 202.21 277.32
  Z"
/>
<rect fill="white" x="132.85" y="268.86" width="7.08" height="44.14" rx="0.34"/>
<path fill="white" d="
  M 167.12 470.85
  Q 166.21 460.06 166.21 446.25
  Q 166.18 390.13 166.21 333.97
  Q 166.21 333.42 166.76 333.42
  L 184.66 333.41
  Q 185.04 333.41 185.04 333.78
  L 185.04 494.97
  Q 185.04 495.48 184.53 495.48
  L 162.53 495.48
  Q 161.99 495.48 161.69 495.02
  Q 120.01 430.59 78.48 366.11
  Q 75.44 361.39 73.36 356.29
  A 0.33 0.33 0.0 0 0 72.72 356.44
  Q 73.53 367.55 73.53 378.75
  Q 73.54 436.76 73.48 494.77
  Q 73.48 495.48 72.77 495.48
  L 55.02 495.47
  A 0.46 0.46 0.0 0 1 54.56 495.01
  L 54.54 333.93
  A 0.53 0.53 0.0 0 1 55.07 333.40
  L 78.76 333.42
  Q 79.20 333.42 79.44 333.79
  L 166.91 470.92
  Q 167.16 471.31 167.12 470.85
  Z"
/>
<path fill="white" d="
  M 239.96 350.90
  L 239.97 404.11
  A 0.37 0.37 0.0 0 0 240.34 404.48
  L 298.14 404.47
  A 0.37 0.37 0.0 0 1 298.51 404.84
  L 298.50 421.31
  A 0.37 0.37 0.0 0 1 298.13 421.68
  L 240.34 421.68
  A 0.37 0.37 0.0 0 0 239.97 422.05
  L 239.97 477.90
  A 0.37 0.37 0.0 0 0 240.34 478.27
  L 306.50 478.27
  A 0.37 0.37 0.0 0 1 306.87 478.64
  L 306.87 495.12
  A 0.37 0.37 0.0 0 1 306.50 495.49
  L 221.35 495.49
  A 0.37 0.37 0.0 0 1 220.98 495.12
  L 220.98 333.73
  A 0.37 0.37 0.0 0 1 221.35 333.36
  L 302.78 333.35
  A 0.37 0.37 0.0 0 1 303.15 333.72
  L 303.16 350.16
  A 0.37 0.37 0.0 0 1 302.79 350.53
  L 240.33 350.53
  A 0.37 0.37 0.0 0 0 239.96 350.90
  Z"
/>
<path fill="white" d="
  M 370.98 350.55
  L 325.24 350.52
  A 0.51 0.51 0.0 0 1 324.73 350.01
  L 324.73 333.86
  A 0.51 0.51 0.0 0 1 325.24 333.35
  L 436.70 333.35
  A 0.51 0.51 0.0 0 1 437.21 333.86
  L 437.22 350.01
  A 0.51 0.51 0.0 0 1 436.71 350.52
  L 391.02 350.55
  A 0.51 0.51 0.0 0 0 390.51 351.06
  L 390.50 494.98
  A 0.51 0.51 0.0 0 1 389.99 495.49
  L 372.00 495.49
  A 0.51 0.51 0.0 0 1 371.49 494.98
  L 371.49 351.06
  A 0.51 0.51 0.0 0 0 370.98 350.55
  Z"
/>
<ellipse fill="white" cx="0.00" cy="0.00" transform="translate(14.19,485.29) rotate(86.7)" rx="12.75" ry="12.57"/>
</svg>
