<?xml version="1.0" encoding="UTF-8" standalone="no"?>
<!DOCTYPE svg PUBLIC "-//W3C//DTD SVG 1.1//EN" "http://www.w3.org/Graphics/SVG/1.1/DTD/svg11.dtd">
<svg xmlns="http://www.w3.org/2000/svg" version="1.1" viewBox="0.00 0.00 800.00 800.00">
<g stroke-width="1.10" fill="none" stroke-linecap="butt">
<path stroke="#6d3db7" vector-effect="non-scaling-stroke" d="
  M 745.64 198.98
  L 629.00 266.42"
/>
<path stroke="#d0bcee" vector-effect="non-scaling-stroke" d="
  M 629.00 266.42
  Q 629.13 266.09 628.59 265.18
  C 603.96 223.86 569.26 189.73 527.06 167.03
  Q 460.14 131.03 383.72 135.73
  C 305.26 140.56 233.86 181.00 187.66 244.03
  C 150.81 294.33 133.90 356.17 138.16 418.25
  Q 142.19 477.03 171.99 529.54"
/>
<path stroke="#653da2" vector-effect="non-scaling-stroke" d="
  M 171.99 529.54
  L 52.66 598.29"
/>
<path stroke="#9c80c8" vector-effect="non-scaling-stroke" d="
  M 629.00 266.42
  L 514.55 332.28"
/>
<path stroke="#d0bcee" vector-effect="non-scaling-stroke" d="
  M 514.55 332.28
  C 489.38 290.72 445.88 266.55 397.49 267.71
  C 346.35 268.94 299.00 301.43 279.84 348.82
  Q 260.03 397.83 279.28 448.00
  Q 281.41 453.54 286.72 463.46"
/>
<path stroke="#9480b4" vector-effect="non-scaling-stroke" d="
  M 286.72 463.46
  Q 316.94 514.42 373.47 527.31
  C 396.65 532.60 422.76 530.82 444.73 523.05
  Q 489.83 507.10 514.90 464.91
  Q 515.02 464.70 514.97 464.24"
/>
<path stroke="#9c80c8" vector-effect="non-scaling-stroke" d="
  M 514.97 464.24
  L 629.93 530.73"
/>
<path stroke="#9480b4" vector-effect="non-scaling-stroke" d="
  M 629.93 530.73
  Q 603.59 575.89 564.10 606.57
  Q 488.57 665.27 391.99 662.59
  C 308.60 660.27 230.26 616.25 183.31 547.69
  Q 177.30 538.91 171.99 529.54"
/>
<path stroke="#31007d" vector-effect="non-scaling-stroke" d="
  M 745.56 599.26
  Q 745.21 598.93 745.05 598.51
  Q 744.88 598.03 744.44 597.77
  L 629.93 530.73"
/>
<path stroke="#31007d" vector-effect="non-scaling-stroke" d="
  M 514.97 464.24
  L 401.64 398.82
  Q 401.22 398.58 401.12 398.12
  L 401.01 397.66"
/>
<path stroke="#6d3db7" vector-effect="non-scaling-stroke" d="
  M 401.01 397.66
  L 514.55 332.28"
/>
<path stroke="#9c80c8" vector-effect="non-scaling-stroke" d="
  M 605.60 360.50
  A 0.35 0.35 0.0 0 1 605.25 360.15
  L 605.25 323.35
  A 0.35 0.35 0.0 0 0 604.90 323.00
  L 586.87 323.00
  A 0.35 0.35 0.0 0 0 586.52 323.35
  L 586.52 360.15
  A 0.35 0.35 0.0 0 1 586.17 360.50
  L 549.44 360.50
  A 0.35 0.35 0.0 0 0 549.09 360.85
  L 549.10 378.90
  A 0.35 0.35 0.0 0 0 549.45 379.25
  L 586.17 379.25
  A 0.35 0.35 0.0 0 1 586.52 379.60
  L 586.52 416.15
  A 0.35 0.35 0.0 0 1 586.17 416.50
  L 549.44 416.50
  A 0.35 0.35 0.0 0 0 549.09 416.85
  L 549.10 434.90
  A 0.35 0.35 0.0 0 0 549.45 435.25
  L 586.17 435.25
  A 0.35 0.35 0.0 0 1 586.52 435.60
  L 586.52 472.40
  A 0.35 0.35 0.0 0 0 586.87 472.75
  L 604.90 472.75
  A 0.35 0.35 0.0 0 0 605.25 472.40
  L 605.25 435.60
  A 0.35 0.35 0.0 0 1 605.60 435.25
  L 642.35 435.25
  A 0.35 0.35 0.0 0 1 642.70 435.60
  L 642.70 472.40
  A 0.35 0.35 0.0 0 0 643.05 472.75
  L 661.05 472.75
  A 0.35 0.35 0.0 0 0 661.40 472.40
  L 661.41 435.60
  A 0.35 0.35 0.0 0 1 661.76 435.25
  L 698.45 435.25
  A 0.35 0.35 0.0 0 0 698.80 434.90
  L 698.80 416.85
  A 0.35 0.35 0.0 0 0 698.45 416.50
  L 661.75 416.50
  A 0.35 0.35 0.0 0 1 661.40 416.15
  L 661.41 379.60
  A 0.35 0.35 0.0 0 1 661.76 379.25
  L 698.45 379.25
  A 0.35 0.35 0.0 0 0 698.80 378.90
  L 698.80 360.85
  A 0.35 0.35 0.0 0 0 698.45 360.50
  L 661.75 360.50
  A 0.35 0.35 0.0 0 1 661.40 360.15
  L 661.41 323.35
  A 0.35 0.35 0.0 0 0 661.06 323.00
  L 643.05 323.00
  A 0.35 0.35 0.0 0 0 642.70 323.35
  L 642.71 360.15
  A 0.35 0.35 0.0 0 1 642.36 360.50
  L 605.60 360.50"
/>
<path stroke="#653da2" vector-effect="non-scaling-stroke" d="
  M 401.01 397.66
  L 286.72 463.46"
/>
<path stroke="#9c80c8" vector-effect="non-scaling-stroke" d="
  M 642.71 379.59
  A 0.34 0.34 0.0 0 0 642.37 379.25
  L 605.59 379.25
  A 0.34 0.34 0.0 0 0 605.25 379.59
  L 605.25 416.15
  A 0.34 0.34 0.0 0 0 605.59 416.49
  L 642.37 416.49
  A 0.34 0.34 0.0 0 0 642.71 416.15
  L 642.71 379.59"
/>
</g>
<path fill="#a179dc" d="
  M 397.11 0.00
  L 401.03 0.00
  Q 419.65 1.12 435.66 10.33
  Q 646.82 131.79 719.81 173.94
  Q 735.51 183.01 745.64 198.98
  L 629.00 266.42
  Q 629.13 266.09 628.59 265.18
  C 603.96 223.86 569.26 189.73 527.06 167.03
  Q 460.14 131.03 383.72 135.73
  C 305.26 140.56 233.86 181.00 187.66 244.03
  C 150.81 294.33 133.90 356.17 138.16 418.25
  Q 142.19 477.03 171.99 529.54
  L 52.66 598.29
  Q 44.56 582.09 44.56 564.00
  Q 44.48 399.50 44.57 235.00
  C 44.59 216.14 50.06 198.75 63.79 185.56
  C 69.56 180.01 75.94 175.62 83.61 171.22
  Q 223.31 91.12 362.75 10.57
  Q 378.78 1.31 397.11 0.00
  Z"
/>
<path fill="#ffffff" d="
  M 629.00 266.42
  L 514.55 332.28
  C 489.38 290.72 445.88 266.55 397.49 267.71
  C 346.35 268.94 299.00 301.43 279.84 348.82
  Q 260.03 397.83 279.28 448.00
  Q 281.41 453.54 286.72 463.46
  Q 316.94 514.42 373.47 527.31
  C 396.65 532.60 422.76 530.82 444.73 523.05
  Q 489.83 507.10 514.90 464.91
  Q 515.02 464.70 514.97 464.24
  L 629.93 530.73
  Q 603.59 575.89 564.10 606.57
  Q 488.57 665.27 391.99 662.59
  C 308.60 660.27 230.26 616.25 183.31 547.69
  Q 177.30 538.91 171.99 529.54
  Q 142.19 477.03 138.16 418.25
  C 133.90 356.17 150.81 294.33 187.66 244.03
  C 233.86 181.00 305.26 140.56 383.72 135.73
  Q 460.14 131.03 527.06 167.03
  C 569.26 189.73 603.96 223.86 628.59 265.18
  Q 629.13 266.09 629.00 266.42
  Z"
/>
<path fill="#390091" d="
  M 745.64 198.98
  Q 754.42 214.49 754.46 232.50
  Q 754.59 310.47 754.68 565.00
  Q 754.69 582.80 745.56 599.26
  Q 745.21 598.93 745.05 598.51
  Q 744.88 598.03 744.44 597.77
  L 629.93 530.73
  L 514.97 464.24
  L 401.64 398.82
  Q 401.22 398.58 401.12 398.12
  L 401.01 397.66
  L 514.55 332.28
  L 629.00 266.42
  L 745.64 198.98
  Z
  M 605.60 360.50
  A 0.35 0.35 0.0 0 1 605.25 360.15
  L 605.25 323.35
  A 0.35 0.35 0.0 0 0 604.90 323.00
  L 586.87 323.00
  A 0.35 0.35 0.0 0 0 586.52 323.35
  L 586.52 360.15
  A 0.35 0.35 0.0 0 1 586.17 360.50
  L 549.44 360.50
  A 0.35 0.35 0.0 0 0 549.09 360.85
  L 549.10 378.90
  A 0.35 0.35 0.0 0 0 549.45 379.25
  L 586.17 379.25
  A 0.35 0.35 0.0 0 1 586.52 379.60
  L 586.52 416.15
  A 0.35 0.35 0.0 0 1 586.17 416.50
  L 549.44 416.50
  A 0.35 0.35 0.0 0 0 549.09 416.85
  L 549.10 434.90
  A 0.35 0.35 0.0 0 0 549.45 435.25
  L 586.17 435.25
  A 0.35 0.35 0.0 0 1 586.52 435.60
  L 586.52 472.40
  A 0.35 0.35 0.0 0 0 586.87 472.75
  L 604.90 472.75
  A 0.35 0.35 0.0 0 0 605.25 472.40
  L 605.25 435.60
  A 0.35 0.35 0.0 0 1 605.60 435.25
  L 642.35 435.25
  A 0.35 0.35 0.0 0 1 642.70 435.60
  L 642.70 472.40
  A 0.35 0.35 0.0 0 0 643.05 472.75
  L 661.05 472.75
  A 0.35 0.35 0.0 0 0 661.40 472.40
  L 661.41 435.60
  A 0.35 0.35 0.0 0 1 661.76 435.25
  L 698.45 435.25
  A 0.35 0.35 0.0 0 0 698.80 434.90
  L 698.80 416.85
  A 0.35 0.35 0.0 0 0 698.45 416.50
  L 661.75 416.50
  A 0.35 0.35 0.0 0 1 661.40 416.15
  L 661.41 379.60
  A 0.35 0.35 0.0 0 1 661.76 379.25
  L 698.45 379.25
  A 0.35 0.35 0.0 0 0 698.80 378.90
  L 698.80 360.85
  A 0.35 0.35 0.0 0 0 698.45 360.50
  L 661.75 360.50
  A 0.35 0.35 0.0 0 1 661.40 360.15
  L 661.41 323.35
  A 0.35 0.35 0.0 0 0 661.06 323.00
  L 643.05 323.00
  A 0.35 0.35 0.0 0 0 642.70 323.35
  L 642.71 360.15
  A 0.35 0.35 0.0 0 1 642.36 360.50
  L 605.60 360.50
  Z"
/>
<path fill="#a179dc" d="
  M 514.55 332.28
  L 401.01 397.66
  L 286.72 463.46
  Q 281.41 453.54 279.28 448.00
  Q 260.03 397.83 279.84 348.82
  C 299.00 301.43 346.35 268.94 397.49 267.71
  C 445.88 266.55 489.38 290.72 514.55 332.28
  Z"
/>
<path fill="#ffffff" d="
  M 605.60 360.50
  L 642.36 360.50
  A 0.35 0.35 0.0 0 0 642.71 360.15
  L 642.70 323.35
  A 0.35 0.35 0.0 0 1 643.05 323.00
  L 661.06 323.00
  A 0.35 0.35 0.0 0 1 661.41 323.35
  L 661.40 360.15
  A 0.35 0.35 0.0 0 0 661.75 360.50
  L 698.45 360.50
  A 0.35 0.35 0.0 0 1 698.80 360.85
  L 698.80 378.90
  A 0.35 0.35 0.0 0 1 698.45 379.25
  L 661.76 379.25
  A 0.35 0.35 0.0 0 0 661.41 379.60
  L 661.40 416.15
  A 0.35 0.35 0.0 0 0 661.75 416.50
  L 698.45 416.50
  A 0.35 0.35 0.0 0 1 698.80 416.85
  L 698.80 434.90
  A 0.35 0.35 0.0 0 1 698.45 435.25
  L 661.76 435.25
  A 0.35 0.35 0.0 0 0 661.41 435.60
  L 661.40 472.40
  A 0.35 0.35 0.0 0 1 661.05 472.75
  L 643.05 472.75
  A 0.35 0.35 0.0 0 1 642.70 472.40
  L 642.70 435.60
  A 0.35 0.35 0.0 0 0 642.35 435.25
  L 605.60 435.25
  A 0.35 0.35 0.0 0 0 605.25 435.60
  L 605.25 472.40
  A 0.35 0.35 0.0 0 1 604.90 472.75
  L 586.87 472.75
  A 0.35 0.35 0.0 0 1 586.52 472.40
  L 586.52 435.60
  A 0.35 0.35 0.0 0 0 586.17 435.25
  L 549.45 435.25
  A 0.35 0.35 0.0 0 1 549.10 434.90
  L 549.09 416.85
  A 0.35 0.35 0.0 0 1 549.44 416.50
  L 586.17 416.50
  A 0.35 0.35 0.0 0 0 586.52 416.15
  L 586.52 379.60
  A 0.35 0.35 0.0 0 0 586.17 379.25
  L 549.45 379.25
  A 0.35 0.35 0.0 0 1 549.10 378.90
  L 549.09 360.85
  A 0.35 0.35 0.0 0 1 549.44 360.50
  L 586.17 360.50
  A 0.35 0.35 0.0 0 0 586.52 360.15
  L 586.52 323.35
  A 0.35 0.35 0.0 0 1 586.87 323.00
  L 604.90 323.00
  A 0.35 0.35 0.0 0 1 605.25 323.35
  L 605.25 360.15
  A 0.35 0.35 0.0 0 0 605.60 360.50
  Z
  M 642.71 379.59
  A 0.34 0.34 0.0 0 0 642.37 379.25
  L 605.59 379.25
  A 0.34 0.34 0.0 0 0 605.25 379.59
  L 605.25 416.15
  A 0.34 0.34 0.0 0 0 605.59 416.49
  L 642.37 416.49
  A 0.34 0.34 0.0 0 0 642.71 416.15
  L 642.71 379.59
  Z"
/>
<rect fill="#390091" x="605.25" y="379.25" width="37.46" height="37.24" rx="0.34"/>
<path fill="#280068" d="
  M 401.01 397.66
  L 401.12 398.12
  Q 401.22 398.58 401.64 398.82
  L 514.97 464.24
  Q 515.02 464.70 514.90 464.91
  Q 489.83 507.10 444.73 523.05
  C 422.76 530.82 396.65 532.60 373.47 527.31
  Q 316.94 514.42 286.72 463.46
  L 401.01 397.66
  Z"
/>
<path fill="#280068" d="
  M 171.99 529.54
  Q 177.30 538.91 183.31 547.69
  C 230.26 616.25 308.60 660.27 391.99 662.59
  Q 488.57 665.27 564.10 606.57
  Q 603.59 575.89 629.93 530.73
  L 744.44 597.77
  Q 744.88 598.03 745.05 598.51
  Q 745.21 598.93 745.56 599.26
  C 743.56 602.09 741.85 605.11 739.71 607.55
  Q 730.81 617.70 718.05 625.06
  Q 576.48 706.78 434.83 788.37
  Q 413.36 800.74 388.59 797.04
  C 378.83 795.59 368.45 791.02 359.92 786.09
  Q 219.40 704.91 78.75 623.95
  Q 62.23 614.44 52.66 598.29
  L 171.99 529.54
  Z"
/>
</svg>
