<?xml version="1.0" encoding="UTF-8" standalone="no"?>
<!DOCTYPE svg PUBLIC "-//W3C//DTD SVG 1.1//EN" "http://www.w3.org/Graphics/SVG/1.1/DTD/svg11.dtd">
<svg xmlns="http://www.w3.org/2000/svg" version="1.1" viewBox="0.00 0.00 226.00 223.00">
<path fill="#f37814" d="
  M 66.00 0.00
  L 66.79 0.00
  Q 68.17 1.41 69.87 2.39
  Q 114.39 27.97 159.16 53.71
  A 1.75 1.74 -75.3 0 1 160.04 55.23
  L 159.99 128.47
  A 2.97 2.97 0.0 0 0 161.47 131.04
  L 224.98 167.68
  A 0.72 0.72 0.0 0 1 224.98 168.93
  L 133.86 221.54
  A 5.25 5.24 45.1 0 1 128.60 221.53
  L 66.65 185.44
  A 0.62 0.62 0.0 0 1 66.65 184.37
  L 158.98 130.88
  A 0.59 0.59 0.0 0 0 158.98 129.86
  L 66.71 76.53
  Q 66.00 76.12 66.00 76.95
  L 65.99 184.23
  Q 65.99 184.69 65.58 184.93
  L 0.00 222.99
  L 0.00 113.83
  L 64.34 76.60
  A 3.35 3.35 0.0 0 0 66.00 73.71
  L 66.00 0.00
  Z"
/>
</svg>
