<?xml version="1.0" encoding="UTF-8" standalone="no"?>
<!DOCTYPE svg PUBLIC "-//W3C//DTD SVG 1.1//EN" "http://www.w3.org/Graphics/SVG/1.1/DTD/svg11.dtd">
<svg xmlns="http://www.w3.org/2000/svg" version="1.1" viewBox="0.00 0.00 244.00 206.00">
<g stroke-width="1.10" fill="none" stroke-linecap="butt">
<path stroke="#80c698" vector-effect="non-scaling-stroke" d="
  M 90.38 14.71
  A 8.09 8.09 0.0 0 0 82.29 6.62
  A 8.09 8.09 0.0 0 0 74.20 14.71
  A 8.09 8.09 0.0 0 0 82.29 22.80
  A 8.09 8.09 0.0 0 0 90.38 14.71"
/>
<path stroke="#80c698" vector-effect="non-scaling-stroke" d="
  M 75.20 29.75
  A 8.09 8.09 0.0 0 0 67.11 21.66
  A 8.09 8.09 0.0 0 0 59.02 29.75
  A 8.09 8.09 0.0 0 0 67.11 37.84
  A 8.09 8.09 0.0 0 0 75.20 29.75"
/>
<path stroke="#80c698" vector-effect="non-scaling-stroke" d="
  M 105.59 29.82
  A 8.09 8.09 0.0 0 0 97.50 21.73
  A 8.09 8.09 0.0 0 0 89.41 29.82
  A 8.09 8.09 0.0 0 0 97.50 37.91
  A 8.09 8.09 0.0 0 0 105.59 29.82"
/>
<path stroke="#80c698" vector-effect="non-scaling-stroke" d="
  M 90.38 44.92
  A 8.11 8.11 0.0 0 0 82.27 36.81
  A 8.11 8.11 0.0 0 0 74.16 44.92
  A 8.11 8.11 0.0 0 0 82.27 53.03
  A 8.11 8.11 0.0 0 0 90.38 44.92"
/>
<path stroke="#808080" vector-effect="non-scaling-stroke" d="
  M 95.50 71.98
  L 97.62 71.88
  Q 98.59 71.83 98.53 70.85
  Q 98.52 70.65 98.51 70.45
  Q 98.48 69.73 97.76 69.72
  L 95.58 69.70
  Q 94.72 69.69 94.74 68.83
  L 94.84 65.23
  Q 94.87 64.22 93.98 64.70
  L 93.32 65.06
  A 1.61 1.60 75.5 0 0 92.48 66.49
  L 92.50 69.02
  Q 92.51 69.60 91.93 69.68
  Q 91.43 69.75 90.91 69.87
  Q 90.07 70.08 90.14 70.93
  Q 90.18 71.38 90.60 71.54
  L 91.99 72.06
  Q 92.39 72.21 92.42 72.64
  Q 92.62 75.68 92.40 79.29
  C 92.22 82.38 93.36 84.93 97.14 83.87
  Q 98.36 83.53 98.38 82.32
  Q 98.39 81.74 97.81 81.75
  L 96.04 81.78
  A 1.24 1.23 89.5 0 1 94.79 80.54
  L 94.77 72.75
  Q 94.77 72.02 95.50 71.98"
/>
<path stroke="#808080" vector-effect="non-scaling-stroke" d="
  M 120.18 65.34
  A 0.75 0.75 0.0 0 0 118.87 64.84
  L 117.69 66.14
  A 0.75 0.75 0.0 0 0 117.49 66.65
  L 117.63 83.13
  A 0.75 0.75 0.0 0 0 118.49 83.86
  L 119.51 83.72
  A 0.75 0.75 0.0 0 0 120.16 82.98
  L 120.18 65.34"
/>
<path stroke="#80c698" vector-effect="non-scaling-stroke" d="
  M 202.19 71.52
  L 204.69 71.50
  Q 205.26 71.50 205.33 70.93
  Q 205.37 70.56 205.29 70.19
  Q 205.14 69.58 204.51 69.53
  L 202.04 69.34
  A 0.56 0.55 -88.3 0 1 201.53 68.79
  L 201.49 64.97
  Q 201.48 64.46 200.97 64.49
  L 200.31 64.53
  Q 199.45 64.57 199.42 65.44
  L 199.29 68.53
  A 0.84 0.84 0.0 0 1 198.73 69.29
  L 197.80 69.59
  Q 196.21 70.12 197.51 71.18
  Q 198.02 71.59 198.65 71.57
  Q 199.33 71.55 199.33 72.22
  Q 199.36 76.56 199.35 80.56
  C 199.35 83.73 201.75 84.25 204.30 83.38
  A 1.20 1.20 0.0 0 0 205.11 82.35
  L 205.15 81.85
  Q 205.19 81.44 204.79 81.46
  L 202.31 81.55
  Q 201.54 81.57 201.54 80.81
  L 201.52 72.19
  A 0.67 0.67 0.0 0 1 202.19 71.52"
/>
<path stroke="#808080" vector-effect="non-scaling-stroke" d="
  M 54.71 70.11
  Q 54.68 69.96 54.68 69.79
  A 0.83 0.83 0.0 0 0 53.84 68.93
  Q 53.21 68.93 52.78 69.50
  Q 52.28 70.17 52.28 71.00
  L 52.28 82.86
  A 1.05 1.05 0.0 0 0 53.37 83.91
  L 53.83 83.90
  A 0.85 0.85 0.0 0 0 54.66 83.03
  Q 54.51 78.75 54.78 74.48
  C 54.94 71.94 57.27 71.72 59.23 71.99
  Q 60.13 72.12 60.28 71.22
  L 60.35 70.78
  Q 60.51 69.81 59.55 69.61
  Q 57.44 69.15 55.61 70.47
  Q 54.88 70.99 54.71 70.11"
/>
<path stroke="#80c698" vector-effect="non-scaling-stroke" d="
  M 133.67 71.88
  Q 135.00 71.21 136.96 71.58
  A 0.82 0.82 0.0 0 0 137.89 71.01
  Q 138.29 69.74 136.76 69.16
  A 1.81 1.79 -45.4 0 0 135.44 69.18
  Q 132.83 70.29 130.36 69.31
  A 0.43 0.43 0.0 0 0 129.77 69.71
  L 129.78 82.31
  Q 129.79 83.58 131.06 83.50
  L 131.36 83.48
  Q 132.38 83.42 132.39 82.39
  L 132.51 73.74
  A 2.12 2.12 0.0 0 1 133.67 71.88"
/>
<path stroke="#80c698" vector-effect="non-scaling-stroke" d="
  M 176.7975 83.7493
  A 7.34 6.31 90.8 0 0 183.2094 76.4981
  A 7.34 6.31 90.8 0 0 177.0025 69.0707
  A 7.34 6.31 90.8 0 0 170.5906 76.3219
  A 7.34 6.31 90.8 0 0 176.7975 83.7493"
/>
<path stroke="#80c698" vector-effect="non-scaling-stroke" d="
  M 143.27 77.25
  L 150.50 77.24
  Q 153.33 77.24 152.29 74.61
  Q 151.67 73.03 151.31 72.11
  Q 150.26 69.43 147.38 69.26
  C 136.04 68.60 139.14 87.99 149.77 82.95
  Q 150.86 82.44 150.50 81.26
  Q 150.31 80.63 149.66 80.75
  C 148.70 80.94 147.96 81.55 146.94 81.58
  Q 143.32 81.69 142.66 77.97
  Q 142.54 77.25 143.27 77.25"
/>
<path stroke="#80c698" vector-effect="non-scaling-stroke" d="
  M 159.08 82.78
  C 170.21 88.06 171.06 65.37 159.37 69.91
  Q 158.82 70.12 158.26 69.93
  L 156.83 69.43
  A 0.80 0.80 0.0 0 0 155.77 70.18
  L 155.79 87.75
  Q 155.79 88.54 156.55 88.33
  Q 157.36 88.11 157.83 87.48
  Q 158.39 86.74 158.39 85.81
  L 158.39 83.22
  Q 158.38 82.45 159.08 82.78"
/>
<path stroke="#80c698" vector-effect="non-scaling-stroke" d="
  M 190.39 71.89
  Q 191.97 71.18 193.74 71.54
  A 1.00 1.00 0.0 0 0 194.91 70.30
  Q 194.50 68.80 193.00 69.27
  Q 190.14 70.17 187.47 69.31
  A 0.53 0.53 0.0 0 0 186.78 69.82
  L 186.79 82.52
  Q 186.79 83.49 187.77 83.51
  L 188.33 83.52
  A 0.94 0.93 -0.6 0 0 189.28 82.56
  C 189.21 79.93 188.75 74.87 189.85 72.44
  Q 190.02 72.06 190.39 71.89"
/>
<path stroke="#80c698" vector-effect="non-scaling-stroke" d="
  M 212.31 71.38
  Q 214.27 70.81 216.28 71.99
  A 0.87 0.87 0.0 0 0 217.53 71.54
  L 217.63 71.27
  A 1.05 1.04 20.6 0 0 217.02 69.93
  C 213.72 68.65 207.61 68.75 208.80 73.99
  C 209.31 76.19 213.39 77.47 215.22 78.24
  A 1.64 1.64 0.0 0 1 215.68 80.97
  C 214.05 82.42 211.25 81.35 209.54 80.40
  A 0.61 0.60 22.5 0 0 208.67 80.76
  L 208.56 81.15
  Q 208.23 82.27 209.29 82.76
  C 211.97 84.00 216.57 84.56 218.28 81.44
  C 219.60 79.05 218.00 76.40 215.53 75.73
  Q 213.06 75.06 211.70 73.66
  Q 210.12 72.02 212.31 71.38"
/>
<path stroke="#808080" vector-effect="non-scaling-stroke" d="
  M 39.87 78.55
  C 39.04 74.33 41.15 69.56 46.23 72.92
  Q 46.75 73.27 47.28 72.93
  Q 47.51 72.79 47.66 72.57
  A 1.18 1.18 0.0 0 0 47.45 70.98
  Q 44.86 68.82 41.81 69.63
  C 36.72 71.00 35.95 78.00 38.73 81.76
  C 40.94 84.77 45.17 84.76 47.63 82.12
  Q 48.42 81.28 47.46 80.54
  Q 46.95 80.15 46.39 80.46
  Q 45.75 80.82 45.10 81.25
  C 42.70 82.82 40.38 81.14 39.87 78.55"
/>
<path stroke="#808080" vector-effect="non-scaling-stroke" d="
  M 69.59 79.75
  A 0.47 0.47 0.0 0 1 68.70 79.74
  L 65.36 69.97
  A 0.47 0.47 0.0 0 0 64.91 69.65
  L 63.26 69.65
  A 0.47 0.47 0.0 0 0 62.82 70.29
  L 67.88 83.40
  A 0.47 0.47 0.0 0 1 67.88 83.74
  L 65.53 89.55
  A 0.47 0.47 0.0 0 0 65.98 90.20
  L 67.42 90.16
  A 0.47 0.47 0.0 0 0 67.84 89.86
  L 75.48 70.24
  A 0.47 0.47 0.0 0 0 75.02 69.60
  L 73.48 69.67
  A 0.47 0.47 0.0 0 0 73.05 69.98
  L 69.59 79.75"
/>
<path stroke="#808080" vector-effect="non-scaling-stroke" d="
  M 80.73 71.88
  Q 82.40 70.95 85.20 72.29
  A 1.02 1.00 30.7 0 0 86.45 71.98
  Q 86.63 71.74 86.64 71.45
  Q 86.65 70.64 85.91 70.28
  C 82.91 68.85 76.81 69.00 77.50 73.81
  C 77.90 76.57 81.67 77.50 83.87 78.45
  A 1.82 1.81 -70.4 0 1 84.89 80.62
  C 84.22 82.93 80.08 81.67 78.72 80.85
  Q 77.83 80.31 77.51 81.30
  Q 77.46 81.44 77.43 81.59
  A 1.40 1.40 0.0 0 0 78.19 83.12
  C 81.46 84.71 87.95 84.75 87.58 79.48
  C 87.38 76.68 82.82 75.41 80.74 74.26
  A 1.36 1.36 0.0 0 1 80.73 71.88"
/>
<path stroke="#808080" vector-effect="non-scaling-stroke" d="
  M 110.74 73.80
  Q 111.29 75.38 109.64 75.14
  C 97.53 73.37 100.80 86.77 108.81 83.51
  Q 110.26 82.92 111.66 83.71
  A 1.07 1.06 15.7 0 0 113.25 82.82
  Q 113.40 78.11 113.15 74.26
  C 112.83 69.12 107.86 68.64 104.03 70.07
  A 1.01 1.01 0.0 0 0 103.39 71.21
  Q 103.49 71.72 103.89 72.03
  A 0.82 0.82 0.0 0 0 104.71 72.13
  Q 106.54 71.32 108.48 71.61
  Q 110.07 71.85 110.59 73.37
  Q 110.65 73.54 110.74 73.80"
/>
<path stroke="#80c698" vector-effect="non-scaling-stroke" d="
  M 224.8139 84.3900
  A 3.08 2.35 90.3 0 0 227.1800 81.3223
  A 3.08 2.35 90.3 0 0 224.8461 78.2300
  A 3.08 2.35 90.3 0 0 222.4800 81.2977
  A 3.08 2.35 90.3 0 0 224.8139 84.3900"
/>
<path stroke="#8eb1de" vector-effect="non-scaling-stroke" d="
  M 31.72 142.22
  L 31.73 196.51
  A 0.45 0.45 0.0 0 0 32.18 196.96
  L 125.36 196.91
  A 1.89 1.87 22.1 0 0 126.70 196.35
  L 166.32 156.78"
/>
<path stroke="#83d2f3" vector-effect="non-scaling-stroke" d="
  M 166.32 156.78
  L 217.44 105.61
  Q 218.38 104.67 217.05 104.67
  L 32.05 104.65
  Q 31.64 104.65 31.64 105.06
  L 31.72 142.22"
/>
<path stroke="#1184d2" vector-effect="non-scaling-stroke" d="
  M 166.32 156.78
  Q 166.37 156.03 166.17 155.35
  Q 166.02 154.83 165.50 155.00
  L 163.24 155.73"
/>
<path stroke="#83d2f3" vector-effect="non-scaling-stroke" d="
  M 163.24 155.73
  Q 168.67 149.88 168.53 141.50
  C 168.25 124.61 155.04 121.95 141.51 121.99
  Q 132.91 122.02 124.79 121.99
  Q 124.25 121.99 124.25 122.53
  L 124.25 163.29
  Q 124.25 165.91 123.35 163.45
  L 108.31 122.44
  A 0.64 0.64 0.0 0 0 107.71 122.03
  L 93.04 122.01
  A 1.37 1.37 0.0 0 0 91.75 122.91
  L 89.90 128.02"
/>
<path stroke="#0b96de" vector-effect="non-scaling-stroke" d="
  M 89.90 128.02
  Q 89.09 128.38 88.67 128.28
  C 87.24 127.96 84.81 128.11 83.32 128.15
  Q 82.34 128.18 79.77 129.34
  Q 77.69 130.28 75.47 129.97"
/>
<path stroke="#83d2f3" vector-effect="non-scaling-stroke" d="
  M 75.47 129.97
  L 77.50 126.29
  Q 77.76 125.82 77.27 125.60
  C 66.36 120.59 50.20 118.39 40.11 126.29
  C 34.70 130.53 34.22 135.20 34.24 141.70"
/>
<path stroke="#1184d2" vector-effect="non-scaling-stroke" d="
  M 34.24 141.70
  Q 33.63 142.32 33.11 142.00
  Q 32.75 141.78 32.36 141.95
  L 31.72 142.22"
/>
<path stroke="#87c3ea" vector-effect="non-scaling-stroke" d="
  M 75.47 129.97
  L 71.79 136.44
  A 0.83 0.82 28.5 0 1 70.69 136.76
  C 66.11 134.37 53.20 130.60 49.71 136.41
  Q 49.41 136.91 49.59 137.47
  C 50.52 140.30 54.49 142.00 57.09 142.85
  C 65.09 145.48 75.46 148.05 78.06 157.22
  Q 78.42 158.48 78.88 157.26
  L 89.90 128.02"
/>
<path stroke="#8eb1de" vector-effect="non-scaling-stroke" d="
  M 163.24 155.73
  C 156.60 161.56 148.69 161.75 140.22 161.52
  Q 139.69 161.50 139.69 162.03
  L 139.74 178.99
  A 0.26 0.25 -0.0 0 1 139.48 179.24
  L 112.95 179.21
  A 0.89 0.89 0.0 0 1 112.11 178.58
  L 109.99 171.54
  Q 109.79 170.87 109.12 171.05
  C 103.09 172.70 96.55 172.77 90.86 171.01
  A 0.81 0.80 17.9 0 0 89.86 171.52
  L 87.48 178.73
  Q 87.32 179.24 86.78 179.24
  L 71.32 179.23
  A 0.54 0.54 0.0 0 1 70.87 178.40
  Q 71.71 177.09 72.05 175.76
  Q 72.47 174.12 71.15 175.18
  C 61.38 183.14 45.52 180.54 34.92 175.07
  Q 34.19 174.69 34.55 173.95
  L 39.47 163.98
  Q 39.83 163.24 40.52 163.69
  Q 48.71 168.96 58.53 167.18
  C 61.37 166.66 63.90 162.91 61.07 160.64
  Q 59.06 159.02 56.93 158.36
  C 48.18 155.61 36.21 152.36 34.24 141.70"
/>
<path stroke="#87c3ea" vector-effect="non-scaling-stroke" d="
  M 156.6902 196.1100
  A 5.79 5.27 89.8 0 0 161.9400 190.3016
  A 5.79 5.27 89.8 0 0 156.6498 184.5300
  A 5.79 5.27 89.8 0 0 151.4000 190.3384
  A 5.79 5.27 89.8 0 0 156.6902 196.1100"
/>
<path stroke="#80c698" vector-effect="non-scaling-stroke" d="
  M 176.8194 81.5494
  A 5.13 3.94 90.9 0 0 180.8395 76.4819
  A 5.13 3.94 90.9 0 0 176.9806 71.2906
  A 5.13 3.94 90.9 0 0 172.9605 76.3581
  A 5.13 3.94 90.9 0 0 176.8194 81.5494"
/>
<path stroke="#80c698" vector-effect="non-scaling-stroke" d="
  M 142.95 75.27
  L 149.63 75.25
  A 0.29 0.29 0.0 0 0 149.92 74.96
  L 149.92 74.78
  A 3.55 3.49 89.8 0 0 146.41 71.24
  L 146.13 71.24
  A 3.55 3.49 89.8 0 0 142.66 74.80
  L 142.66 74.98
  A 0.29 0.29 0.0 0 0 142.95 75.27"
/>
<path stroke="#80c698" vector-effect="non-scaling-stroke" d="
  M 165.0162 74.4513
  A 3.12 3.12 0.0 0 0 161.8422 71.3862
  L 161.3223 71.3953
  A 3.12 3.12 0.0 0 0 158.2572 74.5693
  L 158.3238 78.3887
  A 3.12 3.12 0.0 0 0 161.4978 81.4538
  L 162.0177 81.4447
  A 3.12 3.12 0.0 0 0 165.0828 78.2707
  L 165.0162 74.4513"
/>
<path stroke="#808080" vector-effect="non-scaling-stroke" d="
  M 110.6954 78.8836
  A 3.30 2.20 -8.3 0 0 107.1124 77.1830
  A 3.30 2.20 -8.3 0 0 104.1646 79.8364
  A 3.30 2.20 -8.3 0 0 107.7476 81.5370
  A 3.30 2.20 -8.3 0 0 110.6954 78.8836"
/>
<path stroke="#87c3ea" vector-effect="non-scaling-stroke" d="
  M 139.70 134.57
  L 139.68 148.45
  A 0.47 0.47 0.0 0 0 140.15 148.92
  L 145.28 148.93
  A 8.24 6.55 0.1 0 0 153.53 142.39
  L 153.53 140.67
  A 8.24 6.55 0.1 0 0 145.30 134.11
  L 140.17 134.10
  A 0.47 0.47 0.0 0 0 139.70 134.57"
/>
<path stroke="#87c3ea" vector-effect="non-scaling-stroke" d="
  M 105.65 157.81
  L 100.50 141.25
  Q 100.02 139.70 99.53 141.25
  L 94.28 157.95
  A 0.64 0.64 0.0 0 0 94.72 158.76
  Q 99.90 160.26 105.05 158.89
  A 0.86 0.85 -16.2 0 0 105.65 157.81"
/>
<path stroke="#87c3ea" vector-effect="non-scaling-stroke" d="
  M 156.7479 194.9580
  A 4.65 4.16 88.3 0 0 160.7682 190.1866
  A 4.65 4.16 88.3 0 0 156.4721 185.6620
  A 4.65 4.16 88.3 0 0 152.4518 190.4334
  A 4.65 4.16 88.3 0 0 156.7479 194.9580"
/>
<path stroke="#87c3ea" vector-effect="non-scaling-stroke" d="
  M 158.12 190.50
  Q 158.86 189.47 158.41 188.21
  Q 158.20 187.61 157.57 187.49
  L 155.23 187.05
  A 0.61 0.60 -84.4 0 0 154.52 187.64
  L 154.44 193.11
  A 0.19 0.18 4.9 0 0 154.61 193.30
  L 154.95 193.32
  A 0.24 0.24 0.0 0 0 155.21 193.09
  Q 155.25 192.53 155.35 192.02
  Q 155.76 190.05 156.83 191.75
  Q 157.45 192.74 158.24 193.61
  Q 158.37 193.74 158.54 193.67
  L 158.89 193.51
  Q 159.17 193.39 159.02 193.11
  L 158.07 191.38
  Q 157.82 190.92 158.12 190.50"
/>
<path stroke="#87c3ea" vector-effect="non-scaling-stroke" d="
  M 157.36 189.03
  A 1.02 1.02 0.0 0 0 156.34 188.01
  A 1.02 1.02 0.0 0 0 155.32 189.03
  A 1.02 1.02 0.0 0 0 156.34 190.05
  A 1.02 1.02 0.0 0 0 157.36 189.03"
/>
</g>
<path fill="#ffffff" d="
  M 0.00 0.00
  L 244.00 0.00
  L 244.00 206.00
  L 0.00 206.00
  L 0.00 0.00
  Z
  M 90.38 14.71
  A 8.09 8.09 0.0 0 0 82.29 6.62
  A 8.09 8.09 0.0 0 0 74.20 14.71
  A 8.09 8.09 0.0 0 0 82.29 22.80
  A 8.09 8.09 0.0 0 0 90.38 14.71
  Z
  M 75.20 29.75
  A 8.09 8.09 0.0 0 0 67.11 21.66
  A 8.09 8.09 0.0 0 0 59.02 29.75
  A 8.09 8.09 0.0 0 0 67.11 37.84
  A 8.09 8.09 0.0 0 0 75.20 29.75
  Z
  M 105.59 29.82
  A 8.09 8.09 0.0 0 0 97.50 21.73
  A 8.09 8.09 0.0 0 0 89.41 29.82
  A 8.09 8.09 0.0 0 0 97.50 37.91
  A 8.09 8.09 0.0 0 0 105.59 29.82
  Z
  M 90.38 44.92
  A 8.11 8.11 0.0 0 0 82.27 36.81
  A 8.11 8.11 0.0 0 0 74.16 44.92
  A 8.11 8.11 0.0 0 0 82.27 53.03
  A 8.11 8.11 0.0 0 0 90.38 44.92
  Z
  M 95.50 71.98
  L 97.62 71.88
  Q 98.59 71.83 98.53 70.85
  Q 98.52 70.65 98.51 70.45
  Q 98.48 69.73 97.76 69.72
  L 95.58 69.70
  Q 94.72 69.69 94.74 68.83
  L 94.84 65.23
  Q 94.87 64.22 93.98 64.70
  L 93.32 65.06
  A 1.61 1.60 75.5 0 0 92.48 66.49
  L 92.50 69.02
  Q 92.51 69.60 91.93 69.68
  Q 91.43 69.75 90.91 69.87
  Q 90.07 70.08 90.14 70.93
  Q 90.18 71.38 90.60 71.54
  L 91.99 72.06
  Q 92.39 72.21 92.42 72.64
  Q 92.62 75.68 92.40 79.29
  C 92.22 82.38 93.36 84.93 97.14 83.87
  Q 98.36 83.53 98.38 82.32
  Q 98.39 81.74 97.81 81.75
  L 96.04 81.78
  A 1.24 1.23 89.5 0 1 94.79 80.54
  L 94.77 72.75
  Q 94.77 72.02 95.50 71.98
  Z
  M 120.18 65.34
  A 0.75 0.75 0.0 0 0 118.87 64.84
  L 117.69 66.14
  A 0.75 0.75 0.0 0 0 117.49 66.65
  L 117.63 83.13
  A 0.75 0.75 0.0 0 0 118.49 83.86
  L 119.51 83.72
  A 0.75 0.75 0.0 0 0 120.16 82.98
  L 120.18 65.34
  Z
  M 202.19 71.52
  L 204.69 71.50
  Q 205.26 71.50 205.33 70.93
  Q 205.37 70.56 205.29 70.19
  Q 205.14 69.58 204.51 69.53
  L 202.04 69.34
  A 0.56 0.55 -88.3 0 1 201.53 68.79
  L 201.49 64.97
  Q 201.48 64.46 200.97 64.49
  L 200.31 64.53
  Q 199.45 64.57 199.42 65.44
  L 199.29 68.53
  A 0.84 0.84 0.0 0 1 198.73 69.29
  L 197.80 69.59
  Q 196.21 70.12 197.51 71.18
  Q 198.02 71.59 198.65 71.57
  Q 199.33 71.55 199.33 72.22
  Q 199.36 76.56 199.35 80.56
  C 199.35 83.73 201.75 84.25 204.30 83.38
  A 1.20 1.20 0.0 0 0 205.11 82.35
  L 205.15 81.85
  Q 205.19 81.44 204.79 81.46
  L 202.31 81.55
  Q 201.54 81.57 201.54 80.81
  L 201.52 72.19
  A 0.67 0.67 0.0 0 1 202.19 71.52
  Z
  M 54.71 70.11
  Q 54.68 69.96 54.68 69.79
  A 0.83 0.83 0.0 0 0 53.84 68.93
  Q 53.21 68.93 52.78 69.50
  Q 52.28 70.17 52.28 71.00
  L 52.28 82.86
  A 1.05 1.05 0.0 0 0 53.37 83.91
  L 53.83 83.90
  A 0.85 0.85 0.0 0 0 54.66 83.03
  Q 54.51 78.75 54.78 74.48
  C 54.94 71.94 57.27 71.72 59.23 71.99
  Q 60.13 72.12 60.28 71.22
  L 60.35 70.78
  Q 60.51 69.81 59.55 69.61
  Q 57.44 69.15 55.61 70.47
  Q 54.88 70.99 54.71 70.11
  Z
  M 133.67 71.88
  Q 135.00 71.21 136.96 71.58
  A 0.82 0.82 0.0 0 0 137.89 71.01
  Q 138.29 69.74 136.76 69.16
  A 1.81 1.79 -45.4 0 0 135.44 69.18
  Q 132.83 70.29 130.36 69.31
  A 0.43 0.43 0.0 0 0 129.77 69.71
  L 129.78 82.31
  Q 129.79 83.58 131.06 83.50
  L 131.36 83.48
  Q 132.38 83.42 132.39 82.39
  L 132.51 73.74
  A 2.12 2.12 0.0 0 1 133.67 71.88
  Z
  M 176.7975 83.7493
  A 7.34 6.31 90.8 0 0 183.2094 76.4981
  A 7.34 6.31 90.8 0 0 177.0025 69.0707
  A 7.34 6.31 90.8 0 0 170.5906 76.3219
  A 7.34 6.31 90.8 0 0 176.7975 83.7493
  Z
  M 143.27 77.25
  L 150.50 77.24
  Q 153.33 77.24 152.29 74.61
  Q 151.67 73.03 151.31 72.11
  Q 150.26 69.43 147.38 69.26
  C 136.04 68.60 139.14 87.99 149.77 82.95
  Q 150.86 82.44 150.50 81.26
  Q 150.31 80.63 149.66 80.75
  C 148.70 80.94 147.96 81.55 146.94 81.58
  Q 143.32 81.69 142.66 77.97
  Q 142.54 77.25 143.27 77.25
  Z
  M 159.08 82.78
  C 170.21 88.06 171.06 65.37 159.37 69.91
  Q 158.82 70.12 158.26 69.93
  L 156.83 69.43
  A 0.80 0.80 0.0 0 0 155.77 70.18
  L 155.79 87.75
  Q 155.79 88.54 156.55 88.33
  Q 157.36 88.11 157.83 87.48
  Q 158.39 86.74 158.39 85.81
  L 158.39 83.22
  Q 158.38 82.45 159.08 82.78
  Z
  M 190.39 71.89
  Q 191.97 71.18 193.74 71.54
  A 1.00 1.00 0.0 0 0 194.91 70.30
  Q 194.50 68.80 193.00 69.27
  Q 190.14 70.17 187.47 69.31
  A 0.53 0.53 0.0 0 0 186.78 69.82
  L 186.79 82.52
  Q 186.79 83.49 187.77 83.51
  L 188.33 83.52
  A 0.94 0.93 -0.6 0 0 189.28 82.56
  C 189.21 79.93 188.75 74.87 189.85 72.44
  Q 190.02 72.06 190.39 71.89
  Z
  M 212.31 71.38
  Q 214.27 70.81 216.28 71.99
  A 0.87 0.87 0.0 0 0 217.53 71.54
  L 217.63 71.27
  A 1.05 1.04 20.6 0 0 217.02 69.93
  C 213.72 68.65 207.61 68.75 208.80 73.99
  C 209.31 76.19 213.39 77.47 215.22 78.24
  A 1.64 1.64 0.0 0 1 215.68 80.97
  C 214.05 82.42 211.25 81.35 209.54 80.40
  A 0.61 0.60 22.5 0 0 208.67 80.76
  L 208.56 81.15
  Q 208.23 82.27 209.29 82.76
  C 211.97 84.00 216.57 84.56 218.28 81.44
  C 219.60 79.05 218.00 76.40 215.53 75.73
  Q 213.06 75.06 211.70 73.66
  Q 210.12 72.02 212.31 71.38
  Z
  M 39.87 78.55
  C 39.04 74.33 41.15 69.56 46.23 72.92
  Q 46.75 73.27 47.28 72.93
  Q 47.51 72.79 47.66 72.57
  A 1.18 1.18 0.0 0 0 47.45 70.98
  Q 44.86 68.82 41.81 69.63
  C 36.72 71.00 35.95 78.00 38.73 81.76
  C 40.94 84.77 45.17 84.76 47.63 82.12
  Q 48.42 81.28 47.46 80.54
  Q 46.95 80.15 46.39 80.46
  Q 45.75 80.82 45.10 81.25
  C 42.70 82.82 40.38 81.14 39.87 78.55
  Z
  M 69.59 79.75
  A 0.47 0.47 0.0 0 1 68.70 79.74
  L 65.36 69.97
  A 0.47 0.47 0.0 0 0 64.91 69.65
  L 63.26 69.65
  A 0.47 0.47 0.0 0 0 62.82 70.29
  L 67.88 83.40
  A 0.47 0.47 0.0 0 1 67.88 83.74
  L 65.53 89.55
  A 0.47 0.47 0.0 0 0 65.98 90.20
  L 67.42 90.16
  A 0.47 0.47 0.0 0 0 67.84 89.86
  L 75.48 70.24
  A 0.47 0.47 0.0 0 0 75.02 69.60
  L 73.48 69.67
  A 0.47 0.47 0.0 0 0 73.05 69.98
  L 69.59 79.75
  Z
  M 80.73 71.88
  Q 82.40 70.95 85.20 72.29
  A 1.02 1.00 30.7 0 0 86.45 71.98
  Q 86.63 71.74 86.64 71.45
  Q 86.65 70.64 85.91 70.28
  C 82.91 68.85 76.81 69.00 77.50 73.81
  C 77.90 76.57 81.67 77.50 83.87 78.45
  A 1.82 1.81 -70.4 0 1 84.89 80.62
  C 84.22 82.93 80.08 81.67 78.72 80.85
  Q 77.83 80.31 77.51 81.30
  Q 77.46 81.44 77.43 81.59
  A 1.40 1.40 0.0 0 0 78.19 83.12
  C 81.46 84.71 87.95 84.75 87.58 79.48
  C 87.38 76.68 82.82 75.41 80.74 74.26
  A 1.36 1.36 0.0 0 1 80.73 71.88
  Z
  M 110.74 73.80
  Q 111.29 75.38 109.64 75.14
  C 97.53 73.37 100.80 86.77 108.81 83.51
  Q 110.26 82.92 111.66 83.71
  A 1.07 1.06 15.7 0 0 113.25 82.82
  Q 113.40 78.11 113.15 74.26
  C 112.83 69.12 107.86 68.64 104.03 70.07
  A 1.01 1.01 0.0 0 0 103.39 71.21
  Q 103.49 71.72 103.89 72.03
  A 0.82 0.82 0.0 0 0 104.71 72.13
  Q 106.54 71.32 108.48 71.61
  Q 110.07 71.85 110.59 73.37
  Q 110.65 73.54 110.74 73.80
  Z
  M 224.8139 84.3900
  A 3.08 2.35 90.3 0 0 227.1800 81.3223
  A 3.08 2.35 90.3 0 0 224.8461 78.2300
  A 3.08 2.35 90.3 0 0 222.4800 81.2977
  A 3.08 2.35 90.3 0 0 224.8139 84.3900
  Z
  M 31.72 142.22
  L 31.73 196.51
  A 0.45 0.45 0.0 0 0 32.18 196.96
  L 125.36 196.91
  A 1.89 1.87 22.1 0 0 126.70 196.35
  L 166.32 156.78
  L 217.44 105.61
  Q 218.38 104.67 217.05 104.67
  L 32.05 104.65
  Q 31.64 104.65 31.64 105.06
  L 31.72 142.22
  Z
  M 156.6902 196.1100
  A 5.79 5.27 89.8 0 0 161.9400 190.3016
  A 5.79 5.27 89.8 0 0 156.6498 184.5300
  A 5.79 5.27 89.8 0 0 151.4000 190.3384
  A 5.79 5.27 89.8 0 0 156.6902 196.1100
  Z"
/>
<circle fill="#018d31" cx="82.29" cy="14.71" r="8.09"/>
<circle fill="#018d31" cx="67.11" cy="29.75" r="8.09"/>
<circle fill="#018d31" cx="97.50" cy="29.82" r="8.09"/>
<circle fill="#018d31" cx="82.27" cy="44.92" r="8.11"/>
<path fill="#000000" d="
  M 94.77 72.75
  L 94.79 80.54
  A 1.24 1.23 89.5 0 0 96.04 81.78
  L 97.81 81.75
  Q 98.39 81.74 98.38 82.32
  Q 98.36 83.53 97.14 83.87
  C 93.36 84.93 92.22 82.38 92.40 79.29
  Q 92.62 75.68 92.42 72.64
  Q 92.39 72.21 91.99 72.06
  L 90.60 71.54
  Q 90.18 71.38 90.14 70.93
  Q 90.07 70.08 90.91 69.87
  Q 91.43 69.75 91.93 69.68
  Q 92.51 69.60 92.50 69.02
  L 92.48 66.49
  A 1.61 1.60 75.5 0 1 93.32 65.06
  L 93.98 64.70
  Q 94.87 64.22 94.84 65.23
  L 94.74 68.83
  Q 94.72 69.69 95.58 69.70
  L 97.76 69.72
  Q 98.48 69.73 98.51 70.45
  Q 98.52 70.65 98.53 70.85
  Q 98.59 71.83 97.62 71.88
  L 95.50 71.98
  Q 94.77 72.02 94.77 72.75
  Z"
/>
<path fill="#000000" d="
  M 120.18 65.34
  L 120.16 82.98
  A 0.75 0.75 0.0 0 1 119.51 83.72
  L 118.49 83.86
  A 0.75 0.75 0.0 0 1 117.63 83.13
  L 117.49 66.65
  A 0.75 0.75 0.0 0 1 117.69 66.14
  L 118.87 64.84
  A 0.75 0.75 0.0 0 1 120.18 65.34
  Z"
/>
<path fill="#018d31" d="
  M 201.52 72.19
  L 201.54 80.81
  Q 201.54 81.57 202.31 81.55
  L 204.79 81.46
  Q 205.19 81.44 205.15 81.85
  L 205.11 82.35
  A 1.20 1.20 0.0 0 1 204.30 83.38
  C 201.75 84.25 199.35 83.73 199.35 80.56
  Q 199.36 76.56 199.33 72.22
  Q 199.33 71.55 198.65 71.57
  Q 198.02 71.59 197.51 71.18
  Q 196.21 70.12 197.80 69.59
  L 198.73 69.29
  A 0.84 0.84 0.0 0 0 199.29 68.53
  L 199.42 65.44
  Q 199.45 64.57 200.31 64.53
  L 200.97 64.49
  Q 201.48 64.46 201.49 64.97
  L 201.53 68.79
  A 0.56 0.55 -88.3 0 0 202.04 69.34
  L 204.51 69.53
  Q 205.14 69.58 205.29 70.19
  Q 205.37 70.56 205.33 70.93
  Q 205.26 71.50 204.69 71.50
  L 202.19 71.52
  A 0.67 0.67 0.0 0 0 201.52 72.19
  Z"
/>
<path fill="#000000" d="
  M 55.61 70.47
  Q 57.44 69.15 59.55 69.61
  Q 60.51 69.81 60.35 70.78
  L 60.28 71.22
  Q 60.13 72.12 59.23 71.99
  C 57.27 71.72 54.94 71.94 54.78 74.48
  Q 54.51 78.75 54.66 83.03
  A 0.85 0.85 0.0 0 1 53.83 83.90
  L 53.37 83.91
  A 1.05 1.05 0.0 0 1 52.28 82.86
  L 52.28 71.00
  Q 52.28 70.17 52.78 69.50
  Q 53.21 68.93 53.84 68.93
  A 0.83 0.83 0.0 0 1 54.68 69.79
  Q 54.68 69.96 54.71 70.11
  Q 54.88 70.99 55.61 70.47
  Z"
/>
<path fill="#018d31" d="
  M 133.67 71.88
  A 2.12 2.12 0.0 0 0 132.51 73.74
  L 132.39 82.39
  Q 132.38 83.42 131.36 83.48
  L 131.06 83.50
  Q 129.79 83.58 129.78 82.31
  L 129.77 69.71
  A 0.43 0.43 0.0 0 1 130.36 69.31
  Q 132.83 70.29 135.44 69.18
  A 1.81 1.79 -45.4 0 1 136.76 69.16
  Q 138.29 69.74 137.89 71.01
  A 0.82 0.82 0.0 0 1 136.96 71.58
  Q 135.00 71.21 133.67 71.88
  Z"
/>
<path fill="#018d31" d="
  M 176.7975 83.7493
  A 7.34 6.31 90.8 0 1 170.5906 76.3219
  A 7.34 6.31 90.8 0 1 177.0025 69.0707
  A 7.34 6.31 90.8 0 1 183.2094 76.4981
  A 7.34 6.31 90.8 0 1 176.7975 83.7493
  Z
  M 176.8194 81.5494
  A 5.13 3.94 90.9 0 0 180.8395 76.4819
  A 5.13 3.94 90.9 0 0 176.9806 71.2906
  A 5.13 3.94 90.9 0 0 172.9605 76.3581
  A 5.13 3.94 90.9 0 0 176.8194 81.5494
  Z"
/>
<path fill="#018d31" d="
  M 142.66 77.97
  Q 143.32 81.69 146.94 81.58
  C 147.96 81.55 148.70 80.94 149.66 80.75
  Q 150.31 80.63 150.50 81.26
  Q 150.86 82.44 149.77 82.95
  C 139.14 87.99 136.04 68.60 147.38 69.26
  Q 150.26 69.43 151.31 72.11
  Q 151.67 73.03 152.29 74.61
  Q 153.33 77.24 150.50 77.24
  L 143.27 77.25
  Q 142.54 77.25 142.66 77.97
  Z
  M 142.95 75.27
  L 149.63 75.25
  A 0.29 0.29 0.0 0 0 149.92 74.96
  L 149.92 74.78
  A 3.55 3.49 89.8 0 0 146.41 71.24
  L 146.13 71.24
  A 3.55 3.49 89.8 0 0 142.66 74.80
  L 142.66 74.98
  A 0.29 0.29 0.0 0 0 142.95 75.27
  Z"
/>
<path fill="#018d31" d="
  M 158.39 83.22
  L 158.39 85.81
  Q 158.39 86.74 157.83 87.48
  Q 157.36 88.11 156.55 88.33
  Q 155.79 88.54 155.79 87.75
  L 155.77 70.18
  A 0.80 0.80 0.0 0 1 156.83 69.43
  L 158.26 69.93
  Q 158.82 70.12 159.37 69.91
  C 171.06 65.37 170.21 88.06 159.08 82.78
  Q 158.38 82.45 158.39 83.22
  Z
  M 165.0162 74.4513
  A 3.12 3.12 0.0 0 0 161.8422 71.3862
  L 161.3223 71.3953
  A 3.12 3.12 0.0 0 0 158.2572 74.5693
  L 158.3238 78.3887
  A 3.12 3.12 0.0 0 0 161.4978 81.4538
  L 162.0177 81.4447
  A 3.12 3.12 0.0 0 0 165.0828 78.2707
  L 165.0162 74.4513
  Z"
/>
<path fill="#018d31" d="
  M 189.85 72.44
  C 188.75 74.87 189.21 79.93 189.28 82.56
  A 0.94 0.93 -0.6 0 1 188.33 83.52
  L 187.77 83.51
  Q 186.79 83.49 186.79 82.52
  L 186.78 69.82
  A 0.53 0.53 0.0 0 1 187.47 69.31
  Q 190.14 70.17 193.00 69.27
  Q 194.50 68.80 194.91 70.30
  A 1.00 1.00 0.0 0 1 193.74 71.54
  Q 191.97 71.18 190.39 71.89
  Q 190.02 72.06 189.85 72.44
  Z"
/>
<path fill="#018d31" d="
  M 212.31 71.38
  Q 210.12 72.02 211.70 73.66
  Q 213.06 75.06 215.53 75.73
  C 218.00 76.40 219.60 79.05 218.28 81.44
  C 216.57 84.56 211.97 84.00 209.29 82.76
  Q 208.23 82.27 208.56 81.15
  L 208.67 80.76
  A 0.61 0.60 22.5 0 1 209.54 80.40
  C 211.25 81.35 214.05 82.42 215.68 80.97
  A 1.64 1.64 0.0 0 0 215.22 78.24
  C 213.39 77.47 209.31 76.19 208.80 73.99
  C 207.61 68.75 213.72 68.65 217.02 69.93
  A 1.05 1.04 20.6 0 1 217.63 71.27
  L 217.53 71.54
  A 0.87 0.87 0.0 0 1 216.28 71.99
  Q 214.27 70.81 212.31 71.38
  Z"
/>
<path fill="#000000" d="
  M 46.23 72.92
  C 41.15 69.56 39.04 74.33 39.87 78.55
  C 40.38 81.14 42.70 82.82 45.10 81.25
  Q 45.75 80.82 46.39 80.46
  Q 46.95 80.15 47.46 80.54
  Q 48.42 81.28 47.63 82.12
  C 45.17 84.76 40.94 84.77 38.73 81.76
  C 35.95 78.00 36.72 71.00 41.81 69.63
  Q 44.86 68.82 47.45 70.98
  A 1.18 1.18 0.0 0 1 47.66 72.57
  Q 47.51 72.79 47.28 72.93
  Q 46.75 73.27 46.23 72.92
  Z"
/>
<path fill="#000000" d="
  M 69.59 79.75
  L 73.05 69.98
  A 0.47 0.47 0.0 0 1 73.48 69.67
  L 75.02 69.60
  A 0.47 0.47 0.0 0 1 75.48 70.24
  L 67.84 89.86
  A 0.47 0.47 0.0 0 1 67.42 90.16
  L 65.98 90.20
  A 0.47 0.47 0.0 0 1 65.53 89.55
  L 67.88 83.74
  A 0.47 0.47 0.0 0 0 67.88 83.40
  L 62.82 70.29
  A 0.47 0.47 0.0 0 1 63.26 69.65
  L 64.91 69.65
  A 0.47 0.47 0.0 0 1 65.36 69.97
  L 68.70 79.74
  A 0.47 0.47 0.0 0 0 69.59 79.75
  Z"
/>
<path fill="#000000" d="
  M 80.73 71.88
  A 1.36 1.36 0.0 0 0 80.74 74.26
  C 82.82 75.41 87.38 76.68 87.58 79.48
  C 87.95 84.75 81.46 84.71 78.19 83.12
  A 1.40 1.40 0.0 0 1 77.43 81.59
  Q 77.46 81.44 77.51 81.30
  Q 77.83 80.31 78.72 80.85
  C 80.08 81.67 84.22 82.93 84.89 80.62
  A 1.82 1.81 -70.4 0 0 83.87 78.45
  C 81.67 77.50 77.90 76.57 77.50 73.81
  C 76.81 69.00 82.91 68.85 85.91 70.28
  Q 86.65 70.64 86.64 71.45
  Q 86.63 71.74 86.45 71.98
  A 1.02 1.00 30.7 0 1 85.20 72.29
  Q 82.40 70.95 80.73 71.88
  Z"
/>
<path fill="#000000" d="
  M 110.74 73.80
  Q 110.65 73.54 110.59 73.37
  Q 110.07 71.85 108.48 71.61
  Q 106.54 71.32 104.71 72.13
  A 0.82 0.82 0.0 0 1 103.89 72.03
  Q 103.49 71.72 103.39 71.21
  A 1.01 1.01 0.0 0 1 104.03 70.07
  C 107.86 68.64 112.83 69.12 113.15 74.26
  Q 113.40 78.11 113.25 82.82
  A 1.07 1.06 15.7 0 1 111.66 83.71
  Q 110.26 82.92 108.81 83.51
  C 100.80 86.77 97.53 73.37 109.64 75.14
  Q 111.29 75.38 110.74 73.80
  Z
  M 110.6954 78.8836
  A 3.30 2.20 -8.3 0 0 107.1124 77.1830
  A 3.30 2.20 -8.3 0 0 104.1646 79.8364
  A 3.30 2.20 -8.3 0 0 107.7476 81.5370
  A 3.30 2.20 -8.3 0 0 110.6954 78.8836
  Z"
/>
<path fill="#ffffff" d="
  M 142.95 75.27
  A 0.29 0.29 0.0 0 1 142.66 74.98
  L 142.66 74.80
  A 3.55 3.49 89.8 0 1 146.13 71.24
  L 146.41 71.24
  A 3.55 3.49 89.8 0 1 149.92 74.78
  L 149.92 74.96
  A 0.29 0.29 0.0 0 1 149.63 75.25
  L 142.95 75.27
  Z"
/>
<rect fill="#ffffff" x="-3.38" y="-5.03" transform="translate(161.67,76.42) rotate(-1.0)" width="6.76" height="10.06" rx="3.12"/>
<ellipse fill="#ffffff" cx="0.00" cy="0.00" transform="translate(176.90,76.42) rotate(90.9)" rx="5.13" ry="3.94"/>
<ellipse fill="#ffffff" cx="0.00" cy="0.00" transform="translate(107.43,79.36) rotate(-8.3)" rx="3.30" ry="2.20"/>
<ellipse fill="#018d31" cx="0.00" cy="0.00" transform="translate(224.83,81.31) rotate(90.3)" rx="3.08" ry="2.35"/>
<path fill="#06a5e7" d="
  M 166.32 156.78
  Q 166.37 156.03 166.17 155.35
  Q 166.02 154.83 165.50 155.00
  L 163.24 155.73
  Q 168.67 149.88 168.53 141.50
  C 168.25 124.61 155.04 121.95 141.51 121.99
  Q 132.91 122.02 124.79 121.99
  Q 124.25 121.99 124.25 122.53
  L 124.25 163.29
  Q 124.25 165.91 123.35 163.45
  L 108.31 122.44
  A 0.64 0.64 0.0 0 0 107.71 122.03
  L 93.04 122.01
  A 1.37 1.37 0.0 0 0 91.75 122.91
  L 89.90 128.02
  Q 89.09 128.38 88.67 128.28
  C 87.24 127.96 84.81 128.11 83.32 128.15
  Q 82.34 128.18 79.77 129.34
  Q 77.69 130.28 75.47 129.97
  L 77.50 126.29
  Q 77.76 125.82 77.27 125.60
  C 66.36 120.59 50.20 118.39 40.11 126.29
  C 34.70 130.53 34.22 135.20 34.24 141.70
  Q 33.63 142.32 33.11 142.00
  Q 32.75 141.78 32.36 141.95
  L 31.72 142.22
  L 31.64 105.06
  Q 31.64 104.65 32.05 104.65
  L 217.05 104.67
  Q 218.38 104.67 217.44 105.61
  L 166.32 156.78
  Z"
/>
<path fill="#ffffff" d="
  M 75.47 129.97
  L 71.79 136.44
  A 0.83 0.82 28.5 0 1 70.69 136.76
  C 66.11 134.37 53.20 130.60 49.71 136.41
  Q 49.41 136.91 49.59 137.47
  C 50.52 140.30 54.49 142.00 57.09 142.85
  C 65.09 145.48 75.46 148.05 78.06 157.22
  Q 78.42 158.48 78.88 157.26
  L 89.90 128.02
  L 91.75 122.91
  A 1.37 1.37 0.0 0 1 93.04 122.01
  L 107.71 122.03
  A 0.64 0.64 0.0 0 1 108.31 122.44
  L 123.35 163.45
  Q 124.25 165.91 124.25 163.29
  L 124.25 122.53
  Q 124.25 121.99 124.79 121.99
  Q 132.91 122.02 141.51 121.99
  C 155.04 121.95 168.25 124.61 168.53 141.50
  Q 168.67 149.88 163.24 155.73
  C 156.60 161.56 148.69 161.75 140.22 161.52
  Q 139.69 161.50 139.69 162.03
  L 139.74 178.99
  A 0.26 0.25 -0.0 0 1 139.48 179.24
  L 112.95 179.21
  A 0.89 0.89 0.0 0 1 112.11 178.58
  L 109.99 171.54
  Q 109.79 170.87 109.12 171.05
  C 103.09 172.70 96.55 172.77 90.86 171.01
  A 0.81 0.80 17.9 0 0 89.86 171.52
  L 87.48 178.73
  Q 87.32 179.24 86.78 179.24
  L 71.32 179.23
  A 0.54 0.54 0.0 0 1 70.87 178.40
  Q 71.71 177.09 72.05 175.76
  Q 72.47 174.12 71.15 175.18
  C 61.38 183.14 45.52 180.54 34.92 175.07
  Q 34.19 174.69 34.55 173.95
  L 39.47 163.98
  Q 39.83 163.24 40.52 163.69
  Q 48.71 168.96 58.53 167.18
  C 61.37 166.66 63.90 162.91 61.07 160.64
  Q 59.06 159.02 56.93 158.36
  C 48.18 155.61 36.21 152.36 34.24 141.70
  C 34.22 135.20 34.70 130.53 40.11 126.29
  C 50.20 118.39 66.36 120.59 77.27 125.60
  Q 77.76 125.82 77.50 126.29
  L 75.47 129.97
  Z
  M 139.70 134.57
  L 139.68 148.45
  A 0.47 0.47 0.0 0 0 140.15 148.92
  L 145.28 148.93
  A 8.24 6.55 0.1 0 0 153.53 142.39
  L 153.53 140.67
  A 8.24 6.55 0.1 0 0 145.30 134.11
  L 140.17 134.10
  A 0.47 0.47 0.0 0 0 139.70 134.57
  Z
  M 105.65 157.81
  L 100.50 141.25
  Q 100.02 139.70 99.53 141.25
  L 94.28 157.95
  A 0.64 0.64 0.0 0 0 94.72 158.76
  Q 99.90 160.26 105.05 158.89
  A 0.86 0.85 -16.2 0 0 105.65 157.81
  Z"
/>
<path fill="#0f87d4" d="
  M 89.90 128.02
  L 78.88 157.26
  Q 78.42 158.48 78.06 157.22
  C 75.46 148.05 65.09 145.48 57.09 142.85
  C 54.49 142.00 50.52 140.30 49.59 137.47
  Q 49.41 136.91 49.71 136.41
  C 53.20 130.60 66.11 134.37 70.69 136.76
  A 0.83 0.82 28.5 0 0 71.79 136.44
  L 75.47 129.97
  Q 77.69 130.28 79.77 129.34
  Q 82.34 128.18 83.32 128.15
  C 84.81 128.11 87.24 127.96 88.67 128.28
  Q 89.09 128.38 89.90 128.02
  Z"
/>
<path fill="#0f87d4" d="
  M 139.70 134.57
  A 0.47 0.47 0.0 0 1 140.17 134.10
  L 145.30 134.11
  A 8.24 6.55 0.1 0 1 153.53 140.67
  L 153.53 142.39
  A 8.24 6.55 0.1 0 1 145.28 148.93
  L 140.15 148.92
  A 0.47 0.47 0.0 0 1 139.68 148.45
  L 139.70 134.57
  Z"
/>
<path fill="#0f87d4" d="
  M 100.50 141.25
  L 105.65 157.81
  A 0.86 0.85 -16.2 0 1 105.05 158.89
  Q 99.90 160.26 94.72 158.76
  A 0.64 0.64 0.0 0 1 94.28 157.95
  L 99.53 141.25
  Q 100.02 139.70 100.50 141.25
  Z"
/>
<path fill="#1c62bc" d="
  M 34.24 141.70
  C 36.21 152.36 48.18 155.61 56.93 158.36
  Q 59.06 159.02 61.07 160.64
  C 63.90 162.91 61.37 166.66 58.53 167.18
  Q 48.71 168.96 40.52 163.69
  Q 39.83 163.24 39.47 163.98
  L 34.55 173.95
  Q 34.19 174.69 34.92 175.07
  C 45.52 180.54 61.38 183.14 71.15 175.18
  Q 72.47 174.12 72.05 175.76
  Q 71.71 177.09 70.87 178.40
  A 0.54 0.54 0.0 0 0 71.32 179.23
  L 86.78 179.24
  Q 87.32 179.24 87.48 178.73
  L 89.86 171.52
  A 0.81 0.80 17.9 0 1 90.86 171.01
  C 96.55 172.77 103.09 172.70 109.12 171.05
  Q 109.79 170.87 109.99 171.54
  L 112.11 178.58
  A 0.89 0.89 0.0 0 0 112.95 179.21
  L 139.48 179.24
  A 0.26 0.25 -0.0 0 0 139.74 178.99
  L 139.69 162.03
  Q 139.69 161.50 140.22 161.52
  C 148.69 161.75 156.60 161.56 163.24 155.73
  L 165.50 155.00
  Q 166.02 154.83 166.17 155.35
  Q 166.37 156.03 166.32 156.78
  L 126.70 196.35
  A 1.89 1.87 22.1 0 1 125.36 196.91
  L 32.18 196.96
  A 0.45 0.45 0.0 0 1 31.73 196.51
  L 31.72 142.22
  L 32.36 141.95
  Q 32.75 141.78 33.11 142.00
  Q 33.63 142.32 34.24 141.70
  Z"
/>
<path fill="#0f87d4" d="
  M 156.6902 196.1100
  A 5.79 5.27 89.8 0 1 151.4000 190.3384
  A 5.79 5.27 89.8 0 1 156.6498 184.5300
  A 5.79 5.27 89.8 0 1 161.9400 190.3016
  A 5.79 5.27 89.8 0 1 156.6902 196.1100
  Z
  M 156.7479 194.9580
  A 4.65 4.16 88.3 0 0 160.7682 190.1866
  A 4.65 4.16 88.3 0 0 156.4721 185.6620
  A 4.65 4.16 88.3 0 0 152.4518 190.4334
  A 4.65 4.16 88.3 0 0 156.7479 194.9580
  Z"
/>
<path fill="#ffffff" d="
  M 156.7479 194.9580
  A 4.65 4.16 88.3 0 1 152.4518 190.4334
  A 4.65 4.16 88.3 0 1 156.4721 185.6620
  A 4.65 4.16 88.3 0 1 160.7682 190.1866
  A 4.65 4.16 88.3 0 1 156.7479 194.9580
  Z
  M 158.12 190.50
  Q 158.86 189.47 158.41 188.21
  Q 158.20 187.61 157.57 187.49
  L 155.23 187.05
  A 0.61 0.60 -84.4 0 0 154.52 187.64
  L 154.44 193.11
  A 0.19 0.18 4.9 0 0 154.61 193.30
  L 154.95 193.32
  A 0.24 0.24 0.0 0 0 155.21 193.09
  Q 155.25 192.53 155.35 192.02
  Q 155.76 190.05 156.83 191.75
  Q 157.45 192.74 158.24 193.61
  Q 158.37 193.74 158.54 193.67
  L 158.89 193.51
  Q 159.17 193.39 159.02 193.11
  L 158.07 191.38
  Q 157.82 190.92 158.12 190.50
  Z"
/>
<path fill="#0f87d4" d="
  M 158.07 191.38
  L 159.02 193.11
  Q 159.17 193.39 158.89 193.51
  L 158.54 193.67
  Q 158.37 193.74 158.24 193.61
  Q 157.45 192.74 156.83 191.75
  Q 155.76 190.05 155.35 192.02
  Q 155.25 192.53 155.21 193.09
  A 0.24 0.24 0.0 0 1 154.95 193.32
  L 154.61 193.30
  A 0.19 0.18 4.9 0 1 154.44 193.11
  L 154.52 187.64
  A 0.61 0.60 -84.4 0 1 155.23 187.05
  L 157.57 187.49
  Q 158.20 187.61 158.41 188.21
  Q 158.86 189.47 158.12 190.50
  Q 157.82 190.92 158.07 191.38
  Z
  M 157.36 189.03
  A 1.02 1.02 0.0 0 0 156.34 188.01
  A 1.02 1.02 0.0 0 0 155.32 189.03
  A 1.02 1.02 0.0 0 0 156.34 190.05
  A 1.02 1.02 0.0 0 0 157.36 189.03
  Z"
/>
<circle fill="#ffffff" cx="156.34" cy="189.03" r="1.02"/>
</svg>
