<?xml version="1.0" encoding="UTF-8" standalone="no"?>
<!DOCTYPE svg PUBLIC "-//W3C//DTD SVG 1.1//EN" "http://www.w3.org/Graphics/SVG/1.1/DTD/svg11.dtd">
<svg xmlns="http://www.w3.org/2000/svg" version="1.1" viewBox="0.00 0.00 300.00 300.00">
<g stroke-width="1.10" fill="none" stroke-linecap="butt">
<path stroke="#b3b3b3" stroke-opacity="0.675" vector-effect="non-scaling-stroke" d="
  M 269.41 28.54
  Q 271.62 34.77 271.25 39.00
  Q 262.22 140.69 253.12 242.37
  C 252.41 250.36 250.85 256.28 244.83 260.85
  Q 241.47 263.41 231.58 266.14
  Q 194.90 276.27 158.21 286.34
  C 152.75 287.84 149.03 288.37 144.01 287.00
  Q 101.24 275.33 58.66 263.33"
/>
<path stroke="#9996b0" vector-effect="non-scaling-stroke" d="
  M 66.82 250.11
  C 94.29 257.79 121.83 265.31 149.36 272.92
  A 1.88 1.88 0.0 0 0 150.40 272.92
  L 234.07 249.88
  A 5.07 5.06 84.9 0 0 237.77 245.44
  Q 246.91 142.94 256.06 40.11
  C 256.43 35.91 255.85 33.01 251.00 33.01
  Q 149.63 32.99 48.17 33.01
  A 4.45 4.45 0.0 0 0 43.74 37.85
  Q 52.86 140.47 62.07 243.67
  C 62.41 247.47 63.15 249.09 66.82 250.11"
/>
<path stroke="#364988" vector-effect="non-scaling-stroke" d="
  M 70.95 241.69
  A 0.41 0.41 0.0 0 0 71.25 242.05
  L 149.65 263.69
  A 0.41 0.41 0.0 0 0 149.87 263.69
  L 228.74 241.79
  A 0.41 0.41 0.0 0 0 229.04 241.43
  L 246.97 42.45
  A 0.41 0.41 0.0 0 0 246.56 42.00
  L 53.44 42.00
  A 0.41 0.41 0.0 0 0 53.03 42.45
  L 70.95 241.69"
/>
<path stroke="#8fa6ca" vector-effect="non-scaling-stroke" d="
  M 150.19 80.77
  Q 150.13 80.82 150.08 80.87"
/>
<path stroke="#82a4d0" vector-effect="non-scaling-stroke" d="
  M 150.08 80.87
  L 86.79 80.87
  Q 86.17 80.87 86.22 81.49
  L 88.28 104.45
  Q 88.32 104.88 88.75 104.88
  L 150.13 104.90"
/>
<path stroke="#296faf" vector-effect="non-scaling-stroke" d="
  M 150.13 104.90
  L 150.22 131.72"
/>
<path stroke="#8fa6ca" vector-effect="non-scaling-stroke" d="
  M 150.22 131.72
  Q 150.09 131.70 149.88 131.87"
/>
<path stroke="#82a4d0" vector-effect="non-scaling-stroke" d="
  M 149.88 131.87
  L 91.13 131.86
  Q 90.69 131.86 90.73 132.30
  L 92.79 155.46
  Q 92.82 155.90 93.26 155.90
  L 150.04 155.90"
/>
<path stroke="#296faf" vector-effect="non-scaling-stroke" d="
  M 150.04 155.90
  Q 149.97 175.54 150.03 195.00
  Q 150.04 196.16 150.52 197.59"
/>
<path stroke="#8fa6ca" vector-effect="non-scaling-stroke" d="
  M 150.52 197.59
  Q 150.22 197.59 149.96 197.75"
/>
<path stroke="#82a4d0" vector-effect="non-scaling-stroke" d="
  M 149.96 197.75
  L 121.98 190.38
  A 0.73 0.72 -85.4 0 1 121.45 189.75
  L 119.80 171.25
  Q 119.75 170.75 119.25 170.75
  L 94.71 170.75
  Q 94.17 170.75 94.22 171.29
  L 97.59 209.48
  Q 97.63 209.99 98.13 210.13
  L 150.06 224.51"
/>
<path stroke="#296faf" vector-effect="non-scaling-stroke" d="
  M 150.06 224.51
  L 150.06 250.14
  Q 150.06 250.81 150.70 250.63
  L 216.89 232.28
  Q 217.40 232.14 217.45 231.61
  L 233.27 54.32
  Q 233.31 53.83 232.82 53.83
  L 151.22 53.74
  A 1.16 1.16 0.0 0 0 150.06 54.91
  L 150.19 80.77"
/>
<path stroke="#80bade" vector-effect="non-scaling-stroke" d="
  M 150.06 224.51
  L 150.46 224.35"
/>
<path stroke="#8dbcd8" vector-effect="non-scaling-stroke" d="
  M 150.46 224.35
  L 201.71 210.10
  Q 202.17 209.97 202.21 209.49
  L 213.65 81.37
  Q 213.70 80.79 213.12 80.79
  L 150.19 80.77"
/>
<path stroke="#e6f0f9" vector-effect="non-scaling-stroke" d="
  M 150.46 224.35
  Q 150.33 224.33 150.20 224.30
  Q 150.02 224.25 150.02 224.06
  L 149.96 197.75"
/>
<path stroke="#8dbcd8" vector-effect="non-scaling-stroke" d="
  M 150.52 197.59
  L 177.85 190.37
  Q 178.34 190.24 178.38 189.73
  L 181.37 156.36
  Q 181.42 155.78 180.84 155.78
  L 150.47 155.77"
/>
<path stroke="#e6f0f9" vector-effect="non-scaling-stroke" d="
  M 150.47 155.77
  Q 149.79 155.29 149.80 154.56
  Q 149.96 143.20 149.88 131.87"
/>
<path stroke="#8dbcd8" vector-effect="non-scaling-stroke" d="
  M 150.22 131.72
  L 182.99 131.73
  Q 183.49 131.73 183.53 131.23
  L 185.85 105.29
  Q 185.90 104.77 185.38 104.77
  L 150.51 104.76"
/>
<path stroke="#e6f0f9" vector-effect="non-scaling-stroke" d="
  M 150.08 80.87
  L 150.21 103.77
  Q 150.21 104.05 150.32 104.32
  L 150.51 104.76"
/>
<path stroke="#80bade" vector-effect="non-scaling-stroke" d="
  M 150.51 104.76
  Q 150.18 105.13 150.13 104.90"
/>
<path stroke="#80bade" vector-effect="non-scaling-stroke" d="
  M 150.47 155.77
  Q 150.27 156.08 150.04 155.90"
/>
</g>
<path fill="#f2f2f2" d="
  M 269.41 28.54
  Q 271.62 34.77 271.25 39.00
  Q 262.22 140.69 253.12 242.37
  C 252.41 250.36 250.85 256.28 244.83 260.85
  Q 241.47 263.41 231.58 266.14
  Q 194.90 276.27 158.21 286.34
  C 152.75 287.84 149.03 288.37 144.01 287.00
  Q 101.24 275.33 58.66 263.33
  Q 52.24 259.81 49.32 253.84
  Q 47.57 250.28 46.77 241.37
  Q 37.90 141.98 29.07 42.56
  Q 28.51 36.19 29.50 32.50
  Q 32.08 22.83 41.07 19.53
  Q 45.19 18.01 55.12 18.01
  Q 153.18 17.99 251.25 18.01
  Q 263.02 18.01 269.41 28.54
  Z
  M 66.82 250.11
  C 94.29 257.79 121.83 265.31 149.36 272.92
  A 1.88 1.88 0.0 0 0 150.40 272.92
  L 234.07 249.88
  A 5.07 5.06 84.9 0 0 237.77 245.44
  Q 246.91 142.94 256.06 40.11
  C 256.43 35.91 255.85 33.01 251.00 33.01
  Q 149.63 32.99 48.17 33.01
  A 4.45 4.45 0.0 0 0 43.74 37.85
  Q 52.86 140.47 62.07 243.67
  C 62.41 247.47 63.15 249.09 66.82 250.11
  Z"
/>
<path fill="#000000" fill-opacity="0.349" d="
  M 269.41 28.54
  Q 275.23 32.08 276.77 38.61
  Q 277.54 41.89 276.79 50.42
  Q 268.08 148.61 259.29 246.80
  Q 258.45 256.15 256.59 259.90
  C 252.93 267.29 247.50 269.43 239.13 271.74
  Q 200.44 282.42 161.74 293.02
  C 156.89 294.35 153.28 293.94 148.05 292.50
  Q 109.34 281.87 70.67 271.14
  C 67.40 270.24 63.82 268.99 61.45 267.34
  Q 59.15 265.74 58.66 263.33
  Q 101.24 275.33 144.01 287.00
  C 149.03 288.37 152.75 287.84 158.21 286.34
  Q 194.90 276.27 231.58 266.14
  Q 241.47 263.41 244.83 260.85
  C 250.85 256.28 252.41 250.36 253.12 242.37
  Q 262.22 140.69 271.25 39.00
  Q 271.62 34.77 269.41 28.54
  Z"
/>
<path fill="#40396e" d="
  M 149.36 272.92
  C 121.83 265.31 94.29 257.79 66.82 250.11
  C 63.15 249.09 62.41 247.47 62.07 243.67
  Q 52.86 140.47 43.74 37.85
  A 4.45 4.45 0.0 0 1 48.17 33.01
  Q 149.63 32.99 251.00 33.01
  C 255.85 33.01 256.43 35.91 256.06 40.11
  Q 246.91 142.94 237.77 245.44
  A 5.07 5.06 84.9 0 1 234.07 249.88
  L 150.40 272.92
  A 1.88 1.88 0.0 0 1 149.36 272.92
  Z
  M 70.95 241.69
  A 0.41 0.41 0.0 0 0 71.25 242.05
  L 149.65 263.69
  A 0.41 0.41 0.0 0 0 149.87 263.69
  L 228.74 241.79
  A 0.41 0.41 0.0 0 0 229.04 241.43
  L 246.97 42.45
  A 0.41 0.41 0.0 0 0 246.56 42.00
  L 53.44 42.00
  A 0.41 0.41 0.0 0 0 53.03 42.45
  L 70.95 241.69
  Z"
/>
<path fill="#2b59a1" d="
  M 70.95 241.69
  L 53.03 42.45
  A 0.41 0.41 0.0 0 1 53.44 42.00
  L 246.56 42.00
  A 0.41 0.41 0.0 0 1 246.97 42.45
  L 229.04 241.43
  A 0.41 0.41 0.0 0 1 228.74 241.79
  L 149.87 263.69
  A 0.41 0.41 0.0 0 1 149.65 263.69
  L 71.25 242.05
  A 0.41 0.41 0.0 0 1 70.95 241.69
  Z
  M 150.19 80.77
  Q 150.13 80.82 150.08 80.87
  L 86.79 80.87
  Q 86.17 80.87 86.22 81.49
  L 88.28 104.45
  Q 88.32 104.88 88.75 104.88
  L 150.13 104.90
  L 150.22 131.72
  Q 150.09 131.70 149.88 131.87
  L 91.13 131.86
  Q 90.69 131.86 90.73 132.30
  L 92.79 155.46
  Q 92.82 155.90 93.26 155.90
  L 150.04 155.90
  Q 149.97 175.54 150.03 195.00
  Q 150.04 196.16 150.52 197.59
  Q 150.22 197.59 149.96 197.75
  L 121.98 190.38
  A 0.73 0.72 -85.4 0 1 121.45 189.75
  L 119.80 171.25
  Q 119.75 170.75 119.25 170.75
  L 94.71 170.75
  Q 94.17 170.75 94.22 171.29
  L 97.59 209.48
  Q 97.63 209.99 98.13 210.13
  L 150.06 224.51
  L 150.06 250.14
  Q 150.06 250.81 150.70 250.63
  L 216.89 232.28
  Q 217.40 232.14 217.45 231.61
  L 233.27 54.32
  Q 233.31 53.83 232.82 53.83
  L 151.22 53.74
  A 1.16 1.16 0.0 0 0 150.06 54.91
  L 150.19 80.77
  Z"
/>
<path fill="#2785bd" d="
  M 150.06 224.51
  L 150.46 224.35
  L 201.71 210.10
  Q 202.17 209.97 202.21 209.49
  L 213.65 81.37
  Q 213.70 80.79 213.12 80.79
  L 150.19 80.77
  L 150.06 54.91
  A 1.16 1.16 0.0 0 1 151.22 53.74
  L 232.82 53.83
  Q 233.31 53.83 233.27 54.32
  L 217.45 231.61
  Q 217.40 232.14 216.89 232.28
  L 150.70 250.63
  Q 150.06 250.81 150.06 250.14
  L 150.06 224.51
  Z"
/>
<path fill="#d9eeff" d="
  M 150.08 80.87
  L 150.21 103.77
  Q 150.21 104.05 150.32 104.32
  L 150.51 104.76
  Q 150.18 105.13 150.13 104.90
  L 88.75 104.88
  Q 88.32 104.88 88.28 104.45
  L 86.22 81.49
  Q 86.17 80.87 86.79 80.87
  L 150.08 80.87
  Z"
/>
<path fill="#f2f2f2" d="
  M 150.08 80.87
  Q 150.13 80.82 150.19 80.77
  L 213.12 80.79
  Q 213.70 80.79 213.65 81.37
  L 202.21 209.49
  Q 202.17 209.97 201.71 210.10
  L 150.46 224.35
  Q 150.33 224.33 150.20 224.30
  Q 150.02 224.25 150.02 224.06
  L 149.96 197.75
  Q 150.22 197.59 150.52 197.59
  L 177.85 190.37
  Q 178.34 190.24 178.38 189.73
  L 181.37 156.36
  Q 181.42 155.78 180.84 155.78
  L 150.47 155.77
  Q 149.79 155.29 149.80 154.56
  Q 149.96 143.20 149.88 131.87
  Q 150.09 131.70 150.22 131.72
  L 182.99 131.73
  Q 183.49 131.73 183.53 131.23
  L 185.85 105.29
  Q 185.90 104.77 185.38 104.77
  L 150.51 104.76
  L 150.32 104.32
  Q 150.21 104.05 150.21 103.77
  L 150.08 80.87
  Z"
/>
<path fill="#2785bd" d="
  M 150.51 104.76
  L 185.38 104.77
  Q 185.90 104.77 185.85 105.29
  L 183.53 131.23
  Q 183.49 131.73 182.99 131.73
  L 150.22 131.72
  L 150.13 104.90
  Q 150.18 105.13 150.51 104.76
  Z"
/>
<path fill="#d9eeff" d="
  M 149.88 131.87
  Q 149.96 143.20 149.80 154.56
  Q 149.79 155.29 150.47 155.77
  Q 150.27 156.08 150.04 155.90
  L 93.26 155.90
  Q 92.82 155.90 92.79 155.46
  L 90.73 132.30
  Q 90.69 131.86 91.13 131.86
  L 149.88 131.87
  Z"
/>
<path fill="#2785bd" d="
  M 150.47 155.77
  L 180.84 155.78
  Q 181.42 155.78 181.37 156.36
  L 178.38 189.73
  Q 178.34 190.24 177.85 190.37
  L 150.52 197.59
  Q 150.04 196.16 150.03 195.00
  Q 149.97 175.54 150.04 155.90
  Q 150.27 156.08 150.47 155.77
  Z"
/>
<path fill="#d9eeff" d="
  M 149.96 197.75
  L 150.02 224.06
  Q 150.02 224.25 150.20 224.30
  Q 150.33 224.33 150.46 224.35
  L 150.06 224.51
  L 98.13 210.13
  Q 97.63 209.99 97.59 209.48
  L 94.22 171.29
  Q 94.17 170.75 94.71 170.75
  L 119.25 170.75
  Q 119.75 170.75 119.80 171.25
  L 121.45 189.75
  A 0.73 0.72 -85.4 0 0 121.98 190.38
  L 149.96 197.75
  Z"
/>
</svg>
