<?xml version="1.0" encoding="UTF-8" standalone="no"?>
<!DOCTYPE svg PUBLIC "-//W3C//DTD SVG 1.1//EN" "http://www.w3.org/Graphics/SVG/1.1/DTD/svg11.dtd">
<svg xmlns="http://www.w3.org/2000/svg" version="1.1" viewBox="0.00 0.00 188.00 188.00">
<g stroke-width="1.10" fill="none" stroke-linecap="butt">
<path stroke="#676c80" vector-effect="non-scaling-stroke" d="
  M 165.35 63.74
  Q 164.95 64.58 164.46 64.29"
/>
<path stroke="#717688" vector-effect="non-scaling-stroke" d="
  M 164.46 64.29
  Q 160.00 53.22 155.77 48.48
  Q 153.48 45.91 151.20 43.35
  Q 149.67 41.62 146.17 38.74
  Q 143.42 36.48 141.22 33.68
  Q 140.62 32.90 138.40 32.37"
/>
<path stroke="#676c80" vector-effect="non-scaling-stroke" d="
  M 138.40 32.37
  Q 132.78 28.04 126.41 24.92
  Q 123.01 23.26 117.82 21.76
  C 108.51 19.08 100.89 17.15 90.18 17.68"
/>
<path stroke="#717688" vector-effect="non-scaling-stroke" d="
  M 90.18 17.68
  Q 86.10 17.96 82.04 18.61
  Q 79.61 19.00 77.40 20.48
  Q 72.24 23.93 67.01 27.28
  C 61.75 30.65 57.11 34.22 52.30 37.91
  A 0.09 0.08 0.3 0 1 52.18 37.79
  Q 55.20 34.12 59.46 31.74
  Q 59.69 31.62 59.73 31.45
  Q 59.80 31.19 59.57 30.98
  Q 59.22 30.64 59.62 30.37
  L 62.71 28.18
  Q 63.30 27.77 62.58 27.81
  Q 62.05 27.84 61.53 28.28
  Q 59.93 29.65 54.78 33.21
  Q 54.51 33.40 54.44 33.08
  Q 54.41 32.94 54.46 32.79
  Q 54.52 32.63 54.39 32.75
  Q 52.50 34.50 50.69 36.31
  Q 43.50 43.51 36.13 50.50
  Q 33.67 52.84 26.41 61.66
  Q 25.83 62.36 23.80 64.29
  Q 22.60 65.43 21.32 67.08"
/>
<path stroke="#bfc1cb" vector-effect="non-scaling-stroke" d="
  M 23.49 61.55
  Q 27.44 57.02 31.46 52.86
  Q 32.01 52.29 33.18 50.24
  Q 33.93 48.93 35.34 48.15
  Q 35.78 47.92 36.05 47.51
  L 40.54 40.89
  Q 40.68 40.68 40.42 40.69
  Q 40.17 40.70 39.96 40.98
  Q 38.36 43.12 36.01 44.38
  Q 34.86 44.99 34.72 43.37"
/>
<path stroke="#bfc1cb" vector-effect="non-scaling-stroke" d="
  M 37.95 39.75
  Q 38.29 40.49 39.13 40.46
  Q 39.71 40.43 40.19 39.89
  Q 41.01 38.98 41.64 37.90
  Q 41.87 37.51 42.24 37.26
  Q 45.77 34.92 48.75 31.78
  Q 49.19 31.32 48.85 31.19
  Q 48.57 31.08 47.86 31.16"
/>
<path stroke="#a7aab4" vector-effect="non-scaling-stroke" d="
  M 134.86 48.27
  Q 125.16 49.30 116.68 54.54
  C 115.14 55.49 112.73 56.22 111.24 55.87
  Q 94.36 51.92 77.54 55.91
  C 74.06 56.74 68.62 53.15 65.45 51.63
  Q 60.04 49.05 54.08 47.95"
/>
<path stroke="#484d5a" vector-effect="non-scaling-stroke" d="
  M 54.08 47.95
  Q 50.83 46.69 49.98 51.60
  A 2.38 2.38 0.0 0 1 48.10 53.54
  Q 39.24 55.35 31.55 60.79
  Q 27.41 63.72 24.25 69.30"
/>
<path stroke="#474d62" vector-effect="non-scaling-stroke" d="
  M 24.25 69.30
  Q 20.62 72.34 19.49 76.22"
/>
<path stroke="#484d5a" vector-effect="non-scaling-stroke" d="
  M 19.49 76.22
  Q 19.09 76.84 18.51 76.54"
/>
<path stroke="#474d62" vector-effect="non-scaling-stroke" d="
  M 138.40 32.37
  Q 141.91 35.67 145.33 38.84
  Q 147.67 41.00 153.67 49.46
  Q 154.46 50.57 155.27 52.44
  Q 155.95 54.01 156.87 55.44
  Q 158.80 58.48 159.44 59.81
  Q 161.01 63.04 162.78 66.20
  Q 163.01 66.62 163.42 66.87
  L 164.75 67.68
  A 1.20 1.18 10.0 0 1 165.26 68.40
  Q 165.45 69.19 165.84 69.90
  Q 166.36 70.84 166.19 69.78
  Q 165.72 66.81 164.46 64.29"
/>
<path stroke="#2f313a" vector-effect="non-scaling-stroke" d="
  M 169.57 76.72
  Q 166.74 78.83 167.84 79.55"
/>
<path stroke="#3e4351" vector-effect="non-scaling-stroke" d="
  M 167.84 79.55
  L 166.07 81.99
  Q 165.73 82.45 165.18 82.61
  Q 162.96 83.26 162.80 81.18
  A 0.72 0.71 -67.5 0 0 162.64 80.79
  C 161.09 78.90 159.15 78.86 157.54 77.55
  Q 153.92 74.61 150.04 72.01
  Q 148.50 70.98 145.41 69.95
  Q 140.04 68.17 137.07 63.72"
/>
<path stroke="#9498a4" vector-effect="non-scaling-stroke" d="
  M 137.07 63.72
  Q 137.79 56.64 136.79 50.50
  Q 136.58 49.26 135.47 48.76"
/>
<path stroke="#9ca0ab" vector-effect="non-scaling-stroke" d="
  M 135.47 48.76
  Q 135.28 48.81 134.86 48.27"
/>
<path stroke="#474d62" vector-effect="non-scaling-stroke" d="
  M 134.86 48.27
  L 135.01 47.10
  Q 135.09 46.58 134.56 46.50
  Q 132.57 46.22 131.39 44.63
  Q 131.12 44.26 130.72 44.04
  Q 127.97 42.54 125.69 40.45
  Q 125.48 40.26 125.25 40.45
  Q 125.09 40.59 124.91 40.47
  Q 123.29 39.38 119.62 36.76
  Q 105.80 26.91 89.55 22.14
  Q 86.39 21.22 88.45 18.65
  Q 88.63 18.43 90.18 17.68"
/>
<path stroke="#9e9fa3" vector-effect="non-scaling-stroke" d="
  M 54.08 47.95
  Q 52.06 49.03 51.83 50.29
  Q 50.41 58.06 51.94 66.13"
/>
<path stroke="#37393e" vector-effect="non-scaling-stroke" d="
  M 51.94 66.13
  L 49.43 72.11
  Q 49.21 72.64 48.64 72.63
  Q 41.42 72.55 34.27 71.51
  Q 31.28 71.07 29.26 71.67
  Q 26.62 72.44 24.62 73.89
  Q 22.94 75.09 22.01 77.52
  A 1.29 1.29 0.0 0 1 21.40 78.19
  Q 18.82 79.53 17.37 84.11"
/>
<path stroke="#3e4351" vector-effect="non-scaling-stroke" d="
  M 19.49 76.22
  L 18.52 79.55
  Q 18.50 79.59 18.46 79.57
  Q 18.16 79.40 18.59 79.61
  Q 18.65 79.64 18.67 79.58
  Q 19.06 77.70 20.13 76.27
  Q 21.99 73.80 22.18 73.43
  Q 23.27 71.40 24.25 69.30"
/>
<path stroke="#f4f5f6" vector-effect="non-scaling-stroke" d="
  M 135.47 48.76
  L 135.75 49.91
  Q 135.86 50.38 135.62 50.81
  Q 133.28 54.96 128.94 56.35
  Q 127.26 56.88 125.34 57.87
  Q 123.69 58.72 121.79 58.89
  Q 121.30 58.93 120.89 59.22
  C 118.81 60.66 117.24 62.55 114.87 63.31
  Q 109.28 65.09 102.75 64.64
  Q 100.31 64.47 96.57 65.14
  Q 96.07 65.23 95.58 65.11
  Q 94.49 64.84 94.03 65.78
  Q 93.77 66.33 93.20 66.10
  Q 90.84 65.13 88.66 66.33
  Q 88.23 66.57 87.73 66.58
  Q 86.86 66.61 86.12 67.23
  Q 85.51 67.75 84.66 67.49
  Q 84.22 67.36 83.88 67.66
  Q 82.40 68.92 80.72 69.81
  C 79.24 70.59 76.59 70.26 76.31 73.01
  Q 76.26 73.46 75.96 73.81
  Q 74.89 75.03 73.46 75.58
  Q 73.01 75.75 72.74 76.16
  Q 68.58 82.50 65.07 89.23
  C 64.38 90.55 62.92 91.40 62.61 93.19
  A 0.93 0.92 80.7 0 1 62.16 93.82
  Q 59.95 95.06 56.90 98.13
  Q 52.81 102.26 46.87 100.00
  Q 46.20 99.75 46.36 100.45
  Q 47.23 104.17 45.75 105.18"
/>
<path stroke="#8f8d8c" vector-effect="non-scaling-stroke" d="
  M 45.75 105.18
  Q 42.43 92.38 46.02 80.77"
/>
<path stroke="#959698" vector-effect="non-scaling-stroke" d="
  M 46.02 80.77
  Q 48.42 75.35 52.19 70.50
  Q 53.22 69.17 51.94 66.13"
/>
<path stroke="#95989c" vector-effect="non-scaling-stroke" d="
  M 137.07 63.72
  C 134.76 69.81 137.23 72.26 140.79 76.74"
/>
<path stroke="#878685" vector-effect="non-scaling-stroke" d="
  M 140.79 76.74
  Q 145.50 86.66 143.96 99.26
  C 141.74 117.45 128.15 125.63 111.37 127.01
  A 1.65 1.65 0.0 0 0 110.19 129.65
  C 112.03 132.08 112.91 134.58 112.96 137.83
  Q 113.15 149.05 113.47 160.25
  Q 113.62 165.69 116.70 168.59"
/>
<path stroke="#878685" vector-effect="non-scaling-stroke" d="
  M 72.07 168.98
  Q 76.67 161.73 74.96 151.61
  Q 74.88 151.17 74.43 151.19
  C 66.91 151.56 55.92 150.64 51.37 143.85
  Q 48.11 138.99 44.12 132.99"
/>
<path stroke="#f4f5f6" vector-effect="non-scaling-stroke" d="
  M 44.12 132.99
  Q 46.72 133.62 49.03 135.77
  Q 49.97 136.66 51.00 139.07
  Q 52.75 143.19 57.27 144.20
  Q 59.78 144.76 61.37 145.79
  A 1.28 1.25 -32.6 0 0 62.27 145.98
  Q 64.61 145.59 66.87 146.05
  Q 69.39 146.56 71.23 146.50
  Q 74.06 146.39 76.85 146.81
  Q 79.14 147.15 80.31 146.50
  Q 82.18 145.46 82.40 143.24
  Q 82.88 138.38 83.37 133.54
  Q 83.42 133.06 83.18 132.65
  Q 81.29 129.32 78.11 130.00"
/>
<path stroke="#878685" vector-effect="non-scaling-stroke" d="
  M 78.11 130.00
  C 79.07 128.59 78.59 127.51 76.95 127.23
  Q 71.59 126.33 66.59 124.85
  Q 50.28 120.02 45.75 105.18"
/>
<path stroke="#313032" vector-effect="non-scaling-stroke" d="
  M 167.84 79.55
  Q 167.78 83.87 167.38 86.25
  C 166.49 91.52 161.64 89.75 159.31 87.06
  Q 159.00 86.70 158.56 86.53
  Q 151.21 83.72 144.88 79.06
  Q 144.79 79.00 143.57 78.23
  Q 142.44 77.53 141.87 76.34
  A 0.63 0.61 62.7 0 0 141.02 76.05
  Q 140.82 76.16 140.79 76.74"
/>
<path stroke="#282727" vector-effect="non-scaling-stroke" d="
  M 46.02 80.77
  Q 45.18 80.37 44.66 80.82
  Q 44.27 81.16 44.34 81.67
  Q 44.53 82.97 43.67 83.63
  Q 43.27 83.93 42.80 83.75
  Q 36.78 81.41 30.76 79.03
  C 28.09 77.98 25.96 78.84 23.67 80.12
  C 21.37 81.41 20.29 84.22 18.47 86.29
  Q 18.16 86.64 18.14 87.11
  Q 18.08 88.64 17.91 90.17
  Q 17.85 90.68 17.57 90.95
  Q 17.00 91.52 16.57 90.98"
/>
<path stroke="#8f8d8c" vector-effect="non-scaling-stroke" d="
  M 78.11 130.00
  Q 75.55 133.55 75.06 137.96
  Q 75.00 138.48 74.49 138.59
  C 70.02 139.53 61.88 140.91 58.41 137.10
  C 53.96 132.22 47.54 126.41 41.04 124.66
  Q 38.73 124.04 37.72 125.33
  A 2.09 2.08 38.1 0 0 38.08 128.26
  L 44.12 132.99"
/>
<path stroke="#bfc1cb" vector-effect="non-scaling-stroke" d="
  M 44.26 36.56
  Q 43.79 36.86 43.89 37.44
  Q 43.95 37.84 43.67 38.14
  L 43.05 38.79
  A 0.13 0.13 0.0 0 0 43.22 38.98
  Q 43.85 38.51 44.55 38.15
  Q 45.33 37.73 45.82 37.20
  Q 48.31 34.53 51.17 32.28
  C 52.84 30.97 54.27 28.54 57.01 27.71
  Q 57.10 27.69 57.13 27.62
  Q 57.18 27.47 57.01 27.52
  Q 54.11 28.37 50.66 31.18
  Q 47.70 33.58 44.93 36.11
  Q 44.88 36.15 44.26 36.56"
/>
<path stroke="#bfc1cb" vector-effect="non-scaling-stroke" d="
  M 39.21 43.80
  C 40.07 42.83 40.90 42.38 41.42 41.82
  Q 42.31 40.87 41.24 41.67
  Q 40.10 42.52 39.16 43.60
  Q 39.13 43.64 39.12 43.68
  Q 39.12 43.72 39.12 43.77
  Q 39.12 43.90 39.21 43.80"
/>
<path stroke="#8f8d8c" vector-effect="non-scaling-stroke" d="
  M 45.3853 128.7737
  A 1.17 0.75 28.8 0 0 44.7213 127.5528
  A 1.17 0.75 28.8 0 0 43.3347 127.6463
  A 1.17 0.75 28.8 0 0 43.9987 128.8672
  A 1.17 0.75 28.8 0 0 45.3853 128.7737"
/>
<path stroke="#8f8d8c" vector-effect="non-scaling-stroke" d="
  M 48.8206 132.0039
  A 1.27 0.89 51.5 0 0 48.7265 130.4560
  A 1.27 0.89 51.5 0 0 47.2394 130.0161
  A 1.27 0.89 51.5 0 0 47.3335 131.5640
  A 1.27 0.89 51.5 0 0 48.8206 132.0039"
/>
<path stroke="#8f8d8c" vector-effect="non-scaling-stroke" d="
  M 52.2552 135.6511
  A 1.32 1.00 53.5 0 0 52.2739 133.9952
  A 1.32 1.00 53.5 0 0 50.6848 133.5289
  A 1.32 1.00 53.5 0 0 50.6661 135.1848
  A 1.32 1.00 53.5 0 0 52.2552 135.6511"
/>
<path stroke="#8f8d8c" vector-effect="non-scaling-stroke" d="
  M 56.2299 139.4451
  A 1.39 1.07 43.4 0 0 55.9552 137.7126
  A 1.39 1.07 43.4 0 0 54.2101 137.5349
  A 1.39 1.07 43.4 0 0 54.4848 139.2674
  A 1.39 1.07 43.4 0 0 56.2299 139.4451"
/>
<path stroke="#8f8d8c" vector-effect="non-scaling-stroke" d="
  M 61.6393 142.4905
  A 1.60 1.18 17.1 0 0 60.4570 140.8922
  A 1.60 1.18 17.1 0 0 58.5807 141.5495
  A 1.60 1.18 17.1 0 0 59.7630 143.1478
  A 1.60 1.18 17.1 0 0 61.6393 142.4905"
/>
<path stroke="#959698" vector-effect="non-scaling-stroke" d="
  M 74.5901 142.2608
  A 1.81 1.21 -6.0 0 0 72.6635 141.2466
  A 1.81 1.21 -6.0 0 0 70.9899 142.6392
  A 1.81 1.21 -6.0 0 0 72.9165 143.6534
  A 1.81 1.21 -6.0 0 0 74.5901 142.2608"
/>
<path stroke="#8f8d8c" vector-effect="non-scaling-stroke" d="
  M 68.2091 142.9730
  A 1.72 1.25 -1.9 0 0 66.4486 141.7807
  A 1.72 1.25 -1.9 0 0 64.7709 143.0870
  A 1.72 1.25 -1.9 0 0 66.5314 144.2793
  A 1.72 1.25 -1.9 0 0 68.2091 142.9730"
/>
</g>
<path fill="#9295a7" fill-opacity="0.996" d="
  M 165.35 63.74
  Q 164.95 64.58 164.46 64.29
  Q 160.00 53.22 155.77 48.48
  Q 153.48 45.91 151.20 43.35
  Q 149.67 41.62 146.17 38.74
  Q 143.42 36.48 141.22 33.68
  Q 140.62 32.90 138.40 32.37
  Q 132.78 28.04 126.41 24.92
  Q 123.01 23.26 117.82 21.76
  C 108.51 19.08 100.89 17.15 90.18 17.68
  Q 86.10 17.96 82.04 18.61
  Q 79.61 19.00 77.40 20.48
  Q 72.24 23.93 67.01 27.28
  C 61.75 30.65 57.11 34.22 52.30 37.91
  A 0.09 0.08 0.3 0 1 52.18 37.79
  Q 55.20 34.12 59.46 31.74
  Q 59.69 31.62 59.73 31.45
  Q 59.80 31.19 59.57 30.98
  Q 59.22 30.64 59.62 30.37
  L 62.71 28.18
  Q 63.30 27.77 62.58 27.81
  Q 62.05 27.84 61.53 28.28
  Q 59.93 29.65 54.78 33.21
  Q 54.51 33.40 54.44 33.08
  Q 54.41 32.94 54.46 32.79
  Q 54.52 32.63 54.39 32.75
  Q 52.50 34.50 50.69 36.31
  Q 43.50 43.51 36.13 50.50
  Q 33.67 52.84 26.41 61.66
  Q 25.83 62.36 23.80 64.29
  Q 22.60 65.43 21.32 67.08
  L 23.49 61.55
  Q 27.44 57.02 31.46 52.86
  Q 32.01 52.29 33.18 50.24
  Q 33.93 48.93 35.34 48.15
  Q 35.78 47.92 36.05 47.51
  L 40.54 40.89
  Q 40.68 40.68 40.42 40.69
  Q 40.17 40.70 39.96 40.98
  Q 38.36 43.12 36.01 44.38
  Q 34.86 44.99 34.72 43.37
  L 37.95 39.75
  Q 38.29 40.49 39.13 40.46
  Q 39.71 40.43 40.19 39.89
  Q 41.01 38.98 41.64 37.90
  Q 41.87 37.51 42.24 37.26
  Q 45.77 34.92 48.75 31.78
  Q 49.19 31.32 48.85 31.19
  Q 48.57 31.08 47.86 31.16
  Q 84.38 6.93 124.25 22.93
  Q 152.83 34.40 165.35 63.74
  Z
  M 44.26 36.56
  Q 43.79 36.86 43.89 37.44
  Q 43.95 37.84 43.67 38.14
  L 43.05 38.79
  A 0.13 0.13 0.0 0 0 43.22 38.98
  Q 43.85 38.51 44.55 38.15
  Q 45.33 37.73 45.82 37.20
  Q 48.31 34.53 51.17 32.28
  C 52.84 30.97 54.27 28.54 57.01 27.71
  Q 57.10 27.69 57.13 27.62
  Q 57.18 27.47 57.01 27.52
  Q 54.11 28.37 50.66 31.18
  Q 47.70 33.58 44.93 36.11
  Q 44.88 36.15 44.26 36.56
  Z
  M 39.21 43.80
  C 40.07 42.83 40.90 42.38 41.42 41.82
  Q 42.31 40.87 41.24 41.67
  Q 40.10 42.52 39.16 43.60
  Q 39.13 43.64 39.12 43.68
  Q 39.12 43.72 39.12 43.77
  Q 39.12 43.90 39.21 43.80
  Z"
/>
<path fill="#3c4359" d="
  M 138.40 32.37
  Q 141.91 35.67 145.33 38.84
  Q 147.67 41.00 153.67 49.46
  Q 154.46 50.57 155.27 52.44
  Q 155.95 54.01 156.87 55.44
  Q 158.80 58.48 159.44 59.81
  Q 161.01 63.04 162.78 66.20
  Q 163.01 66.62 163.42 66.87
  L 164.75 67.68
  A 1.20 1.18 10.0 0 1 165.26 68.40
  Q 165.45 69.19 165.84 69.90
  Q 166.36 70.84 166.19 69.78
  Q 165.72 66.81 164.46 64.29
  Q 164.95 64.58 165.35 63.74
  L 169.57 76.72
  Q 166.74 78.83 167.84 79.55
  L 166.07 81.99
  Q 165.73 82.45 165.18 82.61
  Q 162.96 83.26 162.80 81.18
  A 0.72 0.71 -67.5 0 0 162.64 80.79
  C 161.09 78.90 159.15 78.86 157.54 77.55
  Q 153.92 74.61 150.04 72.01
  Q 148.50 70.98 145.41 69.95
  Q 140.04 68.17 137.07 63.72
  Q 137.79 56.64 136.79 50.50
  Q 136.58 49.26 135.47 48.76
  Q 135.28 48.81 134.86 48.27
  L 135.01 47.10
  Q 135.09 46.58 134.56 46.50
  Q 132.57 46.22 131.39 44.63
  Q 131.12 44.26 130.72 44.04
  Q 127.97 42.54 125.69 40.45
  Q 125.48 40.26 125.25 40.45
  Q 125.09 40.59 124.91 40.47
  Q 123.29 39.38 119.62 36.76
  Q 105.80 26.91 89.55 22.14
  Q 86.39 21.22 88.45 18.65
  Q 88.63 18.43 90.18 17.68
  C 100.89 17.15 108.51 19.08 117.82 21.76
  Q 123.01 23.26 126.41 24.92
  Q 132.78 28.04 138.40 32.37
  Z"
/>
<path fill="#51576a" d="
  M 90.18 17.68
  Q 88.63 18.43 88.45 18.65
  Q 86.39 21.22 89.55 22.14
  Q 105.80 26.91 119.62 36.76
  Q 123.29 39.38 124.91 40.47
  Q 125.09 40.59 125.25 40.45
  Q 125.48 40.26 125.69 40.45
  Q 127.97 42.54 130.72 44.04
  Q 131.12 44.26 131.39 44.63
  Q 132.57 46.22 134.56 46.50
  Q 135.09 46.58 135.01 47.10
  L 134.86 48.27
  Q 125.16 49.30 116.68 54.54
  C 115.14 55.49 112.73 56.22 111.24 55.87
  Q 94.36 51.92 77.54 55.91
  C 74.06 56.74 68.62 53.15 65.45 51.63
  Q 60.04 49.05 54.08 47.95
  Q 50.83 46.69 49.98 51.60
  A 2.38 2.38 0.0 0 1 48.10 53.54
  Q 39.24 55.35 31.55 60.79
  Q 27.41 63.72 24.25 69.30
  Q 20.62 72.34 19.49 76.22
  Q 19.09 76.84 18.51 76.54
  L 21.32 67.08
  Q 22.60 65.43 23.80 64.29
  Q 25.83 62.36 26.41 61.66
  Q 33.67 52.84 36.13 50.50
  Q 43.50 43.51 50.69 36.31
  Q 52.50 34.50 54.39 32.75
  Q 54.52 32.63 54.46 32.79
  Q 54.41 32.94 54.44 33.08
  Q 54.51 33.40 54.78 33.21
  Q 59.93 29.65 61.53 28.28
  Q 62.05 27.84 62.58 27.81
  Q 63.30 27.77 62.71 28.18
  L 59.62 30.37
  Q 59.22 30.64 59.57 30.98
  Q 59.80 31.19 59.73 31.45
  Q 59.69 31.62 59.46 31.74
  Q 55.20 34.12 52.18 37.79
  A 0.09 0.08 0.3 0 0 52.30 37.91
  C 57.11 34.22 61.75 30.65 67.01 27.28
  Q 72.24 23.93 77.40 20.48
  Q 79.61 19.00 82.04 18.61
  Q 86.10 17.96 90.18 17.68
  Z"
/>
<path fill="#ebedee" d="
  M 44.93 36.11
  Q 47.70 33.58 50.66 31.18
  Q 54.11 28.37 57.01 27.52
  Q 57.18 27.47 57.13 27.62
  Q 57.10 27.69 57.01 27.71
  C 54.27 28.54 52.84 30.97 51.17 32.28
  Q 48.31 34.53 45.82 37.20
  Q 45.33 37.73 44.55 38.15
  Q 43.85 38.51 43.22 38.98
  A 0.13 0.13 0.0 0 1 43.05 38.79
  L 43.67 38.14
  Q 43.95 37.84 43.89 37.44
  Q 43.79 36.86 44.26 36.56
  Q 44.88 36.15 44.93 36.11
  Z"
/>
<path fill="#ebedee" d="
  M 47.86 31.16
  Q 48.57 31.08 48.85 31.19
  Q 49.19 31.32 48.75 31.78
  Q 45.77 34.92 42.24 37.26
  Q 41.87 37.51 41.64 37.90
  Q 41.01 38.98 40.19 39.89
  Q 39.71 40.43 39.13 40.46
  Q 38.29 40.49 37.95 39.75
  L 47.86 31.16
  Z"
/>
<path fill="#51576a" d="
  M 138.40 32.37
  Q 140.62 32.90 141.22 33.68
  Q 143.42 36.48 146.17 38.74
  Q 149.67 41.62 151.20 43.35
  Q 153.48 45.91 155.77 48.48
  Q 160.00 53.22 164.46 64.29
  Q 165.72 66.81 166.19 69.78
  Q 166.36 70.84 165.84 69.90
  Q 165.45 69.19 165.26 68.40
  A 1.20 1.18 10.0 0 0 164.75 67.68
  L 163.42 66.87
  Q 163.01 66.62 162.78 66.20
  Q 161.01 63.04 159.44 59.81
  Q 158.80 58.48 156.87 55.44
  Q 155.95 54.01 155.27 52.44
  Q 154.46 50.57 153.67 49.46
  Q 147.67 41.00 145.33 38.84
  Q 141.91 35.67 138.40 32.37
  Z"
/>
<path fill="#ebedee" d="
  M 23.49 61.55
  Q 27.72 51.51 34.72 43.37
  Q 34.86 44.99 36.01 44.38
  Q 38.36 43.12 39.96 40.98
  Q 40.17 40.70 40.42 40.69
  Q 40.68 40.68 40.54 40.89
  L 36.05 47.51
  Q 35.78 47.92 35.34 48.15
  Q 33.93 48.93 33.18 50.24
  Q 32.01 52.29 31.46 52.86
  Q 27.44 57.02 23.49 61.55
  Z"
/>
<path fill="#ebedee" d="
  M 41.42 41.82
  C 40.90 42.38 40.07 42.83 39.21 43.80
  Q 39.12 43.90 39.12 43.77
  Q 39.12 43.72 39.12 43.68
  Q 39.13 43.64 39.16 43.60
  Q 40.10 42.52 41.24 41.67
  Q 42.31 40.87 41.42 41.82
  Z"
/>
<path fill="#3f4249" d="
  M 54.08 47.95
  Q 52.06 49.03 51.83 50.29
  Q 50.41 58.06 51.94 66.13
  L 49.43 72.11
  Q 49.21 72.64 48.64 72.63
  Q 41.42 72.55 34.27 71.51
  Q 31.28 71.07 29.26 71.67
  Q 26.62 72.44 24.62 73.89
  Q 22.94 75.09 22.01 77.52
  A 1.29 1.29 0.0 0 1 21.40 78.19
  Q 18.82 79.53 17.37 84.11
  L 18.51 76.54
  Q 19.09 76.84 19.49 76.22
  L 18.52 79.55
  Q 18.50 79.59 18.46 79.57
  Q 18.16 79.40 18.59 79.61
  Q 18.65 79.64 18.67 79.58
  Q 19.06 77.70 20.13 76.27
  Q 21.99 73.80 22.18 73.43
  Q 23.27 71.40 24.25 69.30
  Q 27.41 63.72 31.55 60.79
  Q 39.24 55.35 48.10 53.54
  A 2.38 2.38 0.0 0 0 49.98 51.60
  Q 50.83 46.69 54.08 47.95
  Z"
/>
<path fill="#fcfcfd" d="
  M 54.08 47.95
  Q 60.04 49.05 65.45 51.63
  C 68.62 53.15 74.06 56.74 77.54 55.91
  Q 94.36 51.92 111.24 55.87
  C 112.73 56.22 115.14 55.49 116.68 54.54
  Q 125.16 49.30 134.86 48.27
  Q 135.28 48.81 135.47 48.76
  L 135.75 49.91
  Q 135.86 50.38 135.62 50.81
  Q 133.28 54.96 128.94 56.35
  Q 127.26 56.88 125.34 57.87
  Q 123.69 58.72 121.79 58.89
  Q 121.30 58.93 120.89 59.22
  C 118.81 60.66 117.24 62.55 114.87 63.31
  Q 109.28 65.09 102.75 64.64
  Q 100.31 64.47 96.57 65.14
  Q 96.07 65.23 95.58 65.11
  Q 94.49 64.84 94.03 65.78
  Q 93.77 66.33 93.20 66.10
  Q 90.84 65.13 88.66 66.33
  Q 88.23 66.57 87.73 66.58
  Q 86.86 66.61 86.12 67.23
  Q 85.51 67.75 84.66 67.49
  Q 84.22 67.36 83.88 67.66
  Q 82.40 68.92 80.72 69.81
  C 79.24 70.59 76.59 70.26 76.31 73.01
  Q 76.26 73.46 75.96 73.81
  Q 74.89 75.03 73.46 75.58
  Q 73.01 75.75 72.74 76.16
  Q 68.58 82.50 65.07 89.23
  C 64.38 90.55 62.92 91.40 62.61 93.19
  A 0.93 0.92 80.7 0 1 62.16 93.82
  Q 59.95 95.06 56.90 98.13
  Q 52.81 102.26 46.87 100.00
  Q 46.20 99.75 46.36 100.45
  Q 47.23 104.17 45.75 105.18
  Q 42.43 92.38 46.02 80.77
  Q 48.42 75.35 52.19 70.50
  Q 53.22 69.17 51.94 66.13
  Q 50.41 58.06 51.83 50.29
  Q 52.06 49.03 54.08 47.95
  Z"
/>
<path fill="#ebedee" d="
  M 135.47 48.76
  Q 136.58 49.26 136.79 50.50
  Q 137.79 56.64 137.07 63.72
  C 134.76 69.81 137.23 72.26 140.79 76.74
  Q 145.50 86.66 143.96 99.26
  C 141.74 117.45 128.15 125.63 111.37 127.01
  A 1.65 1.65 0.0 0 0 110.19 129.65
  C 112.03 132.08 112.91 134.58 112.96 137.83
  Q 113.15 149.05 113.47 160.25
  Q 113.62 165.69 116.70 168.59
  Q 94.46 175.08 72.07 168.98
  Q 76.67 161.73 74.96 151.61
  Q 74.88 151.17 74.43 151.19
  C 66.91 151.56 55.92 150.64 51.37 143.85
  Q 48.11 138.99 44.12 132.99
  Q 46.72 133.62 49.03 135.77
  Q 49.97 136.66 51.00 139.07
  Q 52.75 143.19 57.27 144.20
  Q 59.78 144.76 61.37 145.79
  A 1.28 1.25 -32.6 0 0 62.27 145.98
  Q 64.61 145.59 66.87 146.05
  Q 69.39 146.56 71.23 146.50
  Q 74.06 146.39 76.85 146.81
  Q 79.14 147.15 80.31 146.50
  Q 82.18 145.46 82.40 143.24
  Q 82.88 138.38 83.37 133.54
  Q 83.42 133.06 83.18 132.65
  Q 81.29 129.32 78.11 130.00
  C 79.07 128.59 78.59 127.51 76.95 127.23
  Q 71.59 126.33 66.59 124.85
  Q 50.28 120.02 45.75 105.18
  Q 47.23 104.17 46.36 100.45
  Q 46.20 99.75 46.87 100.00
  Q 52.81 102.26 56.90 98.13
  Q 59.95 95.06 62.16 93.82
  A 0.93 0.92 80.7 0 0 62.61 93.19
  C 62.92 91.40 64.38 90.55 65.07 89.23
  Q 68.58 82.50 72.74 76.16
  Q 73.01 75.75 73.46 75.58
  Q 74.89 75.03 75.96 73.81
  Q 76.26 73.46 76.31 73.01
  C 76.59 70.26 79.24 70.59 80.72 69.81
  Q 82.40 68.92 83.88 67.66
  Q 84.22 67.36 84.66 67.49
  Q 85.51 67.75 86.12 67.23
  Q 86.86 66.61 87.73 66.58
  Q 88.23 66.57 88.66 66.33
  Q 90.84 65.13 93.20 66.10
  Q 93.77 66.33 94.03 65.78
  Q 94.49 64.84 95.58 65.11
  Q 96.07 65.23 96.57 65.14
  Q 100.31 64.47 102.75 64.64
  Q 109.28 65.09 114.87 63.31
  C 117.24 62.55 118.81 60.66 120.89 59.22
  Q 121.30 58.93 121.79 58.89
  Q 123.69 58.72 125.34 57.87
  Q 127.26 56.88 128.94 56.35
  Q 133.28 54.96 135.62 50.81
  Q 135.86 50.38 135.75 49.91
  L 135.47 48.76
  Z"
/>
<path fill="#3f4249" d="
  M 137.07 63.72
  Q 140.04 68.17 145.41 69.95
  Q 148.50 70.98 150.04 72.01
  Q 153.92 74.61 157.54 77.55
  C 159.15 78.86 161.09 78.90 162.64 80.79
  A 0.72 0.71 -67.5 0 1 162.80 81.18
  Q 162.96 83.26 165.18 82.61
  Q 165.73 82.45 166.07 81.99
  L 167.84 79.55
  Q 167.78 83.87 167.38 86.25
  C 166.49 91.52 161.64 89.75 159.31 87.06
  Q 159.00 86.70 158.56 86.53
  Q 151.21 83.72 144.88 79.06
  Q 144.79 79.00 143.57 78.23
  Q 142.44 77.53 141.87 76.34
  A 0.63 0.61 62.7 0 0 141.02 76.05
  Q 140.82 76.16 140.79 76.74
  C 137.23 72.26 134.76 69.81 137.07 63.72
  Z"
/>
<path fill="#2e2f32" d="
  M 51.94 66.13
  Q 53.22 69.17 52.19 70.50
  Q 48.42 75.35 46.02 80.77
  Q 45.18 80.37 44.66 80.82
  Q 44.27 81.16 44.34 81.67
  Q 44.53 82.97 43.67 83.63
  Q 43.27 83.93 42.80 83.75
  Q 36.78 81.41 30.76 79.03
  C 28.09 77.98 25.96 78.84 23.67 80.12
  C 21.37 81.41 20.29 84.22 18.47 86.29
  Q 18.16 86.64 18.14 87.11
  Q 18.08 88.64 17.91 90.17
  Q 17.85 90.68 17.57 90.95
  Q 17.00 91.52 16.57 90.98
  L 17.37 84.11
  Q 18.82 79.53 21.40 78.19
  A 1.29 1.29 0.0 0 0 22.01 77.52
  Q 22.94 75.09 24.62 73.89
  Q 26.62 72.44 29.26 71.67
  Q 31.28 71.07 34.27 71.51
  Q 41.42 72.55 48.64 72.63
  Q 49.21 72.64 49.43 72.11
  L 51.94 66.13
  Z"
/>
<path fill="#3c4359" d="
  M 24.25 69.30
  Q 23.27 71.40 22.18 73.43
  Q 21.99 73.80 20.13 76.27
  Q 19.06 77.70 18.67 79.58
  Q 18.65 79.64 18.59 79.61
  Q 18.16 79.40 18.46 79.57
  Q 18.50 79.59 18.52 79.55
  L 19.49 76.22
  Q 20.62 72.34 24.25 69.30
  Z"
/>
<path fill="#221e1b" d="
  M 167.84 79.55
  Q 166.74 78.83 169.57 76.72
  C 178.17 117.32 157.02 156.53 116.70 168.59
  Q 113.62 165.69 113.47 160.25
  Q 113.15 149.05 112.96 137.83
  C 112.91 134.58 112.03 132.08 110.19 129.65
  A 1.65 1.65 0.0 0 1 111.37 127.01
  C 128.15 125.63 141.74 117.45 143.96 99.26
  Q 145.50 86.66 140.79 76.74
  Q 140.82 76.16 141.02 76.05
  A 0.63 0.61 62.7 0 1 141.87 76.34
  Q 142.44 77.53 143.57 78.23
  Q 144.79 79.00 144.88 79.06
  Q 151.21 83.72 158.56 86.53
  Q 159.00 86.70 159.31 87.06
  C 161.64 89.75 166.49 91.52 167.38 86.25
  Q 167.78 83.87 167.84 79.55
  Z"
/>
<path fill="#221e1b" d="
  M 46.02 80.77
  Q 42.43 92.38 45.75 105.18
  Q 50.28 120.02 66.59 124.85
  Q 71.59 126.33 76.95 127.23
  C 78.59 127.51 79.07 128.59 78.11 130.00
  Q 75.55 133.55 75.06 137.96
  Q 75.00 138.48 74.49 138.59
  C 70.02 139.53 61.88 140.91 58.41 137.10
  C 53.96 132.22 47.54 126.41 41.04 124.66
  Q 38.73 124.04 37.72 125.33
  A 2.09 2.08 38.1 0 0 38.08 128.26
  L 44.12 132.99
  Q 48.11 138.99 51.37 143.85
  C 55.92 150.64 66.91 151.56 74.43 151.19
  Q 74.88 151.17 74.96 151.61
  Q 76.67 161.73 72.07 168.98
  C 36.34 158.57 14.87 127.94 16.57 90.98
  Q 17.00 91.52 17.57 90.95
  Q 17.85 90.68 17.91 90.17
  Q 18.08 88.64 18.14 87.11
  Q 18.16 86.64 18.47 86.29
  C 20.29 84.22 21.37 81.41 23.67 80.12
  C 25.96 78.84 28.09 77.98 30.76 79.03
  Q 36.78 81.41 42.80 83.75
  Q 43.27 83.93 43.67 83.63
  Q 44.53 82.97 44.34 81.67
  Q 44.27 81.16 44.66 80.82
  Q 45.18 80.37 46.02 80.77
  Z"
/>
<path fill="#fcfcfd" d="
  M 78.11 130.00
  Q 81.29 129.32 83.18 132.65
  Q 83.42 133.06 83.37 133.54
  Q 82.88 138.38 82.40 143.24
  Q 82.18 145.46 80.31 146.50
  Q 79.14 147.15 76.85 146.81
  Q 74.06 146.39 71.23 146.50
  Q 69.39 146.56 66.87 146.05
  Q 64.61 145.59 62.27 145.98
  A 1.28 1.25 -32.6 0 1 61.37 145.79
  Q 59.78 144.76 57.27 144.20
  Q 52.75 143.19 51.00 139.07
  Q 49.97 136.66 49.03 135.77
  Q 46.72 133.62 44.12 132.99
  L 38.08 128.26
  A 2.09 2.08 38.1 0 1 37.72 125.33
  Q 38.73 124.04 41.04 124.66
  C 47.54 126.41 53.96 132.22 58.41 137.10
  C 61.88 140.91 70.02 139.53 74.49 138.59
  Q 75.00 138.48 75.06 137.96
  Q 75.55 133.55 78.11 130.00
  Z
  M 45.3853 128.7737
  A 1.17 0.75 28.8 0 0 44.7213 127.5528
  A 1.17 0.75 28.8 0 0 43.3347 127.6463
  A 1.17 0.75 28.8 0 0 43.9987 128.8672
  A 1.17 0.75 28.8 0 0 45.3853 128.7737
  Z
  M 48.8206 132.0039
  A 1.27 0.89 51.5 0 0 48.7265 130.4560
  A 1.27 0.89 51.5 0 0 47.2394 130.0161
  A 1.27 0.89 51.5 0 0 47.3335 131.5640
  A 1.27 0.89 51.5 0 0 48.8206 132.0039
  Z
  M 52.2552 135.6511
  A 1.32 1.00 53.5 0 0 52.2739 133.9952
  A 1.32 1.00 53.5 0 0 50.6848 133.5289
  A 1.32 1.00 53.5 0 0 50.6661 135.1848
  A 1.32 1.00 53.5 0 0 52.2552 135.6511
  Z
  M 56.2299 139.4451
  A 1.39 1.07 43.4 0 0 55.9552 137.7126
  A 1.39 1.07 43.4 0 0 54.2101 137.5349
  A 1.39 1.07 43.4 0 0 54.4848 139.2674
  A 1.39 1.07 43.4 0 0 56.2299 139.4451
  Z
  M 61.6393 142.4905
  A 1.60 1.18 17.1 0 0 60.4570 140.8922
  A 1.60 1.18 17.1 0 0 58.5807 141.5495
  A 1.60 1.18 17.1 0 0 59.7630 143.1478
  A 1.60 1.18 17.1 0 0 61.6393 142.4905
  Z
  M 74.5901 142.2608
  A 1.81 1.21 -6.0 0 0 72.6635 141.2466
  A 1.81 1.21 -6.0 0 0 70.9899 142.6392
  A 1.81 1.21 -6.0 0 0 72.9165 143.6534
  A 1.81 1.21 -6.0 0 0 74.5901 142.2608
  Z
  M 68.2091 142.9730
  A 1.72 1.25 -1.9 0 0 66.4486 141.7807
  A 1.72 1.25 -1.9 0 0 64.7709 143.0870
  A 1.72 1.25 -1.9 0 0 66.5314 144.2793
  A 1.72 1.25 -1.9 0 0 68.2091 142.9730
  Z"
/>
<ellipse fill="#221e1b" cx="0.00" cy="0.00" transform="translate(44.36,128.21) rotate(28.8)" rx="1.17" ry="0.75"/>
<ellipse fill="#221e1b" cx="0.00" cy="0.00" transform="translate(48.03,131.01) rotate(51.5)" rx="1.27" ry="0.89"/>
<ellipse fill="#221e1b" cx="0.00" cy="0.00" transform="translate(51.47,134.59) rotate(53.5)" rx="1.32" ry="1.00"/>
<ellipse fill="#221e1b" cx="0.00" cy="0.00" transform="translate(55.22,138.49) rotate(43.4)" rx="1.39" ry="1.07"/>
<ellipse fill="#221e1b" cx="0.00" cy="0.00" transform="translate(60.11,142.02) rotate(17.1)" rx="1.60" ry="1.18"/>
<ellipse fill="#2e2f32" cx="0.00" cy="0.00" transform="translate(72.79,142.45) rotate(-6.0)" rx="1.81" ry="1.21"/>
<ellipse fill="#221e1b" cx="0.00" cy="0.00" transform="translate(66.49,143.03) rotate(-1.9)" rx="1.72" ry="1.25"/>
</svg>
