<?xml version="1.0" encoding="UTF-8" standalone="no"?>
<!DOCTYPE svg PUBLIC "-//W3C//DTD SVG 1.1//EN" "http://www.w3.org/Graphics/SVG/1.1/DTD/svg11.dtd">
<svg xmlns="http://www.w3.org/2000/svg" version="1.1" viewBox="0.00 0.00 400.00 400.00">
<g stroke-width="1.10" fill="none" stroke-linecap="butt">
<path stroke="#62cab2" vector-effect="non-scaling-stroke" d="
  M 385.43 146.45
  Q 384.86 146.59 384.86 147.50
  Q 384.73 199.39 384.85 251.71
  A 0.40 0.39 -81.4 0 1 384.34 252.09
  Q 383.32 251.78 382.00 251.79
  C 281.92 252.59 181.83 252.19 81.75 252.06
  C 58.77 252.03 35.86 251.72 12.77 252.06
  Q 11.88 252.08 11.91 251.18
  Q 12.38 239.19 11.99 226.75
  Q 11.50 211.35 12.14 160.00
  Q 12.24 152.43 11.14 144.90"
/>
<path stroke="#62cab2" vector-effect="non-scaling-stroke" d="
  M 34.95 172.42
  Q 33.83 190.84 34.47 209.25
  Q 34.80 218.71 34.05 228.22
  A 0.86 0.86 0.0 0 0 34.32 228.91
  Q 34.82 229.39 35.36 229.22"
/>
<path stroke="#80d8c4" vector-effect="non-scaling-stroke" d="
  M 35.36 229.22
  L 362.22 229.23
  Q 362.77 229.23 362.77 228.68
  L 362.88 207.03"
/>
<path stroke="#77cfbb" vector-effect="non-scaling-stroke" d="
  M 362.88 207.03
  L 362.95 199.31"
/>
<path stroke="#80d8c4" vector-effect="non-scaling-stroke" d="
  M 362.95 199.31
  L 362.90 189.54"
/>
<path stroke="#77cfbb" vector-effect="non-scaling-stroke" d="
  M 362.90 189.54
  L 362.93 180.91"
/>
<path stroke="#80d8c4" vector-effect="non-scaling-stroke" d="
  M 362.93 180.91
  L 362.81 169.51
  Q 362.80 169.00 362.29 169.00
  L 35.84 169.02
  A 0.91 0.90 -78.9 0 0 35.00 169.59
  Q 34.38 171.12 34.95 172.42"
/>
<path stroke="#f6f6f6" vector-effect="non-scaling-stroke" d="
  M 362.93 180.91
  Q 361.33 182.40 358.00 181.36
  Q 356.48 180.89 354.82 181.17
  A 0.78 0.76 1.6 0 0 354.21 181.73
  C 353.42 184.64 351.60 192.32 357.50 191.39
  Q 359.78 191.03 362.90 189.54"
/>
<path stroke="#f6f6f6" vector-effect="non-scaling-stroke" d="
  M 362.95 199.31
  L 355.29 199.58
  Q 354.68 199.61 354.41 200.16
  Q 352.78 203.45 353.64 206.97
  A 1.04 1.04 0.0 0 1 352.68 208.26
  L 346.16 208.57
  Q 345.67 208.59 345.61 209.08
  Q 345.00 214.03 345.17 216.27
  C 345.45 219.95 351.05 218.78 353.38 218.34
  Q 353.93 218.23 353.96 217.68
  L 354.34 210.65
  A 1.35 1.34 3.2 0 1 355.77 209.38
  Q 358.83 209.56 362.88 207.03"
/>
<path stroke="#e1f1ed" vector-effect="non-scaling-stroke" d="
  M 35.36 229.22
  L 34.95 172.42"
/>
<path stroke="#f6f6f6" vector-effect="non-scaling-stroke" d="
  M 80.32 173.79
  A 2.36 2.36 0.0 0 0 78.00 171.87
  L 75.85 171.87
  A 2.36 2.36 0.0 0 0 73.51 173.91
  L 72.81 178.98
  A 2.36 2.36 0.0 0 0 75.11 181.67
  L 78.94 181.73
  A 2.36 2.36 0.0 0 0 81.30 178.93
  L 80.32 173.79"
/>
<path stroke="#f6f6f6" vector-effect="non-scaling-stroke" d="
  M 146.91 181.78
  L 153.13 181.76
  A 2.13 2.13 0.0 0 0 155.25 179.63
  L 155.25 176.96
  A 4.78 3.52 89.9 0 0 151.72 172.19
  L 148.28 172.19
  A 4.78 3.52 89.9 0 0 144.77 176.98
  L 144.77 179.65
  A 2.13 2.13 0.0 0 0 146.91 181.78"
/>
<path stroke="#f6f6f6" vector-effect="non-scaling-stroke" d="
  M 180.21 181.65
  L 172.79 181.99
  Q 172.00 182.03 171.98 182.81
  L 171.75 190.80
  A 0.55 0.55 0.0 0 1 171.20 191.33
  L 164.86 191.23
  A 0.64 0.63 89.5 0 1 164.24 190.61
  L 163.99 182.12
  Q 163.98 181.72 164.38 181.71
  L 171.28 181.52
  Q 171.81 181.51 171.94 181.00
  C 173.11 176.58 170.22 170.07 164.76 172.78
  Q 164.34 172.99 164.28 173.46
  L 163.45 180.51
  A 1.22 1.22 0.0 0 1 162.26 181.59
  L 156.78 181.70
  Q 154.79 181.74 154.77 183.72
  L 154.68 190.70
  A 0.63 0.62 0.5 0 1 154.05 191.31
  L 145.79 191.26
  A 0.50 0.49 88.8 0 1 145.30 190.78
  L 145.07 182.29
  Q 145.05 181.64 144.41 181.63
  L 138.25 181.48
  A 1.77 1.76 -0.7 0 1 136.53 179.81
  C 136.34 175.55 135.44 171.07 129.81 172.35
  Q 129.29 172.47 128.99 172.91
  Q 126.48 176.54 127.23 181.06
  A 0.47 0.47 0.0 0 1 126.78 181.61
  L 118.65 181.85
  A 0.75 0.75 0.0 0 0 117.92 182.59
  L 117.77 190.88
  Q 117.76 191.28 117.37 191.27
  L 110.06 191.27
  A 0.70 0.70 0.0 0 0 109.38 191.80
  Q 108.47 195.47 109.46 199.13
  A 0.95 0.95 0.0 0 0 110.38 199.83
  L 117.08 199.76
  Q 117.91 199.75 117.92 198.92
  L 117.96 192.19
  A 0.63 0.62 89.1 0 1 118.56 191.56
  L 126.93 191.32
  Q 127.65 191.30 127.65 190.58
  L 127.67 182.69
  Q 127.67 182.29 128.07 182.25
  L 135.53 181.62
  A 0.93 0.92 -2.6 0 1 136.53 182.53
  L 136.60 190.75
  Q 136.60 191.40 137.25 191.40
  L 144.41 191.44
  A 0.59 0.59 0.0 0 1 144.99 192.03
  L 144.88 199.09
  A 0.77 0.77 0.0 0 0 145.66 199.87
  L 154.41 199.80
  A 0.58 0.58 0.0 0 0 154.99 199.21
  L 154.98 191.76
  Q 154.98 191.49 155.25 191.48
  L 163.05 191.38
  A 0.89 0.89 0.0 0 1 163.95 192.30
  L 163.76 199.42
  A 0.63 0.63 0.0 0 0 164.42 200.06
  L 171.23 199.74
  A 0.95 0.94 88.4 0 0 172.13 198.78
  L 172.01 191.98
  Q 172.01 191.47 172.52 191.46
  L 181.51 191.37"
/>
<path stroke="#f6f6f6" vector-effect="non-scaling-stroke" d="
  M 181.51 191.37
  L 181.51 199.37
  A 0.60 0.60 0.0 0 0 182.13 199.97
  L 190.34 199.70
  A 0.88 0.87 89.4 0 1 191.24 200.59
  L 191.12 208.00
  A 0.62 0.61 -89.1 0 1 190.50 208.61
  L 183.25 208.51
  Q 181.74 208.48 181.55 209.98
  Q 181.21 212.56 181.26 216.02
  Q 181.30 218.60 184.25 218.64
  Q 187.40 218.68 190.58 218.39
  Q 191.22 218.33 191.23 218.98
  L 191.32 226.21
  A 0.88 0.88 0.0 0 0 191.84 227.00
  Q 195.52 228.70 199.08 226.79
  Q 199.59 226.51 199.63 225.93
  L 200.02 219.19
  Q 200.05 218.57 199.43 218.57
  L 191.88 218.54
  Q 191.49 218.54 191.50 218.14
  L 191.69 209.78
  A 0.83 0.83 0.0 0 1 192.49 208.97
  L 199.10 208.70
  Q 199.62 208.68 199.73 208.16
  Q 200.47 204.48 199.72 200.80
  A 0.77 0.76 -4.7 0 0 198.99 200.19
  L 192.00 200.01
  Q 191.50 199.99 191.50 199.50
  L 191.47 192.05
  Q 191.46 191.57 191.95 191.55
  L 199.59 191.30
  A 0.52 0.51 0.5 0 1 200.13 191.84
  L 199.71 199.03
  Q 199.66 199.90 200.53 199.89
  L 208.11 199.80
  A 0.65 0.65 0.0 0 0 208.76 199.14
  L 208.72 191.87
  Q 208.72 191.45 209.13 191.45
  L 217.67 191.36
  Q 218.45 191.36 218.46 190.58
  L 218.53 182.57
  A 0.96 0.96 0.0 0 0 217.57 181.61
  L 209.41 181.58
  Q 208.65 181.57 208.63 182.33
  L 208.38 190.82
  Q 208.36 191.25 207.93 191.25
  L 200.55 191.26
  A 0.70 0.69 0.8 0 1 199.85 190.55
  L 200.05 182.89
  A 0.63 0.61 -2.7 0 1 200.61 182.29
  L 208.06 181.49
  A 0.88 0.87 89.3 0 0 208.85 180.67
  Q 209.05 177.66 208.07 174.86
  Q 207.36 172.85 205.63 172.33
  Q 203.81 171.78 201.88 172.53
  Q 201.37 172.73 201.11 173.21
  Q 199.17 176.73 199.56 180.79
  A 0.73 0.73 0.0 0 1 198.83 181.59
  L 192.00 181.55
  Q 191.52 181.55 191.57 181.07
  Q 191.93 177.09 190.18 173.51
  A 1.03 1.03 0.0 0 0 189.65 173.01
  Q 185.89 171.44 182.43 173.30
  A 1.18 1.17 -11.7 0 0 181.82 174.22
  L 181.15 181.13
  Q 181.10 181.62 180.62 181.63
  L 180.21 181.65"
/>
<path stroke="#f6f6f6" vector-effect="non-scaling-stroke" d="
  M 181.51 191.37
  L 190.52 191.14
  A 0.56 0.55 -0.6 0 0 191.06 190.60
  L 191.14 182.14
  Q 191.15 181.49 190.52 181.63
  Q 186.26 182.53 181.99 181.64
  Q 181.47 181.53 181.38 182.05
  Q 181.34 182.29 181.42 182.50"
/>
<path stroke="#ededed" vector-effect="non-scaling-stroke" d="
  M 181.42 182.50
  Q 181.08 181.77 180.21 181.65"
/>
<path stroke="#f6f6f6" vector-effect="non-scaling-stroke" d="
  M 181.42 182.50
  L 181.51 191.37"
/>
<path stroke="#f6f6f6" vector-effect="non-scaling-stroke" d="
  M 326.80 208.75
  L 326.69 216.98
  A 1.77 1.77 0.0 0 0 328.51 218.77
  L 335.25 218.58
  A 0.85 0.84 -89.6 0 0 336.07 217.76
  L 336.35 209.11
  Q 336.37 208.60 336.87 208.64
  Q 340.12 208.93 343.38 209.02
  Q 345.38 209.08 345.56 206.75
  Q 345.80 203.64 345.50 201.22
  Q 345.32 199.85 346.70 199.97
  Q 350.05 200.26 353.23 199.22
  A 0.97 0.94 -9.4 0 0 353.89 198.32
  L 353.94 192.76
  Q 353.94 192.14 353.37 191.90
  Q 349.78 190.41 346.06 191.68
  Q 345.55 191.86 345.52 192.40
  L 345.17 199.61
  Q 345.15 200.12 344.64 200.11
  L 337.95 199.98
  Q 336.09 199.94 336.08 201.80
  L 336.03 207.93
  Q 336.03 208.56 335.40 208.55
  L 326.96 208.47"
/>
<path stroke="#f6f6f6" vector-effect="non-scaling-stroke" d="
  M 326.96 208.47
  L 327.11 200.82
  Q 327.12 200.32 326.61 200.29
  L 319.44 199.96
  Q 318.96 199.93 318.97 199.45
  L 319.13 191.81
  Q 319.13 191.50 319.44 191.50
  L 326.08 191.54
  A 0.78 0.77 1.1 0 1 326.85 192.33
  L 326.69 199.05
  Q 326.67 199.94 327.55 199.92
  L 335.30 199.81
  Q 336.14 199.79 336.15 198.95
  L 336.24 192.01
  A 0.52 0.52 0.0 0 1 336.75 191.50
  L 344.84 191.41
  A 0.74 0.74 0.0 0 0 345.58 190.65
  L 345.32 182.33
  A 0.75 0.74 89.6 0 0 344.59 181.60
  L 337.25 181.53
  A 0.87 0.86 -87.1 0 0 336.38 182.32
  L 335.61 190.72
  Q 335.56 191.27 335.01 191.27
  L 327.75 191.20
  A 0.60 0.60 0.0 0 1 327.15 190.59
  L 327.28 182.18
  Q 327.29 181.79 327.68 181.84
  Q 331.35 182.35 334.96 181.57
  Q 335.92 181.36 336.34 180.84
  C 337.12 179.87 336.64 178.75 336.59 177.84
  C 336.30 173.05 331.60 170.63 327.49 173.03
  Q 326.99 173.33 326.95 173.92
  L 326.52 181.27
  Q 326.50 181.66 326.10 181.65
  L 320.10 181.61
  Q 319.55 181.61 319.48 181.07
  L 318.62 174.16
  Q 318.54 173.48 317.90 173.23
  Q 313.85 171.66 309.80 173.30
  Q 309.35 173.47 309.29 173.95
  C 308.93 176.80 307.21 181.78 311.76 182.09
  Q 314.80 182.31 317.98 181.93
  A 0.58 0.57 -3.1 0 1 318.62 182.50
  L 318.62 190.72
  Q 318.62 191.31 318.03 191.31
  L 309.88 191.23
  A 0.61 0.61 0.0 0 1 309.28 190.63
  L 309.22 182.54
  A 0.93 0.92 89.4 0 0 308.29 181.62
  L 300.96 181.69
  A 1.14 1.13 -88.9 0 0 299.84 182.78
  L 299.49 190.80
  Q 299.47 191.27 299.00 191.27
  C 296.89 191.25 290.94 190.28 290.86 193.55
  C 290.81 195.52 290.59 197.53 290.92 199.49
  A 0.63 0.61 -5.8 0 0 291.56 200.00
  L 299.13 199.76
  A 0.64 0.64 0.0 0 0 299.75 199.12
  L 299.77 192.13
  Q 299.77 191.52 300.38 191.50
  L 308.48 191.25
  Q 308.97 191.24 308.97 191.73
  L 308.92 199.11
  A 0.81 0.81 0.0 0 0 309.74 199.92
  L 318.19 199.75
  A 0.51 0.51 0.0 0 1 318.71 200.26
  L 318.69 207.99
  A 0.67 0.67 0.0 0 1 318.01 208.66
  L 309.75 208.49
  Q 309.26 208.48 309.25 207.99
  L 309.22 201.13
  A 0.88 0.88 0.0 0 0 308.38 200.26
  L 300.90 199.96
  Q 299.71 199.92 299.69 201.11
  L 299.60 208.01
  Q 299.58 208.93 300.51 208.92
  L 308.35 208.82
  Q 308.88 208.81 308.89 209.35
  L 308.92 217.44
  A 1.14 1.14 0.0 0 0 310.07 218.57
  L 318.09 218.54
  Q 318.95 218.53 318.98 217.67
  L 319.27 209.13
  Q 319.29 208.69 319.73 208.69
  L 326.80 208.75"
/>
<path stroke="#ededed" vector-effect="non-scaling-stroke" d="
  M 326.96 208.47
  Q 326.59 208.51 326.80 208.75"
/>
<path stroke="#f6f6f6" vector-effect="non-scaling-stroke" d="
  M 100.78 177.75
  Q 99.91 172.30 94.25 172.19
  C 90.85 172.12 90.88 177.24 90.64 179.43
  C 90.24 183.15 97.48 181.94 99.52 181.29
  Q 99.99 181.14 100.23 180.71
  Q 101.03 179.31 100.78 177.75"
/>
<path stroke="#f6f6f6" vector-effect="non-scaling-stroke" d="
  M 113.71 172.50
  A 2.83 2.83 0.0 0 0 110.21 174.31
  L 108.83 178.43
  A 2.83 2.83 0.0 0 0 111.56 182.15
  L 115.53 182.10
  A 2.83 2.83 0.0 0 0 118.28 178.79
  L 117.70 175.34
  A 2.83 2.83 0.0 0 0 115.72 173.10
  L 113.71 172.50"
/>
<path stroke="#f6f6f6" vector-effect="non-scaling-stroke" d="
  M 219.00 173.85
  L 218.48 180.58
  Q 218.43 181.20 219.04 181.33
  Q 223.26 182.25 227.48 181.26
  Q 228.07 181.12 228.20 180.53
  C 229.31 175.65 224.62 170.48 219.65 172.90
  Q 219.05 173.19 219.00 173.85"
/>
<path stroke="#f6f6f6" vector-effect="non-scaling-stroke" d="
  M 245.06 191.32
  L 253.96 191.33
  A 0.90 0.90 0.0 0 1 254.86 192.25
  L 254.71 199.70
  Q 254.70 200.35 254.05 200.32
  L 246.89 200.02
  Q 244.98 199.94 244.97 201.86
  L 244.93 208.00
  Q 244.93 208.67 244.25 208.66
  L 236.50 208.53
  Q 235.78 208.52 235.78 209.25
  L 235.78 217.83
  A 0.82 0.82 0.0 0 0 236.61 218.65
  L 244.51 218.62
  Q 245.12 218.62 245.14 218.00
  L 245.41 209.16
  Q 245.42 208.73 245.85 208.74
  L 254.12 208.84
  A 0.58 0.57 -1.1 0 1 254.69 209.38
  Q 254.87 212.67 254.63 216.02
  Q 254.44 218.84 257.27 218.74
  Q 259.80 218.65 262.57 218.52
  A 0.75 0.74 87.7 0 1 263.34 219.24
  L 263.55 225.77
  A 1.25 1.24 -78.7 0 0 264.26 226.85
  Q 267.97 228.62 271.62 226.77
  A 0.97 0.97 0.0 0 0 272.15 225.94
  L 272.43 219.29
  A 0.66 0.66 0.0 0 0 271.78 218.60
  L 264.43 218.44
  A 0.99 0.99 0.0 0 1 263.46 217.44
  L 263.56 209.33
  Q 263.56 208.59 262.83 208.58
  L 255.72 208.50
  Q 255.20 208.49 255.19 207.97
  L 255.06 200.62
  Q 255.05 200.04 255.63 200.02
  L 262.51 199.83
  A 0.84 0.83 89.3 0 0 263.32 198.99
  L 263.27 191.88
  A 0.65 0.64 0.5 0 0 262.63 191.24
  L 255.80 191.21
  A 0.60 0.60 0.0 0 1 255.20 190.62
  L 255.11 182.14
  A 0.69 0.68 -0.8 0 0 254.40 181.46
  L 245.77 181.69
  A 0.56 0.55 -85.5 0 0 245.24 182.15
  Q 244.43 186.74 245.06 191.32"
/>
<path stroke="#f6f6f6" vector-effect="non-scaling-stroke" d="
  M 245.06 191.32
  L 236.59 191.23
  Q 236.08 191.22 236.07 190.71
  L 236.00 182.65
  A 0.63 0.63 0.0 0 1 236.60 182.01
  L 244.56 181.56
  Q 245.66 181.50 245.48 180.42
  L 244.44 173.85
  A 1.16 1.14 -84.7 0 0 243.71 172.96
  Q 240.36 171.71 236.91 172.76
  A 1.01 1.00 -4.9 0 0 236.20 173.60
  L 235.33 181.08
  A 0.67 0.66 -86.6 0 1 234.67 181.67
  L 229.71 181.70
  A 1.86 1.86 0.0 0 0 227.86 183.53
  L 227.73 190.76
  Q 227.72 191.24 227.24 191.24
  L 219.47 191.28
  Q 218.84 191.29 218.79 191.92
  L 218.25 199.38
  A 0.63 0.62 -89.2 0 0 218.90 200.05
  L 227.35 199.70
  Q 227.98 199.67 227.98 199.03
  L 228.01 191.96
  A 0.54 0.54 0.0 0 1 228.54 191.43
  L 235.36 191.28
  A 0.57 0.57 0.0 0 1 235.95 191.87
  L 235.73 199.31
  A 0.70 0.70 0.0 0 0 236.45 200.03
  L 244.74 199.73
  Q 245.20 199.72 245.19 199.26
  L 245.06 191.32"
/>
<path stroke="#f6f6f6" vector-effect="non-scaling-stroke" d="
  M 256.64 181.93
  L 261.51 181.76
  A 1.87 1.87 0.0 0 0 263.32 179.83
  L 263.23 177.34
  A 5.18 3.27 88.0 0 0 259.78 172.28
  L 257.70 172.35
  A 5.18 3.27 88.0 0 0 254.62 177.64
  L 254.70 180.13
  A 1.87 1.87 0.0 0 0 256.64 181.93"
/>
<path stroke="#f6f6f6" vector-effect="non-scaling-stroke" d="
  M 273.75 191.40
  A 1.16 1.16 0.0 0 1 272.56 190.25
  L 272.49 182.63
  A 0.91 0.91 0.0 0 1 273.38 181.72
  L 281.87 181.55
  A 0.67 0.67 0.0 0 0 282.53 180.88
  Q 282.58 176.22 279.49 172.68
  Q 279.12 172.26 278.56 172.30
  L 273.56 172.59
  A 0.81 0.80 2.2 0 0 272.81 173.28
  L 271.74 180.90
  A 0.68 0.68 0.0 0 1 271.08 181.49
  L 264.93 181.58
  A 1.74 1.73 -0.7 0 0 263.22 183.32
  L 263.25 190.59
  Q 263.25 191.31 263.96 191.32
  L 271.43 191.46
  A 1.16 1.15 2.4 0 1 272.57 192.69
  L 272.18 199.11
  A 1.04 1.03 1.5 0 1 271.15 200.08
  L 264.23 200.13
  A 0.77 0.77 0.0 0 0 263.46 200.87
  L 263.19 207.91
  A 0.87 0.86 -88.4 0 0 264.03 208.81
  L 271.68 208.92
  Q 272.56 208.94 272.55 208.06
  L 272.44 200.90
  A 0.95 0.95 0.0 0 1 273.35 199.94
  L 281.20 199.65
  Q 282.01 199.62 282.02 198.80
  L 282.03 192.05
  A 0.61 0.60 -89.1 0 1 282.64 191.45
  L 288.65 191.48
  A 2.33 2.33 0.0 0 0 290.99 189.21
  L 291.18 182.44
  A 0.90 0.90 0.0 0 1 292.25 181.58
  Q 295.54 182.21 298.73 181.31
  Q 300.33 180.86 299.90 179.25
  C 299.39 177.30 298.63 173.65 296.92 172.63
  C 291.64 169.48 291.15 178.47 290.84 181.06
  A 0.66 0.65 -87.5 0 1 290.20 181.65
  L 283.90 181.76
  A 1.89 1.89 0.0 0 0 282.05 183.60
  L 281.88 190.54
  A 0.69 0.68 -89.6 0 1 281.21 191.21
  L 273.75 191.40"
/>
<path stroke="#f6f6f6" vector-effect="non-scaling-stroke" d="
  M 349.87 172.38
  C 345.86 171.54 345.31 177.13 345.04 179.68
  A 1.57 1.57 0.0 0 0 345.97 181.28
  C 349.77 182.93 354.84 182.12 354.25 176.86
  Q 353.84 173.21 349.87 172.38"
/>
<path stroke="#f6f6f6" vector-effect="non-scaling-stroke" d="
  M 56.62 182.05
  L 62.18 181.89
  A 1.75 1.75 0.0 0 0 63.88 180.09
  L 63.81 177.53
  A 4.85 3.27 88.4 0 0 60.40 172.78
  L 57.88 172.85
  A 4.85 3.27 88.4 0 0 54.75 177.79
  L 54.82 180.35
  A 1.75 1.75 0.0 0 0 56.62 182.05"
/>
<path stroke="#f6f6f6" vector-effect="non-scaling-stroke" d="
  M 81.20 208.55
  L 90.25 208.79
  Q 90.74 208.81 90.74 209.29
  L 90.77 217.24
  A 1.44 1.44 0.0 0 0 92.25 218.68
  L 99.45 218.48
  Q 100.23 218.45 100.23 217.68
  L 100.28 209.28
  A 0.45 0.45 0.0 0 1 100.73 208.83
  L 107.61 208.80
  Q 108.31 208.80 108.50 208.13
  Q 109.50 204.57 109.00 200.90
  Q 108.92 200.31 108.32 200.28
  L 101.29 200.02
  A 0.98 0.98 0.0 0 0 100.28 200.96
  L 99.98 207.96
  Q 99.95 208.62 99.29 208.61
  L 91.59 208.50
  Q 91.05 208.50 91.06 207.96
  L 91.14 201.02
  Q 91.14 200.40 90.52 200.37
  L 83.01 200.00
  Q 80.99 199.90 81.04 201.92
  L 81.20 208.55"
/>
<path stroke="#f6f6f6" vector-effect="non-scaling-stroke" d="
  M 81.20 208.55
  L 73.73 208.46
  Q 73.19 208.45 73.19 207.91
  L 73.24 201.00
  Q 73.24 200.26 72.50 200.24
  L 64.67 200.03
  A 0.83 0.83 0.0 0 0 63.82 200.83
  L 63.58 208.15
  Q 63.56 208.61 63.10 208.60
  L 55.26 208.49
  Q 54.54 208.48 54.54 207.76
  L 54.52 200.63
  A 0.62 0.61 -1.4 0 1 55.12 200.01
  L 63.37 199.74
  A 0.60 0.60 0.0 0 0 63.95 199.13
  L 63.78 192.13
  Q 63.77 191.53 64.37 191.52
  L 72.35 191.37
  A 0.60 0.59 89.5 0 1 72.95 191.97
  L 72.85 199.15
  A 0.79 0.79 0.0 0 0 73.65 199.95
  L 80.64 199.87
  A 0.74 0.74 0.0 0 0 81.37 199.11
  L 81.19 191.77
  Q 81.18 191.47 81.48 191.47
  L 90.50 191.38
  Q 91.13 191.37 91.13 190.75
  L 91.12 182.28
  A 0.72 0.71 89.2 0 0 90.40 181.57
  L 82.29 181.64
  A 1.34 1.34 0.0 0 0 80.96 182.95
  L 80.78 190.63
  A 0.66 0.66 0.0 0 1 80.12 191.27
  L 73.90 191.25
  Q 73.30 191.25 73.29 190.65
  L 73.09 182.28
  Q 73.07 181.48 72.28 181.51
  L 64.89 181.75
  A 0.78 0.78 0.0 0 0 64.16 182.35
  Q 63.20 186.47 63.82 190.65
  A 0.55 0.54 -4.5 0 1 63.28 191.28
  L 55.08 191.25
  A 0.67 0.67 0.0 0 1 54.42 190.58
  L 54.42 182.57
  Q 54.42 181.98 53.83 181.97
  L 47.02 181.92
  A 1.15 1.15 0.0 0 0 45.86 183.10
  L 46.00 189.26
  A 2.37 2.37 0.0 0 1 43.74 191.68
  L 40.82 191.82
  Q 40.22 191.84 39.93 192.36
  Q 38.42 194.97 39.14 197.92
  A 0.89 0.88 87.9 0 0 39.84 198.58
  L 45.07 199.50
  Q 45.79 199.62 45.81 198.90
  L 46.02 192.32
  Q 46.05 191.44 46.92 191.41
  L 53.94 191.16
  A 0.76 0.76 0.0 0 1 54.73 191.96
  L 54.38 199.64
  A 0.63 0.63 0.0 0 1 53.73 200.24
  L 47.73 200.00
  A 1.77 1.77 0.0 0 0 45.89 201.77
  L 45.89 207.23
  A 1.76 1.76 0.0 0 1 43.75 208.95
  Q 39.03 207.91 37.15 212.09
  Q 36.68 213.14 37.14 213.89
  Q 37.27 218.73 41.53 218.60
  C 44.05 218.53 46.08 218.26 46.15 215.23
  Q 46.21 212.30 45.86 209.65
  A 0.83 0.83 0.0 0 1 46.68 208.71
  L 54.05 208.72
  Q 54.64 208.72 54.62 209.31
  L 54.38 216.99
  A 1.81 1.81 0.0 0 1 52.51 218.74
  L 46.48 218.55
  Q 45.74 218.52 45.75 219.27
  L 45.91 225.42
  A 1.10 1.08 19.8 0 0 46.30 226.23
  C 48.23 227.87 53.43 228.58 53.89 225.00
  Q 54.28 222.00 54.38 219.24
  A 0.68 0.68 0.0 0 1 55.06 218.58
  L 62.54 218.57
  A 1.17 1.16 -88.2 0 0 63.70 217.47
  L 64.18 209.29
  Q 64.21 208.79 64.71 208.79
  L 72.53 208.82
  A 0.35 0.35 0.0 0 1 72.88 209.19
  Q 72.73 212.60 72.79 216.03
  C 72.86 219.93 78.13 218.82 80.32 218.56
  A 0.75 0.75 0.0 0 0 80.97 217.94
  Q 81.79 213.22 81.20 208.55"
/>
<path stroke="#f6f6f6" vector-effect="non-scaling-stroke" d="
  M 101.36 191.30
  L 107.82 191.36
  A 1.28 1.28 0.0 0 0 109.11 190.09
  L 109.16 184.31
  A 2.70 1.92 -89.5 0 0 107.26 181.59
  L 102.08 181.55
  A 2.70 1.92 -89.5 0 0 100.14 184.23
  L 100.09 190.01
  A 1.28 1.28 0.0 0 0 101.36 191.30"
/>
<path stroke="#f6f6f6" vector-effect="non-scaling-stroke" d="
  M 100.1394 192.0493
  A 0.78 0.78 0.0 0 0 99.3526 191.2761
  L 91.5529 191.3442
  A 0.78 0.78 0.0 0 0 90.7797 192.1310
  L 90.8406 199.1107
  A 0.78 0.78 0.0 0 0 91.6274 199.8839
  L 99.4271 199.8158
  A 0.78 0.78 0.0 0 0 100.2003 199.0290
  L 100.1394 192.0493"
/>
<path stroke="#f6f6f6" vector-effect="non-scaling-stroke" d="
  M 126.54 218.65
  L 118.44 218.56
  Q 117.93 218.55 117.93 219.06
  C 117.95 221.67 116.96 226.58 120.40 227.30
  C 122.85 227.81 127.13 228.30 127.40 224.68
  Q 127.60 222.08 127.56 219.64
  A 0.81 0.81 0.0 0 1 128.35 218.81
  L 135.83 218.63
  Q 136.51 218.61 136.52 217.93
  L 136.67 209.54
  A 0.79 0.79 0.0 0 0 135.91 208.74
  L 128.24 208.44
  A 0.47 0.47 0.0 0 1 127.79 207.99
  L 127.57 200.51
  Q 127.56 200.09 127.99 200.07
  L 136.05 199.73
  Q 136.57 199.71 136.57 199.20
  L 136.51 192.16
  Q 136.50 191.31 135.66 191.31
  L 128.30 191.29
  Q 127.64 191.29 127.61 191.95
  L 127.29 199.11
  A 1.14 1.14 0.0 0 1 126.14 200.21
  L 118.53 200.13
  Q 117.92 200.12 117.91 200.73
  L 117.83 207.99
  A 0.56 0.56 0.0 0 1 117.26 208.55
  L 110.23 208.48
  A 1.33 1.33 0.0 0 0 108.88 209.76
  L 108.57 217.79
  A 0.85 0.85 0.0 0 1 107.71 218.61
  L 100.75 218.48
  Q 100.21 218.47 100.22 219.00
  L 100.32 225.68
  A 1.23 1.23 0.0 0 0 100.82 226.65
  C 103.50 228.65 108.85 228.23 108.99 223.72
  Q 109.05 221.57 108.84 219.75
  A 1.17 1.16 -88.0 0 1 110.21 218.47
  Q 113.73 219.12 117.22 218.37
  A 0.93 0.93 0.0 0 0 117.94 217.49
  L 118.11 209.33
  Q 118.12 208.79 118.67 208.79
  L 126.85 208.82
  A 0.52 0.52 0.0 0 1 127.37 209.35
  L 127.25 217.96
  A 0.70 0.70 0.0 0 1 126.54 218.65"
/>
<path stroke="#f6f6f6" vector-effect="non-scaling-stroke" d="
  M 144.84 209.38
  L 144.83 217.18
  A 0.91 0.90 17.1 0 0 145.23 217.93
  Q 146.35 218.69 148.01 218.71
  C 150.68 218.75 154.77 219.55 154.97 215.97
  Q 155.20 211.88 155.08 209.29
  Q 155.06 208.93 155.42 208.92
  L 163.41 208.71
  Q 164.02 208.69 164.01 208.09
  L 164.00 201.03
  A 0.74 0.74 0.0 0 0 163.28 200.29
  L 155.49 200.10
  A 0.68 0.68 0.0 0 0 154.79 200.77
  L 154.69 208.01
  A 0.57 0.57 0.0 0 1 154.12 208.57
  L 145.77 208.54
  Q 145.25 208.54 145.25 208.02
  L 145.24 200.95
  Q 145.24 200.28 144.57 200.26
  L 137.33 200.09
  A 0.59 0.59 0.0 0 0 136.72 200.67
  L 136.61 208.07
  A 0.78 0.78 0.0 0 0 137.39 208.86
  L 144.38 208.91
  Q 144.84 208.91 144.84 209.38"
/>
<path stroke="#f6f6f6" vector-effect="non-scaling-stroke" d="
  M 181.6069 201.4895
  A 1.32 1.32 0.0 0 0 180.3031 200.1535
  L 173.2437 200.0672
  A 1.32 1.32 0.0 0 0 171.9076 201.3710
  L 171.8331 207.4705
  A 1.32 1.32 0.0 0 0 173.1369 208.8065
  L 180.1963 208.8928
  A 1.32 1.32 0.0 0 0 181.5324 207.5890
  L 181.6069 201.4895"
/>
<path stroke="#f6f6f6" vector-effect="non-scaling-stroke" d="
  M 218.5703 201.5974
  A 1.40 1.40 0.0 0 0 217.1752 200.1926
  L 209.9952 200.1675
  A 1.40 1.40 0.0 0 0 208.5903 201.5626
  L 208.5697 207.4626
  A 1.40 1.40 0.0 0 0 209.9648 208.8674
  L 217.1448 208.8925
  A 1.40 1.40 0.0 0 0 218.5497 207.4974
  L 218.5703 201.5974"
/>
<path stroke="#f6f6f6" vector-effect="non-scaling-stroke" d="
  M 228.72 208.88
  L 235.36 208.72
  A 0.69 0.69 0.0 0 0 236.03 208.02
  L 235.95 201.01
  A 0.71 0.71 0.0 0 0 235.26 200.31
  L 228.67 200.12
  A 0.73 0.72 -88.1 0 0 227.92 200.83
  L 227.70 207.76
  A 0.94 0.93 1.5 0 1 226.74 208.66
  L 219.21 208.47
  A 0.60 0.60 0.0 0 0 218.59 209.05
  L 218.31 217.78
  Q 218.28 218.60 217.47 218.59
  L 209.17 218.51
  A 0.58 0.57 0.0 0 0 208.59 219.08
  L 208.63 226.19
  A 0.89 0.89 0.0 0 0 209.17 227.01
  C 211.22 227.88 218.02 229.16 218.21 225.04
  Q 218.34 222.08 218.45 219.00
  Q 218.47 218.59 218.87 218.60
  L 226.55 218.62
  A 1.44 1.44 0.0 0 0 228.00 217.20
  L 228.08 209.53
  Q 228.09 208.90 228.72 208.88"
/>
<path stroke="#f6f6f6" vector-effect="non-scaling-stroke" d="
  M 291.0640 201.8440
  A 1.70 1.70 0.0 0 0 289.3729 200.1351
  L 283.6330 200.1050
  A 1.70 1.70 0.0 0 0 281.9241 201.7961
  L 281.8960 207.1560
  A 1.70 1.70 0.0 0 0 283.5871 208.8649
  L 289.3270 208.8950
  A 1.70 1.70 0.0 0 0 291.0359 207.2039
  L 291.0640 201.8440"
/>
<path stroke="#f6f6f6" vector-effect="non-scaling-stroke" d="
  M 172.2046 210.1662
  A 1.53 1.53 0.0 0 0 170.6988 208.6124
  L 165.3795 208.5288
  A 1.53 1.53 0.0 0 0 163.8256 210.0346
  L 163.7154 217.0538
  A 1.53 1.53 0.0 0 0 165.2212 218.6076
  L 170.5405 218.6912
  A 1.53 1.53 0.0 0 0 172.0944 217.1854
  L 172.2046 210.1662"
/>
<path stroke="#f6f6f6" vector-effect="non-scaling-stroke" d="
  M 208.8989 210.2997
  A 1.75 1.75 0.0 0 0 207.1642 208.5345
  L 201.6044 208.4859
  A 1.75 1.75 0.0 0 0 199.8392 210.2206
  L 199.7811 216.8803
  A 1.75 1.75 0.0 0 0 201.5158 218.6455
  L 207.0756 218.6941
  A 1.75 1.75 0.0 0 0 208.8408 216.9594
  L 208.8989 210.2997"
/>
<path stroke="#f6f6f6" vector-effect="non-scaling-stroke" d="
  M 282.2327 209.9728
  A 1.32 1.32 0.0 0 0 280.9430 208.6232
  L 273.7248 208.4594
  A 1.32 1.32 0.0 0 0 272.3752 209.7491
  L 272.2073 217.1472
  A 1.32 1.32 0.0 0 0 273.4970 218.4968
  L 280.7152 218.6606
  A 1.32 1.32 0.0 0 0 282.0648 217.3709
  L 282.2327 209.9728"
/>
<path stroke="#f6f6f6" vector-effect="non-scaling-stroke" d="
  M 290.79 217.13
  Q 290.80 218.55 289.38 218.54
  L 282.51 218.48
  Q 282.01 218.48 282.02 218.98
  L 282.15 225.81
  A 1.20 1.19 -77.4 0 0 282.80 226.84
  Q 286.30 228.61 289.75 226.75
  A 1.38 1.38 0.0 0 0 290.40 226.00
  Q 291.56 222.75 291.12 219.31
  A 0.82 0.82 0.0 0 1 292.11 218.41
  Q 295.57 219.18 299.02 218.31
  Q 299.71 218.14 299.72 217.43
  L 299.84 209.24
  Q 299.84 208.64 299.24 208.63
  L 291.38 208.47
  Q 290.72 208.46 290.72 209.12
  L 290.79 217.13"
/>
<path stroke="#f6f6f6" vector-effect="non-scaling-stroke" d="
  M 63.75 225.24
  C 63.82 229.16 70.55 227.47 72.33 226.14
  A 0.84 0.80 75.7 0 0 72.65 225.57
  L 73.29 219.57
  Q 73.38 218.74 72.55 218.72
  L 64.38 218.56
  Q 63.84 218.55 63.82 219.09
  Q 63.69 222.25 63.75 225.24"
/>
<path stroke="#f6f6f6" vector-effect="non-scaling-stroke" d="
  M 81.85 227.27
  Q 84.16 227.90 88.02 227.49
  Q 90.12 227.26 90.65 225.94
  C 91.19 224.61 91.04 220.90 90.90 219.19
  Q 90.86 218.76 90.43 218.75
  L 81.55 218.58
  A 0.61 0.61 0.0 0 0 80.92 219.21
  L 81.04 226.23
  A 1.11 1.09 -83.4 0 0 81.85 227.27"
/>
<path stroke="#f6f6f6" vector-effect="non-scaling-stroke" d="
  M 144.41 218.63
  L 137.59 218.43
  A 0.88 0.88 0.0 0 0 136.68 219.28
  L 136.54 224.24
  A 3.38 3.33 -88.3 0 0 139.76 227.72
  L 141.68 227.78
  A 3.38 3.33 -88.3 0 0 145.11 224.50
  L 145.26 219.54
  A 0.88 0.88 0.0 0 0 144.41 218.63"
/>
<path stroke="#f6f6f6" vector-effect="non-scaling-stroke" d="
  M 155.01 225.82
  A 1.68 1.66 5.3 0 0 156.30 227.36
  Q 159.74 228.15 163.07 227.04
  A 0.97 0.95 -8.1 0 0 163.73 226.18
  L 164.08 219.32
  A 0.54 0.54 0.0 0 0 163.56 218.75
  L 155.32 218.53
  A 0.63 0.62 -1.3 0 0 154.68 219.19
  L 155.01 225.82"
/>
<path stroke="#f6f6f6" vector-effect="non-scaling-stroke" d="
  M 172.30 225.45
  C 174.07 228.05 178.07 228.06 180.62 226.94
  Q 181.20 226.69 181.22 226.07
  L 181.52 219.25
  Q 181.55 218.60 180.89 218.60
  L 172.86 218.57
  Q 172.31 218.57 172.20 219.10
  Q 171.18 223.79 172.30 225.45"
/>
<path stroke="#f6f6f6" vector-effect="non-scaling-stroke" d="
  M 229.64 227.55
  L 233.92 227.63
  A 1.91 1.91 0.0 0 0 235.86 225.75
  L 235.97 219.47
  A 0.99 0.77 1.0 0 0 235.00 218.68
  L 228.88 218.58
  A 0.99 0.77 1.0 0 0 227.88 219.33
  L 227.77 225.61
  A 1.91 1.91 0.0 0 0 229.64 227.55"
/>
<path stroke="#f6f6f6" vector-effect="non-scaling-stroke" d="
  M 245.60 226.60
  C 248.03 228.13 250.66 227.77 253.41 227.30
  Q 254.54 227.11 254.76 226.01
  Q 255.30 223.32 254.84 219.29
  Q 254.78 218.75 254.23 218.74
  L 245.51 218.63
  Q 244.89 218.62 244.91 219.24
  L 245.11 225.75
  A 1.06 1.05 15.5 0 0 245.60 226.60"
/>
<path stroke="#f6f6f6" vector-effect="non-scaling-stroke" d="
  M 303.50 227.56
  C 306.46 227.76 308.36 227.73 308.76 224.50
  Q 309.18 221.19 309.14 219.39
  Q 309.13 218.72 308.46 218.71
  L 300.60 218.57
  Q 300.00 218.56 299.90 219.15
  C 299.35 222.64 298.66 227.25 303.50 227.56"
/>
<path stroke="#f6f6f6" vector-effect="non-scaling-stroke" d="
  M 326.42 218.71
  L 319.36 218.48
  A 0.68 0.68 0.0 0 0 318.66 219.13
  L 318.50 223.99
  A 3.62 2.84 -88.1 0 0 321.22 227.70
  L 323.96 227.79
  A 3.62 2.84 -88.1 0 0 326.92 224.27
  L 327.08 219.41
  A 0.68 0.68 0.0 0 0 326.42 218.71"
/>
<path stroke="#f6f6f6" vector-effect="non-scaling-stroke" d="
  M 344.20 218.49
  L 337.46 218.51
  A 1.30 1.30 0.0 0 0 336.16 219.81
  L 336.17 225.19
  A 2.76 2.52 -0.1 0 0 338.94 227.70
  L 342.76 227.70
  A 2.76 2.52 -0.1 0 0 345.51 225.17
  L 345.50 219.79
  A 1.30 1.30 0.0 0 0 344.20 218.49"
/>
</g>
<path fill="#00b188" d="
  M 385.43 146.45
  Q 384.86 146.59 384.86 147.50
  Q 384.73 199.39 384.85 251.71
  A 0.40 0.39 -81.4 0 1 384.34 252.09
  Q 383.32 251.78 382.00 251.79
  C 281.92 252.59 181.83 252.19 81.75 252.06
  C 58.77 252.03 35.86 251.72 12.77 252.06
  Q 11.88 252.08 11.91 251.18
  Q 12.38 239.19 11.99 226.75
  Q 11.50 211.35 12.14 160.00
  Q 12.24 152.43 11.14 144.90
  L 384.05 144.71
  Q 384.57 144.70 384.88 145.12
  Q 385.28 145.67 385.43 146.45
  Z
  M 34.95 172.42
  Q 33.83 190.84 34.47 209.25
  Q 34.80 218.71 34.05 228.22
  A 0.86 0.86 0.0 0 0 34.32 228.91
  Q 34.82 229.39 35.36 229.22
  L 362.22 229.23
  Q 362.77 229.23 362.77 228.68
  L 362.88 207.03
  L 362.95 199.31
  L 362.90 189.54
  L 362.93 180.91
  L 362.81 169.51
  Q 362.80 169.00 362.29 169.00
  L 35.84 169.02
  A 0.91 0.90 -78.9 0 0 35.00 169.59
  Q 34.38 171.12 34.95 172.42
  Z"
/>
<path fill="#c3e3db" d="
  M 11.14 144.90
  Q 12.24 152.43 12.14 160.00
  Q 11.50 211.35 11.99 226.75
  Q 12.38 239.19 11.91 251.18
  Q 11.88 252.08 12.77 252.06
  C 35.86 251.72 58.77 252.03 81.75 252.06
  C 181.83 252.19 281.92 252.59 382.00 251.79
  Q 383.32 251.78 384.34 252.09
  A 0.40 0.39 -81.4 0 0 384.85 251.71
  Q 384.73 199.39 384.86 147.50
  Q 384.86 146.59 385.43 146.45
  Q 385.87 147.19 385.87 148.12
  Q 385.89 198.29 385.90 248.46
  C 385.90 250.63 385.44 252.14 384.91 254.18
  Q 384.74 254.82 384.08 254.82
  L 11.87 254.91
  A 0.83 0.82 -0.0 0 1 11.04 254.09
  L 11.14 144.90
  Z"
/>
<path fill="#ffffff" d="
  M 362.93 180.91
  Q 361.33 182.40 358.00 181.36
  Q 356.48 180.89 354.82 181.17
  A 0.78 0.76 1.6 0 0 354.21 181.73
  C 353.42 184.64 351.60 192.32 357.50 191.39
  Q 359.78 191.03 362.90 189.54
  L 362.95 199.31
  L 355.29 199.58
  Q 354.68 199.61 354.41 200.16
  Q 352.78 203.45 353.64 206.97
  A 1.04 1.04 0.0 0 1 352.68 208.26
  L 346.16 208.57
  Q 345.67 208.59 345.61 209.08
  Q 345.00 214.03 345.17 216.27
  C 345.45 219.95 351.05 218.78 353.38 218.34
  Q 353.93 218.23 353.96 217.68
  L 354.34 210.65
  A 1.35 1.34 3.2 0 1 355.77 209.38
  Q 358.83 209.56 362.88 207.03
  L 362.77 228.68
  Q 362.77 229.23 362.22 229.23
  L 35.36 229.22
  L 34.95 172.42
  Q 34.38 171.12 35.00 169.59
  A 0.91 0.90 -78.9 0 1 35.84 169.02
  L 362.29 169.00
  Q 362.80 169.00 362.81 169.51
  L 362.93 180.91
  Z
  M 80.32 173.79
  A 2.36 2.36 0.0 0 0 78.00 171.87
  L 75.85 171.87
  A 2.36 2.36 0.0 0 0 73.51 173.91
  L 72.81 178.98
  A 2.36 2.36 0.0 0 0 75.11 181.67
  L 78.94 181.73
  A 2.36 2.36 0.0 0 0 81.30 178.93
  L 80.32 173.79
  Z
  M 146.91 181.78
  L 153.13 181.76
  A 2.13 2.13 0.0 0 0 155.25 179.63
  L 155.25 176.96
  A 4.78 3.52 89.9 0 0 151.72 172.19
  L 148.28 172.19
  A 4.78 3.52 89.9 0 0 144.77 176.98
  L 144.77 179.65
  A 2.13 2.13 0.0 0 0 146.91 181.78
  Z
  M 180.21 181.65
  L 172.79 181.99
  Q 172.00 182.03 171.98 182.81
  L 171.75 190.80
  A 0.55 0.55 0.0 0 1 171.20 191.33
  L 164.86 191.23
  A 0.64 0.63 89.5 0 1 164.24 190.61
  L 163.99 182.12
  Q 163.98 181.72 164.38 181.71
  L 171.28 181.52
  Q 171.81 181.51 171.94 181.00
  C 173.11 176.58 170.22 170.07 164.76 172.78
  Q 164.34 172.99 164.28 173.46
  L 163.45 180.51
  A 1.22 1.22 0.0 0 1 162.26 181.59
  L 156.78 181.70
  Q 154.79 181.74 154.77 183.72
  L 154.68 190.70
  A 0.63 0.62 0.5 0 1 154.05 191.31
  L 145.79 191.26
  A 0.50 0.49 88.8 0 1 145.30 190.78
  L 145.07 182.29
  Q 145.05 181.64 144.41 181.63
  L 138.25 181.48
  A 1.77 1.76 -0.7 0 1 136.53 179.81
  C 136.34 175.55 135.44 171.07 129.81 172.35
  Q 129.29 172.47 128.99 172.91
  Q 126.48 176.54 127.23 181.06
  A 0.47 0.47 0.0 0 1 126.78 181.61
  L 118.65 181.85
  A 0.75 0.75 0.0 0 0 117.92 182.59
  L 117.77 190.88
  Q 117.76 191.28 117.37 191.27
  L 110.06 191.27
  A 0.70 0.70 0.0 0 0 109.38 191.80
  Q 108.47 195.47 109.46 199.13
  A 0.95 0.95 0.0 0 0 110.38 199.83
  L 117.08 199.76
  Q 117.91 199.75 117.92 198.92
  L 117.96 192.19
  A 0.63 0.62 89.1 0 1 118.56 191.56
  L 126.93 191.32
  Q 127.65 191.30 127.65 190.58
  L 127.67 182.69
  Q 127.67 182.29 128.07 182.25
  L 135.53 181.62
  A 0.93 0.92 -2.6 0 1 136.53 182.53
  L 136.60 190.75
  Q 136.60 191.40 137.25 191.40
  L 144.41 191.44
  A 0.59 0.59 0.0 0 1 144.99 192.03
  L 144.88 199.09
  A 0.77 0.77 0.0 0 0 145.66 199.87
  L 154.41 199.80
  A 0.58 0.58 0.0 0 0 154.99 199.21
  L 154.98 191.76
  Q 154.98 191.49 155.25 191.48
  L 163.05 191.38
  A 0.89 0.89 0.0 0 1 163.95 192.30
  L 163.76 199.42
  A 0.63 0.63 0.0 0 0 164.42 200.06
  L 171.23 199.74
  A 0.95 0.94 88.4 0 0 172.13 198.78
  L 172.01 191.98
  Q 172.01 191.47 172.52 191.46
  L 181.51 191.37
  L 181.51 199.37
  A 0.60 0.60 0.0 0 0 182.13 199.97
  L 190.34 199.70
  A 0.88 0.87 89.4 0 1 191.24 200.59
  L 191.12 208.00
  A 0.62 0.61 -89.1 0 1 190.50 208.61
  L 183.25 208.51
  Q 181.74 208.48 181.55 209.98
  Q 181.21 212.56 181.26 216.02
  Q 181.30 218.60 184.25 218.64
  Q 187.40 218.68 190.58 218.39
  Q 191.22 218.33 191.23 218.98
  L 191.32 226.21
  A 0.88 0.88 0.0 0 0 191.84 227.00
  Q 195.52 228.70 199.08 226.79
  Q 199.59 226.51 199.63 225.93
  L 200.02 219.19
  Q 200.05 218.57 199.43 218.57
  L 191.88 218.54
  Q 191.49 218.54 191.50 218.14
  L 191.69 209.78
  A 0.83 0.83 0.0 0 1 192.49 208.97
  L 199.10 208.70
  Q 199.62 208.68 199.73 208.16
  Q 200.47 204.48 199.72 200.80
  A 0.77 0.76 -4.7 0 0 198.99 200.19
  L 192.00 200.01
  Q 191.50 199.99 191.50 199.50
  L 191.47 192.05
  Q 191.46 191.57 191.95 191.55
  L 199.59 191.30
  A 0.52 0.51 0.5 0 1 200.13 191.84
  L 199.71 199.03
  Q 199.66 199.90 200.53 199.89
  L 208.11 199.80
  A 0.65 0.65 0.0 0 0 208.76 199.14
  L 208.72 191.87
  Q 208.72 191.45 209.13 191.45
  L 217.67 191.36
  Q 218.45 191.36 218.46 190.58
  L 218.53 182.57
  A 0.96 0.96 0.0 0 0 217.57 181.61
  L 209.41 181.58
  Q 208.65 181.57 208.63 182.33
  L 208.38 190.82
  Q 208.36 191.25 207.93 191.25
  L 200.55 191.26
  A 0.70 0.69 0.8 0 1 199.85 190.55
  L 200.05 182.89
  A 0.63 0.61 -2.7 0 1 200.61 182.29
  L 208.06 181.49
  A 0.88 0.87 89.3 0 0 208.85 180.67
  Q 209.05 177.66 208.07 174.86
  Q 207.36 172.85 205.63 172.33
  Q 203.81 171.78 201.88 172.53
  Q 201.37 172.73 201.11 173.21
  Q 199.17 176.73 199.56 180.79
  A 0.73 0.73 0.0 0 1 198.83 181.59
  L 192.00 181.55
  Q 191.52 181.55 191.57 181.07
  Q 191.93 177.09 190.18 173.51
  A 1.03 1.03 0.0 0 0 189.65 173.01
  Q 185.89 171.44 182.43 173.30
  A 1.18 1.17 -11.7 0 0 181.82 174.22
  L 181.15 181.13
  Q 181.10 181.62 180.62 181.63
  L 180.21 181.65
  Z
  M 326.80 208.75
  L 326.69 216.98
  A 1.77 1.77 0.0 0 0 328.51 218.77
  L 335.25 218.58
  A 0.85 0.84 -89.6 0 0 336.07 217.76
  L 336.35 209.11
  Q 336.37 208.60 336.87 208.64
  Q 340.12 208.93 343.38 209.02
  Q 345.38 209.08 345.56 206.75
  Q 345.80 203.64 345.50 201.22
  Q 345.32 199.85 346.70 199.97
  Q 350.05 200.26 353.23 199.22
  A 0.97 0.94 -9.4 0 0 353.89 198.32
  L 353.94 192.76
  Q 353.94 192.14 353.37 191.90
  Q 349.78 190.41 346.06 191.68
  Q 345.55 191.86 345.52 192.40
  L 345.17 199.61
  Q 345.15 200.12 344.64 200.11
  L 337.95 199.98
  Q 336.09 199.94 336.08 201.80
  L 336.03 207.93
  Q 336.03 208.56 335.40 208.55
  L 326.96 208.47
  L 327.11 200.82
  Q 327.12 200.32 326.61 200.29
  L 319.44 199.96
  Q 318.96 199.93 318.97 199.45
  L 319.13 191.81
  Q 319.13 191.50 319.44 191.50
  L 326.08 191.54
  A 0.78 0.77 1.1 0 1 326.85 192.33
  L 326.69 199.05
  Q 326.67 199.94 327.55 199.92
  L 335.30 199.81
  Q 336.14 199.79 336.15 198.95
  L 336.24 192.01
  A 0.52 0.52 0.0 0 1 336.75 191.50
  L 344.84 191.41
  A 0.74 0.74 0.0 0 0 345.58 190.65
  L 345.32 182.33
  A 0.75 0.74 89.6 0 0 344.59 181.60
  L 337.25 181.53
  A 0.87 0.86 -87.1 0 0 336.38 182.32
  L 335.61 190.72
  Q 335.56 191.27 335.01 191.27
  L 327.75 191.20
  A 0.60 0.60 0.0 0 1 327.15 190.59
  L 327.28 182.18
  Q 327.29 181.79 327.68 181.84
  Q 331.35 182.35 334.96 181.57
  Q 335.92 181.36 336.34 180.84
  C 337.12 179.87 336.64 178.75 336.59 177.84
  C 336.30 173.05 331.60 170.63 327.49 173.03
  Q 326.99 173.33 326.95 173.92
  L 326.52 181.27
  Q 326.50 181.66 326.10 181.65
  L 320.10 181.61
  Q 319.55 181.61 319.48 181.07
  L 318.62 174.16
  Q 318.54 173.48 317.90 173.23
  Q 313.85 171.66 309.80 173.30
  Q 309.35 173.47 309.29 173.95
  C 308.93 176.80 307.21 181.78 311.76 182.09
  Q 314.80 182.31 317.98 181.93
  A 0.58 0.57 -3.1 0 1 318.62 182.50
  L 318.62 190.72
  Q 318.62 191.31 318.03 191.31
  L 309.88 191.23
  A 0.61 0.61 0.0 0 1 309.28 190.63
  L 309.22 182.54
  A 0.93 0.92 89.4 0 0 308.29 181.62
  L 300.96 181.69
  A 1.14 1.13 -88.9 0 0 299.84 182.78
  L 299.49 190.80
  Q 299.47 191.27 299.00 191.27
  C 296.89 191.25 290.94 190.28 290.86 193.55
  C 290.81 195.52 290.59 197.53 290.92 199.49
  A 0.63 0.61 -5.8 0 0 291.56 200.00
  L 299.13 199.76
  A 0.64 0.64 0.0 0 0 299.75 199.12
  L 299.77 192.13
  Q 299.77 191.52 300.38 191.50
  L 308.48 191.25
  Q 308.97 191.24 308.97 191.73
  L 308.92 199.11
  A 0.81 0.81 0.0 0 0 309.74 199.92
  L 318.19 199.75
  A 0.51 0.51 0.0 0 1 318.71 200.26
  L 318.69 207.99
  A 0.67 0.67 0.0 0 1 318.01 208.66
  L 309.75 208.49
  Q 309.26 208.48 309.25 207.99
  L 309.22 201.13
  A 0.88 0.88 0.0 0 0 308.38 200.26
  L 300.90 199.96
  Q 299.71 199.92 299.69 201.11
  L 299.60 208.01
  Q 299.58 208.93 300.51 208.92
  L 308.35 208.82
  Q 308.88 208.81 308.89 209.35
  L 308.92 217.44
  A 1.14 1.14 0.0 0 0 310.07 218.57
  L 318.09 218.54
  Q 318.95 218.53 318.98 217.67
  L 319.27 209.13
  Q 319.29 208.69 319.73 208.69
  L 326.80 208.75
  Z
  M 100.78 177.75
  Q 99.91 172.30 94.25 172.19
  C 90.85 172.12 90.88 177.24 90.64 179.43
  C 90.24 183.15 97.48 181.94 99.52 181.29
  Q 99.99 181.14 100.23 180.71
  Q 101.03 179.31 100.78 177.75
  Z
  M 113.71 172.50
  A 2.83 2.83 0.0 0 0 110.21 174.31
  L 108.83 178.43
  A 2.83 2.83 0.0 0 0 111.56 182.15
  L 115.53 182.10
  A 2.83 2.83 0.0 0 0 118.28 178.79
  L 117.70 175.34
  A 2.83 2.83 0.0 0 0 115.72 173.10
  L 113.71 172.50
  Z
  M 219.00 173.85
  L 218.48 180.58
  Q 218.43 181.20 219.04 181.33
  Q 223.26 182.25 227.48 181.26
  Q 228.07 181.12 228.20 180.53
  C 229.31 175.65 224.62 170.48 219.65 172.90
  Q 219.05 173.19 219.00 173.85
  Z
  M 245.06 191.32
  L 253.96 191.33
  A 0.90 0.90 0.0 0 1 254.86 192.25
  L 254.71 199.70
  Q 254.70 200.35 254.05 200.32
  L 246.89 200.02
  Q 244.98 199.94 244.97 201.86
  L 244.93 208.00
  Q 244.93 208.67 244.25 208.66
  L 236.50 208.53
  Q 235.78 208.52 235.78 209.25
  L 235.78 217.83
  A 0.82 0.82 0.0 0 0 236.61 218.65
  L 244.51 218.62
  Q 245.12 218.62 245.14 218.00
  L 245.41 209.16
  Q 245.42 208.73 245.85 208.74
  L 254.12 208.84
  A 0.58 0.57 -1.1 0 1 254.69 209.38
  Q 254.87 212.67 254.63 216.02
  Q 254.44 218.84 257.27 218.74
  Q 259.80 218.65 262.57 218.52
  A 0.75 0.74 87.7 0 1 263.34 219.24
  L 263.55 225.77
  A 1.25 1.24 -78.7 0 0 264.26 226.85
  Q 267.97 228.62 271.62 226.77
  A 0.97 0.97 0.0 0 0 272.15 225.94
  L 272.43 219.29
  A 0.66 0.66 0.0 0 0 271.78 218.60
  L 264.43 218.44
  A 0.99 0.99 0.0 0 1 263.46 217.44
  L 263.56 209.33
  Q 263.56 208.59 262.83 208.58
  L 255.72 208.50
  Q 255.20 208.49 255.19 207.97
  L 255.06 200.62
  Q 255.05 200.04 255.63 200.02
  L 262.51 199.83
  A 0.84 0.83 89.3 0 0 263.32 198.99
  L 263.27 191.88
  A 0.65 0.64 0.5 0 0 262.63 191.24
  L 255.80 191.21
  A 0.60 0.60 0.0 0 1 255.20 190.62
  L 255.11 182.14
  A 0.69 0.68 -0.8 0 0 254.40 181.46
  L 245.77 181.69
  A 0.56 0.55 -85.5 0 0 245.24 182.15
  Q 244.43 186.74 245.06 191.32
  L 236.59 191.23
  Q 236.08 191.22 236.07 190.71
  L 236.00 182.65
  A 0.63 0.63 0.0 0 1 236.60 182.01
  L 244.56 181.56
  Q 245.66 181.50 245.48 180.42
  L 244.44 173.85
  A 1.16 1.14 -84.7 0 0 243.71 172.96
  Q 240.36 171.71 236.91 172.76
  A 1.01 1.00 -4.9 0 0 236.20 173.60
  L 235.33 181.08
  A 0.67 0.66 -86.6 0 1 234.67 181.67
  L 229.71 181.70
  A 1.86 1.86 0.0 0 0 227.86 183.53
  L 227.73 190.76
  Q 227.72 191.24 227.24 191.24
  L 219.47 191.28
  Q 218.84 191.29 218.79 191.92
  L 218.25 199.38
  A 0.63 0.62 -89.2 0 0 218.90 200.05
  L 227.35 199.70
  Q 227.98 199.67 227.98 199.03
  L 228.01 191.96
  A 0.54 0.54 0.0 0 1 228.54 191.43
  L 235.36 191.28
  A 0.57 0.57 0.0 0 1 235.95 191.87
  L 235.73 199.31
  A 0.70 0.70 0.0 0 0 236.45 200.03
  L 244.74 199.73
  Q 245.20 199.72 245.19 199.26
  L 245.06 191.32
  Z
  M 256.64 181.93
  L 261.51 181.76
  A 1.87 1.87 0.0 0 0 263.32 179.83
  L 263.23 177.34
  A 5.18 3.27 88.0 0 0 259.78 172.28
  L 257.70 172.35
  A 5.18 3.27 88.0 0 0 254.62 177.64
  L 254.70 180.13
  A 1.87 1.87 0.0 0 0 256.64 181.93
  Z
  M 273.75 191.40
  A 1.16 1.16 0.0 0 1 272.56 190.25
  L 272.49 182.63
  A 0.91 0.91 0.0 0 1 273.38 181.72
  L 281.87 181.55
  A 0.67 0.67 0.0 0 0 282.53 180.88
  Q 282.58 176.22 279.49 172.68
  Q 279.12 172.26 278.56 172.30
  L 273.56 172.59
  A 0.81 0.80 2.2 0 0 272.81 173.28
  L 271.74 180.90
  A 0.68 0.68 0.0 0 1 271.08 181.49
  L 264.93 181.58
  A 1.74 1.73 -0.7 0 0 263.22 183.32
  L 263.25 190.59
  Q 263.25 191.31 263.96 191.32
  L 271.43 191.46
  A 1.16 1.15 2.4 0 1 272.57 192.69
  L 272.18 199.11
  A 1.04 1.03 1.5 0 1 271.15 200.08
  L 264.23 200.13
  A 0.77 0.77 0.0 0 0 263.46 200.87
  L 263.19 207.91
  A 0.87 0.86 -88.4 0 0 264.03 208.81
  L 271.68 208.92
  Q 272.56 208.94 272.55 208.06
  L 272.44 200.90
  A 0.95 0.95 0.0 0 1 273.35 199.94
  L 281.20 199.65
  Q 282.01 199.62 282.02 198.80
  L 282.03 192.05
  A 0.61 0.60 -89.1 0 1 282.64 191.45
  L 288.65 191.48
  A 2.33 2.33 0.0 0 0 290.99 189.21
  L 291.18 182.44
  A 0.90 0.90 0.0 0 1 292.25 181.58
  Q 295.54 182.21 298.73 181.31
  Q 300.33 180.86 299.90 179.25
  C 299.39 177.30 298.63 173.65 296.92 172.63
  C 291.64 169.48 291.15 178.47 290.84 181.06
  A 0.66 0.65 -87.5 0 1 290.20 181.65
  L 283.90 181.76
  A 1.89 1.89 0.0 0 0 282.05 183.60
  L 281.88 190.54
  A 0.69 0.68 -89.6 0 1 281.21 191.21
  L 273.75 191.40
  Z
  M 349.87 172.38
  C 345.86 171.54 345.31 177.13 345.04 179.68
  A 1.57 1.57 0.0 0 0 345.97 181.28
  C 349.77 182.93 354.84 182.12 354.25 176.86
  Q 353.84 173.21 349.87 172.38
  Z
  M 56.62 182.05
  L 62.18 181.89
  A 1.75 1.75 0.0 0 0 63.88 180.09
  L 63.81 177.53
  A 4.85 3.27 88.4 0 0 60.40 172.78
  L 57.88 172.85
  A 4.85 3.27 88.4 0 0 54.75 177.79
  L 54.82 180.35
  A 1.75 1.75 0.0 0 0 56.62 182.05
  Z
  M 81.20 208.55
  L 90.25 208.79
  Q 90.74 208.81 90.74 209.29
  L 90.77 217.24
  A 1.44 1.44 0.0 0 0 92.25 218.68
  L 99.45 218.48
  Q 100.23 218.45 100.23 217.68
  L 100.28 209.28
  A 0.45 0.45 0.0 0 1 100.73 208.83
  L 107.61 208.80
  Q 108.31 208.80 108.50 208.13
  Q 109.50 204.57 109.00 200.90
  Q 108.92 200.31 108.32 200.28
  L 101.29 200.02
  A 0.98 0.98 0.0 0 0 100.28 200.96
  L 99.98 207.96
  Q 99.95 208.62 99.29 208.61
  L 91.59 208.50
  Q 91.05 208.50 91.06 207.96
  L 91.14 201.02
  Q 91.14 200.40 90.52 200.37
  L 83.01 200.00
  Q 80.99 199.90 81.04 201.92
  L 81.20 208.55
  L 73.73 208.46
  Q 73.19 208.45 73.19 207.91
  L 73.24 201.00
  Q 73.24 200.26 72.50 200.24
  L 64.67 200.03
  A 0.83 0.83 0.0 0 0 63.82 200.83
  L 63.58 208.15
  Q 63.56 208.61 63.10 208.60
  L 55.26 208.49
  Q 54.54 208.48 54.54 207.76
  L 54.52 200.63
  A 0.62 0.61 -1.4 0 1 55.12 200.01
  L 63.37 199.74
  A 0.60 0.60 0.0 0 0 63.95 199.13
  L 63.78 192.13
  Q 63.77 191.53 64.37 191.52
  L 72.35 191.37
  A 0.60 0.59 89.5 0 1 72.95 191.97
  L 72.85 199.15
  A 0.79 0.79 0.0 0 0 73.65 199.95
  L 80.64 199.87
  A 0.74 0.74 0.0 0 0 81.37 199.11
  L 81.19 191.77
  Q 81.18 191.47 81.48 191.47
  L 90.50 191.38
  Q 91.13 191.37 91.13 190.75
  L 91.12 182.28
  A 0.72 0.71 89.2 0 0 90.40 181.57
  L 82.29 181.64
  A 1.34 1.34 0.0 0 0 80.96 182.95
  L 80.78 190.63
  A 0.66 0.66 0.0 0 1 80.12 191.27
  L 73.90 191.25
  Q 73.30 191.25 73.29 190.65
  L 73.09 182.28
  Q 73.07 181.48 72.28 181.51
  L 64.89 181.75
  A 0.78 0.78 0.0 0 0 64.16 182.35
  Q 63.20 186.47 63.82 190.65
  A 0.55 0.54 -4.5 0 1 63.28 191.28
  L 55.08 191.25
  A 0.67 0.67 0.0 0 1 54.42 190.58
  L 54.42 182.57
  Q 54.42 181.98 53.83 181.97
  L 47.02 181.92
  A 1.15 1.15 0.0 0 0 45.86 183.10
  L 46.00 189.26
  A 2.37 2.37 0.0 0 1 43.74 191.68
  L 40.82 191.82
  Q 40.22 191.84 39.93 192.36
  Q 38.42 194.97 39.14 197.92
  A 0.89 0.88 87.9 0 0 39.84 198.58
  L 45.07 199.50
  Q 45.79 199.62 45.81 198.90
  L 46.02 192.32
  Q 46.05 191.44 46.92 191.41
  L 53.94 191.16
  A 0.76 0.76 0.0 0 1 54.73 191.96
  L 54.38 199.64
  A 0.63 0.63 0.0 0 1 53.73 200.24
  L 47.73 200.00
  A 1.77 1.77 0.0 0 0 45.89 201.77
  L 45.89 207.23
  A 1.76 1.76 0.0 0 1 43.75 208.95
  Q 39.03 207.91 37.15 212.09
  Q 36.68 213.14 37.14 213.89
  Q 37.27 218.73 41.53 218.60
  C 44.05 218.53 46.08 218.26 46.15 215.23
  Q 46.21 212.30 45.86 209.65
  A 0.83 0.83 0.0 0 1 46.68 208.71
  L 54.05 208.72
  Q 54.64 208.72 54.62 209.31
  L 54.38 216.99
  A 1.81 1.81 0.0 0 1 52.51 218.74
  L 46.48 218.55
  Q 45.74 218.52 45.75 219.27
  L 45.91 225.42
  A 1.10 1.08 19.8 0 0 46.30 226.23
  C 48.23 227.87 53.43 228.58 53.89 225.00
  Q 54.28 222.00 54.38 219.24
  A 0.68 0.68 0.0 0 1 55.06 218.58
  L 62.54 218.57
  A 1.17 1.16 -88.2 0 0 63.70 217.47
  L 64.18 209.29
  Q 64.21 208.79 64.71 208.79
  L 72.53 208.82
  A 0.35 0.35 0.0 0 1 72.88 209.19
  Q 72.73 212.60 72.79 216.03
  C 72.86 219.93 78.13 218.82 80.32 218.56
  A 0.75 0.75 0.0 0 0 80.97 217.94
  Q 81.79 213.22 81.20 208.55
  Z
  M 101.36 191.30
  L 107.82 191.36
  A 1.28 1.28 0.0 0 0 109.11 190.09
  L 109.16 184.31
  A 2.70 1.92 -89.5 0 0 107.26 181.59
  L 102.08 181.55
  A 2.70 1.92 -89.5 0 0 100.14 184.23
  L 100.09 190.01
  A 1.28 1.28 0.0 0 0 101.36 191.30
  Z
  M 100.1394 192.0493
  A 0.78 0.78 0.0 0 0 99.3526 191.2761
  L 91.5529 191.3442
  A 0.78 0.78 0.0 0 0 90.7797 192.1310
  L 90.8406 199.1107
  A 0.78 0.78 0.0 0 0 91.6274 199.8839
  L 99.4271 199.8158
  A 0.78 0.78 0.0 0 0 100.2003 199.0290
  L 100.1394 192.0493
  Z
  M 126.54 218.65
  L 118.44 218.56
  Q 117.93 218.55 117.93 219.06
  C 117.95 221.67 116.96 226.58 120.40 227.30
  C 122.85 227.81 127.13 228.30 127.40 224.68
  Q 127.60 222.08 127.56 219.64
  A 0.81 0.81 0.0 0 1 128.35 218.81
  L 135.83 218.63
  Q 136.51 218.61 136.52 217.93
  L 136.67 209.54
  A 0.79 0.79 0.0 0 0 135.91 208.74
  L 128.24 208.44
  A 0.47 0.47 0.0 0 1 127.79 207.99
  L 127.57 200.51
  Q 127.56 200.09 127.99 200.07
  L 136.05 199.73
  Q 136.57 199.71 136.57 199.20
  L 136.51 192.16
  Q 136.50 191.31 135.66 191.31
  L 128.30 191.29
  Q 127.64 191.29 127.61 191.95
  L 127.29 199.11
  A 1.14 1.14 0.0 0 1 126.14 200.21
  L 118.53 200.13
  Q 117.92 200.12 117.91 200.73
  L 117.83 207.99
  A 0.56 0.56 0.0 0 1 117.26 208.55
  L 110.23 208.48
  A 1.33 1.33 0.0 0 0 108.88 209.76
  L 108.57 217.79
  A 0.85 0.85 0.0 0 1 107.71 218.61
  L 100.75 218.48
  Q 100.21 218.47 100.22 219.00
  L 100.32 225.68
  A 1.23 1.23 0.0 0 0 100.82 226.65
  C 103.50 228.65 108.85 228.23 108.99 223.72
  Q 109.05 221.57 108.84 219.75
  A 1.17 1.16 -88.0 0 1 110.21 218.47
  Q 113.73 219.12 117.22 218.37
  A 0.93 0.93 0.0 0 0 117.94 217.49
  L 118.11 209.33
  Q 118.12 208.79 118.67 208.79
  L 126.85 208.82
  A 0.52 0.52 0.0 0 1 127.37 209.35
  L 127.25 217.96
  A 0.70 0.70 0.0 0 1 126.54 218.65
  Z
  M 144.84 209.38
  L 144.83 217.18
  A 0.91 0.90 17.1 0 0 145.23 217.93
  Q 146.35 218.69 148.01 218.71
  C 150.68 218.75 154.77 219.55 154.97 215.97
  Q 155.20 211.88 155.08 209.29
  Q 155.06 208.93 155.42 208.92
  L 163.41 208.71
  Q 164.02 208.69 164.01 208.09
  L 164.00 201.03
  A 0.74 0.74 0.0 0 0 163.28 200.29
  L 155.49 200.10
  A 0.68 0.68 0.0 0 0 154.79 200.77
  L 154.69 208.01
  A 0.57 0.57 0.0 0 1 154.12 208.57
  L 145.77 208.54
  Q 145.25 208.54 145.25 208.02
  L 145.24 200.95
  Q 145.24 200.28 144.57 200.26
  L 137.33 200.09
  A 0.59 0.59 0.0 0 0 136.72 200.67
  L 136.61 208.07
  A 0.78 0.78 0.0 0 0 137.39 208.86
  L 144.38 208.91
  Q 144.84 208.91 144.84 209.38
  Z
  M 181.6069 201.4895
  A 1.32 1.32 0.0 0 0 180.3031 200.1535
  L 173.2437 200.0672
  A 1.32 1.32 0.0 0 0 171.9076 201.3710
  L 171.8331 207.4705
  A 1.32 1.32 0.0 0 0 173.1369 208.8065
  L 180.1963 208.8928
  A 1.32 1.32 0.0 0 0 181.5324 207.5890
  L 181.6069 201.4895
  Z
  M 218.5703 201.5974
  A 1.40 1.40 0.0 0 0 217.1752 200.1926
  L 209.9952 200.1675
  A 1.40 1.40 0.0 0 0 208.5903 201.5626
  L 208.5697 207.4626
  A 1.40 1.40 0.0 0 0 209.9648 208.8674
  L 217.1448 208.8925
  A 1.40 1.40 0.0 0 0 218.5497 207.4974
  L 218.5703 201.5974
  Z
  M 228.72 208.88
  L 235.36 208.72
  A 0.69 0.69 0.0 0 0 236.03 208.02
  L 235.95 201.01
  A 0.71 0.71 0.0 0 0 235.26 200.31
  L 228.67 200.12
  A 0.73 0.72 -88.1 0 0 227.92 200.83
  L 227.70 207.76
  A 0.94 0.93 1.5 0 1 226.74 208.66
  L 219.21 208.47
  A 0.60 0.60 0.0 0 0 218.59 209.05
  L 218.31 217.78
  Q 218.28 218.60 217.47 218.59
  L 209.17 218.51
  A 0.58 0.57 0.0 0 0 208.59 219.08
  L 208.63 226.19
  A 0.89 0.89 0.0 0 0 209.17 227.01
  C 211.22 227.88 218.02 229.16 218.21 225.04
  Q 218.34 222.08 218.45 219.00
  Q 218.47 218.59 218.87 218.60
  L 226.55 218.62
  A 1.44 1.44 0.0 0 0 228.00 217.20
  L 228.08 209.53
  Q 228.09 208.90 228.72 208.88
  Z
  M 291.0640 201.8440
  A 1.70 1.70 0.0 0 0 289.3729 200.1351
  L 283.6330 200.1050
  A 1.70 1.70 0.0 0 0 281.9241 201.7961
  L 281.8960 207.1560
  A 1.70 1.70 0.0 0 0 283.5871 208.8649
  L 289.3270 208.8950
  A 1.70 1.70 0.0 0 0 291.0359 207.2039
  L 291.0640 201.8440
  Z
  M 172.2046 210.1662
  A 1.53 1.53 0.0 0 0 170.6988 208.6124
  L 165.3795 208.5288
  A 1.53 1.53 0.0 0 0 163.8256 210.0346
  L 163.7154 217.0538
  A 1.53 1.53 0.0 0 0 165.2212 218.6076
  L 170.5405 218.6912
  A 1.53 1.53 0.0 0 0 172.0944 217.1854
  L 172.2046 210.1662
  Z
  M 208.8989 210.2997
  A 1.75 1.75 0.0 0 0 207.1642 208.5345
  L 201.6044 208.4859
  A 1.75 1.75 0.0 0 0 199.8392 210.2206
  L 199.7811 216.8803
  A 1.75 1.75 0.0 0 0 201.5158 218.6455
  L 207.0756 218.6941
  A 1.75 1.75 0.0 0 0 208.8408 216.9594
  L 208.8989 210.2997
  Z
  M 282.2327 209.9728
  A 1.32 1.32 0.0 0 0 280.9430 208.6232
  L 273.7248 208.4594
  A 1.32 1.32 0.0 0 0 272.3752 209.7491
  L 272.2073 217.1472
  A 1.32 1.32 0.0 0 0 273.4970 218.4968
  L 280.7152 218.6606
  A 1.32 1.32 0.0 0 0 282.0648 217.3709
  L 282.2327 209.9728
  Z
  M 290.79 217.13
  Q 290.80 218.55 289.38 218.54
  L 282.51 218.48
  Q 282.01 218.48 282.02 218.98
  L 282.15 225.81
  A 1.20 1.19 -77.4 0 0 282.80 226.84
  Q 286.30 228.61 289.75 226.75
  A 1.38 1.38 0.0 0 0 290.40 226.00
  Q 291.56 222.75 291.12 219.31
  A 0.82 0.82 0.0 0 1 292.11 218.41
  Q 295.57 219.18 299.02 218.31
  Q 299.71 218.14 299.72 217.43
  L 299.84 209.24
  Q 299.84 208.64 299.24 208.63
  L 291.38 208.47
  Q 290.72 208.46 290.72 209.12
  L 290.79 217.13
  Z
  M 63.75 225.24
  C 63.82 229.16 70.55 227.47 72.33 226.14
  A 0.84 0.80 75.7 0 0 72.65 225.57
  L 73.29 219.57
  Q 73.38 218.74 72.55 218.72
  L 64.38 218.56
  Q 63.84 218.55 63.82 219.09
  Q 63.69 222.25 63.75 225.24
  Z
  M 81.85 227.27
  Q 84.16 227.90 88.02 227.49
  Q 90.12 227.26 90.65 225.94
  C 91.19 224.61 91.04 220.90 90.90 219.19
  Q 90.86 218.76 90.43 218.75
  L 81.55 218.58
  A 0.61 0.61 0.0 0 0 80.92 219.21
  L 81.04 226.23
  A 1.11 1.09 -83.4 0 0 81.85 227.27
  Z
  M 144.41 218.63
  L 137.59 218.43
  A 0.88 0.88 0.0 0 0 136.68 219.28
  L 136.54 224.24
  A 3.38 3.33 -88.3 0 0 139.76 227.72
  L 141.68 227.78
  A 3.38 3.33 -88.3 0 0 145.11 224.50
  L 145.26 219.54
  A 0.88 0.88 0.0 0 0 144.41 218.63
  Z
  M 155.01 225.82
  A 1.68 1.66 5.3 0 0 156.30 227.36
  Q 159.74 228.15 163.07 227.04
  A 0.97 0.95 -8.1 0 0 163.73 226.18
  L 164.08 219.32
  A 0.54 0.54 0.0 0 0 163.56 218.75
  L 155.32 218.53
  A 0.63 0.62 -1.3 0 0 154.68 219.19
  L 155.01 225.82
  Z
  M 172.30 225.45
  C 174.07 228.05 178.07 228.06 180.62 226.94
  Q 181.20 226.69 181.22 226.07
  L 181.52 219.25
  Q 181.55 218.60 180.89 218.60
  L 172.86 218.57
  Q 172.31 218.57 172.20 219.10
  Q 171.18 223.79 172.30 225.45
  Z
  M 229.64 227.55
  L 233.92 227.63
  A 1.91 1.91 0.0 0 0 235.86 225.75
  L 235.97 219.47
  A 0.99 0.77 1.0 0 0 235.00 218.68
  L 228.88 218.58
  A 0.99 0.77 1.0 0 0 227.88 219.33
  L 227.77 225.61
  A 1.91 1.91 0.0 0 0 229.64 227.55
  Z
  M 245.60 226.60
  C 248.03 228.13 250.66 227.77 253.41 227.30
  Q 254.54 227.11 254.76 226.01
  Q 255.30 223.32 254.84 219.29
  Q 254.78 218.75 254.23 218.74
  L 245.51 218.63
  Q 244.89 218.62 244.91 219.24
  L 245.11 225.75
  A 1.06 1.05 15.5 0 0 245.60 226.60
  Z
  M 303.50 227.56
  C 306.46 227.76 308.36 227.73 308.76 224.50
  Q 309.18 221.19 309.14 219.39
  Q 309.13 218.72 308.46 218.71
  L 300.60 218.57
  Q 300.00 218.56 299.90 219.15
  C 299.35 222.64 298.66 227.25 303.50 227.56
  Z
  M 326.42 218.71
  L 319.36 218.48
  A 0.68 0.68 0.0 0 0 318.66 219.13
  L 318.50 223.99
  A 3.62 2.84 -88.1 0 0 321.22 227.70
  L 323.96 227.79
  A 3.62 2.84 -88.1 0 0 326.92 224.27
  L 327.08 219.41
  A 0.68 0.68 0.0 0 0 326.42 218.71
  Z
  M 344.20 218.49
  L 337.46 218.51
  A 1.30 1.30 0.0 0 0 336.16 219.81
  L 336.17 225.19
  A 2.76 2.52 -0.1 0 0 338.94 227.70
  L 342.76 227.70
  A 2.76 2.52 -0.1 0 0 345.51 225.17
  L 345.50 219.79
  A 1.30 1.30 0.0 0 0 344.20 218.49
  Z"
/>
<path fill="#ededed" d="
  M 80.32 173.79
  L 81.30 178.93
  A 2.36 2.36 0.0 0 1 78.94 181.73
  L 75.11 181.67
  A 2.36 2.36 0.0 0 1 72.81 178.98
  L 73.51 173.91
  A 2.36 2.36 0.0 0 1 75.85 171.87
  L 78.00 171.87
  A 2.36 2.36 0.0 0 1 80.32 173.79
  Z"
/>
<path fill="#ededed" d="
  M 146.91 181.78
  A 2.13 2.13 0.0 0 1 144.77 179.65
  L 144.77 176.98
  A 4.78 3.52 89.9 0 1 148.28 172.19
  L 151.72 172.19
  A 4.78 3.52 89.9 0 1 155.25 176.96
  L 155.25 179.63
  A 2.13 2.13 0.0 0 1 153.13 181.76
  L 146.91 181.78
  Z"
/>
<path fill="#ededed" d="
  M 181.51 191.37
  L 190.52 191.14
  A 0.56 0.55 -0.6 0 0 191.06 190.60
  L 191.14 182.14
  Q 191.15 181.49 190.52 181.63
  Q 186.26 182.53 181.99 181.64
  Q 181.47 181.53 181.38 182.05
  Q 181.34 182.29 181.42 182.50
  Q 181.08 181.77 180.21 181.65
  L 180.62 181.63
  Q 181.10 181.62 181.15 181.13
  L 181.82 174.22
  A 1.18 1.17 -11.7 0 1 182.43 173.30
  Q 185.89 171.44 189.65 173.01
  A 1.03 1.03 0.0 0 1 190.18 173.51
  Q 191.93 177.09 191.57 181.07
  Q 191.52 181.55 192.00 181.55
  L 198.83 181.59
  A 0.73 0.73 0.0 0 0 199.56 180.79
  Q 199.17 176.73 201.11 173.21
  Q 201.37 172.73 201.88 172.53
  Q 203.81 171.78 205.63 172.33
  Q 207.36 172.85 208.07 174.86
  Q 209.05 177.66 208.85 180.67
  A 0.88 0.87 89.3 0 1 208.06 181.49
  L 200.61 182.29
  A 0.63 0.61 -2.7 0 0 200.05 182.89
  L 199.85 190.55
  A 0.70 0.69 0.8 0 0 200.55 191.26
  L 207.93 191.25
  Q 208.36 191.25 208.38 190.82
  L 208.63 182.33
  Q 208.65 181.57 209.41 181.58
  L 217.57 181.61
  A 0.96 0.96 0.0 0 1 218.53 182.57
  L 218.46 190.58
  Q 218.45 191.36 217.67 191.36
  L 209.13 191.45
  Q 208.72 191.45 208.72 191.87
  L 208.76 199.14
  A 0.65 0.65 0.0 0 1 208.11 199.80
  L 200.53 199.89
  Q 199.66 199.90 199.71 199.03
  L 200.13 191.84
  A 0.52 0.51 0.5 0 0 199.59 191.30
  L 191.95 191.55
  Q 191.46 191.57 191.47 192.05
  L 191.50 199.50
  Q 191.50 199.99 192.00 200.01
  L 198.99 200.19
  A 0.77 0.76 -4.7 0 1 199.72 200.80
  Q 200.47 204.48 199.73 208.16
  Q 199.62 208.68 199.10 208.70
  L 192.49 208.97
  A 0.83 0.83 0.0 0 0 191.69 209.78
  L 191.50 218.14
  Q 191.49 218.54 191.88 218.54
  L 199.43 218.57
  Q 200.05 218.57 200.02 219.19
  L 199.63 225.93
  Q 199.59 226.51 199.08 226.79
  Q 195.52 228.70 191.84 227.00
  A 0.88 0.88 0.0 0 1 191.32 226.21
  L 191.23 218.98
  Q 191.22 218.33 190.58 218.39
  Q 187.40 218.68 184.25 218.64
  Q 181.30 218.60 181.26 216.02
  Q 181.21 212.56 181.55 209.98
  Q 181.74 208.48 183.25 208.51
  L 190.50 208.61
  A 0.62 0.61 -89.1 0 0 191.12 208.00
  L 191.24 200.59
  A 0.88 0.87 89.4 0 0 190.34 199.70
  L 182.13 199.97
  A 0.60 0.60 0.0 0 1 181.51 199.37
  L 181.51 191.37
  Z"
/>
<path fill="#ededed" d="
  M 326.96 208.47
  Q 326.59 208.51 326.80 208.75
  L 319.73 208.69
  Q 319.29 208.69 319.27 209.13
  L 318.98 217.67
  Q 318.95 218.53 318.09 218.54
  L 310.07 218.57
  A 1.14 1.14 0.0 0 1 308.92 217.44
  L 308.89 209.35
  Q 308.88 208.81 308.35 208.82
  L 300.51 208.92
  Q 299.58 208.93 299.60 208.01
  L 299.69 201.11
  Q 299.71 199.92 300.90 199.96
  L 308.38 200.26
  A 0.88 0.88 0.0 0 1 309.22 201.13
  L 309.25 207.99
  Q 309.26 208.48 309.75 208.49
  L 318.01 208.66
  A 0.67 0.67 0.0 0 0 318.69 207.99
  L 318.71 200.26
  A 0.51 0.51 0.0 0 0 318.19 199.75
  L 309.74 199.92
  A 0.81 0.81 0.0 0 1 308.92 199.11
  L 308.97 191.73
  Q 308.97 191.24 308.48 191.25
  L 300.38 191.50
  Q 299.77 191.52 299.77 192.13
  L 299.75 199.12
  A 0.64 0.64 0.0 0 1 299.13 199.76
  L 291.56 200.00
  A 0.63 0.61 -5.8 0 1 290.92 199.49
  C 290.59 197.53 290.81 195.52 290.86 193.55
  C 290.94 190.28 296.89 191.25 299.00 191.27
  Q 299.47 191.27 299.49 190.80
  L 299.84 182.78
  A 1.14 1.13 -88.9 0 1 300.96 181.69
  L 308.29 181.62
  A 0.93 0.92 89.4 0 1 309.22 182.54
  L 309.28 190.63
  A 0.61 0.61 0.0 0 0 309.88 191.23
  L 318.03 191.31
  Q 318.62 191.31 318.62 190.72
  L 318.62 182.50
  A 0.58 0.57 -3.1 0 0 317.98 181.93
  Q 314.80 182.31 311.76 182.09
  C 307.21 181.78 308.93 176.80 309.29 173.95
  Q 309.35 173.47 309.80 173.30
  Q 313.85 171.66 317.90 173.23
  Q 318.54 173.48 318.62 174.16
  L 319.48 181.07
  Q 319.55 181.61 320.10 181.61
  L 326.10 181.65
  Q 326.50 181.66 326.52 181.27
  L 326.95 173.92
  Q 326.99 173.33 327.49 173.03
  C 331.60 170.63 336.30 173.05 336.59 177.84
  C 336.64 178.75 337.12 179.87 336.34 180.84
  Q 335.92 181.36 334.96 181.57
  Q 331.35 182.35 327.68 181.84
  Q 327.29 181.79 327.28 182.18
  L 327.15 190.59
  A 0.60 0.60 0.0 0 0 327.75 191.20
  L 335.01 191.27
  Q 335.56 191.27 335.61 190.72
  L 336.38 182.32
  A 0.87 0.86 -87.1 0 1 337.25 181.53
  L 344.59 181.60
  A 0.75 0.74 89.6 0 1 345.32 182.33
  L 345.58 190.65
  A 0.74 0.74 0.0 0 1 344.84 191.41
  L 336.75 191.50
  A 0.52 0.52 0.0 0 0 336.24 192.01
  L 336.15 198.95
  Q 336.14 199.79 335.30 199.81
  L 327.55 199.92
  Q 326.67 199.94 326.69 199.05
  L 326.85 192.33
  A 0.78 0.77 1.1 0 0 326.08 191.54
  L 319.44 191.50
  Q 319.13 191.50 319.13 191.81
  L 318.97 199.45
  Q 318.96 199.93 319.44 199.96
  L 326.61 200.29
  Q 327.12 200.32 327.11 200.82
  L 326.96 208.47
  Z"
/>
<path fill="#ededed" d="
  M 100.78 177.75
  Q 101.03 179.31 100.23 180.71
  Q 99.99 181.14 99.52 181.29
  C 97.48 181.94 90.24 183.15 90.64 179.43
  C 90.88 177.24 90.85 172.12 94.25 172.19
  Q 99.91 172.30 100.78 177.75
  Z"
/>
<path fill="#ededed" d="
  M 113.71 172.50
  L 115.72 173.10
  A 2.83 2.83 0.0 0 1 117.70 175.34
  L 118.28 178.79
  A 2.83 2.83 0.0 0 1 115.53 182.10
  L 111.56 182.15
  A 2.83 2.83 0.0 0 1 108.83 178.43
  L 110.21 174.31
  A 2.83 2.83 0.0 0 1 113.71 172.50
  Z"
/>
<path fill="#ededed" d="
  M 180.21 181.65
  Q 181.08 181.77 181.42 182.50
  L 181.51 191.37
  L 172.52 191.46
  Q 172.01 191.47 172.01 191.98
  L 172.13 198.78
  A 0.95 0.94 88.4 0 1 171.23 199.74
  L 164.42 200.06
  A 0.63 0.63 0.0 0 1 163.76 199.42
  L 163.95 192.30
  A 0.89 0.89 0.0 0 0 163.05 191.38
  L 155.25 191.48
  Q 154.98 191.49 154.98 191.76
  L 154.99 199.21
  A 0.58 0.58 0.0 0 1 154.41 199.80
  L 145.66 199.87
  A 0.77 0.77 0.0 0 1 144.88 199.09
  L 144.99 192.03
  A 0.59 0.59 0.0 0 0 144.41 191.44
  L 137.25 191.40
  Q 136.60 191.40 136.60 190.75
  L 136.53 182.53
  A 0.93 0.92 -2.6 0 0 135.53 181.62
  L 128.07 182.25
  Q 127.67 182.29 127.67 182.69
  L 127.65 190.58
  Q 127.65 191.30 126.93 191.32
  L 118.56 191.56
  A 0.63 0.62 89.1 0 0 117.96 192.19
  L 117.92 198.92
  Q 117.91 199.75 117.08 199.76
  L 110.38 199.83
  A 0.95 0.95 0.0 0 1 109.46 199.13
  Q 108.47 195.47 109.38 191.80
  A 0.70 0.70 0.0 0 1 110.06 191.27
  L 117.37 191.27
  Q 117.76 191.28 117.77 190.88
  L 117.92 182.59
  A 0.75 0.75 0.0 0 1 118.65 181.85
  L 126.78 181.61
  A 0.47 0.47 0.0 0 0 127.23 181.06
  Q 126.48 176.54 128.99 172.91
  Q 129.29 172.47 129.81 172.35
  C 135.44 171.07 136.34 175.55 136.53 179.81
  A 1.77 1.76 -0.7 0 0 138.25 181.48
  L 144.41 181.63
  Q 145.05 181.64 145.07 182.29
  L 145.30 190.78
  A 0.50 0.49 88.8 0 0 145.79 191.26
  L 154.05 191.31
  A 0.63 0.62 0.5 0 0 154.68 190.70
  L 154.77 183.72
  Q 154.79 181.74 156.78 181.70
  L 162.26 181.59
  A 1.22 1.22 0.0 0 0 163.45 180.51
  L 164.28 173.46
  Q 164.34 172.99 164.76 172.78
  C 170.22 170.07 173.11 176.58 171.94 181.00
  Q 171.81 181.51 171.28 181.52
  L 164.38 181.71
  Q 163.98 181.72 163.99 182.12
  L 164.24 190.61
  A 0.64 0.63 89.5 0 0 164.86 191.23
  L 171.20 191.33
  A 0.55 0.55 0.0 0 0 171.75 190.80
  L 171.98 182.81
  Q 172.00 182.03 172.79 181.99
  L 180.21 181.65
  Z"
/>
<path fill="#ededed" d="
  M 219.65 172.90
  C 224.62 170.48 229.31 175.65 228.20 180.53
  Q 228.07 181.12 227.48 181.26
  Q 223.26 182.25 219.04 181.33
  Q 218.43 181.20 218.48 180.58
  L 219.00 173.85
  Q 219.05 173.19 219.65 172.90
  Z"
/>
<path fill="#ededed" d="
  M 245.06 191.32
  L 245.19 199.26
  Q 245.20 199.72 244.74 199.73
  L 236.45 200.03
  A 0.70 0.70 0.0 0 1 235.73 199.31
  L 235.95 191.87
  A 0.57 0.57 0.0 0 0 235.36 191.28
  L 228.54 191.43
  A 0.54 0.54 0.0 0 0 228.01 191.96
  L 227.98 199.03
  Q 227.98 199.67 227.35 199.70
  L 218.90 200.05
  A 0.63 0.62 -89.2 0 1 218.25 199.38
  L 218.79 191.92
  Q 218.84 191.29 219.47 191.28
  L 227.24 191.24
  Q 227.72 191.24 227.73 190.76
  L 227.86 183.53
  A 1.86 1.86 0.0 0 1 229.71 181.70
  L 234.67 181.67
  A 0.67 0.66 -86.6 0 0 235.33 181.08
  L 236.20 173.60
  A 1.01 1.00 -4.9 0 1 236.91 172.76
  Q 240.36 171.71 243.71 172.96
  A 1.16 1.14 -84.7 0 1 244.44 173.85
  L 245.48 180.42
  Q 245.66 181.50 244.56 181.56
  L 236.60 182.01
  A 0.63 0.63 0.0 0 0 236.00 182.65
  L 236.07 190.71
  Q 236.08 191.22 236.59 191.23
  L 245.06 191.32
  Z"
/>
<path fill="#ededed" d="
  M 256.64 181.93
  A 1.87 1.87 0.0 0 1 254.70 180.13
  L 254.62 177.64
  A 5.18 3.27 88.0 0 1 257.70 172.35
  L 259.78 172.28
  A 5.18 3.27 88.0 0 1 263.23 177.34
  L 263.32 179.83
  A 1.87 1.87 0.0 0 1 261.51 181.76
  L 256.64 181.93
  Z"
/>
<path fill="#ededed" d="
  M 273.75 191.40
  L 281.21 191.21
  A 0.69 0.68 -89.6 0 0 281.88 190.54
  L 282.05 183.60
  A 1.89 1.89 0.0 0 1 283.90 181.76
  L 290.20 181.65
  A 0.66 0.65 -87.5 0 0 290.84 181.06
  C 291.15 178.47 291.64 169.48 296.92 172.63
  C 298.63 173.65 299.39 177.30 299.90 179.25
  Q 300.33 180.86 298.73 181.31
  Q 295.54 182.21 292.25 181.58
  A 0.90 0.90 0.0 0 0 291.18 182.44
  L 290.99 189.21
  A 2.33 2.33 0.0 0 1 288.65 191.48
  L 282.64 191.45
  A 0.61 0.60 -89.1 0 0 282.03 192.05
  L 282.02 198.80
  Q 282.01 199.62 281.20 199.65
  L 273.35 199.94
  A 0.95 0.95 0.0 0 0 272.44 200.90
  L 272.55 208.06
  Q 272.56 208.94 271.68 208.92
  L 264.03 208.81
  A 0.87 0.86 -88.4 0 1 263.19 207.91
  L 263.46 200.87
  A 0.77 0.77 0.0 0 1 264.23 200.13
  L 271.15 200.08
  A 1.04 1.03 1.5 0 0 272.18 199.11
  L 272.57 192.69
  A 1.16 1.15 2.4 0 0 271.43 191.46
  L 263.96 191.32
  Q 263.25 191.31 263.25 190.59
  L 263.22 183.32
  A 1.74 1.73 -0.7 0 1 264.93 181.58
  L 271.08 181.49
  A 0.68 0.68 0.0 0 0 271.74 180.90
  L 272.81 173.28
  A 0.81 0.80 2.2 0 1 273.56 172.59
  L 278.56 172.30
  Q 279.12 172.26 279.49 172.68
  Q 282.58 176.22 282.53 180.88
  A 0.67 0.67 0.0 0 1 281.87 181.55
  L 273.38 181.72
  A 0.91 0.91 0.0 0 0 272.49 182.63
  L 272.56 190.25
  A 1.16 1.16 0.0 0 0 273.75 191.40
  Z"
/>
<path fill="#ededed" d="
  M 349.87 172.38
  Q 353.84 173.21 354.25 176.86
  C 354.84 182.12 349.77 182.93 345.97 181.28
  A 1.57 1.57 0.0 0 1 345.04 179.68
  C 345.31 177.13 345.86 171.54 349.87 172.38
  Z"
/>
<path fill="#c3e3db" d="
  M 34.95 172.42
  L 35.36 229.22
  Q 34.82 229.39 34.32 228.91
  A 0.86 0.86 0.0 0 1 34.05 228.22
  Q 34.80 218.71 34.47 209.25
  Q 33.83 190.84 34.95 172.42
  Z"
/>
<path fill="#ededed" d="
  M 56.62 182.05
  A 1.75 1.75 0.0 0 1 54.82 180.35
  L 54.75 177.79
  A 4.85 3.27 88.4 0 1 57.88 172.85
  L 60.40 172.78
  A 4.85 3.27 88.4 0 1 63.81 177.53
  L 63.88 180.09
  A 1.75 1.75 0.0 0 1 62.18 181.89
  L 56.62 182.05
  Z"
/>
<path fill="#ededed" d="
  M 362.93 180.91
  L 362.90 189.54
  Q 359.78 191.03 357.50 191.39
  C 351.60 192.32 353.42 184.64 354.21 181.73
  A 0.78 0.76 1.6 0 1 354.82 181.17
  Q 356.48 180.89 358.00 181.36
  Q 361.33 182.40 362.93 180.91
  Z"
/>
<path fill="#ededed" d="
  M 245.06 191.32
  Q 244.43 186.74 245.24 182.15
  A 0.56 0.55 -85.5 0 1 245.77 181.69
  L 254.40 181.46
  A 0.69 0.68 -0.8 0 1 255.11 182.14
  L 255.20 190.62
  A 0.60 0.60 0.0 0 0 255.80 191.21
  L 262.63 191.24
  A 0.65 0.64 0.5 0 1 263.27 191.88
  L 263.32 198.99
  A 0.84 0.83 89.3 0 1 262.51 199.83
  L 255.63 200.02
  Q 255.05 200.04 255.06 200.62
  L 255.19 207.97
  Q 255.20 208.49 255.72 208.50
  L 262.83 208.58
  Q 263.56 208.59 263.56 209.33
  L 263.46 217.44
  A 0.99 0.99 0.0 0 0 264.43 218.44
  L 271.78 218.60
  A 0.66 0.66 0.0 0 1 272.43 219.29
  L 272.15 225.94
  A 0.97 0.97 0.0 0 1 271.62 226.77
  Q 267.97 228.62 264.26 226.85
  A 1.25 1.24 -78.7 0 1 263.55 225.77
  L 263.34 219.24
  A 0.75 0.74 87.7 0 0 262.57 218.52
  Q 259.80 218.65 257.27 218.74
  Q 254.44 218.84 254.63 216.02
  Q 254.87 212.67 254.69 209.38
  A 0.58 0.57 -1.1 0 0 254.12 208.84
  L 245.85 208.74
  Q 245.42 208.73 245.41 209.16
  L 245.14 218.00
  Q 245.12 218.62 244.51 218.62
  L 236.61 218.65
  A 0.82 0.82 0.0 0 1 235.78 217.83
  L 235.78 209.25
  Q 235.78 208.52 236.50 208.53
  L 244.25 208.66
  Q 244.93 208.67 244.93 208.00
  L 244.97 201.86
  Q 244.98 199.94 246.89 200.02
  L 254.05 200.32
  Q 254.70 200.35 254.71 199.70
  L 254.86 192.25
  A 0.90 0.90 0.0 0 0 253.96 191.33
  L 245.06 191.32
  Z"
/>
<path fill="#ededed" d="
  M 81.20 208.55
  Q 81.79 213.22 80.97 217.94
  A 0.75 0.75 0.0 0 1 80.32 218.56
  C 78.13 218.82 72.86 219.93 72.79 216.03
  Q 72.73 212.60 72.88 209.19
  A 0.35 0.35 0.0 0 0 72.53 208.82
  L 64.71 208.79
  Q 64.21 208.79 64.18 209.29
  L 63.70 217.47
  A 1.17 1.16 -88.2 0 1 62.54 218.57
  L 55.06 218.58
  A 0.68 0.68 0.0 0 0 54.38 219.24
  Q 54.28 222.00 53.89 225.00
  C 53.43 228.58 48.23 227.87 46.30 226.23
  A 1.10 1.08 19.8 0 1 45.91 225.42
  L 45.75 219.27
  Q 45.74 218.52 46.48 218.55
  L 52.51 218.74
  A 1.81 1.81 0.0 0 0 54.38 216.99
  L 54.62 209.31
  Q 54.64 208.72 54.05 208.72
  L 46.68 208.71
  A 0.83 0.83 0.0 0 0 45.86 209.65
  Q 46.21 212.30 46.15 215.23
  C 46.08 218.26 44.05 218.53 41.53 218.60
  Q 37.27 218.73 37.14 213.89
  Q 36.68 213.14 37.15 212.09
  Q 39.03 207.91 43.75 208.95
  A 1.76 1.76 0.0 0 0 45.89 207.23
  L 45.89 201.77
  A 1.77 1.77 0.0 0 1 47.73 200.00
  L 53.73 200.24
  A 0.63 0.63 0.0 0 0 54.38 199.64
  L 54.73 191.96
  A 0.76 0.76 0.0 0 0 53.94 191.16
  L 46.92 191.41
  Q 46.05 191.44 46.02 192.32
  L 45.81 198.90
  Q 45.79 199.62 45.07 199.50
  L 39.84 198.58
  A 0.89 0.88 87.9 0 1 39.14 197.92
  Q 38.42 194.97 39.93 192.36
  Q 40.22 191.84 40.82 191.82
  L 43.74 191.68
  A 2.37 2.37 0.0 0 0 46.00 189.26
  L 45.86 183.10
  A 1.15 1.15 0.0 0 1 47.02 181.92
  L 53.83 181.97
  Q 54.42 181.98 54.42 182.57
  L 54.42 190.58
  A 0.67 0.67 0.0 0 0 55.08 191.25
  L 63.28 191.28
  A 0.55 0.54 -4.5 0 0 63.82 190.65
  Q 63.20 186.47 64.16 182.35
  A 0.78 0.78 0.0 0 1 64.89 181.75
  L 72.28 181.51
  Q 73.07 181.48 73.09 182.28
  L 73.29 190.65
  Q 73.30 191.25 73.90 191.25
  L 80.12 191.27
  A 0.66 0.66 0.0 0 0 80.78 190.63
  L 80.96 182.95
  A 1.34 1.34 0.0 0 1 82.29 181.64
  L 90.40 181.57
  A 0.72 0.71 89.2 0 1 91.12 182.28
  L 91.13 190.75
  Q 91.13 191.37 90.50 191.38
  L 81.48 191.47
  Q 81.18 191.47 81.19 191.77
  L 81.37 199.11
  A 0.74 0.74 0.0 0 1 80.64 199.87
  L 73.65 199.95
  A 0.79 0.79 0.0 0 1 72.85 199.15
  L 72.95 191.97
  A 0.60 0.59 89.5 0 0 72.35 191.37
  L 64.37 191.52
  Q 63.77 191.53 63.78 192.13
  L 63.95 199.13
  A 0.60 0.60 0.0 0 1 63.37 199.74
  L 55.12 200.01
  A 0.62 0.61 -1.4 0 0 54.52 200.63
  L 54.54 207.76
  Q 54.54 208.48 55.26 208.49
  L 63.10 208.60
  Q 63.56 208.61 63.58 208.15
  L 63.82 200.83
  A 0.83 0.83 0.0 0 1 64.67 200.03
  L 72.50 200.24
  Q 73.24 200.26 73.24 201.00
  L 73.19 207.91
  Q 73.19 208.45 73.73 208.46
  L 81.20 208.55
  Z"
/>
<path fill="#ededed" d="
  M 101.36 191.30
  A 1.28 1.28 0.0 0 1 100.09 190.01
  L 100.14 184.23
  A 2.70 1.92 -89.5 0 1 102.08 181.55
  L 107.26 181.59
  A 2.70 1.92 -89.5 0 1 109.16 184.31
  L 109.11 190.09
  A 1.28 1.28 0.0 0 1 107.82 191.36
  L 101.36 191.30
  Z"
/>
<path fill="#ffffff" d="
  M 181.51 191.37
  L 181.42 182.50
  Q 181.34 182.29 181.38 182.05
  Q 181.47 181.53 181.99 181.64
  Q 186.26 182.53 190.52 181.63
  Q 191.15 181.49 191.14 182.14
  L 191.06 190.60
  A 0.56 0.55 -0.6 0 1 190.52 191.14
  L 181.51 191.37
  Z"
/>
<path fill="#ededed" d="
  M 326.80 208.75
  Q 326.59 208.51 326.96 208.47
  L 335.40 208.55
  Q 336.03 208.56 336.03 207.93
  L 336.08 201.80
  Q 336.09 199.94 337.95 199.98
  L 344.64 200.11
  Q 345.15 200.12 345.17 199.61
  L 345.52 192.40
  Q 345.55 191.86 346.06 191.68
  Q 349.78 190.41 353.37 191.90
  Q 353.94 192.14 353.94 192.76
  L 353.89 198.32
  A 0.97 0.94 -9.4 0 1 353.23 199.22
  Q 350.05 200.26 346.70 199.97
  Q 345.32 199.85 345.50 201.22
  Q 345.80 203.64 345.56 206.75
  Q 345.38 209.08 343.38 209.02
  Q 340.12 208.93 336.87 208.64
  Q 336.37 208.60 336.35 209.11
  L 336.07 217.76
  A 0.85 0.84 -89.6 0 1 335.25 218.58
  L 328.51 218.77
  A 1.77 1.77 0.0 0 1 326.69 216.98
  L 326.80 208.75
  Z"
/>
<rect fill="#ededed" x="-4.68" y="-4.27" transform="translate(95.49,195.58) rotate(-0.5)" width="9.36" height="8.54" rx="0.78"/>
<path fill="#ededed" d="
  M 127.25 217.96
  L 127.37 209.35
  A 0.52 0.52 0.0 0 0 126.85 208.82
  L 118.67 208.79
  Q 118.12 208.79 118.11 209.33
  L 117.94 217.49
  A 0.93 0.93 0.0 0 1 117.22 218.37
  Q 113.73 219.12 110.21 218.47
  A 1.17 1.16 -88.0 0 0 108.84 219.75
  Q 109.05 221.57 108.99 223.72
  C 108.85 228.23 103.50 228.65 100.82 226.65
  A 1.23 1.23 0.0 0 1 100.32 225.68
  L 100.22 219.00
  Q 100.21 218.47 100.75 218.48
  L 107.71 218.61
  A 0.85 0.85 0.0 0 0 108.57 217.79
  L 108.88 209.76
  A 1.33 1.33 0.0 0 1 110.23 208.48
  L 117.26 208.55
  A 0.56 0.56 0.0 0 0 117.83 207.99
  L 117.91 200.73
  Q 117.92 200.12 118.53 200.13
  L 126.14 200.21
  A 1.14 1.14 0.0 0 0 127.29 199.11
  L 127.61 191.95
  Q 127.64 191.29 128.30 191.29
  L 135.66 191.31
  Q 136.50 191.31 136.51 192.16
  L 136.57 199.20
  Q 136.57 199.71 136.05 199.73
  L 127.99 200.07
  Q 127.56 200.09 127.57 200.51
  L 127.79 207.99
  A 0.47 0.47 0.0 0 0 128.24 208.44
  L 135.91 208.74
  A 0.79 0.79 0.0 0 1 136.67 209.54
  L 136.52 217.93
  Q 136.51 218.61 135.83 218.63
  L 128.35 218.81
  A 0.81 0.81 0.0 0 0 127.56 219.64
  Q 127.60 222.08 127.40 224.68
  C 127.13 228.30 122.85 227.81 120.40 227.30
  C 116.96 226.58 117.95 221.67 117.93 219.06
  Q 117.93 218.55 118.44 218.56
  L 126.54 218.65
  A 0.70 0.70 0.0 0 0 127.25 217.96
  Z"
/>
<path fill="#ededed" d="
  M 362.95 199.31
  L 362.88 207.03
  Q 358.83 209.56 355.77 209.38
  A 1.35 1.34 3.2 0 0 354.34 210.65
  L 353.96 217.68
  Q 353.93 218.23 353.38 218.34
  C 351.05 218.78 345.45 219.95 345.17 216.27
  Q 345.00 214.03 345.61 209.08
  Q 345.67 208.59 346.16 208.57
  L 352.68 208.26
  A 1.04 1.04 0.0 0 0 353.64 206.97
  Q 352.78 203.45 354.41 200.16
  Q 354.68 199.61 355.29 199.58
  L 362.95 199.31
  Z"
/>
<path fill="#ededed" d="
  M 81.20 208.55
  L 81.04 201.92
  Q 80.99 199.90 83.01 200.00
  L 90.52 200.37
  Q 91.14 200.40 91.14 201.02
  L 91.06 207.96
  Q 91.05 208.50 91.59 208.50
  L 99.29 208.61
  Q 99.95 208.62 99.98 207.96
  L 100.28 200.96
  A 0.98 0.98 0.0 0 1 101.29 200.02
  L 108.32 200.28
  Q 108.92 200.31 109.00 200.90
  Q 109.50 204.57 108.50 208.13
  Q 108.31 208.80 107.61 208.80
  L 100.73 208.83
  A 0.45 0.45 0.0 0 0 100.28 209.28
  L 100.23 217.68
  Q 100.23 218.45 99.45 218.48
  L 92.25 218.68
  A 1.44 1.44 0.0 0 1 90.77 217.24
  L 90.74 209.29
  Q 90.74 208.81 90.25 208.79
  L 81.20 208.55
  Z"
/>
<path fill="#ededed" d="
  M 144.38 208.91
  L 137.39 208.86
  A 0.78 0.78 0.0 0 1 136.61 208.07
  L 136.72 200.67
  A 0.59 0.59 0.0 0 1 137.33 200.09
  L 144.57 200.26
  Q 145.24 200.28 145.24 200.95
  L 145.25 208.02
  Q 145.25 208.54 145.77 208.54
  L 154.12 208.57
  A 0.57 0.57 0.0 0 0 154.69 208.01
  L 154.79 200.77
  A 0.68 0.68 0.0 0 1 155.49 200.10
  L 163.28 200.29
  A 0.74 0.74 0.0 0 1 164.00 201.03
  L 164.01 208.09
  Q 164.02 208.69 163.41 208.71
  L 155.42 208.92
  Q 155.06 208.93 155.08 209.29
  Q 155.20 211.88 154.97 215.97
  C 154.77 219.55 150.68 218.75 148.01 218.71
  Q 146.35 218.69 145.23 217.93
  A 0.91 0.90 17.1 0 1 144.83 217.18
  L 144.84 209.38
  Q 144.84 208.91 144.38 208.91
  Z"
/>
<rect fill="#ededed" x="-4.85" y="-4.37" transform="translate(176.72,204.48) rotate(0.7)" width="9.70" height="8.74" rx="1.32"/>
<rect fill="#ededed" x="-4.99" y="-4.35" transform="translate(213.57,204.53) rotate(0.2)" width="9.98" height="8.70" rx="1.40"/>
<path fill="#ededed" d="
  M 228.08 209.53
  L 228.00 217.20
  A 1.44 1.44 0.0 0 1 226.55 218.62
  L 218.87 218.60
  Q 218.47 218.59 218.45 219.00
  Q 218.34 222.08 218.21 225.04
  C 218.02 229.16 211.22 227.88 209.17 227.01
  A 0.89 0.89 0.0 0 1 208.63 226.19
  L 208.59 219.08
  A 0.58 0.57 -0.0 0 1 209.17 218.51
  L 217.47 218.59
  Q 218.28 218.60 218.31 217.78
  L 218.59 209.05
  A 0.60 0.60 0.0 0 1 219.21 208.47
  L 226.74 208.66
  A 0.94 0.93 1.5 0 0 227.70 207.76
  L 227.92 200.83
  A 0.73 0.72 -88.1 0 1 228.67 200.12
  L 235.26 200.31
  A 0.71 0.71 0.0 0 1 235.95 201.01
  L 236.03 208.02
  A 0.69 0.69 0.0 0 1 235.36 208.72
  L 228.72 208.88
  Q 228.09 208.90 228.08 209.53
  Z"
/>
<rect fill="#ededed" x="-4.57" y="-4.38" transform="translate(286.48,204.50) rotate(0.3)" width="9.14" height="8.76" rx="1.70"/>
<rect fill="#ededed" x="-4.19" y="-5.04" transform="translate(167.96,213.61) rotate(0.9)" width="8.38" height="10.08" rx="1.53"/>
<rect fill="#ededed" x="-4.53" y="-5.08" transform="translate(204.34,213.59) rotate(0.5)" width="9.06" height="10.16" rx="1.75"/>
<rect fill="#ededed" x="-4.93" y="-5.02" transform="translate(277.22,213.56) rotate(1.3)" width="9.86" height="10.04" rx="1.32"/>
<path fill="#ededed" d="
  M 290.79 217.13
  L 290.72 209.12
  Q 290.72 208.46 291.38 208.47
  L 299.24 208.63
  Q 299.84 208.64 299.84 209.24
  L 299.72 217.43
  Q 299.71 218.14 299.02 218.31
  Q 295.57 219.18 292.11 218.41
  A 0.82 0.82 0.0 0 0 291.12 219.31
  Q 291.56 222.75 290.40 226.00
  A 1.38 1.38 0.0 0 1 289.75 226.75
  Q 286.30 228.61 282.80 226.84
  A 1.20 1.19 -77.4 0 1 282.15 225.81
  L 282.02 218.98
  Q 282.01 218.48 282.51 218.48
  L 289.38 218.54
  Q 290.80 218.55 290.79 217.13
  Z"
/>
<path fill="#ededed" d="
  M 72.33 226.14
  C 70.55 227.47 63.82 229.16 63.75 225.24
  Q 63.69 222.25 63.82 219.09
  Q 63.84 218.55 64.38 218.56
  L 72.55 218.72
  Q 73.38 218.74 73.29 219.57
  L 72.65 225.57
  A 0.84 0.80 75.7 0 1 72.33 226.14
  Z"
/>
<path fill="#ededed" d="
  M 81.04 226.23
  L 80.92 219.21
  A 0.61 0.61 0.0 0 1 81.55 218.58
  L 90.43 218.75
  Q 90.86 218.76 90.90 219.19
  C 91.04 220.90 91.19 224.61 90.65 225.94
  Q 90.12 227.26 88.02 227.49
  Q 84.16 227.90 81.85 227.27
  A 1.11 1.09 -83.4 0 1 81.04 226.23
  Z"
/>
<path fill="#ededed" d="
  M 144.41 218.63
  A 0.88 0.88 0.0 0 1 145.26 219.54
  L 145.11 224.50
  A 3.38 3.33 -88.3 0 1 141.68 227.78
  L 139.76 227.72
  A 3.38 3.33 -88.3 0 1 136.54 224.24
  L 136.68 219.28
  A 0.88 0.88 0.0 0 1 137.59 218.43
  L 144.41 218.63
  Z"
/>
<path fill="#ededed" d="
  M 155.01 225.82
  L 154.68 219.19
  A 0.63 0.62 -1.3 0 1 155.32 218.53
  L 163.56 218.75
  A 0.54 0.54 0.0 0 1 164.08 219.32
  L 163.73 226.18
  A 0.97 0.95 -8.1 0 1 163.07 227.04
  Q 159.74 228.15 156.30 227.36
  A 1.68 1.66 5.3 0 1 155.01 225.82
  Z"
/>
<path fill="#ededed" d="
  M 180.62 226.94
  C 178.07 228.06 174.07 228.05 172.30 225.45
  Q 171.18 223.79 172.20 219.10
  Q 172.31 218.57 172.86 218.57
  L 180.89 218.60
  Q 181.55 218.60 181.52 219.25
  L 181.22 226.07
  Q 181.20 226.69 180.62 226.94
  Z"
/>
<path fill="#ededed" d="
  M 229.64 227.55
  A 1.91 1.91 0.0 0 1 227.77 225.61
  L 227.88 219.33
  A 0.99 0.77 1.0 0 1 228.88 218.58
  L 235.00 218.68
  A 0.99 0.77 1.0 0 1 235.97 219.47
  L 235.86 225.75
  A 1.91 1.91 0.0 0 1 233.92 227.63
  L 229.64 227.55
  Z"
/>
<path fill="#ededed" d="
  M 245.11 225.75
  L 244.91 219.24
  Q 244.89 218.62 245.51 218.63
  L 254.23 218.74
  Q 254.78 218.75 254.84 219.29
  Q 255.30 223.32 254.76 226.01
  Q 254.54 227.11 253.41 227.30
  C 250.66 227.77 248.03 228.13 245.60 226.60
  A 1.06 1.05 15.5 0 1 245.11 225.75
  Z"
/>
<path fill="#ededed" d="
  M 303.50 227.56
  C 298.66 227.25 299.35 222.64 299.90 219.15
  Q 300.00 218.56 300.60 218.57
  L 308.46 218.71
  Q 309.13 218.72 309.14 219.39
  Q 309.18 221.19 308.76 224.50
  C 308.36 227.73 306.46 227.76 303.50 227.56
  Z"
/>
<path fill="#ededed" d="
  M 326.42 218.71
  A 0.68 0.68 0.0 0 1 327.08 219.41
  L 326.92 224.27
  A 3.62 2.84 -88.1 0 1 323.96 227.79
  L 321.22 227.70
  A 3.62 2.84 -88.1 0 1 318.50 223.99
  L 318.66 219.13
  A 0.68 0.68 0.0 0 1 319.36 218.48
  L 326.42 218.71
  Z"
/>
<path fill="#ededed" d="
  M 344.20 218.49
  A 1.30 1.30 0.0 0 1 345.50 219.79
  L 345.51 225.17
  A 2.76 2.52 -0.1 0 1 342.76 227.70
  L 338.94 227.70
  A 2.76 2.52 -0.1 0 1 336.17 225.19
  L 336.16 219.81
  A 1.30 1.30 0.0 0 1 337.46 218.51
  L 344.20 218.49
  Z"
/>
</svg>
