<?xml version="1.0" encoding="UTF-8" standalone="no"?>
<!DOCTYPE svg PUBLIC "-//W3C//DTD SVG 1.1//EN" "http://www.w3.org/Graphics/SVG/1.1/DTD/svg11.dtd">
<svg xmlns="http://www.w3.org/2000/svg" version="1.1" viewBox="0.00 0.00 448.00 112.00">
<g stroke-width="1.10" fill="none" stroke-linecap="butt">
<path stroke="#7cd4bf" vector-effect="non-scaling-stroke" d="
  M 346.06 22.52
  A 1.14 1.14 0.0 0 0 344.92 21.38
  L 102.88 21.38
  A 1.14 1.14 0.0 0 0 101.74 22.52
  L 101.74 90.02
  A 1.14 1.14 0.0 0 0 102.88 91.16
  L 344.92 91.16
  A 1.14 1.14 0.0 0 0 346.06 90.02
  L 346.06 22.52"
/>
<path stroke="#7cd4bf" vector-effect="non-scaling-stroke" d="
  M 331.03 36.74
  A 0.27 0.27 0.0 0 0 330.76 36.47
  L 117.06 36.47
  A 0.27 0.27 0.0 0 0 116.79 36.74
  L 116.79 75.76
  A 0.27 0.27 0.0 0 0 117.06 76.03
  L 330.76 76.03
  A 0.27 0.27 0.0 0 0 331.03 75.76
  L 331.03 36.74"
/>
</g>
<path fill="#f7f7f7" d="
  M 101.65 20.90
  C 102.81 20.41 103.87 20.02 105.14 20.02
  Q 224.34 20.00 344.49 20.01
  A 2.47 2.46 0.1 0 1 346.96 22.48
  L 346.92 90.54
  A 1.46 1.46 0.0 0 1 345.46 92.00
  L 101.75 92.00
  Q 101.26 92.00 101.26 91.50
  L 101.25 21.50
  A 0.66 0.65 -11.6 0 1 101.65 20.90
  Z
  M 346.06 22.52
  A 1.14 1.14 0.0 0 0 344.92 21.38
  L 102.88 21.38
  A 1.14 1.14 0.0 0 0 101.74 22.52
  L 101.74 90.02
  A 1.14 1.14 0.0 0 0 102.88 91.16
  L 344.92 91.16
  A 1.14 1.14 0.0 0 0 346.06 90.02
  L 346.06 22.52
  Z"
/>
<path fill="#01b086" d="
  M 346.06 90.02
  A 1.14 1.14 0.0 0 1 344.92 91.16
  L 102.88 91.16
  A 1.14 1.14 0.0 0 1 101.74 90.02
  L 101.74 22.52
  A 1.14 1.14 0.0 0 1 102.88 21.38
  L 344.92 21.38
  A 1.14 1.14 0.0 0 1 346.06 22.52
  L 346.06 90.02
  Z
  M 331.03 36.74
  A 0.27 0.27 0.0 0 0 330.76 36.47
  L 117.06 36.47
  A 0.27 0.27 0.0 0 0 116.79 36.74
  L 116.79 75.76
  A 0.27 0.27 0.0 0 0 117.06 76.03
  L 330.76 76.03
  A 0.27 0.27 0.0 0 0 331.03 75.76
  L 331.03 36.74
  Z"
/>
<rect fill="#f7f7f7" x="116.79" y="36.47" width="214.24" height="39.56" rx="0.27"/>
</svg>
