<?xml version="1.0" encoding="UTF-8" standalone="no"?>
<!DOCTYPE svg PUBLIC "-//W3C//DTD SVG 1.1//EN" "http://www.w3.org/Graphics/SVG/1.1/DTD/svg11.dtd">
<svg xmlns="http://www.w3.org/2000/svg" version="1.1" viewBox="0.00 0.00 225.00 225.00">
<g stroke-width="1.10" fill="none" stroke-linecap="butt">
<path stroke="#191515" vector-effect="non-scaling-stroke" d="
  M 22.16 38.62
  Q 29.57 39.78 37.06 38.69"
/>
<path stroke="#4d473f" vector-effect="non-scaling-stroke" d="
  M 222.93 38.74
  Q 221.81 46.77 222.06 54.38
  C 222.63 72.01 222.33 89.61 222.29 107.25
  Q 222.28 110.79 222.96 113.08"
/>
<path stroke="#898787" vector-effect="non-scaling-stroke" d="
  M 151.37 114.02
  Q 150.54 150.01 151.12 186.00"
/>
<path stroke="#4d473f" vector-effect="non-scaling-stroke" d="
  M 2.68 186.00
  L 2.59 38.69"
/>
<path stroke="#898787" vector-effect="non-scaling-stroke" d="
  M 73.88 42.97
  A 0.27 0.27 0.0 0 0 73.61 42.70
  L 6.27 42.70
  A 0.27 0.27 0.0 0 0 6.00 42.97
  L 6.00 110.49
  A 0.27 0.27 0.0 0 0 6.27 110.76
  L 73.61 110.76
  A 0.27 0.27 0.0 0 0 73.88 110.49
  L 73.88 42.97"
/>
<path stroke="#898787" vector-effect="non-scaling-stroke" d="
  M 147.51 42.99
  A 0.27 0.27 0.0 0 0 147.24 42.72
  L 77.96 42.72
  A 0.27 0.27 0.0 0 0 77.69 42.99
  L 77.69 110.49
  A 0.27 0.27 0.0 0 0 77.96 110.76
  L 147.24 110.76
  A 0.27 0.27 0.0 0 0 147.51 110.49
  L 147.51 42.99"
/>
<path stroke="#898787" vector-effect="non-scaling-stroke" d="
  M 219.14 42.97
  A 0.26 0.26 0.0 0 0 218.88 42.71
  L 151.48 42.71
  A 0.26 0.26 0.0 0 0 151.22 42.97
  L 151.22 110.49
  A 0.26 0.26 0.0 0 0 151.48 110.75
  L 218.88 110.75
  A 0.26 0.26 0.0 0 0 219.14 110.49
  L 219.14 42.97"
/>
<path stroke="#89732f" vector-effect="non-scaling-stroke" d="
  M 6.06 117.28
  L 6.07 182.05
  Q 6.07 182.51 6.52 182.51
  L 147.23 182.51
  Q 147.53 182.51 147.53 182.21
  L 147.50 116.05"
/>
<path stroke="#867b4f" vector-effect="non-scaling-stroke" d="
  M 147.50 116.05
  Q 147.73 115.14 147.36 114.63
  A 0.50 0.50 0.0 0 0 146.96 114.43
  L 6.59 114.40
  Q 6.02 114.40 6.03 114.97
  L 6.06 117.28"
/>
<path stroke="#fcdf70" vector-effect="non-scaling-stroke" d="
  M 147.50 116.05
  Q 73.68 116.34 52.75 116.27
  Q 19.44 116.16 9.50 116.29
  Q 7.87 116.31 7.15 117.25
  Q 6.90 117.58 6.51 117.44
  L 6.06 117.28"
/>
<path stroke="#8f8d8e" vector-effect="non-scaling-stroke" d="
  M 47.60 79.48
  A 0.40 0.40 0.0 0 1 48.00 79.88
  L 48.00 95.26
  A 0.40 0.40 0.0 0 0 48.40 95.66
  L 53.97 95.63
  A 0.40 0.40 0.0 0 0 54.37 95.23
  L 54.39 58.67
  A 0.40 0.40 0.0 0 0 53.99 58.27
  L 48.40 58.28
  A 0.40 0.40 0.0 0 0 48.00 58.68
  L 48.00 73.19
  A 0.40 0.40 0.0 0 1 47.60 73.59
  L 32.42 73.60
  A 0.40 0.40 0.0 0 1 32.02 73.20
  L 32.13 58.66
  A 0.40 0.40 0.0 0 0 31.72 58.25
  L 26.07 58.30
  A 0.40 0.40 0.0 0 0 25.67 58.70
  L 25.70 95.25
  A 0.40 0.40 0.0 0 0 26.10 95.65
  L 31.62 95.64
  A 0.40 0.40 0.0 0 0 32.02 95.24
  L 32.04 79.88
  A 0.40 0.40 0.0 0 1 32.44 79.48
  L 47.60 79.48"
/>
<path stroke="#8f8d8e" vector-effect="non-scaling-stroke" d="
  M 108.88 64.36
  A 0.39 0.39 0.0 0 1 109.27 64.75
  L 109.24 95.33
  A 0.39 0.39 0.0 0 0 109.63 95.72
  L 115.12 95.73
  A 0.39 0.39 0.0 0 0 115.51 95.34
  L 115.50 64.70
  A 0.39 0.39 0.0 0 1 115.89 64.31
  L 125.64 64.36
  A 0.39 0.39 0.0 0 0 126.03 63.97
  L 126.03 58.64
  A 0.39 0.39 0.0 0 0 125.64 58.25
  L 99.19 58.25
  A 0.39 0.39 0.0 0 0 98.80 58.65
  L 98.88 63.99
  A 0.39 0.39 0.0 0 0 99.27 64.37
  L 108.88 64.36"
/>
<path stroke="#8f8d8e" vector-effect="non-scaling-stroke" d="
  M 178.41 67.19
  Q 185.57 59.73 195.97 67.22
  Q 196.42 67.54 196.82 67.16
  L 200.23 63.88
  Q 200.63 63.50 200.24 63.12
  C 192.15 55.18 179.25 55.81 171.95 64.46
  C 164.63 73.13 167.07 89.12 177.78 94.24
  Q 190.27 100.22 200.72 90.38
  A 0.59 0.57 45.7 0 0 200.72 89.54
  L 197.27 86.18
  Q 196.82 85.74 196.36 86.18
  C 183.21 98.89 166.00 80.09 178.41 67.19"
/>
<path stroke="#89732f" vector-effect="non-scaling-stroke" d="
  M 31.27 141.00
  L 31.25 142.98
  Q 31.24 143.53 30.76 143.78
  C 26.93 145.77 24.80 144.08 24.59 140.08
  C 24.22 132.89 26.29 132.00 32.95 133.22
  A 0.59 0.59 0.0 0 0 33.65 132.62
  L 33.60 131.16
  A 0.62 0.62 0.0 0 0 33.16 130.58
  C 23.20 127.41 19.93 133.00 21.43 142.17
  C 22.48 148.60 25.97 147.80 30.90 146.86
  Q 31.41 146.76 31.83 147.05
  Q 32.73 147.66 33.84 147.51
  Q 34.44 147.43 34.44 146.83
  L 34.44 138.08
  Q 34.44 137.47 33.83 137.48
  L 28.99 137.61
  A 1.44 1.44 0.0 0 0 29.04 140.49
  L 30.75 140.47
  Q 31.27 140.47 31.27 141.00"
/>
<path stroke="#89732f" vector-effect="non-scaling-stroke" d="
  M 41.77 143.54
  L 41.76 130.44
  Q 41.76 129.85 41.17 129.87
  L 38.98 129.95
  Q 38.42 129.97 38.40 130.54
  Q 38.23 137.00 38.15 143.46
  Q 38.10 147.24 41.73 147.40
  Q 44.98 147.54 48.32 147.47
  Q 48.97 147.46 48.96 146.81
  L 48.96 144.99
  A 0.57 0.56 0.5 0 0 48.40 144.43
  L 42.54 144.32
  A 0.78 0.78 0.0 0 1 41.77 143.54"
/>
<path stroke="#89732f" vector-effect="non-scaling-stroke" d="
  M 65.6299 135.8149
  A 6.02 6.02 0.0 0 0 59.5889 129.8160
  L 57.2489 129.8241
  A 6.02 6.02 0.0 0 0 51.2500 135.8651
  L 51.2701 141.6251
  A 6.02 6.02 0.0 0 0 57.3111 147.6240
  L 59.6511 147.6159
  A 6.02 6.02 0.0 0 0 65.6500 141.5749
  L 65.6299 135.8149"
/>
<path stroke="#89732f" vector-effect="non-scaling-stroke" d="
  M 94.63 144.43
  L 95.25 146.78
  Q 95.41 147.38 96.03 147.41
  L 98.26 147.54
  A 0.60 0.59 82.9 0 0 98.86 146.76
  L 93.96 131.26
  A 2.73 2.73 0.0 0 0 88.75 131.27
  L 83.85 146.86
  Q 83.64 147.52 84.33 147.51
  L 86.70 147.47
  A 0.70 0.69 -83.0 0 0 87.37 146.94
  L 88.00 144.50
  A 0.78 0.77 -82.8 0 1 88.75 143.91
  L 93.87 143.85
  A 0.77 0.77 0.0 0 1 94.63 144.43"
/>
<path stroke="#89732f" vector-effect="non-scaling-stroke" d="
  M 79.48 138.05
  C 82.73 134.38 80.97 130.21 75.99 129.96
  Q 74.10 129.87 69.49 130.01
  Q 69.00 130.02 69.00 130.52
  L 69.00 146.96
  Q 69.00 147.41 69.45 147.43
  C 74.56 147.62 83.13 149.17 81.29 141.31
  Q 80.92 139.74 79.57 138.80
  Q 79.10 138.48 79.48 138.05"
/>
<path stroke="#89732f" vector-effect="non-scaling-stroke" d="
  M 105.28 143.55
  L 105.28 130.48
  Q 105.28 129.92 104.73 129.93
  L 102.34 129.94
  Q 101.82 129.94 101.81 130.46
  Q 101.69 137.23 101.87 144.00
  C 102.00 148.84 108.63 147.53 111.79 147.47
  A 0.60 0.60 0.0 0 0 112.38 146.87
  L 112.39 144.90
  Q 112.39 144.41 111.90 144.40
  L 106.05 144.33
  Q 105.28 144.32 105.28 143.55"
/>
<path stroke="#89732f" vector-effect="non-scaling-stroke" d="
  M 25.42 154.28
  L 31.77 154.26
  Q 32.29 154.25 32.29 153.73
  L 32.26 152.27
  Q 32.26 151.69 31.68 151.60
  C 27.31 150.92 21.14 150.26 21.17 156.04
  C 21.20 161.05 23.37 161.58 27.97 161.87
  C 29.30 161.95 30.08 162.58 29.95 163.95
  A 2.01 2.00 -87.1 0 1 27.96 165.76
  L 22.11 165.77
  Q 21.48 165.77 21.45 166.39
  L 21.39 167.67
  Q 21.36 168.24 21.92 168.34
  C 27.33 169.27 34.94 169.76 32.94 161.72
  C 31.96 157.77 28.27 158.50 25.20 158.25
  Q 24.53 158.20 24.52 157.53
  L 24.48 155.25
  Q 24.46 154.28 25.42 154.28"
/>
<path stroke="#89732f" vector-effect="non-scaling-stroke" d="
  M 39.72 157.95
  L 39.86 155.00
  A 0.64 0.63 0.9 0 1 40.50 154.39
  L 47.49 154.38
  A 0.62 0.62 0.0 0 0 48.11 153.76
  L 48.12 152.14
  Q 48.13 151.49 47.47 151.45
  Q 45.64 151.36 40.76 151.29
  C 37.29 151.24 36.46 153.04 36.43 156.27
  Q 36.39 161.19 36.45 165.88
  A 2.90 2.89 -0.5 0 0 39.37 168.74
  L 47.32 168.69
  Q 48.07 168.68 48.10 167.93
  L 48.16 166.30
  A 0.50 0.50 0.0 0 0 47.67 165.78
  L 40.54 165.60
  A 0.74 0.74 0.0 0 1 39.82 164.89
  L 39.70 162.22
  Q 39.67 161.60 40.29 161.58
  L 46.29 161.40
  A 0.69 0.68 -89.1 0 0 46.96 160.74
  L 47.00 159.39
  Q 47.03 158.75 46.39 158.72
  L 40.20 158.48
  Q 39.70 158.46 39.72 157.95"
/>
<path stroke="#89732f" vector-effect="non-scaling-stroke" d="
  M 54.76 163.39
  A 1.72 1.72 0.0 0 1 58.06 162.70
  L 60.46 168.30
  A 0.81 0.79 79.3 0 0 61.16 168.79
  L 63.45 168.89
  A 0.51 0.51 0.0 0 0 63.93 168.15
  L 61.10 162.41
  Q 60.88 161.96 61.28 161.65
  Q 64.82 158.89 63.47 154.27
  C 62.31 150.27 56.35 151.14 51.86 151.33
  Q 51.41 151.35 51.41 151.80
  L 51.43 168.12
  Q 51.43 168.81 52.12 168.79
  L 54.17 168.72
  Q 54.80 168.70 54.79 168.08
  L 54.76 163.39"
/>
<path stroke="#89732f" vector-effect="non-scaling-stroke" d="
  M 73.47 164.53
  Q 71.74 158.84 70.12 152.93
  Q 69.39 150.26 66.54 151.40
  Q 66.14 151.56 66.27 151.98
  L 71.03 167.22
  A 2.83 2.83 0.0 0 0 76.44 167.22
  L 81.22 151.94
  Q 81.44 151.22 80.70 151.23
  L 78.45 151.26
  A 0.75 0.75 0.0 0 0 77.75 151.79
  L 73.97 164.53
  A 0.26 0.26 0.0 0 1 73.47 164.53"
/>
<path stroke="#89732f" vector-effect="non-scaling-stroke" d="
  M 87.53 151.72
  A 0.47 0.47 0.0 0 0 87.06 151.25
  L 84.56 151.25
  A 0.47 0.47 0.0 0 0 84.09 151.72
  L 84.09 168.30
  A 0.47 0.47 0.0 0 0 84.56 168.77
  L 87.06 168.77
  A 0.47 0.47 0.0 0 0 87.53 168.30
  L 87.53 151.72"
/>
<path stroke="#89732f" vector-effect="non-scaling-stroke" d="
  M 94.95 164.51
  Q 94.33 162.28 94.58 158.25
  C 94.91 153.07 98.05 153.90 101.88 154.31
  A 1.32 1.32 0.0 0 0 102.34 151.71
  C 93.78 149.57 90.53 152.58 91.16 161.30
  C 91.73 169.06 95.14 169.87 102.34 168.35
  A 0.80 0.78 -6.8 0 0 102.97 167.57
  L 102.97 166.33
  Q 102.96 165.52 102.17 165.66
  Q 98.91 166.19 95.77 165.33
  A 1.19 1.19 0.0 0 1 94.95 164.51"
/>
<path stroke="#89732f" vector-effect="non-scaling-stroke" d="
  M 109.20 157.93
  L 109.44 155.08
  Q 109.49 154.40 110.17 154.39
  L 116.94 154.28
  Q 117.47 154.28 117.48 153.75
  L 117.52 152.16
  Q 117.54 151.53 116.91 151.50
  L 109.80 151.26
  A 3.69 3.69 0.0 0 0 105.98 154.96
  L 106.03 166.13
  A 2.59 2.59 0.0 0 0 108.63 168.71
  L 116.80 168.70
  Q 117.55 168.70 117.55 167.95
  L 117.54 166.39
  Q 117.54 165.74 116.89 165.73
  L 110.18 165.69
  A 0.79 0.79 0.0 0 1 109.40 164.94
  L 109.25 162.18
  Q 109.21 161.57 109.83 161.55
  L 115.80 161.40
  A 0.67 0.67 0.0 0 0 116.46 160.71
  L 116.44 159.34
  A 0.61 0.61 0.0 0 0 115.85 158.74
  L 109.68 158.48
  Q 109.16 158.45 109.20 157.93"
/>
<path stroke="#89732f" vector-effect="non-scaling-stroke" d="
  M 123.67 157.50
  L 123.86 155.03
  Q 123.92 154.20 124.76 154.21
  L 130.54 154.22
  A 1.32 1.32 0.0 0 0 130.83 151.61
  C 125.76 150.52 118.68 150.87 120.59 158.45
  C 121.37 161.55 124.37 161.75 127.16 161.78
  C 128.76 161.80 129.28 162.66 129.06 164.17
  Q 128.81 165.80 127.16 165.79
  L 121.38 165.75
  Q 120.76 165.75 120.75 166.37
  L 120.74 167.68
  Q 120.74 168.27 121.32 168.37
  C 127.27 169.31 133.96 169.58 132.06 161.72
  C 131.06 157.56 127.41 158.71 124.24 158.22
  Q 123.62 158.12 123.67 157.50"
/>
<path stroke="#89732f" vector-effect="non-scaling-stroke" d="
  M 62.2082 136.0338
  A 3.29 3.29 0.0 0 0 58.8782 132.7842
  L 57.8583 132.7967
  A 3.29 3.29 0.0 0 0 54.6088 136.1266
  L 54.6718 141.2862
  A 3.29 3.29 0.0 0 0 58.0018 144.5358
  L 59.0217 144.5233
  A 3.29 3.29 0.0 0 0 62.2712 141.1934
  L 62.2082 136.0338"
/>
<path stroke="#89732f" vector-effect="non-scaling-stroke" d="
  M 89.23 140.28
  A 0.37 0.37 0.0 0 0 89.59 140.74
  L 93.05 140.74
  A 0.37 0.37 0.0 0 0 93.41 140.28
  L 91.68 133.69
  A 0.37 0.37 0.0 0 0 90.96 133.69
  L 89.23 140.28"
/>
<path stroke="#89732f" vector-effect="non-scaling-stroke" d="
  M 72.46 133.18
  L 72.46 137.04
  A 0.31 0.31 0.0 0 0 72.77 137.35
  L 75.44 137.35
  A 2.34 2.07 0.1 0 0 77.78 135.28
  L 77.78 134.94
  A 2.34 2.07 0.1 0 0 75.44 132.87
  L 72.77 132.87
  A 0.31 0.31 0.0 0 0 72.46 133.18"
/>
<path stroke="#89732f" vector-effect="non-scaling-stroke" d="
  M 72.46 140.10
  L 72.38 144.02
  A 0.40 0.40 0.0 0 0 72.77 144.43
  L 75.67 144.49
  A 2.54 2.08 1.2 0 0 78.25 142.46
  L 78.27 141.90
  A 2.54 2.08 1.2 0 0 75.77 139.77
  L 72.87 139.71
  A 0.40 0.40 0.0 0 0 72.46 140.10"
/>
<path stroke="#89732f" vector-effect="non-scaling-stroke" d="
  M 54.67 154.80
  L 54.69 159.00
  A 0.53 0.53 0.0 0 0 55.23 159.53
  L 58.16 159.51
  A 2.25 2.10 89.6 0 0 60.24 157.24
  L 60.24 156.48
  A 2.25 2.10 89.6 0 0 58.12 154.25
  L 55.19 154.27
  A 0.53 0.53 0.0 0 0 54.67 154.80"
/>
</g>
<path fill="#120f0e" d="
  M 22.16 38.62
  Q 29.57 39.78 37.06 38.69
  L 222.93 38.74
  Q 221.81 46.77 222.06 54.38
  C 222.63 72.01 222.33 89.61 222.29 107.25
  Q 222.28 110.79 222.96 113.08
  Q 223.14 113.74 222.97 114.35
  Q 222.79 114.97 222.25 114.63
  L 221.63 114.24
  Q 221.27 114.02 220.85 114.02
  L 151.37 114.02
  Q 150.54 150.01 151.12 186.00
  L 2.68 186.00
  L 2.59 38.69
  L 22.16 38.62
  Z
  M 73.88 42.97
  A 0.27 0.27 0.0 0 0 73.61 42.70
  L 6.27 42.70
  A 0.27 0.27 0.0 0 0 6.00 42.97
  L 6.00 110.49
  A 0.27 0.27 0.0 0 0 6.27 110.76
  L 73.61 110.76
  A 0.27 0.27 0.0 0 0 73.88 110.49
  L 73.88 42.97
  Z
  M 147.51 42.99
  A 0.27 0.27 0.0 0 0 147.24 42.72
  L 77.96 42.72
  A 0.27 0.27 0.0 0 0 77.69 42.99
  L 77.69 110.49
  A 0.27 0.27 0.0 0 0 77.96 110.76
  L 147.24 110.76
  A 0.27 0.27 0.0 0 0 147.51 110.49
  L 147.51 42.99
  Z
  M 219.14 42.97
  A 0.26 0.26 0.0 0 0 218.88 42.71
  L 151.48 42.71
  A 0.26 0.26 0.0 0 0 151.22 42.97
  L 151.22 110.49
  A 0.26 0.26 0.0 0 0 151.48 110.75
  L 218.88 110.75
  A 0.26 0.26 0.0 0 0 219.14 110.49
  L 219.14 42.97
  Z
  M 6.06 117.28
  L 6.07 182.05
  Q 6.07 182.51 6.52 182.51
  L 147.23 182.51
  Q 147.53 182.51 147.53 182.21
  L 147.50 116.05
  Q 147.73 115.14 147.36 114.63
  A 0.50 0.50 0.0 0 0 146.96 114.43
  L 6.59 114.40
  Q 6.02 114.40 6.03 114.97
  L 6.06 117.28
  Z"
/>
<path fill="#1f1b1c" d="
  M 22.16 38.62
  L 37.06 38.69
  Q 29.57 39.78 22.16 38.62
  Z"
/>
<path fill="#887f70" d="
  M 2.59 38.69
  L 2.68 186.00
  Q 2.59 185.99 2.39 185.96
  Q 2.00 185.90 2.00 185.51
  L 2.00 39.00
  A 0.26 0.26 0.0 0 1 2.26 38.74
  Q 2.53 38.74 2.59 38.69
  Z"
/>
<path fill="#887f70" d="
  M 222.93 38.74
  L 222.96 113.08
  Q 222.28 110.79 222.29 107.25
  C 222.33 89.61 222.63 72.01 222.06 54.38
  Q 221.81 46.77 222.93 38.74
  Z"
/>
<path fill="#ffffff" d="
  M 73.88 110.49
  A 0.27 0.27 0.0 0 1 73.61 110.76
  L 6.27 110.76
  A 0.27 0.27 0.0 0 1 6.00 110.49
  L 6.00 42.97
  A 0.27 0.27 0.0 0 1 6.27 42.70
  L 73.61 42.70
  A 0.27 0.27 0.0 0 1 73.88 42.97
  L 73.88 110.49
  Z
  M 47.60 79.48
  A 0.40 0.40 0.0 0 1 48.00 79.88
  L 48.00 95.26
  A 0.40 0.40 0.0 0 0 48.40 95.66
  L 53.97 95.63
  A 0.40 0.40 0.0 0 0 54.37 95.23
  L 54.39 58.67
  A 0.40 0.40 0.0 0 0 53.99 58.27
  L 48.40 58.28
  A 0.40 0.40 0.0 0 0 48.00 58.68
  L 48.00 73.19
  A 0.40 0.40 0.0 0 1 47.60 73.59
  L 32.42 73.60
  A 0.40 0.40 0.0 0 1 32.02 73.20
  L 32.13 58.66
  A 0.40 0.40 0.0 0 0 31.72 58.25
  L 26.07 58.30
  A 0.40 0.40 0.0 0 0 25.67 58.70
  L 25.70 95.25
  A 0.40 0.40 0.0 0 0 26.10 95.65
  L 31.62 95.64
  A 0.40 0.40 0.0 0 0 32.02 95.24
  L 32.04 79.88
  A 0.40 0.40 0.0 0 1 32.44 79.48
  L 47.60 79.48
  Z"
/>
<path fill="#ffffff" d="
  M 147.51 110.49
  A 0.27 0.27 0.0 0 1 147.24 110.76
  L 77.96 110.76
  A 0.27 0.27 0.0 0 1 77.69 110.49
  L 77.69 42.99
  A 0.27 0.27 0.0 0 1 77.96 42.72
  L 147.24 42.72
  A 0.27 0.27 0.0 0 1 147.51 42.99
  L 147.51 110.49
  Z
  M 108.88 64.36
  A 0.39 0.39 0.0 0 1 109.27 64.75
  L 109.24 95.33
  A 0.39 0.39 0.0 0 0 109.63 95.72
  L 115.12 95.73
  A 0.39 0.39 0.0 0 0 115.51 95.34
  L 115.50 64.70
  A 0.39 0.39 0.0 0 1 115.89 64.31
  L 125.64 64.36
  A 0.39 0.39 0.0 0 0 126.03 63.97
  L 126.03 58.64
  A 0.39 0.39 0.0 0 0 125.64 58.25
  L 99.19 58.25
  A 0.39 0.39 0.0 0 0 98.80 58.65
  L 98.88 63.99
  A 0.39 0.39 0.0 0 0 99.27 64.37
  L 108.88 64.36
  Z"
/>
<path fill="#ffffff" d="
  M 219.14 110.49
  A 0.26 0.26 0.0 0 1 218.88 110.75
  L 151.48 110.75
  A 0.26 0.26 0.0 0 1 151.22 110.49
  L 151.22 42.97
  A 0.26 0.26 0.0 0 1 151.48 42.71
  L 218.88 42.71
  A 0.26 0.26 0.0 0 1 219.14 42.97
  L 219.14 110.49
  Z
  M 178.41 67.19
  Q 185.57 59.73 195.97 67.22
  Q 196.42 67.54 196.82 67.16
  L 200.23 63.88
  Q 200.63 63.50 200.24 63.12
  C 192.15 55.18 179.25 55.81 171.95 64.46
  C 164.63 73.13 167.07 89.12 177.78 94.24
  Q 190.27 100.22 200.72 90.38
  A 0.59 0.57 45.7 0 0 200.72 89.54
  L 197.27 86.18
  Q 196.82 85.74 196.36 86.18
  C 183.21 98.89 166.00 80.09 178.41 67.19
  Z"
/>
<path fill="#1f1b1c" d="
  M 178.41 67.19
  C 166.00 80.09 183.21 98.89 196.36 86.18
  Q 196.82 85.74 197.27 86.18
  L 200.72 89.54
  A 0.59 0.57 45.7 0 1 200.72 90.38
  Q 190.27 100.22 177.78 94.24
  C 167.07 89.12 164.63 73.13 171.95 64.46
  C 179.25 55.81 192.15 55.18 200.24 63.12
  Q 200.63 63.50 200.23 63.88
  L 196.82 67.16
  Q 196.42 67.54 195.97 67.22
  Q 185.57 59.73 178.41 67.19
  Z"
/>
<path fill="#1f1b1c" d="
  M 47.60 79.48
  L 32.44 79.48
  A 0.40 0.40 0.0 0 0 32.04 79.88
  L 32.02 95.24
  A 0.40 0.40 0.0 0 1 31.62 95.64
  L 26.10 95.65
  A 0.40 0.40 0.0 0 1 25.70 95.25
  L 25.67 58.70
  A 0.40 0.40 0.0 0 1 26.07 58.30
  L 31.72 58.25
  A 0.40 0.40 0.0 0 1 32.13 58.66
  L 32.02 73.20
  A 0.40 0.40 0.0 0 0 32.42 73.60
  L 47.60 73.59
  A 0.40 0.40 0.0 0 0 48.00 73.19
  L 48.00 58.68
  A 0.40 0.40 0.0 0 1 48.40 58.28
  L 53.99 58.27
  A 0.40 0.40 0.0 0 1 54.39 58.67
  L 54.37 95.23
  A 0.40 0.40 0.0 0 1 53.97 95.63
  L 48.40 95.66
  A 0.40 0.40 0.0 0 1 48.00 95.26
  L 48.00 79.88
  A 0.40 0.40 0.0 0 0 47.60 79.48
  Z"
/>
<path fill="#1f1b1c" d="
  M 108.88 64.36
  L 99.27 64.37
  A 0.39 0.39 0.0 0 1 98.88 63.99
  L 98.80 58.65
  A 0.39 0.39 0.0 0 1 99.19 58.25
  L 125.64 58.25
  A 0.39 0.39 0.0 0 1 126.03 58.64
  L 126.03 63.97
  A 0.39 0.39 0.0 0 1 125.64 64.36
  L 115.89 64.31
  A 0.39 0.39 0.0 0 0 115.50 64.70
  L 115.51 95.34
  A 0.39 0.39 0.0 0 1 115.12 95.73
  L 109.63 95.72
  A 0.39 0.39 0.0 0 1 109.24 95.33
  L 109.27 64.75
  A 0.39 0.39 0.0 0 0 108.88 64.36
  Z"
/>
<path fill="#f9e790" d="
  M 147.50 116.05
  Q 73.68 116.34 52.75 116.27
  Q 19.44 116.16 9.50 116.29
  Q 7.87 116.31 7.15 117.25
  Q 6.90 117.58 6.51 117.44
  L 6.06 117.28
  L 6.03 114.97
  Q 6.02 114.40 6.59 114.40
  L 146.96 114.43
  A 0.50 0.50 0.0 0 1 147.36 114.63
  Q 147.73 115.14 147.50 116.05
  Z"
/>
<path fill="#ffffff" d="
  M 151.37 114.02
  Q 152.46 145.52 151.79 176.00
  Q 151.68 181.11 151.12 186.00
  Q 150.54 150.01 151.37 114.02
  Z"
/>
<path fill="#ffd750" d="
  M 147.50 116.05
  L 147.53 182.21
  Q 147.53 182.51 147.23 182.51
  L 6.52 182.51
  Q 6.07 182.51 6.07 182.05
  L 6.06 117.28
  L 6.51 117.44
  Q 6.90 117.58 7.15 117.25
  Q 7.87 116.31 9.50 116.29
  Q 19.44 116.16 52.75 116.27
  Q 73.68 116.34 147.50 116.05
  Z
  M 31.27 141.00
  L 31.25 142.98
  Q 31.24 143.53 30.76 143.78
  C 26.93 145.77 24.80 144.08 24.59 140.08
  C 24.22 132.89 26.29 132.00 32.95 133.22
  A 0.59 0.59 0.0 0 0 33.65 132.62
  L 33.60 131.16
  A 0.62 0.62 0.0 0 0 33.16 130.58
  C 23.20 127.41 19.93 133.00 21.43 142.17
  C 22.48 148.60 25.97 147.80 30.90 146.86
  Q 31.41 146.76 31.83 147.05
  Q 32.73 147.66 33.84 147.51
  Q 34.44 147.43 34.44 146.83
  L 34.44 138.08
  Q 34.44 137.47 33.83 137.48
  L 28.99 137.61
  A 1.44 1.44 0.0 0 0 29.04 140.49
  L 30.75 140.47
  Q 31.27 140.47 31.27 141.00
  Z
  M 41.77 143.54
  L 41.76 130.44
  Q 41.76 129.85 41.17 129.87
  L 38.98 129.95
  Q 38.42 129.97 38.40 130.54
  Q 38.23 137.00 38.15 143.46
  Q 38.10 147.24 41.73 147.40
  Q 44.98 147.54 48.32 147.47
  Q 48.97 147.46 48.96 146.81
  L 48.96 144.99
  A 0.57 0.56 0.5 0 0 48.40 144.43
  L 42.54 144.32
  A 0.78 0.78 0.0 0 1 41.77 143.54
  Z
  M 65.6299 135.8149
  A 6.02 6.02 0.0 0 0 59.5889 129.8160
  L 57.2489 129.8241
  A 6.02 6.02 0.0 0 0 51.2500 135.8651
  L 51.2701 141.6251
  A 6.02 6.02 0.0 0 0 57.3111 147.6240
  L 59.6511 147.6159
  A 6.02 6.02 0.0 0 0 65.6500 141.5749
  L 65.6299 135.8149
  Z
  M 94.63 144.43
  L 95.25 146.78
  Q 95.41 147.38 96.03 147.41
  L 98.26 147.54
  A 0.60 0.59 82.9 0 0 98.86 146.76
  L 93.96 131.26
  A 2.73 2.73 0.0 0 0 88.75 131.27
  L 83.85 146.86
  Q 83.64 147.52 84.33 147.51
  L 86.70 147.47
  A 0.70 0.69 -83.0 0 0 87.37 146.94
  L 88.00 144.50
  A 0.78 0.77 -82.8 0 1 88.75 143.91
  L 93.87 143.85
  A 0.77 0.77 0.0 0 1 94.63 144.43
  Z
  M 79.48 138.05
  C 82.73 134.38 80.97 130.21 75.99 129.96
  Q 74.10 129.87 69.49 130.01
  Q 69.00 130.02 69.00 130.52
  L 69.00 146.96
  Q 69.00 147.41 69.45 147.43
  C 74.56 147.62 83.13 149.17 81.29 141.31
  Q 80.92 139.74 79.57 138.80
  Q 79.10 138.48 79.48 138.05
  Z
  M 105.28 143.55
  L 105.28 130.48
  Q 105.28 129.92 104.73 129.93
  L 102.34 129.94
  Q 101.82 129.94 101.81 130.46
  Q 101.69 137.23 101.87 144.00
  C 102.00 148.84 108.63 147.53 111.79 147.47
  A 0.60 0.60 0.0 0 0 112.38 146.87
  L 112.39 144.90
  Q 112.39 144.41 111.90 144.40
  L 106.05 144.33
  Q 105.28 144.32 105.28 143.55
  Z
  M 25.42 154.28
  L 31.77 154.26
  Q 32.29 154.25 32.29 153.73
  L 32.26 152.27
  Q 32.26 151.69 31.68 151.60
  C 27.31 150.92 21.14 150.26 21.17 156.04
  C 21.20 161.05 23.37 161.58 27.97 161.87
  C 29.30 161.95 30.08 162.58 29.95 163.95
  A 2.01 2.00 -87.1 0 1 27.96 165.76
  L 22.11 165.77
  Q 21.48 165.77 21.45 166.39
  L 21.39 167.67
  Q 21.36 168.24 21.92 168.34
  C 27.33 169.27 34.94 169.76 32.94 161.72
  C 31.96 157.77 28.27 158.50 25.20 158.25
  Q 24.53 158.20 24.52 157.53
  L 24.48 155.25
  Q 24.46 154.28 25.42 154.28
  Z
  M 39.72 157.95
  L 39.86 155.00
  A 0.64 0.63 0.9 0 1 40.50 154.39
  L 47.49 154.38
  A 0.62 0.62 0.0 0 0 48.11 153.76
  L 48.12 152.14
  Q 48.13 151.49 47.47 151.45
  Q 45.64 151.36 40.76 151.29
  C 37.29 151.24 36.46 153.04 36.43 156.27
  Q 36.39 161.19 36.45 165.88
  A 2.90 2.89 -0.5 0 0 39.37 168.74
  L 47.32 168.69
  Q 48.07 168.68 48.10 167.93
  L 48.16 166.30
  A 0.50 0.50 0.0 0 0 47.67 165.78
  L 40.54 165.60
  A 0.74 0.74 0.0 0 1 39.82 164.89
  L 39.70 162.22
  Q 39.67 161.60 40.29 161.58
  L 46.29 161.40
  A 0.69 0.68 -89.1 0 0 46.96 160.74
  L 47.00 159.39
  Q 47.03 158.75 46.39 158.72
  L 40.20 158.48
  Q 39.70 158.46 39.72 157.95
  Z
  M 54.76 163.39
  A 1.72 1.72 0.0 0 1 58.06 162.70
  L 60.46 168.30
  A 0.81 0.79 79.3 0 0 61.16 168.79
  L 63.45 168.89
  A 0.51 0.51 0.0 0 0 63.93 168.15
  L 61.10 162.41
  Q 60.88 161.96 61.28 161.65
  Q 64.82 158.89 63.47 154.27
  C 62.31 150.27 56.35 151.14 51.86 151.33
  Q 51.41 151.35 51.41 151.80
  L 51.43 168.12
  Q 51.43 168.81 52.12 168.79
  L 54.17 168.72
  Q 54.80 168.70 54.79 168.08
  L 54.76 163.39
  Z
  M 73.47 164.53
  Q 71.74 158.84 70.12 152.93
  Q 69.39 150.26 66.54 151.40
  Q 66.14 151.56 66.27 151.98
  L 71.03 167.22
  A 2.83 2.83 0.0 0 0 76.44 167.22
  L 81.22 151.94
  Q 81.44 151.22 80.70 151.23
  L 78.45 151.26
  A 0.75 0.75 0.0 0 0 77.75 151.79
  L 73.97 164.53
  A 0.26 0.26 0.0 0 1 73.47 164.53
  Z
  M 87.53 151.72
  A 0.47 0.47 0.0 0 0 87.06 151.25
  L 84.56 151.25
  A 0.47 0.47 0.0 0 0 84.09 151.72
  L 84.09 168.30
  A 0.47 0.47 0.0 0 0 84.56 168.77
  L 87.06 168.77
  A 0.47 0.47 0.0 0 0 87.53 168.30
  L 87.53 151.72
  Z
  M 94.95 164.51
  Q 94.33 162.28 94.58 158.25
  C 94.91 153.07 98.05 153.90 101.88 154.31
  A 1.32 1.32 0.0 0 0 102.34 151.71
  C 93.78 149.57 90.53 152.58 91.16 161.30
  C 91.73 169.06 95.14 169.87 102.34 168.35
  A 0.80 0.78 -6.8 0 0 102.97 167.57
  L 102.97 166.33
  Q 102.96 165.52 102.17 165.66
  Q 98.91 166.19 95.77 165.33
  A 1.19 1.19 0.0 0 1 94.95 164.51
  Z
  M 109.20 157.93
  L 109.44 155.08
  Q 109.49 154.40 110.17 154.39
  L 116.94 154.28
  Q 117.47 154.28 117.48 153.75
  L 117.52 152.16
  Q 117.54 151.53 116.91 151.50
  L 109.80 151.26
  A 3.69 3.69 0.0 0 0 105.98 154.96
  L 106.03 166.13
  A 2.59 2.59 0.0 0 0 108.63 168.71
  L 116.80 168.70
  Q 117.55 168.70 117.55 167.95
  L 117.54 166.39
  Q 117.54 165.74 116.89 165.73
  L 110.18 165.69
  A 0.79 0.79 0.0 0 1 109.40 164.94
  L 109.25 162.18
  Q 109.21 161.57 109.83 161.55
  L 115.80 161.40
  A 0.67 0.67 0.0 0 0 116.46 160.71
  L 116.44 159.34
  A 0.61 0.61 0.0 0 0 115.85 158.74
  L 109.68 158.48
  Q 109.16 158.45 109.20 157.93
  Z
  M 123.67 157.50
  L 123.86 155.03
  Q 123.92 154.20 124.76 154.21
  L 130.54 154.22
  A 1.32 1.32 0.0 0 0 130.83 151.61
  C 125.76 150.52 118.68 150.87 120.59 158.45
  C 121.37 161.55 124.37 161.75 127.16 161.78
  C 128.76 161.80 129.28 162.66 129.06 164.17
  Q 128.81 165.80 127.16 165.79
  L 121.38 165.75
  Q 120.76 165.75 120.75 166.37
  L 120.74 167.68
  Q 120.74 168.27 121.32 168.37
  C 127.27 169.31 133.96 169.58 132.06 161.72
  C 131.06 157.56 127.41 158.71 124.24 158.22
  Q 123.62 158.12 123.67 157.50
  Z"
/>
<path fill="#120f0e" d="
  M 30.75 140.47
  L 29.04 140.49
  A 1.44 1.44 0.0 0 1 28.99 137.61
  L 33.83 137.48
  Q 34.44 137.47 34.44 138.08
  L 34.44 146.83
  Q 34.44 147.43 33.84 147.51
  Q 32.73 147.66 31.83 147.05
  Q 31.41 146.76 30.90 146.86
  C 25.97 147.80 22.48 148.60 21.43 142.17
  C 19.93 133.00 23.20 127.41 33.16 130.58
  A 0.62 0.62 0.0 0 1 33.60 131.16
  L 33.65 132.62
  A 0.59 0.59 0.0 0 1 32.95 133.22
  C 26.29 132.00 24.22 132.89 24.59 140.08
  C 24.80 144.08 26.93 145.77 30.76 143.78
  Q 31.24 143.53 31.25 142.98
  L 31.27 141.00
  Q 31.27 140.47 30.75 140.47
  Z"
/>
<path fill="#120f0e" d="
  M 42.54 144.32
  L 48.40 144.43
  A 0.57 0.56 0.5 0 1 48.96 144.99
  L 48.96 146.81
  Q 48.97 147.46 48.32 147.47
  Q 44.98 147.54 41.73 147.40
  Q 38.10 147.24 38.15 143.46
  Q 38.23 137.00 38.40 130.54
  Q 38.42 129.97 38.98 129.95
  L 41.17 129.87
  Q 41.76 129.85 41.76 130.44
  L 41.77 143.54
  A 0.78 0.78 0.0 0 0 42.54 144.32
  Z"
/>
<path fill="#120f0e" d="
  M 65.6500 141.5749
  A 6.02 6.02 0.0 0 1 59.6511 147.6159
  L 57.3111 147.6240
  A 6.02 6.02 0.0 0 1 51.2701 141.6251
  L 51.2500 135.8651
  A 6.02 6.02 0.0 0 1 57.2489 129.8241
  L 59.5889 129.8160
  A 6.02 6.02 0.0 0 1 65.6299 135.8149
  L 65.6500 141.5749
  Z
  M 62.2082 136.0338
  A 3.29 3.29 0.0 0 0 58.8782 132.7842
  L 57.8583 132.7967
  A 3.29 3.29 0.0 0 0 54.6088 136.1266
  L 54.6718 141.2862
  A 3.29 3.29 0.0 0 0 58.0018 144.5358
  L 59.0217 144.5233
  A 3.29 3.29 0.0 0 0 62.2712 141.1934
  L 62.2082 136.0338
  Z"
/>
<path fill="#120f0e" d="
  M 93.87 143.85
  L 88.75 143.91
  A 0.78 0.77 -82.8 0 0 88.00 144.50
  L 87.37 146.94
  A 0.70 0.69 -83.0 0 1 86.70 147.47
  L 84.33 147.51
  Q 83.64 147.52 83.85 146.86
  L 88.75 131.27
  A 2.73 2.73 0.0 0 1 93.96 131.26
  L 98.86 146.76
  A 0.60 0.59 82.9 0 1 98.26 147.54
  L 96.03 147.41
  Q 95.41 147.38 95.25 146.78
  L 94.63 144.43
  A 0.77 0.77 0.0 0 0 93.87 143.85
  Z
  M 89.23 140.28
  A 0.37 0.37 0.0 0 0 89.59 140.74
  L 93.05 140.74
  A 0.37 0.37 0.0 0 0 93.41 140.28
  L 91.68 133.69
  A 0.37 0.37 0.0 0 0 90.96 133.69
  L 89.23 140.28
  Z"
/>
<path fill="#120f0e" d="
  M 79.57 138.80
  Q 80.92 139.74 81.29 141.31
  C 83.13 149.17 74.56 147.62 69.45 147.43
  Q 69.00 147.41 69.00 146.96
  L 69.00 130.52
  Q 69.00 130.02 69.49 130.01
  Q 74.10 129.87 75.99 129.96
  C 80.97 130.21 82.73 134.38 79.48 138.05
  Q 79.10 138.48 79.57 138.80
  Z
  M 72.46 133.18
  L 72.46 137.04
  A 0.31 0.31 0.0 0 0 72.77 137.35
  L 75.44 137.35
  A 2.34 2.07 0.1 0 0 77.78 135.28
  L 77.78 134.94
  A 2.34 2.07 0.1 0 0 75.44 132.87
  L 72.77 132.87
  A 0.31 0.31 0.0 0 0 72.46 133.18
  Z
  M 72.46 140.10
  L 72.38 144.02
  A 0.40 0.40 0.0 0 0 72.77 144.43
  L 75.67 144.49
  A 2.54 2.08 1.2 0 0 78.25 142.46
  L 78.27 141.90
  A 2.54 2.08 1.2 0 0 75.77 139.77
  L 72.87 139.71
  A 0.40 0.40 0.0 0 0 72.46 140.10
  Z"
/>
<path fill="#120f0e" d="
  M 106.05 144.33
  L 111.90 144.40
  Q 112.39 144.41 112.39 144.90
  L 112.38 146.87
  A 0.60 0.60 0.0 0 1 111.79 147.47
  C 108.63 147.53 102.00 148.84 101.87 144.00
  Q 101.69 137.23 101.81 130.46
  Q 101.82 129.94 102.34 129.94
  L 104.73 129.93
  Q 105.28 129.92 105.28 130.48
  L 105.28 143.55
  Q 105.28 144.32 106.05 144.33
  Z"
/>
<rect fill="#ffd750" x="-3.80" y="-5.87" transform="translate(58.44,138.66) rotate(-0.7)" width="7.60" height="11.74" rx="3.29"/>
<path fill="#ffd750" d="
  M 72.46 133.18
  A 0.31 0.31 0.0 0 1 72.77 132.87
  L 75.44 132.87
  A 2.34 2.07 0.1 0 1 77.78 134.94
  L 77.78 135.28
  A 2.34 2.07 0.1 0 1 75.44 137.35
  L 72.77 137.35
  A 0.31 0.31 0.0 0 1 72.46 137.04
  L 72.46 133.18
  Z"
/>
<path fill="#ffd750" d="
  M 89.23 140.28
  L 90.96 133.69
  A 0.37 0.37 0.0 0 1 91.68 133.69
  L 93.41 140.28
  A 0.37 0.37 0.0 0 1 93.05 140.74
  L 89.59 140.74
  A 0.37 0.37 0.0 0 1 89.23 140.28
  Z"
/>
<path fill="#ffd750" d="
  M 72.46 140.10
  A 0.40 0.40 0.0 0 1 72.87 139.71
  L 75.77 139.77
  A 2.54 2.08 1.2 0 1 78.27 141.90
  L 78.25 142.46
  A 2.54 2.08 1.2 0 1 75.67 144.49
  L 72.77 144.43
  A 0.40 0.40 0.0 0 1 72.38 144.02
  L 72.46 140.10
  Z"
/>
<path fill="#120f0e" d="
  M 24.48 155.25
  L 24.52 157.53
  Q 24.53 158.20 25.20 158.25
  C 28.27 158.50 31.96 157.77 32.94 161.72
  C 34.94 169.76 27.33 169.27 21.92 168.34
  Q 21.36 168.24 21.39 167.67
  L 21.45 166.39
  Q 21.48 165.77 22.11 165.77
  L 27.96 165.76
  A 2.01 2.00 -87.1 0 0 29.95 163.95
  C 30.08 162.58 29.30 161.95 27.97 161.87
  C 23.37 161.58 21.20 161.05 21.17 156.04
  C 21.14 150.26 27.31 150.92 31.68 151.60
  Q 32.26 151.69 32.26 152.27
  L 32.29 153.73
  Q 32.29 154.25 31.77 154.26
  L 25.42 154.28
  Q 24.46 154.28 24.48 155.25
  Z"
/>
<path fill="#120f0e" d="
  M 40.20 158.48
  L 46.39 158.72
  Q 47.03 158.75 47.00 159.39
  L 46.96 160.74
  A 0.69 0.68 -89.1 0 1 46.29 161.40
  L 40.29 161.58
  Q 39.67 161.60 39.70 162.22
  L 39.82 164.89
  A 0.74 0.74 0.0 0 0 40.54 165.60
  L 47.67 165.78
  A 0.50 0.50 0.0 0 1 48.16 166.30
  L 48.10 167.93
  Q 48.07 168.68 47.32 168.69
  L 39.37 168.74
  A 2.90 2.89 -0.5 0 1 36.45 165.88
  Q 36.39 161.19 36.43 156.27
  C 36.46 153.04 37.29 151.24 40.76 151.29
  Q 45.64 151.36 47.47 151.45
  Q 48.13 151.49 48.12 152.14
  L 48.11 153.76
  A 0.62 0.62 0.0 0 1 47.49 154.38
  L 40.50 154.39
  A 0.64 0.63 0.9 0 0 39.86 155.00
  L 39.72 157.95
  Q 39.70 158.46 40.20 158.48
  Z"
/>
<path fill="#120f0e" d="
  M 54.76 163.39
  L 54.79 168.08
  Q 54.80 168.70 54.17 168.72
  L 52.12 168.79
  Q 51.43 168.81 51.43 168.12
  L 51.41 151.80
  Q 51.41 151.35 51.86 151.33
  C 56.35 151.14 62.31 150.27 63.47 154.27
  Q 64.82 158.89 61.28 161.65
  Q 60.88 161.96 61.10 162.41
  L 63.93 168.15
  A 0.51 0.51 0.0 0 1 63.45 168.89
  L 61.16 168.79
  A 0.81 0.79 79.3 0 1 60.46 168.30
  L 58.06 162.70
  A 1.72 1.72 0.0 0 0 54.76 163.39
  Z
  M 54.67 154.80
  L 54.69 159.00
  A 0.53 0.53 0.0 0 0 55.23 159.53
  L 58.16 159.51
  A 2.25 2.10 89.6 0 0 60.24 157.24
  L 60.24 156.48
  A 2.25 2.10 89.6 0 0 58.12 154.25
  L 55.19 154.27
  A 0.53 0.53 0.0 0 0 54.67 154.80
  Z"
/>
<path fill="#120f0e" d="
  M 73.47 164.53
  A 0.26 0.26 0.0 0 0 73.97 164.53
  L 77.75 151.79
  A 0.75 0.75 0.0 0 1 78.45 151.26
  L 80.70 151.23
  Q 81.44 151.22 81.22 151.94
  L 76.44 167.22
  A 2.83 2.83 0.0 0 1 71.03 167.22
  L 66.27 151.98
  Q 66.14 151.56 66.54 151.40
  Q 69.39 150.26 70.12 152.93
  Q 71.74 158.84 73.47 164.53
  Z"
/>
<rect fill="#120f0e" x="84.09" y="151.25" width="3.44" height="17.52" rx="0.47"/>
<path fill="#120f0e" d="
  M 95.77 165.33
  Q 98.91 166.19 102.17 165.66
  Q 102.96 165.52 102.97 166.33
  L 102.97 167.57
  A 0.80 0.78 -6.8 0 1 102.34 168.35
  C 95.14 169.87 91.73 169.06 91.16 161.30
  C 90.53 152.58 93.78 149.57 102.34 151.71
  A 1.32 1.32 0.0 0 1 101.88 154.31
  C 98.05 153.90 94.91 153.07 94.58 158.25
  Q 94.33 162.28 94.95 164.51
  A 1.19 1.19 0.0 0 0 95.77 165.33
  Z"
/>
<path fill="#120f0e" d="
  M 109.68 158.48
  L 115.85 158.74
  A 0.61 0.61 0.0 0 1 116.44 159.34
  L 116.46 160.71
  A 0.67 0.67 0.0 0 1 115.80 161.40
  L 109.83 161.55
  Q 109.21 161.57 109.25 162.18
  L 109.40 164.94
  A 0.79 0.79 0.0 0 0 110.18 165.69
  L 116.89 165.73
  Q 117.54 165.74 117.54 166.39
  L 117.55 167.95
  Q 117.55 168.70 116.80 168.70
  L 108.63 168.71
  A 2.59 2.59 0.0 0 1 106.03 166.13
  L 105.98 154.96
  A 3.69 3.69 0.0 0 1 109.80 151.26
  L 116.91 151.50
  Q 117.54 151.53 117.52 152.16
  L 117.48 153.75
  Q 117.47 154.28 116.94 154.28
  L 110.17 154.39
  Q 109.49 154.40 109.44 155.08
  L 109.20 157.93
  Q 109.16 158.45 109.68 158.48
  Z"
/>
<path fill="#120f0e" d="
  M 124.24 158.22
  C 127.41 158.71 131.06 157.56 132.06 161.72
  C 133.96 169.58 127.27 169.31 121.32 168.37
  Q 120.74 168.27 120.74 167.68
  L 120.75 166.37
  Q 120.76 165.75 121.38 165.75
  L 127.16 165.79
  Q 128.81 165.80 129.06 164.17
  C 129.28 162.66 128.76 161.80 127.16 161.78
  C 124.37 161.75 121.37 161.55 120.59 158.45
  C 118.68 150.87 125.76 150.52 130.83 151.61
  A 1.32 1.32 0.0 0 1 130.54 154.22
  L 124.76 154.21
  Q 123.92 154.20 123.86 155.03
  L 123.67 157.50
  Q 123.62 158.12 124.24 158.22
  Z"
/>
<path fill="#ffd750" d="
  M 54.67 154.80
  A 0.53 0.53 0.0 0 1 55.19 154.27
  L 58.12 154.25
  A 2.25 2.10 89.6 0 1 60.24 156.48
  L 60.24 157.24
  A 2.25 2.10 89.6 0 1 58.16 159.51
  L 55.23 159.53
  A 0.53 0.53 0.0 0 1 54.69 159.00
  L 54.67 154.80
  Z"
/>
</svg>
