<?xml version="1.0" encoding="UTF-8" standalone="no"?>
<!DOCTYPE svg PUBLIC "-//W3C//DTD SVG 1.1//EN" "http://www.w3.org/Graphics/SVG/1.1/DTD/svg11.dtd">
<svg xmlns="http://www.w3.org/2000/svg" version="1.1" viewBox="0.00 0.00 240.00 240.00">
<g stroke-width="1.10" fill="none" stroke-linecap="butt">
<path stroke="#f3a880" vector-effect="non-scaling-stroke" d="
  M 120.13 64.99
  L 119.82 65.03"
/>
<path stroke="#eaa077" vector-effect="non-scaling-stroke" d="
  M 119.82 65.03
  L 74.99 65.03
  Q 74.50 65.03 74.53 65.52
  L 77.96 124.48
  Q 77.99 124.97 78.48 124.97
  L 119.96 124.99"
/>
<path stroke="#f35f00" vector-effect="non-scaling-stroke" d="
  M 119.96 124.99
  L 120.10 154.43"
/>
<path stroke="#f3a880" vector-effect="non-scaling-stroke" d="
  M 120.10 154.43
  Q 120.04 154.52 119.85 154.47"
/>
<path stroke="#eaa077" vector-effect="non-scaling-stroke" d="
  M 119.85 154.47
  L 99.99 147.68
  A 0.80 0.79 -82.7 0 1 99.46 146.99
  L 98.56 135.51
  Q 98.52 135.00 98.01 135.00
  L 79.00 135.00
  Q 78.50 135.00 78.53 135.50
  L 80.46 161.99
  Q 80.50 162.50 80.98 162.65
  L 119.92 175.48"
/>
<path stroke="#f35f00" vector-effect="non-scaling-stroke" d="
  M 119.92 175.48
  L 119.97 198.72
  A 0.61 0.61 0.0 0 0 120.75 199.31
  L 175.25 183.74
  A 1.12 1.11 84.4 0 0 176.06 182.75
  L 188.48 40.25
  A 0.23 0.23 0.0 0 0 188.25 40.00
  L 120.52 40.00
  Q 120.07 40.00 120.07 40.46
  L 120.13 64.99"
/>
<path stroke="#f7ae77" vector-effect="non-scaling-stroke" d="
  M 119.92 175.48
  L 120.45 175.34"
/>
<path stroke="#ffb680" vector-effect="non-scaling-stroke" d="
  M 120.45 175.34
  L 159.02 162.63
  Q 159.49 162.48 159.52 161.99
  L 162.97 105.52
  Q 163.00 105.03 162.51 105.03
  L 120.16 105.02"
/>
<path stroke="#f35f00" vector-effect="non-scaling-stroke" d="
  M 120.16 105.02
  Q 119.79 95.34 120.11 85.88
  Q 120.13 85.40 120.47 85.00"
/>
<path stroke="#ffb680" vector-effect="non-scaling-stroke" d="
  M 120.47 85.00
  L 164.00 84.99
  Q 164.51 84.99 164.55 84.48
  L 165.96 65.50
  A 0.48 0.47 2.2 0 0 165.48 64.99
  L 120.13 64.99"
/>
<path stroke="#f3a880" vector-effect="non-scaling-stroke" d="
  M 120.47 85.00
  Q 120.19 85.10 119.80 85.00"
/>
<path stroke="#f7f7f7" vector-effect="non-scaling-stroke" d="
  M 120.45 175.34
  Q 119.89 175.52 119.90 175.00
  Q 120.08 161.85 119.85 154.47"
/>
<path stroke="#ffb680" vector-effect="non-scaling-stroke" d="
  M 120.10 154.43
  L 140.02 147.65
  Q 140.50 147.49 140.53 146.99
  L 141.97 125.52
  Q 142.00 125.02 141.50 125.02
  L 119.96 124.99"
/>
<path stroke="#f3a880" vector-effect="non-scaling-stroke" d="
  M 120.16 105.02
  L 119.87 105.01"
/>
<path stroke="#f7f7f7" vector-effect="non-scaling-stroke" d="
  M 119.82 65.03
  L 119.80 85.00"
/>
<path stroke="#eaa077" vector-effect="non-scaling-stroke" d="
  M 119.80 85.00
  L 96.00 85.02
  Q 95.51 85.02 95.54 85.51
  L 96.96 104.49
  Q 97.00 104.99 97.50 104.99
  L 119.87 105.01"
/>
<path stroke="#f7f7f7" vector-effect="non-scaling-stroke" d="
  M 119.87 105.01
  L 119.96 124.99"
/>
</g>
<path fill="#e65100" d="
  M 50.00 194.77
  L 35.05 25.35
  A 0.32 0.32 0.0 0 1 35.37 25.00
  L 204.63 25.00
  A 0.32 0.32 0.0 0 1 204.95 25.35
  L 190.00 194.77
  A 0.32 0.32 0.0 0 1 189.77 195.05
  L 120.09 214.95
  A 0.32 0.32 0.0 0 1 119.91 214.95
  L 50.23 195.05
  A 0.32 0.32 0.0 0 1 50.00 194.77
  Z
  M 120.13 64.99
  L 119.82 65.03
  L 74.99 65.03
  Q 74.50 65.03 74.53 65.52
  L 77.96 124.48
  Q 77.99 124.97 78.48 124.97
  L 119.96 124.99
  L 120.10 154.43
  Q 120.04 154.52 119.85 154.47
  L 99.99 147.68
  A 0.80 0.79 -82.7 0 1 99.46 146.99
  L 98.56 135.51
  Q 98.52 135.00 98.01 135.00
  L 79.00 135.00
  Q 78.50 135.00 78.53 135.50
  L 80.46 161.99
  Q 80.50 162.50 80.98 162.65
  L 119.92 175.48
  L 119.97 198.72
  A 0.61 0.61 0.0 0 0 120.75 199.31
  L 175.25 183.74
  A 1.12 1.11 84.4 0 0 176.06 182.75
  L 188.48 40.25
  A 0.23 0.23 0.0 0 0 188.25 40.00
  L 120.52 40.00
  Q 120.07 40.00 120.07 40.46
  L 120.13 64.99
  Z"
/>
<path fill="#ff6d00" d="
  M 119.92 175.48
  L 120.45 175.34
  L 159.02 162.63
  Q 159.49 162.48 159.52 161.99
  L 162.97 105.52
  Q 163.00 105.03 162.51 105.03
  L 120.16 105.02
  Q 119.79 95.34 120.11 85.88
  Q 120.13 85.40 120.47 85.00
  L 164.00 84.99
  Q 164.51 84.99 164.55 84.48
  L 165.96 65.50
  A 0.48 0.47 2.2 0 0 165.48 64.99
  L 120.13 64.99
  L 120.07 40.46
  Q 120.07 40.00 120.52 40.00
  L 188.25 40.00
  A 0.23 0.23 0.0 0 1 188.48 40.25
  L 176.06 182.75
  A 1.12 1.11 84.4 0 1 175.25 183.74
  L 120.75 199.31
  A 0.61 0.61 0.0 0 1 119.97 198.72
  L 119.92 175.48
  Z"
/>
<path fill="#eeeeee" d="
  M 119.82 65.03
  L 119.80 85.00
  L 96.00 85.02
  Q 95.51 85.02 95.54 85.51
  L 96.96 104.49
  Q 97.00 104.99 97.50 104.99
  L 119.87 105.01
  L 119.96 124.99
  L 78.48 124.97
  Q 77.99 124.97 77.96 124.48
  L 74.53 65.52
  Q 74.50 65.03 74.99 65.03
  L 119.82 65.03
  Z"
/>
<path fill="#ffffff" d="
  M 119.82 65.03
  L 120.13 64.99
  L 165.48 64.99
  A 0.48 0.47 2.2 0 1 165.96 65.50
  L 164.55 84.48
  Q 164.51 84.99 164.00 84.99
  L 120.47 85.00
  Q 120.19 85.10 119.80 85.00
  L 119.82 65.03
  Z"
/>
<path fill="#e65100" d="
  M 119.80 85.00
  Q 120.19 85.10 120.47 85.00
  Q 120.13 85.40 120.11 85.88
  Q 119.79 95.34 120.16 105.02
  L 119.87 105.01
  L 97.50 104.99
  Q 97.00 104.99 96.96 104.49
  L 95.54 85.51
  Q 95.51 85.02 96.00 85.02
  L 119.80 85.00
  Z"
/>
<path fill="#ffffff" d="
  M 119.87 105.01
  L 120.16 105.02
  L 162.51 105.03
  Q 163.00 105.03 162.97 105.52
  L 159.52 161.99
  Q 159.49 162.48 159.02 162.63
  L 120.45 175.34
  Q 119.89 175.52 119.90 175.00
  Q 120.08 161.85 119.85 154.47
  Q 120.04 154.52 120.10 154.43
  L 140.02 147.65
  Q 140.50 147.49 140.53 146.99
  L 141.97 125.52
  Q 142.00 125.02 141.50 125.02
  L 119.96 124.99
  L 119.87 105.01
  Z"
/>
<path fill="#ff6d00" d="
  M 119.96 124.99
  L 141.50 125.02
  Q 142.00 125.02 141.97 125.52
  L 140.53 146.99
  Q 140.50 147.49 140.02 147.65
  L 120.10 154.43
  L 119.96 124.99
  Z"
/>
<path fill="#eeeeee" d="
  M 119.85 154.47
  Q 120.08 161.85 119.90 175.00
  Q 119.89 175.52 120.45 175.34
  L 119.92 175.48
  L 80.98 162.65
  Q 80.50 162.50 80.46 161.99
  L 78.53 135.50
  Q 78.50 135.00 79.00 135.00
  L 98.01 135.00
  Q 98.52 135.00 98.56 135.51
  L 99.46 146.99
  A 0.80 0.79 -82.7 0 0 99.99 147.68
  L 119.85 154.47
  Z"
/>
</svg>
