<?xml version="1.0" encoding="UTF-8" standalone="no"?>
<!DOCTYPE svg PUBLIC "-//W3C//DTD SVG 1.1//EN" "http://www.w3.org/Graphics/SVG/1.1/DTD/svg11.dtd">
<svg xmlns="http://www.w3.org/2000/svg" version="1.1" viewBox="0.00 0.00 256.00 256.00">
<g stroke-width="1.10" fill="none" stroke-linecap="butt">
<path stroke="#3f5efe" vector-effect="non-scaling-stroke" d="
  M 220.04 64.01
  Q 219.04 64.54 219.12 62.74
  Q 219.12 62.59 219.01 62.69
  Q 218.37 63.31 217.62 63.84
  Q 217.23 64.12 216.75 64.12
  L 215.43 64.12
  Q 214.92 64.12 214.73 63.65
  L 213.97 61.89
  A 0.62 0.62 0.0 0 0 212.99 61.66
  L 212.24 62.32"
/>
<path stroke="#3f5efe" vector-effect="non-scaling-stroke" d="
  M 43.59 63.52
  Q 41.68 67.58 35.77 65.06"
/>
<path stroke="#7945fe" vector-effect="non-scaling-stroke" d="
  M 50.74 144.80
  Q 50.03 144.51 49.68 143.47
  Q 49.60 143.23 49.60 143.48
  Q 49.60 143.64 49.60 143.81
  A 0.21 0.21 0.0 0 1 49.24 143.96
  L 48.90 143.63
  Q 48.86 143.60 48.82 143.63
  Q 47.46 144.56 46.43 143.62
  Q 45.75 142.99 45.74 142.99
  Q 44.58 142.32 44.11 141.00
  Q 43.95 140.55 43.54 140.80
  L 42.70 141.32"
/>
<path stroke="#7945fe" vector-effect="non-scaling-stroke" d="
  M 215.41 118.03
  Q 214.33 119.36 213.04 119.09
  Q 212.62 119.00 212.21 119.14
  Q 209.82 119.97 207.46 118.03"
/>
<path stroke="#a730ff" vector-effect="non-scaling-stroke" d="
  M 55.35 192.44
  L 54.58 193.05
  A 0.42 0.41 -54.8 0 1 54.21 193.12
  Q 53.56 192.93 54.16 192.67
  A 0.29 0.29 0.0 0 0 54.02 192.12
  L 50.53 192.46
  Q 49.97 192.52 49.69 193.01
  Q 49.02 194.18 47.57 194.66"
/>
<path stroke="#a730ff" vector-effect="non-scaling-stroke" d="
  M 208.69 196.45
  Q 208.27 197.36 207.49 197.64
  Q 207.01 197.81 206.54 197.64
  Q 205.85 197.39 205.19 197.59
  Q 204.63 197.76 204.63 198.34
  L 204.63 199.27
  Q 204.63 200.04 203.88 199.84
  Q 201.08 199.11 200.28 202.31"
/>
<path stroke="#85c2ff" vector-effect="non-scaling-stroke" d="
  M 200.33 78.47
  L 200.18 76.43
  Q 200.14 75.83 199.54 75.89
  Q 196.41 76.25 193.83 74.57
  Q 193.40 74.29 192.98 74.58
  Q 192.41 74.96 192.33 76.02"
/>
<path stroke="#85c2ff" vector-effect="non-scaling-stroke" d="
  M 134.52 93.56
  Q 131.61 94.66 128.89 94.48
  Q 128.29 94.44 128.23 95.03
  L 128.13 96.04"
/>
<path stroke="#a9b9ff" vector-effect="non-scaling-stroke" d="
  M 134.49 137.71
  C 134.59 134.37 131.53 134.57 129.16 134.82
  Q 128.92 134.85 128.98 135.08
  Q 129.19 135.82 128.73 136.74
  Q 128.70 136.81 128.70 136.74
  Q 128.67 136.51 128.53 136.38
  Q 128.26 136.13 128.24 136.50
  L 128.13 139.04"
/>
<path stroke="#a9b9ff" vector-effect="non-scaling-stroke" d="
  M 195.18 133.46
  Q 195.10 131.80 194.13 130.29
  Q 193.81 129.79 193.22 129.90
  L 192.11 130.10
  Q 191.67 130.18 191.29 129.94
  L 188.47 128.19"
/>
<path stroke="#cbb1ff" vector-effect="non-scaling-stroke" d="
  M 134.73 176.09
  L 134.24 174.71
  A 0.50 0.50 0.0 0 0 133.48 174.47
  Q 131.79 175.68 130.17 174.85
  Q 129.85 174.68 129.62 174.95
  L 129.08 175.56
  Q 128.71 175.98 128.54 175.45
  Q 128.29 174.71 128.40 173.89
  Q 128.40 173.86 128.38 173.86
  Q 128.36 173.86 128.35 173.86
  Q 128.30 173.86 128.31 173.91
  Q 128.43 174.63 128.12 175.04"
/>
<path stroke="#cbb1ff" vector-effect="non-scaling-stroke" d="
  M 191.56 171.84
  L 186.87 171.00
  Q 186.48 170.93 186.34 171.30
  Q 185.96 172.33 185.07 173.03"
/>
<path stroke="#85c2ff" vector-effect="non-scaling-stroke" d="
  M 119.98 95.91
  L 102.52 95.91"
/>
<path stroke="#a9b9ff" vector-effect="non-scaling-stroke" d="
  M 119.99 121.44
  Q 111.73 121.06 103.63 121.39
  C 103.47 121.39 103.28 121.28 103.19 121.16
  Q 103.07 120.98 102.90 121.12
  Q 102.73 121.25 102.50 121.29"
/>
<path stroke="#cbb1ff" vector-effect="non-scaling-stroke" d="
  M 119.98 164.66
  L 68.39 164.49
  Q 67.88 164.48 67.48 164.15
  L 66.56 163.39"
/>
</g>
<path fill="#1e6bff" d="
  M 220.04 64.01
  Q 219.04 64.54 219.12 62.74
  Q 219.12 62.59 219.01 62.69
  Q 218.37 63.31 217.62 63.84
  Q 217.23 64.12 216.75 64.12
  L 215.43 64.12
  Q 214.92 64.12 214.73 63.65
  L 213.97 61.89
  A 0.62 0.62 0.0 0 0 212.99 61.66
  L 212.24 62.32
  L 215.04 29.08
  Q 215.14 27.93 213.99 27.93
  L 40.77 27.94
  A 0.32 0.31 -3.2 0 0 40.45 28.29
  L 43.59 63.52
  Q 41.68 67.58 35.77 65.06
  L 32.05 24.57
  A 4.20 4.20 0.0 0 1 36.23 19.99
  L 219.26 19.99
  A 4.22 4.22 0.0 0 1 223.46 24.58
  L 220.04 64.01
  Z"
/>
<path fill="#73c6ff" d="
  M 200.33 78.47
  L 200.18 76.43
  Q 200.14 75.83 199.54 75.89
  Q 196.41 76.25 193.83 74.57
  Q 193.40 74.29 192.98 74.58
  Q 192.41 74.96 192.33 76.02
  L 192.93 64.80
  A 0.74 0.72 2.2 0 0 192.20 64.03
  L 135.02 64.03
  Q 134.55 64.03 134.54 64.50
  L 134.52 93.56
  Q 131.61 94.66 128.89 94.48
  Q 128.29 94.44 128.23 95.03
  L 128.13 96.04
  L 128.12 40.67
  Q 128.12 40.06 128.72 40.06
  L 203.25 40.06
  A 0.62 0.61 -87.4 0 1 203.86 40.73
  L 200.33 78.47
  Z"
/>
<path fill="#5f50fd" d="
  M 220.04 64.01
  L 215.41 118.03
  Q 214.33 119.36 213.04 119.09
  Q 212.62 119.00 212.21 119.14
  Q 209.82 119.97 207.46 118.03
  L 212.24 62.32
  L 212.99 61.66
  A 0.62 0.62 0.0 0 1 213.97 61.89
  L 214.73 63.65
  Q 214.92 64.12 215.43 64.12
  L 216.75 64.12
  Q 217.23 64.12 217.62 63.84
  Q 218.37 63.31 219.01 62.69
  Q 219.12 62.59 219.12 62.74
  Q 219.04 64.54 220.04 64.01
  Z"
/>
<path fill="#5f50fd" d="
  M 43.59 63.52
  L 50.74 144.80
  Q 50.03 144.51 49.68 143.47
  Q 49.60 143.23 49.60 143.48
  Q 49.60 143.64 49.60 143.81
  A 0.21 0.21 0.0 0 1 49.24 143.96
  L 48.90 143.63
  Q 48.86 143.60 48.82 143.63
  Q 47.46 144.56 46.43 143.62
  Q 45.75 142.99 45.74 142.99
  Q 44.58 142.32 44.11 141.00
  Q 43.95 140.55 43.54 140.80
  L 42.70 141.32
  L 35.77 65.06
  Q 41.68 67.58 43.59 63.52
  Z"
/>
<path fill="#73c6ff" d="
  M 119.98 95.91
  L 102.52 95.91
  L 102.52 64.50
  Q 102.52 64.00 103.02 64.00
  L 119.48 64.00
  Q 119.98 64.00 119.98 64.50
  L 119.98 95.91
  Z"
/>
<path fill="#97bdff" d="
  M 200.33 78.47
  L 195.18 133.46
  Q 195.10 131.80 194.13 130.29
  Q 193.81 129.79 193.22 129.90
  L 192.11 130.10
  Q 191.67 130.18 191.29 129.94
  L 188.47 128.19
  L 189.34 115.24
  Q 189.38 114.61 188.75 114.67
  L 154.01 118.31
  A 0.82 0.81 -2.9 0 1 153.11 117.50
  L 153.10 87.20
  A 1.21 1.21 0.0 0 1 154.30 85.99
  L 190.73 85.68
  A 0.69 0.69 0.0 0 0 191.42 85.06
  L 192.33 76.02
  Q 192.41 74.96 192.98 74.58
  Q 193.40 74.29 193.83 74.57
  Q 196.41 76.25 199.54 75.89
  Q 200.14 75.83 200.18 76.43
  L 200.33 78.47
  Z"
/>
<path fill="#97bdff" d="
  M 134.52 93.56
  L 134.49 137.71
  C 134.59 134.37 131.53 134.57 129.16 134.82
  Q 128.92 134.85 128.98 135.08
  Q 129.19 135.82 128.73 136.74
  Q 128.70 136.81 128.70 136.74
  Q 128.67 136.51 128.53 136.38
  Q 128.26 136.13 128.24 136.50
  L 128.13 139.04
  L 128.13 96.04
  L 128.23 95.03
  Q 128.29 94.44 128.89 94.48
  Q 131.61 94.66 134.52 93.56
  Z"
/>
<path fill="#97bdff" d="
  M 102.52 95.91
  L 119.98 95.91
  L 119.99 121.44
  Q 111.73 121.06 103.63 121.39
  C 103.47 121.39 103.28 121.28 103.19 121.16
  Q 103.07 120.98 102.90 121.12
  Q 102.73 121.25 102.50 121.29
  L 102.52 95.91
  Z"
/>
<path fill="#9239ff" d="
  M 207.46 118.03
  Q 209.82 119.97 212.21 119.14
  Q 212.62 119.00 213.04 119.09
  Q 214.33 119.36 215.41 118.03
  L 208.69 196.45
  Q 208.27 197.36 207.49 197.64
  Q 207.01 197.81 206.54 197.64
  Q 205.85 197.39 205.19 197.59
  Q 204.63 197.76 204.63 198.34
  L 204.63 199.27
  Q 204.63 200.04 203.88 199.84
  Q 201.08 199.11 200.28 202.31
  L 207.46 118.03
  Z"
/>
<path fill="#bab5ff" d="
  M 119.99 121.44
  L 119.98 164.66
  L 68.39 164.49
  Q 67.88 164.48 67.48 164.15
  L 66.56 163.39
  L 66.56 150.05
  Q 66.56 149.54 67.04 149.68
  L 102.00 159.39
  Q 102.48 159.52 102.48 159.01
  L 102.50 121.29
  Q 102.73 121.25 102.90 121.12
  Q 103.07 120.98 103.19 121.16
  C 103.28 121.28 103.47 121.39 103.63 121.39
  Q 111.73 121.06 119.99 121.44
  Z"
/>
<path fill="#bab5ff" d="
  M 188.47 128.19
  L 191.29 129.94
  Q 191.67 130.18 192.11 130.10
  L 193.22 129.90
  Q 193.81 129.79 194.13 130.29
  Q 195.10 131.80 195.18 133.46
  L 191.56 171.84
  L 186.87 171.00
  Q 186.48 170.93 186.34 171.30
  Q 185.96 172.33 185.07 173.03
  L 188.47 128.19
  Z"
/>
<path fill="#bab5ff" d="
  M 134.49 137.71
  L 134.61 142.52
  Q 134.62 143.09 135.18 143.01
  L 170.97 137.55
  Q 171.64 137.45 171.61 138.12
  L 170.95 154.51
  Q 170.93 155.10 170.36 155.25
  L 135.88 164.86
  A 1.40 1.40 0.0 0 0 134.85 166.20
  L 134.73 176.09
  L 134.24 174.71
  A 0.50 0.50 0.0 0 0 133.48 174.47
  Q 131.79 175.68 130.17 174.85
  Q 129.85 174.68 129.62 174.95
  L 129.08 175.56
  Q 128.71 175.98 128.54 175.45
  Q 128.29 174.71 128.40 173.89
  Q 128.40 173.86 128.38 173.86
  Q 128.36 173.86 128.35 173.86
  Q 128.30 173.86 128.31 173.91
  Q 128.43 174.63 128.12 175.04
  L 128.13 139.04
  L 128.24 136.50
  Q 128.26 136.13 128.53 136.38
  Q 128.67 136.51 128.70 136.74
  Q 128.70 136.81 128.73 136.74
  Q 129.19 135.82 128.98 135.08
  Q 128.92 134.85 129.16 134.82
  C 131.53 134.57 134.59 134.37 134.49 137.71
  Z"
/>
<path fill="#9239ff" d="
  M 50.74 144.80
  L 55.35 192.44
  L 54.58 193.05
  A 0.42 0.41 -54.8 0 1 54.21 193.12
  Q 53.56 192.93 54.16 192.67
  A 0.29 0.29 0.0 0 0 54.02 192.12
  L 50.53 192.46
  Q 49.97 192.52 49.69 193.01
  Q 49.02 194.18 47.57 194.66
  L 42.70 141.32
  L 43.54 140.80
  Q 43.95 140.55 44.11 141.00
  Q 44.58 142.32 45.74 142.99
  Q 45.75 142.99 46.43 143.62
  Q 47.46 144.56 48.82 143.63
  Q 48.86 143.60 48.90 143.63
  L 49.24 143.96
  A 0.21 0.21 0.0 0 0 49.60 143.81
  Q 49.60 143.64 49.60 143.48
  Q 49.60 143.23 49.68 143.47
  Q 50.03 144.51 50.74 144.80
  Z"
/>
<path fill="#dbadff" d="
  M 66.56 163.39
  L 67.48 164.15
  Q 67.88 164.48 68.39 164.49
  L 119.98 164.66
  L 119.96 185.93
  Q 119.96 186.46 119.46 186.32
  L 67.04 171.63
  Q 66.53 171.48 66.53 170.95
  L 66.56 163.39
  Z"
/>
<path fill="#dbadff" d="
  M 191.56 171.84
  L 188.95 199.45
  Q 188.91 199.89 188.48 200.00
  L 128.87 215.67
  A 0.62 0.62 0.0 0 1 128.09 215.07
  L 128.12 175.04
  Q 128.43 174.63 128.31 173.91
  Q 128.30 173.86 128.35 173.86
  Q 128.36 173.86 128.38 173.86
  Q 128.40 173.86 128.40 173.89
  Q 128.29 174.71 128.54 175.45
  Q 128.71 175.98 129.08 175.56
  L 129.62 174.95
  Q 129.85 174.68 130.17 174.85
  Q 131.79 175.68 133.48 174.47
  A 0.50 0.50 0.0 0 1 134.24 174.71
  L 134.73 176.09
  L 134.87 184.74
  A 1.09 1.09 0.0 0 0 136.23 185.78
  L 184.05 173.79
  Q 184.54 173.67 184.86 173.28
  L 185.07 173.03
  Q 185.96 172.33 186.34 171.30
  Q 186.48 170.93 186.87 171.00
  L 191.56 171.84
  Z"
/>
<path fill="#bc27ff" d="
  M 55.35 192.44
  L 56.52 206.35
  A 1.69 1.67 5.8 0 0 57.74 207.83
  L 126.74 227.28
  A 2.78 2.76 45.2 0 0 128.22 227.29
  L 198.96 207.77
  A 1.14 1.13 -5.0 0 0 199.78 206.80
  L 200.28 202.31
  Q 201.08 199.11 203.88 199.84
  Q 204.63 200.04 204.63 199.27
  L 204.63 198.34
  Q 204.63 197.76 205.19 197.59
  Q 205.85 197.39 206.54 197.64
  Q 207.01 197.81 207.49 197.64
  Q 208.27 197.36 208.69 196.45
  Q 208.04 203.79 207.38 211.15
  C 207.14 213.78 204.25 214.55 201.48 215.31
  Q 164.98 225.41 129.20 235.24
  A 6.47 6.42 -44.6 0 1 125.73 235.23
  L 52.00 214.50
  A 3.91 3.90 -85.0 0 1 49.17 211.12
  L 47.57 194.66
  Q 49.02 194.18 49.69 193.01
  Q 49.97 192.52 50.53 192.46
  L 54.02 192.12
  A 0.29 0.29 0.0 0 1 54.16 192.67
  Q 53.56 192.93 54.21 193.12
  A 0.42 0.41 -54.8 0 0 54.58 193.05
  L 55.35 192.44
  Z"
/>
</svg>
