<?xml version="1.0" encoding="UTF-8" standalone="no"?>
<!DOCTYPE svg PUBLIC "-//W3C//DTD SVG 1.1//EN" "http://www.w3.org/Graphics/SVG/1.1/DTD/svg11.dtd">
<svg xmlns="http://www.w3.org/2000/svg" version="1.1" viewBox="0.00 0.00 96.00 96.00">
<g stroke-width="1.10" fill="none" stroke-linecap="butt">
<path stroke="#11609e" vector-effect="non-scaling-stroke" d="
  M 64.67 27.59
  L 60.23 32.69"
/>
<path stroke="#11609e" vector-effect="non-scaling-stroke" d="
  M 48.01 47.28
  L 40.91 55.23"
/>
<path stroke="#11609e" vector-effect="non-scaling-stroke" d="
  M 28.23 70.49
  L 18.39 81.34"
/>
</g>
<path fill="#105993" d="
  M 64.67 27.59
  L 60.23 32.69
  C 50.72 25.40 47.98 12.02 56.79 2.84
  Q 57.08 2.55 56.98 2.95
  C 56.69 4.16 55.81 5.51 55.69 6.79
  Q 54.48 19.25 64.67 27.59
  Z"
/>
<path fill="#105993" d="
  M 48.01 47.28
  L 40.91 55.23
  C 26.10 42.87 22.72 22.46 36.58 7.84
  Q 36.86 7.55 36.70 7.92
  C 34.24 13.93 33.08 19.84 34.69 26.35
  Q 37.78 38.94 48.01 47.28
  Z"
/>
<path fill="#105993" d="
  M 28.23 70.49
  L 18.39 81.34
  Q 3.34 68.70 0.00 48.79
  L 0.00 38.55
  C 1.88 28.26 6.28 22.91 12.20 15.77
  A 0.13 0.13 0.0 0 1 12.41 15.91
  Q 5.56 31.58 11.61 47.83
  Q 16.54 61.05 28.23 70.49
  Z"
/>
<path fill="#1266a9" d="
  M 64.67 27.59
  Q 72.32 33.73 82.76 32.85
  Q 88.14 32.39 89.79 30.78
  Q 94.82 25.87 90.43 31.36
  C 82.93 40.74 69.06 39.69 60.23 32.69
  L 64.67 27.59
  Z"
/>
<path fill="#1266a9" d="
  M 40.91 55.23
  L 48.01 47.28
  C 62.12 58.59 83.47 60.13 95.52 45.13
  A 0.10 0.10 0.0 0 1 95.69 45.23
  C 92.11 53.62 85.98 59.43 77.10 62.28
  Q 57.57 68.54 40.91 55.23
  Z"
/>
<path fill="#1266a9" d="
  M 18.39 81.34
  L 28.23 70.49
  C 47.15 85.22 76.56 88.20 93.25 68.89
  A 0.07 0.07 0.0 0 1 93.37 68.97
  C 85.85 84.44 72.12 92.94 55.11 93.89
  Q 34.81 95.04 18.39 81.34
  Z"
/>
</svg>
