<?xml version="1.0" encoding="UTF-8" standalone="no"?>
<!DOCTYPE svg PUBLIC "-//W3C//DTD SVG 1.1//EN" "http://www.w3.org/Graphics/SVG/1.1/DTD/svg11.dtd">
<svg xmlns="http://www.w3.org/2000/svg" version="1.1" viewBox="0.00 0.00 225.00 225.00">
<g stroke-width="1.10" fill="none" stroke-linecap="butt">
<path stroke="#e1817f" stroke-opacity="0.996" vector-effect="non-scaling-stroke" d="
  M 65.48 23.77
  Q 51.78 28.63 55.18 42.22"
/>
<path stroke="#e1817f" stroke-opacity="0.996" vector-effect="non-scaling-stroke" d="
  M 73.32 23.87
  Q 74.40 25.94 73.65 26.54
  Q 71.95 27.88 74.11 27.71
  Q 75.15 27.63 76.59 26.74
  Q 77.24 26.34 77.60 27.01
  L 77.73 27.25
  Q 78.02 27.78 77.49 28.07
  Q 76.57 28.57 75.90 29.47
  Q 75.63 29.83 76.07 29.97
  Q 76.82 30.20 77.50 29.81
  Q 79.08 28.92 80.12 29.00"
/>
<path stroke="#e1817f" stroke-opacity="0.996" vector-effect="non-scaling-stroke" d="
  M 80.16 31.27
  Q 78.57 31.31 77.97 32.20
  Q 77.05 33.54 78.67 33.37
  L 82.57 32.94"
/>
<path stroke="#6eaac9" stroke-opacity="0.996" vector-effect="non-scaling-stroke" d="
  M 92.63 75.00
  Q 91.77 77.47 92.13 79.43
  Q 92.89 83.47 92.88 79.36
  Q 92.88 78.84 93.72 76.43
  Q 94.19 75.09 93.81 75.23"
/>
<path stroke="#6eaac9" stroke-opacity="0.996" vector-effect="non-scaling-stroke" d="
  M 149.45 155.85
  Q 149.62 156.50 150.25 156.72
  Q 154.53 158.19 158.60 159.21
  Q 158.71 159.24 158.80 159.17
  Q 158.98 159.04 158.88 158.75
  A 0.34 0.28 7.4 0 0 158.72 158.58
  L 152.15 155.48
  Q 151.60 155.23 151.01 155.13
  L 150.39 155.02"
/>
<path stroke="#6eaac9" stroke-opacity="0.996" vector-effect="non-scaling-stroke" d="
  M 65.56 92.27
  Q 65.39 90.11 64.59 88.32
  Q 64.36 87.82 64.18 88.34
  Q 63.63 89.85 64.42 91.52"
/>
</g>
<path fill="#dde9dd" fill-opacity="0.988" d="
  M 65.48 23.77
  Q 51.78 28.63 55.18 42.22
  Q 50.34 27.74 65.48 23.77
  Z"
/>
<path fill="#e51b23" d="
  M 65.48 23.77
  L 73.32 23.87
  Q 74.40 25.94 73.65 26.54
  Q 71.95 27.88 74.11 27.71
  Q 75.15 27.63 76.59 26.74
  Q 77.24 26.34 77.60 27.01
  L 77.73 27.25
  Q 78.02 27.78 77.49 28.07
  Q 76.57 28.57 75.90 29.47
  Q 75.63 29.83 76.07 29.97
  Q 76.82 30.20 77.50 29.81
  Q 79.08 28.92 80.12 29.00
  Q 81.51 29.36 80.16 31.27
  Q 78.57 31.31 77.97 32.20
  Q 77.05 33.54 78.67 33.37
  L 82.57 32.94
  Q 83.19 35.33 83.11 38.02
  Q 83.03 40.59 81.60 42.74
  Q 77.12 49.45 69.48 50.07
  Q 60.99 50.75 55.18 42.22
  Q 51.78 28.63 65.48 23.77
  Z"
/>
<path fill="#dde9dd" fill-opacity="0.988" d="
  M 73.32 23.87
  Q 76.86 25.43 80.12 29.00
  Q 79.08 28.92 77.50 29.81
  Q 76.82 30.20 76.07 29.97
  Q 75.63 29.83 75.90 29.47
  Q 76.57 28.57 77.49 28.07
  Q 78.02 27.78 77.73 27.25
  L 77.60 27.01
  Q 77.24 26.34 76.59 26.74
  Q 75.15 27.63 74.11 27.71
  Q 71.95 27.88 73.65 26.54
  Q 74.40 25.94 73.32 23.87
  Z"
/>
<path fill="#006bb6" d="
  M 92.63 75.00
  Q 91.77 77.47 92.13 79.43
  Q 92.89 83.47 92.88 79.36
  Q 92.88 78.84 93.72 76.43
  Q 94.19 75.09 93.81 75.23
  Q 97.58 66.51 101.71 61.71
  Q 112.05 49.66 125.63 41.40
  Q 131.45 37.86 137.71 34.25
  A 0.48 0.48 0.0 0 0 137.87 33.56
  Q 137.62 33.19 137.15 33.11
  Q 136.17 32.94 135.26 33.30
  Q 133.25 34.09 131.10 34.01
  C 129.38 33.94 127.81 34.70 126.16 34.40
  Q 125.28 34.24 126.14 34.00
  Q 126.20 33.98 126.26 34.01
  Q 126.50 34.14 126.76 34.07
  Q 134.71 31.96 142.66 32.02
  Q 143.48 32.03 143.49 32.84
  L 143.50 33.27
  Q 143.51 33.95 142.84 33.94
  C 140.85 33.90 138.71 35.53 137.06 36.58
  Q 135.26 37.73 133.27 38.78
  Q 114.14 48.86 102.48 63.36
  Q 96.09 71.32 93.44 81.76
  C 92.85 84.06 92.62 87.86 93.41 90.10
  Q 95.96 97.28 101.06 104.21
  Q 108.45 114.26 117.89 122.13
  Q 139.44 140.11 166.85 150.14
  A 0.24 0.24 0.0 0 1 166.98 150.49
  L 166.82 150.77
  A 0.82 0.82 0.0 0 1 165.89 151.15
  Q 150.08 146.72 133.90 141.15
  A 0.41 0.41 0.0 0 0 133.36 141.57
  C 133.48 143.21 134.30 143.49 135.47 144.25
  Q 151.70 154.82 170.48 161.77
  A 0.41 0.41 0.0 0 1 170.65 162.42
  L 170.40 162.70
  Q 169.77 163.41 168.84 163.18
  Q 157.96 160.45 147.95 157.89
  Q 144.98 157.13 144.60 157.00
  Q 142.94 156.46 141.25 155.98
  Q 122.96 150.73 106.18 142.97
  Q 96.40 138.44 87.00 132.12
  Q 74.40 123.64 67.65 113.35
  Q 62.73 105.83 62.04 96.20
  C 61.74 92.05 62.94 88.25 64.04 84.13
  Q 64.53 82.30 65.02 79.29
  Q 66.96 67.45 75.06 57.64
  Q 81.13 50.31 87.72 44.96
  Q 102.52 32.97 121.95 26.63
  C 123.69 26.07 125.36 26.10 127.02 25.55
  Q 127.99 25.22 129.13 25.08
  Q 133.40 24.57 136.74 24.86
  Q 139.44 25.10 136.96 26.20
  C 132.96 27.97 128.36 29.97 125.00 32.89
  Q 124.58 33.26 124.80 33.77
  Q 124.91 34.02 124.90 34.30
  Q 124.88 34.75 124.46 34.91
  C 122.76 35.56 120.76 35.93 119.23 36.92
  C 107.32 44.55 95.66 56.43 92.65 70.41
  Q 92.21 72.45 92.63 75.00
  Z
  M 64.42 91.52
  Q 62.96 101.17 67.43 109.34
  Q 73.15 119.80 83.89 127.89
  Q 94.61 135.95 108.70 142.14
  Q 127.39 150.35 147.75 155.97
  Q 148.85 156.27 149.45 155.85
  Q 149.62 156.50 150.25 156.72
  Q 154.53 158.19 158.60 159.21
  Q 158.71 159.24 158.80 159.17
  Q 158.98 159.04 158.88 158.75
  A 0.34 0.28 7.4 0 0 158.72 158.58
  L 152.15 155.48
  Q 151.60 155.23 151.01 155.13
  L 150.39 155.02
  Q 149.88 154.32 149.53 154.14
  Q 137.94 148.31 128.32 140.78
  C 124.94 138.14 121.78 137.05 117.97 135.50
  Q 106.94 131.02 97.27 125.44
  Q 92.29 122.57 87.25 119.11
  Q 74.48 110.34 67.34 97.19
  Q 66.68 95.97 65.56 92.27
  Q 65.39 90.11 64.59 88.32
  Q 64.36 87.82 64.18 88.34
  Q 63.63 89.85 64.42 91.52
  Z"
/>
<path fill="#dde9dd" fill-opacity="0.988" d="
  M 80.16 31.27
  L 82.57 32.94
  L 78.67 33.37
  Q 77.05 33.54 77.97 32.20
  Q 78.57 31.31 80.16 31.27
  Z"
/>
<path fill="#dde9dd" fill-opacity="0.988" d="
  M 92.63 75.00
  L 93.81 75.23
  Q 94.19 75.09 93.72 76.43
  Q 92.88 78.84 92.88 79.36
  Q 92.89 83.47 92.13 79.43
  Q 91.77 77.47 92.63 75.00
  Z"
/>
<path fill="#dde9dd" fill-opacity="0.988" d="
  M 65.56 92.27
  Q 65.06 91.42 64.42 91.52
  Q 63.63 89.85 64.18 88.34
  Q 64.36 87.82 64.59 88.32
  Q 65.39 90.11 65.56 92.27
  Z"
/>
<path fill="#dde9dd" fill-opacity="0.988" d="
  M 150.39 155.02
  L 151.01 155.13
  Q 151.60 155.23 152.15 155.48
  L 158.72 158.58
  A 0.34 0.28 7.4 0 1 158.88 158.75
  Q 158.98 159.04 158.80 159.17
  Q 158.71 159.24 158.60 159.21
  Q 154.53 158.19 150.25 156.72
  Q 149.62 156.50 149.45 155.85
  Q 150.04 155.50 150.39 155.02
  Z"
/>
</svg>
