<?xml version="1.0" encoding="UTF-8" standalone="no"?>
<!DOCTYPE svg PUBLIC "-//W3C//DTD SVG 1.1//EN" "http://www.w3.org/Graphics/SVG/1.1/DTD/svg11.dtd">
<svg xmlns="http://www.w3.org/2000/svg" version="1.1" viewBox="0.00 0.00 300.00 184.00">
<g stroke-width="1.10" fill="none" stroke-linecap="butt">
<path stroke="#4c9642" vector-effect="non-scaling-stroke" d="
  M 142.29 60.31
  Q 141.98 60.75 141.31 60.95
  A 0.97 0.95 -83.2 0 0 140.76 61.39
  L 132.61 76.10
  Q 132.26 76.74 131.87 76.12
  Q 129.47 72.24 127.00 68.26
  Q 126.72 67.80 126.24 67.98
  A 0.56 0.56 0.0 0 0 125.88 68.50
  L 125.88 103.49
  Q 125.88 103.91 125.64 104.26
  Q 125.47 104.50 125.49 104.78
  Q 125.53 105.18 125.94 105.38
  Q 126.36 105.58 126.76 105.29
  Q 127.22 104.95 127.41 105.49
  L 127.75 106.43"
/>
<path stroke="#4c9642" vector-effect="non-scaling-stroke" d="
  M 111.76 115.67
  L 102.31 98.57"
/>
<path stroke="#5ead46" vector-effect="non-scaling-stroke" d="
  M 102.31 98.57
  Q 103.49 98.73 103.17 97.01
  C 102.98 95.97 102.19 95.42 102.18 94.00
  Q 102.11 71.90 102.12 49.78
  Q 102.12 49.37 101.83 49.08
  L 101.52 48.77
  Q 101.06 48.31 101.66 48.08
  Q 105.45 46.63 104.08 45.13"
/>
<path stroke="#55a244" vector-effect="non-scaling-stroke" d="
  M 102.31 98.57
  L 90.71 77.69"
/>
<path stroke="#5ead46" vector-effect="non-scaling-stroke" d="
  M 90.71 77.69
  Q 86.55 68.21 79.72 58.80"
/>
<path stroke="#4c9642" vector-effect="non-scaling-stroke" d="
  M 90.71 77.69
  L 80.43 95.12
  Q 80.17 95.55 80.36 96.03
  L 81.28 98.32"
/>
</g>
<path fill="#333333" d="
  M 200.18 0.00
  L 202.22 0.00
  L 219.59 9.71
  A 3.49 3.49 0.0 0 1 221.37 12.75
  L 221.37 95.50
  A 3.20 3.19 75.1 0 1 219.77 98.27
  L 190.80 115.00
  A 3.26 3.26 0.0 0 1 187.54 115.00
  L 158.35 98.13
  A 2.77 2.76 15.1 0 1 156.97 95.74
  L 156.97 62.28
  A 3.50 3.50 0.0 0 1 158.72 59.25
  L 187.46 42.64
  A 3.44 3.42 44.9 0 1 190.89 42.64
  L 198.20 46.84
  A 1.16 1.15 -74.9 0 0 199.93 45.84
  L 200.18 0.00
  Z
  M 199.79 73.03
  A 0.84 0.84 0.0 0 0 199.37 72.31
  L 189.58 66.64
  A 0.84 0.84 0.0 0 0 188.74 66.64
  L 178.92 72.36
  A 0.84 0.84 0.0 0 0 178.50 73.08
  L 178.51 84.45
  A 0.84 0.84 0.0 0 0 178.93 85.17
  L 188.74 90.89
  A 0.84 0.84 0.0 0 0 189.58 90.89
  L 199.37 85.20
  A 0.84 0.84 0.0 0 0 199.79 84.48
  L 199.79 73.03
  Z"
/>
<path fill="#333333" d="
  M 0.00 62.64
  L 0.00 61.43
  C 0.35 60.17 0.72 59.07 1.94 58.36
  Q 16.56 49.89 30.85 41.71
  A 2.95 2.94 44.8 0 1 33.78 41.71
  L 62.84 58.44
  A 3.30 3.29 -75.1 0 1 64.49 61.30
  L 64.53 106.00
  A 1.63 1.62 14.8 0 1 62.10 107.41
  L 44.57 97.40
  A 3.07 3.06 -75.2 0 1 43.03 94.74
  L 43.03 73.43
  A 2.82 2.81 15.4 0 0 41.65 71.01
  L 33.98 66.52
  A 3.25 3.24 45.1 0 0 30.72 66.51
  L 23.17 70.90
  A 3.18 3.16 -15.3 0 0 21.60 73.63
  L 21.61 94.78
  A 3.02 3.02 0.0 0 1 20.09 97.40
  L 2.77 107.30
  A 1.72 1.71 -15.0 0 1 0.20 105.82
  L 0.00 62.64
  Z"
/>
<path fill="#55a144" d="
  M 142.29 60.31
  Q 141.98 60.75 141.31 60.95
  A 0.97 0.95 -83.2 0 0 140.76 61.39
  L 132.61 76.10
  Q 132.26 76.74 131.87 76.12
  Q 129.47 72.24 127.00 68.26
  Q 126.72 67.80 126.24 67.98
  A 0.56 0.56 0.0 0 0 125.88 68.50
  L 125.88 103.49
  Q 125.88 103.91 125.64 104.26
  Q 125.47 104.50 125.49 104.78
  Q 125.53 105.18 125.94 105.38
  Q 126.36 105.58 126.76 105.29
  Q 127.22 104.95 127.41 105.49
  L 127.75 106.43
  L 111.76 115.67
  L 102.31 98.57
  Q 103.49 98.73 103.17 97.01
  C 102.98 95.97 102.19 95.42 102.18 94.00
  Q 102.11 71.90 102.12 49.78
  Q 102.12 49.37 101.83 49.08
  L 101.52 48.77
  Q 101.06 48.31 101.66 48.08
  Q 105.45 46.63 104.08 45.13
  C 106.19 44.01 109.86 40.97 112.37 42.41
  Q 126.78 50.64 141.15 58.93
  C 141.67 59.23 142.01 59.82 142.29 60.31
  Z"
/>
<path fill="#333333" d="
  M 256.78 73.22
  L 256.78 83.42
  A 1.78 1.78 0.0 0 0 257.67 84.96
  L 286.46 101.54
  A 1.78 1.78 0.0 0 1 286.43 104.64
  L 268.42 114.66
  A 1.78 1.78 0.0 0 1 266.67 114.65
  L 236.47 97.44
  A 1.78 1.78 0.0 0 1 235.57 95.90
  L 235.57 60.90
  A 1.78 1.78 0.0 0 1 236.46 59.36
  L 266.92 41.77
  A 1.78 1.78 0.0 0 1 268.70 41.77
  L 298.83 59.24
  A 1.78 1.78 0.0 0 1 299.72 60.78
  L 299.71 70.84
  A 1.78 1.78 0.0 0 1 298.83 72.37
  L 280.96 82.78
  A 1.78 1.78 0.0 0 1 278.29 81.24
  L 278.30 73.19
  A 1.78 1.78 0.0 0 0 277.40 71.65
  L 268.44 66.53
  A 1.78 1.78 0.0 0 0 266.68 66.53
  L 257.68 71.68
  A 1.78 1.78 0.0 0 0 256.78 73.22
  Z"
/>
<path fill="#66b948" d="
  M 104.08 45.13
  Q 105.45 46.63 101.66 48.08
  Q 101.06 48.31 101.52 48.77
  L 101.83 49.08
  Q 102.12 49.37 102.12 49.78
  Q 102.11 71.90 102.18 94.00
  C 102.19 95.42 102.98 95.97 103.17 97.01
  Q 103.49 98.73 102.31 98.57
  L 90.71 77.69
  Q 86.55 68.21 79.72 58.80
  L 104.08 45.13
  Z"
/>
<path fill="#55a144" d="
  M 79.72 58.80
  Q 86.55 68.21 90.71 77.69
  L 80.43 95.12
  Q 80.17 95.55 80.36 96.03
  L 81.28 98.32
  Q 78.85 97.25 78.80 93.49
  Q 78.52 71.23 79.72 58.80
  Z"
/>
<path fill="#438b3f" d="
  M 142.29 60.31
  Q 142.68 60.88 142.68 61.50
  Q 142.68 78.01 142.69 94.53
  C 142.69 95.54 142.91 95.94 143.45 96.72
  Q 143.76 97.18 143.28 97.45
  L 127.75 106.43
  L 127.41 105.49
  Q 127.22 104.95 126.76 105.29
  Q 126.36 105.58 125.94 105.38
  Q 125.53 105.18 125.49 104.78
  Q 125.47 104.50 125.64 104.26
  Q 125.88 103.91 125.88 103.49
  L 125.88 68.50
  A 0.56 0.56 0.0 0 1 126.24 67.98
  Q 126.72 67.80 127.00 68.26
  Q 129.47 72.24 131.87 76.12
  Q 132.26 76.74 132.61 76.10
  L 140.76 61.39
  A 0.97 0.95 -83.2 0 1 141.31 60.95
  Q 141.98 60.75 142.29 60.31
  Z"
/>
<path fill="#55a144" d="
  M 261.54 81.30
  L 261.51 75.17
  A 0.90 0.90 0.0 0 1 261.96 74.39
  L 267.24 71.30
  A 0.90 0.90 0.0 0 1 268.14 71.30
  L 273.40 74.34
  A 0.90 0.90 0.0 0 1 273.85 75.12
  L 273.79 81.35
  A 0.90 0.90 0.0 0 1 273.35 82.12
  L 268.17 85.14
  A 0.90 0.90 0.0 0 1 267.27 85.14
  L 261.99 82.08
  A 0.90 0.90 0.0 0 1 261.54 81.30
  Z"
/>
<path fill="#438b3f" d="
  M 90.71 77.69
  L 102.31 98.57
  L 111.76 115.67
  L 81.28 98.32
  L 80.36 96.03
  Q 80.17 95.55 80.43 95.12
  L 90.71 77.69
  Z"
/>
<path fill="#55a144" d="
  M 147.73 114.73
  L 120.91 130.18
  A 0.98 0.97 75.0 0 0 120.43 131.02
  L 120.42 162.02
  Q 120.42 162.60 120.90 162.92
  C 123.65 164.73 134.65 172.67 134.66 163.75
  Q 134.67 148.61 134.74 133.46
  A 0.63 0.63 0.0 0 1 135.38 132.83
  L 139.19 132.88
  Q 139.74 132.88 139.74 133.44
  Q 139.81 147.91 139.75 162.34
  Q 139.74 167.23 138.87 169.01
  C 134.62 177.79 122.77 169.93 117.98 166.89
  A 5.17 5.16 -73.8 0 1 115.59 162.53
  Q 115.58 146.83 115.58 130.75
  C 115.58 128.25 117.31 126.76 119.53 125.47
  Q 132.39 118.02 145.27 110.59
  Q 148.09 108.97 150.95 110.58
  Q 164.60 118.25 178.16 126.09
  C 180.36 127.37 181.01 129.30 181.02 131.92
  Q 181.04 146.96 181.03 162.00
  Q 181.03 165.66 177.92 167.44
  Q 164.25 175.30 151.37 182.72
  A 5.95 5.94 45.4 0 1 145.39 182.68
  L 135.96 177.11
  A 0.42 0.42 0.0 0 1 136.01 176.37
  L 140.10 174.56
  Q 140.70 174.30 141.25 174.63
  L 147.73 178.54
  Q 148.22 178.83 148.72 178.54
  L 175.69 162.93
  Q 176.09 162.70 176.09 162.23
  L 176.09 131.06
  Q 176.09 130.49 175.59 130.20
  L 148.76 114.73
  Q 148.24 114.43 147.73 114.73
  Z"
/>
<path fill="#55a144" d="
  M 164.68 154.24
  C 166.83 148.91 153.75 148.66 150.26 148.21
  C 140.80 146.97 141.16 134.91 149.94 132.63
  C 157.26 130.73 169.13 131.81 168.98 141.76
  Q 168.97 142.27 168.45 142.28
  L 164.76 142.29
  A 0.78 0.77 84.6 0 1 164.00 141.65
  C 163.06 136.41 157.89 136.47 153.52 136.86
  Q 150.39 137.15 148.77 139.11
  A 1.47 1.46 60.1 0 0 148.45 140.33
  Q 148.91 142.92 152.77 143.39
  Q 161.01 144.41 165.27 145.68
  C 173.42 148.10 170.89 159.05 163.22 161.10
  C 155.71 163.11 142.24 162.59 142.37 151.86
  Q 142.38 151.23 143.01 151.23
  L 146.76 151.22
  A 0.78 0.77 87.6 0 1 147.53 151.93
  Q 147.75 154.97 149.44 155.85
  C 152.33 157.34 162.90 158.67 164.68 154.24
  Z"
/>
</svg>
