<?xml version="1.0" encoding="UTF-8" standalone="no"?>
<!DOCTYPE svg PUBLIC "-//W3C//DTD SVG 1.1//EN" "http://www.w3.org/Graphics/SVG/1.1/DTD/svg11.dtd">
<svg xmlns="http://www.w3.org/2000/svg" version="1.1" viewBox="0.00 0.00 353.00 143.00">
<g stroke-width="1.10" fill="none" stroke-linecap="butt">
<path stroke="#ffb499" vector-effect="non-scaling-stroke" d="
  M 95.85 49.30
  Q 95.18 48.65 95.84 47.99
  L 102.25 41.65
  Q 104.01 39.91 101.63 39.23
  Q 100.01 38.77 98.58 38.66
  Q 94.72 38.38 92.11 41.24
  Q 88.33 45.40 90.16 49.95
  Q 92.96 56.90 100.94 55.48
  A 0.53 0.53 0.0 0 0 101.22 54.58
  L 95.85 49.30"
/>
<path stroke="#ffb499" vector-effect="non-scaling-stroke" d="
  M 106.95 49.07
  A 1.26 1.26 0.0 0 0 107.09 48.20
  L 106.06 43.03
  A 1.26 1.26 0.0 0 0 103.95 42.37
  L 98.43 47.78
  A 1.26 1.26 0.0 0 0 98.45 49.59
  L 102.60 53.53
  A 1.26 1.26 0.0 0 0 104.56 53.24
  L 106.95 49.07"
/>
<path stroke="#ffb499" vector-effect="non-scaling-stroke" d="
  M 83.17 52.99
  C 75.25 57.52 68.12 64.78 61.54 71.32
  Q 61.13 71.72 61.53 72.14
  L 64.85 75.63
  Q 65.20 76.00 65.57 75.64
  Q 76.80 64.69 86.48 54.94
  C 87.19 54.23 87.98 53.92 88.81 53.42
  A 0.41 0.41 0.0 0 0 88.77 52.70
  Q 85.95 51.41 83.17 52.99"
/>
<path stroke="#ffb499" vector-effect="non-scaling-stroke" d="
  M 88.07 55.79
  L 66.78 76.61
  Q 66.32 77.05 66.78 77.50
  L 68.41 79.08
  A 0.85 0.84 -42.9 0 0 69.55 79.12
  L 92.19 59.48
  A 2.22 2.21 -29.9 0 0 92.84 57.09
  Q 92.41 55.82 91.24 55.26
  Q 89.47 54.41 88.07 55.79"
/>
<path stroke="#ffb499" vector-effect="non-scaling-stroke" d="
  M 89.54 67.86
  C 90.81 66.18 91.93 64.03 92.76 62.10
  Q 93.29 60.85 92.27 61.74
  L 70.59 80.72
  Q 70.40 80.89 70.58 81.07
  L 73.72 84.23
  Q 73.92 84.43 74.13 84.25
  Q 82.87 76.65 89.54 67.86"
/>
<path stroke="#ffb499" vector-effect="non-scaling-stroke" d="
  M 62.76 76.68
  A 0.32 0.32 0.0 0 0 62.91 76.14
  L 60.02 73.32
  A 0.32 0.32 0.0 0 0 59.58 73.32
  L 54.94 77.83
  A 0.32 0.32 0.0 0 0 55.24 78.37
  L 62.76 76.68"
/>
<path stroke="#ffb499" vector-effect="non-scaling-stroke" d="
  M 66.71 80.82
  A 0.39 0.39 0.0 0 0 66.92 80.17
  L 65.52 78.76
  A 0.39 0.39 0.0 0 0 64.97 78.75
  L 62.89 80.81
  A 0.39 0.39 0.0 0 0 63.23 81.47
  L 66.71 80.82"
/>
<path stroke="#ffb499" vector-effect="non-scaling-stroke" d="
  M 42.17 101.62
  A 0.45 0.45 0.0 0 0 42.16 102.25
  L 47.13 107.41
  A 0.37 0.37 0.0 0 0 47.77 107.21
  C 48.16 104.76 45.35 102.65 48.69 101.04
  Q 60.74 95.22 71.95 86.10
  Q 72.43 85.71 71.97 85.30
  L 69.22 82.84
  Q 68.75 82.42 68.12 82.52
  L 60.52 83.76
  A 2.72 2.70 -71.9 0 0 59.04 84.52
  L 42.17 101.62"
/>
<path stroke="#ffb499" vector-effect="non-scaling-stroke" d="
  M 36.51 107.13
  A 0.34 0.34 0.0 0 0 36.74 107.71
  L 45.08 108.06
  A 0.34 0.34 0.0 0 0 45.31 107.46
  L 40.70 103.42
  A 0.34 0.34 0.0 0 0 40.23 103.43
  L 36.51 107.13"
/>
<path stroke="#ffb499" vector-effect="non-scaling-stroke" d="
  M 104.1354 49.8961
  A 2.08 0.73 98.7 0 0 105.1716 47.9504
  A 2.08 0.73 98.7 0 0 104.7646 45.7839
  A 2.08 0.73 98.7 0 0 103.7284 47.7296
  A 2.08 0.73 98.7 0 0 104.1354 49.8961"
/>
</g>
<path fill="#ff6b37" d="
  M 109.99 30.49
  Q 121.66 40.67 126.84 53.69
  Q 127.90 56.36 128.41 59.14
  C 128.85 61.49 129.90 63.71 129.93 66.07
  Q 130.03 73.05 130.03 81.04
  Q 130.03 84.58 129.07 87.84
  C 128.14 91.04 127.84 94.20 126.49 97.35
  Q 123.04 105.33 118.66 110.57
  Q 116.48 113.18 113.98 115.95
  C 107.20 123.45 96.46 129.10 87.44 131.70
  Q 77.53 134.55 68.93 133.91
  Q 49.03 132.42 34.11 120.37
  Q 19.33 108.44 14.26 88.79
  Q 13.72 86.68 13.17 79.26
  Q 11.20 52.59 30.11 33.61
  Q 42.87 20.80 60.42 17.53
  C 63.64 16.93 66.98 17.07 70.27 16.68
  Q 72.13 16.46 74.22 16.55
  Q 85.15 17.00 95.26 21.21
  Q 103.09 24.48 109.99 30.49
  Z
  M 95.85 49.30
  Q 95.18 48.65 95.84 47.99
  L 102.25 41.65
  Q 104.01 39.91 101.63 39.23
  Q 100.01 38.77 98.58 38.66
  Q 94.72 38.38 92.11 41.24
  Q 88.33 45.40 90.16 49.95
  Q 92.96 56.90 100.94 55.48
  A 0.53 0.53 0.0 0 0 101.22 54.58
  L 95.85 49.30
  Z
  M 106.95 49.07
  A 1.26 1.26 0.0 0 0 107.09 48.20
  L 106.06 43.03
  A 1.26 1.26 0.0 0 0 103.95 42.37
  L 98.43 47.78
  A 1.26 1.26 0.0 0 0 98.45 49.59
  L 102.60 53.53
  A 1.26 1.26 0.0 0 0 104.56 53.24
  L 106.95 49.07
  Z
  M 83.17 52.99
  C 75.25 57.52 68.12 64.78 61.54 71.32
  Q 61.13 71.72 61.53 72.14
  L 64.85 75.63
  Q 65.20 76.00 65.57 75.64
  Q 76.80 64.69 86.48 54.94
  C 87.19 54.23 87.98 53.92 88.81 53.42
  A 0.41 0.41 0.0 0 0 88.77 52.70
  Q 85.95 51.41 83.17 52.99
  Z
  M 88.07 55.79
  L 66.78 76.61
  Q 66.32 77.05 66.78 77.50
  L 68.41 79.08
  A 0.85 0.84 -42.9 0 0 69.55 79.12
  L 92.19 59.48
  A 2.22 2.21 -29.9 0 0 92.84 57.09
  Q 92.41 55.82 91.24 55.26
  Q 89.47 54.41 88.07 55.79
  Z
  M 89.54 67.86
  C 90.81 66.18 91.93 64.03 92.76 62.10
  Q 93.29 60.85 92.27 61.74
  L 70.59 80.72
  Q 70.40 80.89 70.58 81.07
  L 73.72 84.23
  Q 73.92 84.43 74.13 84.25
  Q 82.87 76.65 89.54 67.86
  Z
  M 62.76 76.68
  A 0.32 0.32 0.0 0 0 62.91 76.14
  L 60.02 73.32
  A 0.32 0.32 0.0 0 0 59.58 73.32
  L 54.94 77.83
  A 0.32 0.32 0.0 0 0 55.24 78.37
  L 62.76 76.68
  Z
  M 66.71 80.82
  A 0.39 0.39 0.0 0 0 66.92 80.17
  L 65.52 78.76
  A 0.39 0.39 0.0 0 0 64.97 78.75
  L 62.89 80.81
  A 0.39 0.39 0.0 0 0 63.23 81.47
  L 66.71 80.82
  Z
  M 42.17 101.62
  A 0.45 0.45 0.0 0 0 42.16 102.25
  L 47.13 107.41
  A 0.37 0.37 0.0 0 0 47.77 107.21
  C 48.16 104.76 45.35 102.65 48.69 101.04
  Q 60.74 95.22 71.95 86.10
  Q 72.43 85.71 71.97 85.30
  L 69.22 82.84
  Q 68.75 82.42 68.12 82.52
  L 60.52 83.76
  A 2.72 2.70 -71.9 0 0 59.04 84.52
  L 42.17 101.62
  Z
  M 36.51 107.13
  A 0.34 0.34 0.0 0 0 36.74 107.71
  L 45.08 108.06
  A 0.34 0.34 0.0 0 0 45.31 107.46
  L 40.70 103.42
  A 0.34 0.34 0.0 0 0 40.23 103.43
  L 36.51 107.13
  Z"
/>
<path fill="#fffdfb" d="
  M 95.85 49.30
  L 101.22 54.58
  A 0.53 0.53 0.0 0 1 100.94 55.48
  Q 92.96 56.90 90.16 49.95
  Q 88.33 45.40 92.11 41.24
  Q 94.72 38.38 98.58 38.66
  Q 100.01 38.77 101.63 39.23
  Q 104.01 39.91 102.25 41.65
  L 95.84 47.99
  Q 95.18 48.65 95.85 49.30
  Z"
/>
<path fill="#fffdfb" d="
  M 106.95 49.07
  L 104.56 53.24
  A 1.26 1.26 0.0 0 1 102.60 53.53
  L 98.45 49.59
  A 1.26 1.26 0.0 0 1 98.43 47.78
  L 103.95 42.37
  A 1.26 1.26 0.0 0 1 106.06 43.03
  L 107.09 48.20
  A 1.26 1.26 0.0 0 1 106.95 49.07
  Z
  M 104.1354 49.8961
  A 2.08 0.73 98.7 0 0 105.1716 47.9504
  A 2.08 0.73 98.7 0 0 104.7646 45.7839
  A 2.08 0.73 98.7 0 0 103.7284 47.7296
  A 2.08 0.73 98.7 0 0 104.1354 49.8961
  Z"
/>
<ellipse fill="#ff6b37" cx="0.00" cy="0.00" transform="translate(104.45,47.84) rotate(98.7)" rx="2.08" ry="0.73"/>
<path fill="#fffdfb" d="
  M 83.17 52.99
  Q 85.95 51.41 88.77 52.70
  A 0.41 0.41 0.0 0 1 88.81 53.42
  C 87.98 53.92 87.19 54.23 86.48 54.94
  Q 76.80 64.69 65.57 75.64
  Q 65.20 76.00 64.85 75.63
  L 61.53 72.14
  Q 61.13 71.72 61.54 71.32
  C 68.12 64.78 75.25 57.52 83.17 52.99
  Z"
/>
<path fill="#fffdfb" d="
  M 66.78 76.61
  L 88.07 55.79
  Q 89.47 54.41 91.24 55.26
  Q 92.41 55.82 92.84 57.09
  A 2.22 2.21 -29.9 0 1 92.19 59.48
  L 69.55 79.12
  A 0.85 0.84 -42.9 0 1 68.41 79.08
  L 66.78 77.50
  Q 66.32 77.05 66.78 76.61
  Z"
/>
<path fill="#c6c5c8" d="
  M 275.74 67.47
  Q 274.73 74.46 270.42 80.48
  Q 270.11 80.91 269.82 80.46
  Q 266.11 74.74 264.56 68.99
  Q 264.32 68.09 263.40 68.27
  L 263.01 68.35
  A 0.66 0.66 0.0 0 0 262.48 69.07
  Q 263.53 78.78 262.90 89.03
  Q 262.83 90.20 261.71 89.84
  L 260.31 89.40
  A 1.02 1.01 -82.1 0 1 259.62 88.48
  Q 259.12 75.10 259.98 61.56
  A 0.53 0.52 84.4 0 1 260.35 61.10
  C 261.68 60.72 262.95 60.88 263.63 62.23
  Q 266.77 68.52 269.74 74.81
  Q 270.04 75.45 270.37 74.83
  Q 273.93 68.24 277.20 61.83
  Q 277.89 60.47 279.36 60.75
  A 1.65 1.64 4.4 0 1 280.69 62.30
  Q 281.17 75.79 280.77 87.71
  Q 280.72 89.13 279.37 89.58
  Q 279.10 89.67 278.82 89.59
  Q 277.02 89.10 277.02 87.24
  Q 277.01 81.00 276.99 74.58
  Q 276.98 73.00 277.39 71.43
  Q 277.89 69.52 276.11 67.36
  Q 275.81 67.00 275.74 67.47
  Z"
/>
<path fill="#c6c5c8" d="
  M 149.98 78.45
  Q 150.02 82.97 150.03 87.59
  Q 150.04 89.25 148.43 90.01
  Q 148.27 90.09 148.11 90.03
  A 1.73 1.71 -79.2 0 1 147.02 88.41
  Q 147.10 76.80 147.08 61.47
  A 0.45 0.44 -0.0 0 1 147.53 61.03
  Q 152.05 61.02 156.11 60.97
  C 161.59 60.91 164.75 65.97 163.88 70.98
  Q 163.18 75.06 159.32 77.09
  Q 157.63 77.98 155.60 77.65
  Q 153.04 77.23 150.48 77.81
  Q 149.97 77.92 149.98 78.45
  Z
  M 149.91 65.24
  L 149.99 74.88
  A 1.94 1.94 0.0 0 0 151.95 76.80
  L 154.75 76.78
  A 6.54 6.30 89.5 0 0 160.99 70.18
  L 160.99 69.74
  A 6.54 6.30 89.5 0 0 154.63 63.26
  L 151.83 63.28
  A 1.94 1.94 0.0 0 0 149.91 65.24
  Z"
/>
<path fill="#c6c5c8" d="
  M 192.0339 82.0806
  A 7.33 7.33 0.0 0 1 184.7296 89.4361
  L 182.5696 89.4437
  A 7.33 7.33 0.0 0 1 175.2140 82.1393
  L 175.1661 68.3994
  A 7.33 7.33 0.0 0 1 182.4704 61.0439
  L 184.6304 61.0363
  A 7.33 7.33 0.0 0 1 191.9860 68.3407
  L 192.0339 82.0806
  Z
  M 189.0952 68.7025
  A 4.82 4.82 0.0 0 0 184.3515 63.8074
  L 183.5916 63.7955
  A 4.82 4.82 0.0 0 0 178.6965 68.5392
  L 178.4848 82.0175
  A 4.82 4.82 0.0 0 0 183.2285 86.9126
  L 183.9884 86.9245
  A 4.82 4.82 0.0 0 0 188.8835 82.1808
  L 189.0952 68.7025
  Z"
/>
<path fill="#c6c5c8" d="
  M 206.79 84.38
  Q 208.93 88.64 213.05 87.59
  Q 218.26 86.27 217.37 80.62
  Q 216.96 78.01 214.18 76.98
  Q 211.25 75.89 208.51 74.70
  C 206.77 73.94 205.29 72.56 204.73 70.67
  Q 202.74 64.03 209.46 61.33
  Q 211.50 60.51 216.47 61.18
  Q 218.07 61.40 219.18 62.73
  Q 219.40 62.98 219.52 63.33
  A 0.83 0.83 0.0 0 1 218.61 64.42
  Q 214.38 63.81 210.67 64.02
  Q 208.69 64.13 208.10 66.25
  Q 206.83 70.89 211.46 72.41
  C 215.02 73.57 218.56 74.57 220.09 78.43
  Q 221.23 81.33 220.18 84.09
  Q 217.61 90.79 209.12 89.70
  Q 207.04 89.43 205.69 88.13
  Q 205.21 87.67 204.87 87.10
  Q 203.32 84.55 204.81 83.75
  A 1.45 1.45 0.0 0 1 206.79 84.38
  Z"
/>
<path fill="#c6c5c8" d="
  M 241.43 64.50
  Q 241.78 75.33 241.61 84.51
  Q 241.56 86.85 240.79 89.42
  Q 240.65 89.90 240.17 90.03
  Q 238.58 90.48 238.89 92.33
  A 0.01 0.00 39.8 0 1 238.88 92.33
  C 238.54 90.98 238.01 89.89 238.00 88.47
  Q 237.95 76.44 238.02 64.72
  Q 238.02 63.75 237.05 63.71
  L 231.28 63.42
  Q 230.65 63.39 230.50 62.77
  Q 230.37 62.23 230.71 61.84
  Q 231.02 61.48 231.49 61.44
  Q 239.44 60.73 247.31 61.26
  Q 248.22 61.32 248.30 62.23
  Q 248.32 62.43 248.29 62.63
  A 1.23 1.23 0.0 0 1 247.11 63.69
  L 242.04 63.86
  Q 241.41 63.88 241.43 64.50
  Z"
/>
<path fill="#c6c5c8" d="
  M 296.62 83.70
  Q 295.64 86.20 295.33 88.73
  Q 295.15 90.21 293.72 89.77
  L 293.18 89.61
  Q 291.65 89.14 292.12 87.62
  Q 292.63 85.96 293.01 84.10
  Q 293.38 82.27 294.01 80.43
  Q 297.06 71.50 299.52 62.59
  A 2.22 2.21 -88.9 0 1 301.15 61.02
  C 302.56 60.70 303.58 61.17 304.04 62.57
  Q 306.73 70.66 308.80 78.03
  C 309.65 81.05 311.04 83.82 311.78 86.80
  Q 312.07 87.97 311.96 89.31
  Q 311.90 89.97 311.32 89.65
  Q 310.64 89.27 309.86 89.28
  Q 309.26 89.29 308.99 88.74
  Q 308.03 86.78 307.95 84.82
  A 2.20 2.19 5.1 0 0 306.21 82.75
  C 303.21 82.10 300.16 81.79 297.26 83.03
  Q 296.80 83.23 296.62 83.70
  Z
  M 303.85 81.11
  L 305.48 80.44
  Q 306.28 80.11 306.03 79.27
  L 303.09 69.29
  A 1.34 1.27 -46.4 0 1 303.09 68.58
  Q 303.62 66.80 302.32 66.19
  A 0.99 0.99 0.0 0 0 300.91 67.16
  Q 301.00 68.31 300.72 69.40
  Q 299.41 74.35 297.85 79.47
  A 1.72 1.71 18.5 0 0 298.91 81.58
  Q 300.94 82.32 303.34 81.63
  Q 303.50 81.58 303.55 81.44
  Q 303.62 81.20 303.85 81.11
  Z"
/>
<path fill="#c6c5c8" d="
  M 337.95 82.89
  Q 337.91 80.26 337.95 77.59
  C 337.97 76.43 337.09 75.73 337.06 74.68
  Q 336.89 68.23 337.16 62.33
  A 1.38 1.38 0.0 0 1 338.53 61.01
  L 339.14 61.00
  A 1.88 1.87 89.9 0 1 341.03 62.89
  L 340.95 88.20
  A 1.20 1.20 0.0 0 1 340.47 89.16
  C 339.28 90.05 337.62 89.75 336.94 88.34
  C 333.91 81.98 330.17 75.98 327.96 69.20
  A 0.51 0.51 0.0 0 0 327.02 69.13
  Q 326.69 69.77 326.73 70.49
  Q 327.18 79.92 326.96 88.46
  Q 326.92 89.67 325.74 89.46
  L 324.66 89.27
  Q 323.34 89.04 323.28 87.70
  Q 322.70 74.40 323.25 61.91
  A 0.90 0.89 -8.3 0 1 323.85 61.11
  C 326.29 60.27 327.76 63.11 328.51 64.92
  Q 329.27 66.78 330.22 68.40
  Q 333.17 73.44 335.17 78.91
  C 335.77 80.56 336.91 81.40 337.54 82.97
  Q 337.96 84.04 337.95 82.89
  Z"
/>
<path fill="#fffdfb" d="
  M 92.76 62.10
  C 91.93 64.03 90.81 66.18 89.54 67.86
  Q 82.87 76.65 74.13 84.25
  Q 73.92 84.43 73.72 84.23
  L 70.58 81.07
  Q 70.40 80.89 70.59 80.72
  L 92.27 61.74
  Q 93.29 60.85 92.76 62.10
  Z"
/>
<path fill="#fffdfb" d="
  M 62.76 76.68
  L 55.24 78.37
  A 0.32 0.32 0.0 0 1 54.94 77.83
  L 59.58 73.32
  A 0.32 0.32 0.0 0 1 60.02 73.32
  L 62.91 76.14
  A 0.32 0.32 0.0 0 1 62.76 76.68
  Z"
/>
<path fill="#fffdfb" d="
  M 66.71 80.82
  L 63.23 81.47
  A 0.39 0.39 0.0 0 1 62.89 80.81
  L 64.97 78.75
  A 0.39 0.39 0.0 0 1 65.52 78.76
  L 66.92 80.17
  A 0.39 0.39 0.0 0 1 66.71 80.82
  Z"
/>
<path fill="#fffdfb" d="
  M 42.17 101.62
  L 59.04 84.52
  A 2.72 2.70 -71.9 0 1 60.52 83.76
  L 68.12 82.52
  Q 68.75 82.42 69.22 82.84
  L 71.97 85.30
  Q 72.43 85.71 71.95 86.10
  Q 60.74 95.22 48.69 101.04
  C 45.35 102.65 48.16 104.76 47.77 107.21
  A 0.37 0.37 0.0 0 1 47.13 107.41
  L 42.16 102.25
  A 0.45 0.45 0.0 0 1 42.17 101.62
  Z"
/>
<path fill="#fffdfb" d="
  M 36.51 107.13
  L 40.23 103.43
  A 0.34 0.34 0.0 0 1 40.70 103.42
  L 45.31 107.46
  A 0.34 0.34 0.0 0 1 45.08 108.06
  L 36.74 107.71
  A 0.34 0.34 0.0 0 1 36.51 107.13
  Z"
/>
</svg>
