<?xml version="1.0" encoding="UTF-8" standalone="no"?>
<!DOCTYPE svg PUBLIC "-//W3C//DTD SVG 1.1//EN" "http://www.w3.org/Graphics/SVG/1.1/DTD/svg11.dtd">
<svg xmlns="http://www.w3.org/2000/svg" version="1.1" viewBox="0.00 0.00 168.00 150.00">
<path fill="#00d8ff" d="
  M 118.12 0.00
  L 120.80 0.00
  C 139.72 5.18 135.39 32.48 132.72 46.30
  Q 132.62 46.83 133.15 46.98
  Q 146.63 50.73 158.36 59.36
  Q 166.29 65.21 168.00 74.09
  L 168.00 76.48
  C 165.12 91.21 146.00 98.75 133.38 103.09
  Q 132.85 103.27 132.97 103.82
  C 135.65 116.06 137.86 134.24 130.00 144.45
  C 119.01 158.70 94.27 141.37 84.80 131.70
  Q 84.40 131.30 83.99 131.68
  C 74.81 140.14 63.68 148.22 50.88 150.00
  L 48.72 150.00
  C 27.84 147.08 32.38 117.40 35.22 103.61
  A 0.58 0.57 13.3 0 0 34.80 102.94
  C 22.09 99.73 2.72 90.75 0.00 76.41
  L 0.00 72.23
  C 4.26 58.68 22.12 50.52 34.62 47.03
  Q 35.12 46.89 35.01 46.38
  C 32.34 34.09 28.21 2.94 46.98 0.42
  Q 51.46 -0.18 57.20 1.71
  C 67.93 5.24 75.08 11.11 83.58 18.19
  A 0.61 0.59 -47.2 0 0 84.38 18.15
  C 93.20 9.43 105.40 0.83 118.12 0.00
  Z
  M 45.29 9.12
  C 37.45 14.85 40.43 36.25 42.53 44.23
  Q 42.65 44.71 43.14 44.59
  Q 53.42 42.12 63.97 41.13
  A 0.85 0.84 14.1 0 0 64.58 40.77
  Q 70.64 31.99 78.06 24.33
  Q 78.44 23.95 78.05 23.57
  Q 67.36 13.12 55.99 8.70
  C 53.63 7.79 47.72 7.35 45.29 9.12
  Z
  M 125.49 44.24
  C 127.72 37.93 130.30 9.40 120.49 8.07
  C 109.86 6.62 97.32 16.36 89.79 23.48
  Q 89.37 23.88 89.77 24.29
  Q 97.17 31.94 103.30 40.66
  Q 103.61 41.10 104.15 41.15
  Q 114.60 42.13 124.80 44.61
  Q 125.31 44.74 125.49 44.24
  Z
  M 74.96 40.07
  L 92.81 40.06
  Q 93.37 40.06 93.01 39.64
  L 84.39 29.64
  Q 83.89 29.05 83.39 29.64
  L 74.79 39.70
  A 0.23 0.22 -69.9 0 0 74.96 40.07
  Z
  M 69.08 101.74
  C 78.77 102.73 88.58 102.43 98.90 101.81
  Q 99.47 101.77 99.79 101.30
  Q 108.30 89.05 114.58 75.51
  A 1.24 1.24 0.0 0 0 114.58 74.47
  Q 108.26 60.93 99.72 48.69
  A 1.08 1.07 -14.4 0 0 98.95 48.24
  Q 83.95 46.85 68.94 48.25
  Q 68.40 48.30 68.09 48.75
  Q 59.83 61.12 53.39 74.54
  Q 53.17 75.00 53.39 75.46
  Q 59.68 88.99 68.22 101.23
  Q 68.53 101.69 69.08 101.74
  Z
  M 44.48 51.96
  A 0.13 0.13 0.0 0 0 44.38 52.13
  L 48.78 65.01
  Q 49.00 65.65 49.34 65.07
  L 58.06 50.07
  Q 58.40 49.49 57.73 49.61
  L 44.48 51.96
  Z
  M 123.40 52.33
  A 0.32 0.32 0.0 0 0 123.15 51.92
  L 110.17 49.61
  A 0.32 0.32 0.0 0 0 109.84 50.09
  L 118.58 65.02
  A 0.32 0.32 0.0 0 0 119.16 64.96
  L 123.40 52.33
  Z
  M 36.86 95.94
  Q 37.17 96.04 37.26 95.72
  Q 40.10 85.53 44.43 75.86
  Q 44.64 75.40 44.46 74.92
  L 36.99 54.72
  Q 36.85 54.35 36.48 54.47
  C 27.02 57.47 17.84 61.37 10.63 68.61
  C -2.08 81.35 29.16 93.45 36.86 95.94
  Z
  M 123.58 75.38
  L 130.93 95.25
  Q 131.07 95.62 131.45 95.52
  C 140.40 93.25 152.75 87.68 158.38 80.00
  C 167.52 67.54 138.83 56.60 131.27 54.54
  Q 130.95 54.45 130.83 54.77
  L 123.58 74.56
  Q 123.43 74.97 123.58 75.38
  Z
  M 57.89 100.73
  A 0.35 0.35 0.0 0 0 58.26 100.21
  L 49.39 84.91
  A 0.35 0.35 0.0 0 0 48.76 84.98
  L 44.49 97.67
  A 0.35 0.35 0.0 0 0 44.75 98.13
  L 57.89 100.73
  Z
  M 119.21 85.07
  A 0.34 0.34 0.0 0 0 118.59 85.01
  L 109.77 100.23
  A 0.34 0.34 0.0 0 0 110.13 100.74
  L 123.27 98.19
  A 0.34 0.34 0.0 0 0 123.53 97.74
  L 119.21 85.07
  Z
  M 63.94 109.11
  L 43.01 105.61
  Q 42.63 105.55 42.54 105.92
  C 40.78 113.38 37.00 137.89 46.90 141.87
  Q 49.44 142.90 53.60 141.78
  C 63.07 139.24 71.10 133.34 78.12 126.77
  Q 78.51 126.40 78.17 125.99
  L 64.38 109.36
  A 0.70 0.69 -15.0 0 0 63.94 109.11
  Z
  M 124.79 105.40
  C 117.96 107.10 111.26 107.56 104.47 108.89
  Q 103.94 109.00 103.60 109.41
  L 89.90 126.03
  A 0.50 0.50 0.0 0 0 89.94 126.71
  C 96.20 132.52 108.75 142.19 117.57 142.32
  C 131.95 142.54 127.59 113.54 125.40 105.75
  Q 125.27 105.28 124.79 105.40
  Z
  M 83.80 120.65
  A 0.33 0.33 0.0 0 0 84.30 120.65
  L 93.00 110.47
  A 0.33 0.33 0.0 0 0 92.75 109.93
  L 75.27 109.94
  A 0.33 0.33 0.0 0 0 75.02 110.49
  L 83.80 120.65
  Z"
/>
<circle fill="#00d8ff" cx="83.93" cy="74.95" r="15.62"/>
</svg>
