<?xml version="1.0" encoding="UTF-8" standalone="no"?>
<!DOCTYPE svg PUBLIC "-//W3C//DTD SVG 1.1//EN" "http://www.w3.org/Graphics/SVG/1.1/DTD/svg11.dtd">
<svg xmlns="http://www.w3.org/2000/svg" version="1.1" viewBox="0.00 0.00 225.00 225.00">
<g stroke-width="1.10" fill="none" stroke-linecap="butt">
<path stroke="#7f7f7f" vector-effect="non-scaling-stroke" d="
  M 51.54 54.31
  Q 50.98 56.06 50.98 58.34
  Q 51.08 123.66 51.01 187.32
  Q 51.01 191.04 51.19 194.86
  A 2.29 2.29 0.0 0 0 53.48 197.03
  L 171.00 197.08
  Q 174.22 197.08 174.22 193.91
  Q 174.10 112.24 174.20 38.35
  Q 174.20 34.61 174.01 30.55
  A 1.92 1.91 88.7 0 0 172.11 28.73
  Q 122.68 28.58 78.74 28.71
  Q 76.40 28.71 74.73 30.38
  Q 64.20 40.85 52.60 52.57
  A 4.34 4.31 76.6 0 0 51.54 54.31"
/>
<path stroke="#7f7f7f" vector-effect="non-scaling-stroke" d="
  M 79.18 57.20
  Q 78.41 57.58 77.55 57.58
  Q 66.80 57.57 56.93 57.52
  Q 56.37 57.52 56.36 58.08
  Q 56.22 64.58 56.23 70.75
  Q 56.32 124.58 56.20 178.47
  Q 56.19 184.73 56.40 191.06
  A 0.64 0.64 0.0 0 0 57.02 191.68
  Q 60.95 191.85 64.85 191.87
  Q 98.84 192.09 137.55 191.81
  C 147.74 191.73 157.88 192.19 168.17 191.81
  Q 168.97 191.79 168.98 190.99
  L 169.00 34.70
  Q 169.00 33.64 167.94 33.65
  L 81.00 33.75
  Q 80.25 33.75 80.25 34.50
  L 80.24 55.52
  A 1.89 1.88 77.3 0 1 79.18 57.20"
/>
<path stroke="#7f7f7f" vector-effect="non-scaling-stroke" d="
  M 75.02 38.47
  A 0.41 0.41 0.0 0 0 74.32 38.18
  L 60.46 52.04
  A 0.41 0.41 0.0 0 0 60.75 52.74
  L 74.57 52.70
  A 0.41 0.41 0.0 0 0 74.98 52.29
  L 75.02 38.47"
/>
<path stroke="#7f7f7f" vector-effect="non-scaling-stroke" d="
  M 143.99 59.17
  A 12.17 12.17 0.0 0 0 131.82 47.00
  A 12.17 12.17 0.0 0 0 119.65 59.17
  A 12.17 12.17 0.0 0 0 131.82 71.34
  A 12.17 12.17 0.0 0 0 143.99 59.17"
/>
<path stroke="#7f7f7f" vector-effect="non-scaling-stroke" d="
  M 137.67 73.38
  C 135.26 79.03 129.08 79.28 126.29 73.91
  C 125.53 72.46 124.10 71.24 122.34 72.02
  Q 109.67 77.66 108.90 91.02
  C 108.79 92.85 110.67 93.82 112.25 93.82
  Q 130.16 93.85 149.51 93.81
  C 151.43 93.80 154.66 94.05 154.57 91.17
  Q 154.12 77.56 141.29 72.09
  C 139.88 71.49 138.33 71.84 137.67 73.38"
/>
<path stroke="#7f7f7f" vector-effect="non-scaling-stroke" d="
  M 158.44 115.16
  A 2.40 2.40 0.0 0 0 156.04 112.76
  L 69.14 112.76
  A 2.40 2.40 0.0 0 0 66.74 115.16
  L 66.74 115.22
  A 2.40 2.40 0.0 0 0 69.14 117.62
  L 156.04 117.62
  A 2.40 2.40 0.0 0 0 158.44 115.22
  L 158.44 115.16"
/>
<path stroke="#7f7f7f" vector-effect="non-scaling-stroke" d="
  M 158.43 134.39
  A 2.54 2.54 0.0 0 0 155.89 131.85
  L 69.39 131.85
  A 2.54 2.54 0.0 0 0 66.85 134.39
  L 66.85 134.45
  A 2.54 2.54 0.0 0 0 69.39 136.99
  L 155.89 136.99
  A 2.54 2.54 0.0 0 0 158.43 134.45
  L 158.43 134.39"
/>
<path stroke="#7f7f7f" vector-effect="non-scaling-stroke" d="
  M 158.32 153.56
  A 2.56 2.56 0.0 0 0 155.76 151.00
  L 69.36 151.00
  A 2.56 2.56 0.0 0 0 66.80 153.56
  L 66.80 153.62
  A 2.56 2.56 0.0 0 0 69.36 156.18
  L 155.76 156.18
  A 2.56 2.56 0.0 0 0 158.32 153.62
  L 158.32 153.56"
/>
<path stroke="#7f7f7f" vector-effect="non-scaling-stroke" d="
  M 116.1200 172.7531
  A 2.40 2.40 0.0 0 0 113.7242 170.3489
  L 69.1643 170.2711
  A 2.40 2.40 0.0 0 0 66.7601 172.6669
  L 66.7600 172.7469
  A 2.40 2.40 0.0 0 0 69.1558 175.1511
  L 113.7157 175.2289
  A 2.40 2.40 0.0 0 0 116.1199 172.8331
  L 116.1200 172.7531"
/>
<path stroke="#7f7f7f" vector-effect="non-scaling-stroke" d="
  M 138.83 59.15
  A 6.98 6.98 0.0 0 0 131.85 52.17
  A 6.98 6.98 0.0 0 0 124.87 59.15
  A 6.98 6.98 0.0 0 0 131.85 66.13
  A 6.98 6.98 0.0 0 0 138.83 59.15"
/>
<path stroke="#7f7f7f" vector-effect="non-scaling-stroke" d="
  M 114.50 87.79
  Q 114.21 88.73 115.19 88.73
  L 148.55 88.75
  A 0.63 0.63 0.0 0 0 149.17 87.98
  Q 147.88 82.19 142.29 78.30
  A 0.98 0.98 0.0 0 0 141.03 78.42
  Q 131.95 87.62 122.76 78.56
  A 1.16 1.16 0.0 0 0 121.33 78.39
  Q 116.44 81.34 114.50 87.79"
/>
</g>
<path fill="#fdfdfd" d="
  M 0.00 0.00
  L 225.00 0.00
  L 225.00 225.00
  L 0.00 225.00
  L 0.00 0.00
  Z
  M 51.54 54.31
  Q 50.98 56.06 50.98 58.34
  Q 51.08 123.66 51.01 187.32
  Q 51.01 191.04 51.19 194.86
  A 2.29 2.29 0.0 0 0 53.48 197.03
  L 171.00 197.08
  Q 174.22 197.08 174.22 193.91
  Q 174.10 112.24 174.20 38.35
  Q 174.20 34.61 174.01 30.55
  A 1.92 1.91 88.7 0 0 172.11 28.73
  Q 122.68 28.58 78.74 28.71
  Q 76.40 28.71 74.73 30.38
  Q 64.20 40.85 52.60 52.57
  A 4.34 4.31 76.6 0 0 51.54 54.31
  Z"
/>
<path fill="#000000" d="
  M 51.54 54.31
  A 4.34 4.31 76.6 0 1 52.60 52.57
  Q 64.20 40.85 74.73 30.38
  Q 76.40 28.71 78.74 28.71
  Q 122.68 28.58 172.11 28.73
  A 1.92 1.91 88.7 0 1 174.01 30.55
  Q 174.20 34.61 174.20 38.35
  Q 174.10 112.24 174.22 193.91
  Q 174.22 197.08 171.00 197.08
  L 53.48 197.03
  A 2.29 2.29 0.0 0 1 51.19 194.86
  Q 51.01 191.04 51.01 187.32
  Q 51.08 123.66 50.98 58.34
  Q 50.98 56.06 51.54 54.31
  Z
  M 79.18 57.20
  Q 78.41 57.58 77.55 57.58
  Q 66.80 57.57 56.93 57.52
  Q 56.37 57.52 56.36 58.08
  Q 56.22 64.58 56.23 70.75
  Q 56.32 124.58 56.20 178.47
  Q 56.19 184.73 56.40 191.06
  A 0.64 0.64 0.0 0 0 57.02 191.68
  Q 60.95 191.85 64.85 191.87
  Q 98.84 192.09 137.55 191.81
  C 147.74 191.73 157.88 192.19 168.17 191.81
  Q 168.97 191.79 168.98 190.99
  L 169.00 34.70
  Q 169.00 33.64 167.94 33.65
  L 81.00 33.75
  Q 80.25 33.75 80.25 34.50
  L 80.24 55.52
  A 1.89 1.88 77.3 0 1 79.18 57.20
  Z
  M 75.02 38.47
  A 0.41 0.41 0.0 0 0 74.32 38.18
  L 60.46 52.04
  A 0.41 0.41 0.0 0 0 60.75 52.74
  L 74.57 52.70
  A 0.41 0.41 0.0 0 0 74.98 52.29
  L 75.02 38.47
  Z"
/>
<path fill="#fdfdfd" d="
  M 79.18 57.20
  A 1.89 1.88 77.3 0 0 80.24 55.52
  L 80.25 34.50
  Q 80.25 33.75 81.00 33.75
  L 167.94 33.65
  Q 169.00 33.64 169.00 34.70
  L 168.98 190.99
  Q 168.97 191.79 168.17 191.81
  C 157.88 192.19 147.74 191.73 137.55 191.81
  Q 98.84 192.09 64.85 191.87
  Q 60.95 191.85 57.02 191.68
  A 0.64 0.64 0.0 0 1 56.40 191.06
  Q 56.19 184.73 56.20 178.47
  Q 56.32 124.58 56.23 70.75
  Q 56.22 64.58 56.36 58.08
  Q 56.37 57.52 56.93 57.52
  Q 66.80 57.57 77.55 57.58
  Q 78.41 57.58 79.18 57.20
  Z
  M 143.99 59.17
  A 12.17 12.17 0.0 0 0 131.82 47.00
  A 12.17 12.17 0.0 0 0 119.65 59.17
  A 12.17 12.17 0.0 0 0 131.82 71.34
  A 12.17 12.17 0.0 0 0 143.99 59.17
  Z
  M 137.67 73.38
  C 135.26 79.03 129.08 79.28 126.29 73.91
  C 125.53 72.46 124.10 71.24 122.34 72.02
  Q 109.67 77.66 108.90 91.02
  C 108.79 92.85 110.67 93.82 112.25 93.82
  Q 130.16 93.85 149.51 93.81
  C 151.43 93.80 154.66 94.05 154.57 91.17
  Q 154.12 77.56 141.29 72.09
  C 139.88 71.49 138.33 71.84 137.67 73.38
  Z
  M 158.44 115.16
  A 2.40 2.40 0.0 0 0 156.04 112.76
  L 69.14 112.76
  A 2.40 2.40 0.0 0 0 66.74 115.16
  L 66.74 115.22
  A 2.40 2.40 0.0 0 0 69.14 117.62
  L 156.04 117.62
  A 2.40 2.40 0.0 0 0 158.44 115.22
  L 158.44 115.16
  Z
  M 158.43 134.39
  A 2.54 2.54 0.0 0 0 155.89 131.85
  L 69.39 131.85
  A 2.54 2.54 0.0 0 0 66.85 134.39
  L 66.85 134.45
  A 2.54 2.54 0.0 0 0 69.39 136.99
  L 155.89 136.99
  A 2.54 2.54 0.0 0 0 158.43 134.45
  L 158.43 134.39
  Z
  M 158.32 153.56
  A 2.56 2.56 0.0 0 0 155.76 151.00
  L 69.36 151.00
  A 2.56 2.56 0.0 0 0 66.80 153.56
  L 66.80 153.62
  A 2.56 2.56 0.0 0 0 69.36 156.18
  L 155.76 156.18
  A 2.56 2.56 0.0 0 0 158.32 153.62
  L 158.32 153.56
  Z
  M 116.1200 172.7531
  A 2.40 2.40 0.0 0 0 113.7242 170.3489
  L 69.1643 170.2711
  A 2.40 2.40 0.0 0 0 66.7601 172.6669
  L 66.7600 172.7469
  A 2.40 2.40 0.0 0 0 69.1558 175.1511
  L 113.7157 175.2289
  A 2.40 2.40 0.0 0 0 116.1199 172.8331
  L 116.1200 172.7531
  Z"
/>
<path fill="#fdfdfd" d="
  M 75.02 38.47
  L 74.98 52.29
  A 0.41 0.41 0.0 0 1 74.57 52.70
  L 60.75 52.74
  A 0.41 0.41 0.0 0 1 60.46 52.04
  L 74.32 38.18
  A 0.41 0.41 0.0 0 1 75.02 38.47
  Z"
/>
<path fill="#000000" d="
  M 143.99 59.17
  A 12.17 12.17 0.0 0 1 131.82 71.34
  A 12.17 12.17 0.0 0 1 119.65 59.17
  A 12.17 12.17 0.0 0 1 131.82 47.00
  A 12.17 12.17 0.0 0 1 143.99 59.17
  Z
  M 138.83 59.15
  A 6.98 6.98 0.0 0 0 131.85 52.17
  A 6.98 6.98 0.0 0 0 124.87 59.15
  A 6.98 6.98 0.0 0 0 131.85 66.13
  A 6.98 6.98 0.0 0 0 138.83 59.15
  Z"
/>
<circle fill="#fdfdfd" cx="131.85" cy="59.15" r="6.98"/>
<path fill="#000000" d="
  M 126.29 73.91
  C 129.08 79.28 135.26 79.03 137.67 73.38
  C 138.33 71.84 139.88 71.49 141.29 72.09
  Q 154.12 77.56 154.57 91.17
  C 154.66 94.05 151.43 93.80 149.51 93.81
  Q 130.16 93.85 112.25 93.82
  C 110.67 93.82 108.79 92.85 108.90 91.02
  Q 109.67 77.66 122.34 72.02
  C 124.10 71.24 125.53 72.46 126.29 73.91
  Z
  M 114.50 87.79
  Q 114.21 88.73 115.19 88.73
  L 148.55 88.75
  A 0.63 0.63 0.0 0 0 149.17 87.98
  Q 147.88 82.19 142.29 78.30
  A 0.98 0.98 0.0 0 0 141.03 78.42
  Q 131.95 87.62 122.76 78.56
  A 1.16 1.16 0.0 0 0 121.33 78.39
  Q 116.44 81.34 114.50 87.79
  Z"
/>
<path fill="#fdfdfd" d="
  M 114.50 87.79
  Q 116.44 81.34 121.33 78.39
  A 1.16 1.16 0.0 0 1 122.76 78.56
  Q 131.95 87.62 141.03 78.42
  A 0.98 0.98 0.0 0 1 142.29 78.30
  Q 147.88 82.19 149.17 87.98
  A 0.63 0.63 0.0 0 1 148.55 88.75
  L 115.19 88.73
  Q 114.21 88.73 114.50 87.79
  Z"
/>
<rect fill="#000000" x="66.74" y="112.76" width="91.70" height="4.86" rx="2.40"/>
<rect fill="#000000" x="66.85" y="131.85" width="91.58" height="5.14" rx="2.54"/>
<rect fill="#000000" x="66.80" y="151.00" width="91.52" height="5.18" rx="2.56"/>
<rect fill="#000000" x="-24.68" y="-2.44" transform="translate(91.44,172.75) rotate(0.1)" width="49.36" height="4.88" rx="2.40"/>
</svg>
