<?xml version="1.0" encoding="UTF-8" standalone="no"?>
<!DOCTYPE svg PUBLIC "-//W3C//DTD SVG 1.1//EN" "http://www.w3.org/Graphics/SVG/1.1/DTD/svg11.dtd">
<svg xmlns="http://www.w3.org/2000/svg" version="1.1" viewBox="0.00 0.00 240.00 240.00">
<g stroke-width="1.10" fill="none" stroke-linecap="butt">
<path stroke="#c37a7c" vector-effect="non-scaling-stroke" d="
  M 118.67 52.25
  L 112.53 51.34"
/>
<path stroke="#c37a7c" vector-effect="non-scaling-stroke" d="
  M 97.48 49.26
  L 82.04 46.51"
/>
<path stroke="#c37a7c" vector-effect="non-scaling-stroke" d="
  M 64.90 40.04
  L 60.58 35.93"
/>
<path stroke="#c37a7c" vector-effect="non-scaling-stroke" d="
  M 141.84 112.69
  L 136.75 114.02"
/>
<path stroke="#c37a7c" vector-effect="non-scaling-stroke" d="
  M 121.21 118.62
  L 110.89 121.94"
/>
<path stroke="#c37a7c" vector-effect="non-scaling-stroke" d="
  M 95.70 127.59
  L 91.22 129.52"
/>
<path stroke="#c37a7c" vector-effect="non-scaling-stroke" d="
  M 89.62 130.35
  L 83.76 132.76"
/>
<path stroke="#c37a7c" vector-effect="non-scaling-stroke" d="
  M 68.90 140.27
  L 62.41 143.92"
/>
<path stroke="#c37a7c" vector-effect="non-scaling-stroke" d="
  M 62.04 143.99
  L 40.58 154.57"
/>
</g>
<path fill="#cfd8dc" d="
  M 118.67 52.25
  L 112.53 51.34
  L 108.69 41.66
  Q 108.50 41.18 108.08 41.49
  L 97.48 49.26
  L 82.04 46.51
  L 71.44 32.98
  Q 71.16 32.62 70.74 32.81
  Q 64.90 35.54 64.90 40.04
  L 60.58 35.93
  Q 62.17 32.89 65.24 30.69
  Q 70.52 26.92 77.10 24.31
  Q 92.81 18.07 109.47 15.15
  Q 109.98 15.06 109.98 15.58
  C 109.85 27.17 112.15 42.39 118.67 52.25
  Z
  M 106.56 33.40
  L 105.04 21.64
  Q 104.98 21.10 104.45 21.21
  Q 91.89 23.69 79.95 28.33
  A 0.36 0.35 -50.1 0 0 80.01 29.01
  L 105.98 33.94
  Q 106.65 34.07 106.56 33.40
  Z
  M 103.03 38.45
  L 78.85 34.07
  Q 78.38 33.99 78.66 34.37
  Q 83.65 41.22 89.65 47.20
  Q 90.01 47.56 90.47 47.35
  Q 97.45 44.12 103.19 39.02
  Q 103.70 38.57 103.03 38.45
  Z"
/>
<path fill="#b71c1c" d="
  M 60.58 35.93
  L 64.90 40.04
  C 70.00 44.16 75.90 45.52 82.04 46.51
  L 97.48 49.26
  L 112.53 51.34
  L 118.67 52.25
  C 130.62 54.22 142.73 55.97 154.42 59.01
  Q 180.13 65.71 200.54 82.70
  Q 208.10 89.00 214.07 97.73
  A 1.04 1.03 -20.0 0 1 213.32 99.34
  Q 177.08 103.27 141.84 112.69
  L 136.75 114.02
  L 121.21 118.62
  L 110.89 121.94
  L 95.70 127.59
  L 91.22 129.52
  Q 89.93 129.55 89.62 130.35
  L 83.76 132.76
  L 68.90 140.27
  L 62.41 143.92
  Q 62.22 143.95 62.04 143.99
  L 40.58 154.57
  Q 51.78 144.49 61.84 134.59
  Q 69.85 126.71 76.42 117.65
  C 87.78 101.99 87.92 80.74 78.07 64.00
  C 74.12 57.29 67.19 52.52 62.74 45.89
  C 60.55 42.63 58.84 40.59 60.58 35.93
  Z
  M 84.85 65.81
  Q 85.09 66.27 85.47 65.91
  Q 91.90 59.83 99.29 54.98
  Q 99.81 54.64 99.19 54.56
  Q 85.91 52.79 72.93 49.43
  Q 72.47 49.31 72.81 49.65
  C 77.69 54.58 81.50 59.50 84.85 65.81
  Z
  M 135.43 59.76
  L 112.76 56.38
  Q 112.22 56.30 112.42 56.81
  Q 115.22 63.83 114.95 71.45
  Q 114.93 72.01 115.39 71.70
  Q 125.02 65.17 135.48 60.08
  Q 135.98 59.84 135.43 59.76
  Z
  M 107.12 57.08
  Q 106.83 56.44 106.22 56.78
  Q 97.94 61.42 90.87 67.75
  Q 90.48 68.10 90.98 68.24
  L 109.52 73.45
  Q 109.88 73.56 109.92 73.18
  Q 110.68 64.73 107.12 57.08
  Z
  M 145.98 61.96
  A 0.74 0.73 -75.6 0 0 145.11 62.48
  Q 142.49 71.97 138.07 80.78
  Q 137.70 81.51 138.46 81.20
  Q 154.20 74.68 170.73 70.51
  Q 171.57 70.30 170.78 69.97
  Q 158.74 64.84 145.98 61.96
  Z
  M 139.04 63.50
  L 117.77 75.91
  Q 117.16 76.26 117.80 76.57
  L 130.82 82.94
  Q 131.26 83.16 131.49 82.73
  Q 136.46 73.73 139.58 63.94
  A 0.38 0.37 83.7 0 0 139.04 63.50
  Z
  M 90.09 90.68
  A 0.33 0.33 0.0 0 0 90.63 90.93
  L 106.05 78.09
  Q 106.65 77.59 105.89 77.40
  L 88.39 73.01
  Q 87.51 72.79 87.75 73.67
  Q 90.06 82.01 90.09 90.68
  Z
  M 137.87 86.79
  Q 137.33 87.03 137.83 87.34
  Q 147.05 93.12 154.34 101.16
  Q 154.76 101.62 155.18 101.16
  Q 166.23 89.31 174.31 75.26
  Q 174.75 74.50 173.89 74.70
  Q 155.29 79.02 137.87 86.79
  Z
  M 180.52 74.91
  A 0.40 0.40 0.0 0 0 179.97 75.08
  Q 172.21 90.07 160.75 102.49
  Q 160.16 103.13 161.01 102.93
  Q 182.75 97.68 204.96 95.17
  A 0.54 0.54 0.0 0 0 205.29 94.27
  Q 194.46 82.60 180.52 74.91
  Z
  M 109.19 95.63
  L 125.97 86.62
  Q 126.57 86.30 125.96 86.01
  L 114.62 80.64
  Q 114.07 80.38 113.93 80.98
  Q 112.16 88.40 108.79 95.25
  A 0.29 0.29 0.0 0 0 109.19 95.63
  Z
  M 92.91 96.68
  L 99.90 100.05
  Q 100.40 100.30 100.70 99.82
  Q 105.50 92.19 108.15 83.57
  Q 108.43 82.68 107.70 83.27
  L 92.77 95.56
  Q 91.96 96.22 92.91 96.68
  Z
  M 117.04 114.45
  C 125.76 112.12 135.68 108.80 150.66 105.27
  Q 151.22 105.14 150.82 104.72
  Q 143.13 96.48 133.56 90.51
  Q 133.10 90.22 132.82 90.69
  Q 125.47 102.83 116.77 114.05
  Q 116.31 114.64 117.04 114.45
  Z
  M 125.24 92.54
  L 105.37 103.49
  A 0.51 0.51 0.0 0 0 105.28 104.32
  Q 109.10 107.71 110.85 112.50
  Q 111.08 113.12 111.50 112.61
  Q 119.20 103.21 125.54 92.84
  Q 125.97 92.13 125.24 92.54
  Z
  M 89.81 100.80
  Q 89.51 100.67 89.41 100.98
  L 86.62 109.59
  Q 86.50 109.94 86.81 109.73
  L 95.34 103.95
  Q 95.90 103.57 95.29 103.29
  L 89.81 100.80
  Z
  M 86.49 125.89
  L 106.34 117.86
  Q 106.76 117.69 106.71 117.24
  Q 106.08 111.75 101.99 108.06
  Q 101.56 107.66 101.22 108.14
  Q 94.56 117.56 86.37 125.70
  Q 85.97 126.10 86.49 125.89
  Z
  M 72.44 131.42
  Q 82.94 123.22 91.46 112.97
  A 0.24 0.23 0.6 0 0 91.13 112.64
  C 86.44 116.26 81.23 119.15 77.71 124.12
  C 75.87 126.72 73.91 128.86 72.05 131.01
  Q 70.13 133.23 72.44 131.42
  Z"
/>
<path fill="#cfd8dc" d="
  M 141.84 112.69
  Q 153.52 167.63 124.08 214.53
  Q 123.81 214.96 123.31 214.96
  Q 97.62 214.74 72.76 208.76
  Q 68.53 207.74 57.31 203.43
  C 43.64 198.18 24.76 186.50 31.29 168.73
  Q 34.31 160.52 40.58 154.57
  L 62.04 143.99
  Q 55.60 148.09 47.47 154.98
  Q 40.92 160.54 37.29 167.13
  Q 36.92 167.81 37.69 167.80
  Q 51.40 167.67 64.69 164.39
  Q 65.18 164.27 64.94 163.83
  Q 59.97 154.83 62.41 143.92
  L 68.90 140.27
  Q 64.18 150.13 68.75 160.54
  Q 69.08 161.30 69.57 160.63
  Q 78.74 147.97 83.76 132.76
  L 89.62 130.35
  Q 85.11 146.75 75.67 160.77
  Q 75.19 161.47 76.00 161.20
  Q 90.76 156.17 104.73 149.24
  A 0.25 0.24 50.9 0 0 104.77 148.83
  Q 95.49 141.24 91.22 129.52
  L 95.70 127.59
  Q 98.90 137.21 106.13 143.82
  Q 106.57 144.22 106.74 143.65
  Q 109.76 133.12 110.89 121.94
  L 121.21 118.62
  L 138.47 126.07
  Q 139.07 126.33 138.95 125.68
  L 136.75 114.02
  L 141.84 112.69
  Z
  M 115.89 122.27
  Q 114.55 133.96 111.52 145.33
  A 0.43 0.43 0.0 0 0 112.15 145.81
  L 136.31 131.36
  A 0.43 0.43 0.0 0 0 136.26 130.59
  L 116.46 121.94
  A 0.41 0.41 0.0 0 0 115.89 122.27
  Z
  M 115.25 150.00
  C 122.26 153.79 131.41 155.35 139.12 155.49
  Q 139.64 155.49 139.69 154.98
  Q 140.66 145.15 140.00 135.30
  Q 139.95 134.54 139.32 134.97
  Q 127.68 142.80 115.26 149.32
  Q 114.62 149.66 115.25 150.00
  Z
  M 132.22 159.90
  Q 120.40 158.43 110.05 152.58
  Q 109.52 152.28 109.33 152.86
  Q 105.43 165.09 99.43 176.43
  Q 99.06 177.12 99.77 176.80
  Q 116.42 169.31 132.31 160.35
  A 0.24 0.24 0.0 0 0 132.22 159.90
  Z
  M 92.29 178.36
  A 0.14 0.12 23.9 0 0 92.45 178.31
  Q 98.73 167.95 102.81 156.54
  A 0.38 0.37 -3.2 0 0 102.29 156.08
  Q 88.82 162.54 74.55 167.01
  A 0.64 0.64 0.0 0 0 74.36 168.14
  Q 82.70 174.31 92.29 178.36
  Z
  M 101.76 182.10
  C 110.98 185.20 120.99 186.83 131.67 187.57
  Q 132.26 187.62 132.46 187.06
  Q 136.72 175.33 138.73 163.00
  Q 138.83 162.34 138.25 162.68
  Q 120.52 173.12 101.73 181.53
  Q 101.01 181.85 101.76 182.10
  Z
  M 62.18 170.17
  Q 49.09 172.97 35.70 172.73
  Q 35.12 172.72 35.06 173.29
  C 34.09 181.25 38.43 186.68 44.26 191.33
  A 0.67 0.66 39.5 0 0 45.17 191.25
  L 62.65 170.96
  Q 63.60 169.86 62.18 170.17
  Z
  M 52.61 191.39
  C 64.33 190.42 76.94 186.40 87.00 181.99
  Q 87.67 181.69 86.99 181.41
  Q 77.44 177.52 69.96 170.46
  Q 69.66 170.18 69.41 170.49
  L 52.39 190.96
  Q 51.99 191.44 52.61 191.39
  Z
  M 121.74 191.58
  C 112.45 190.00 103.91 188.22 95.02 184.96
  Q 94.52 184.77 94.23 185.23
  Q 88.44 194.22 80.94 201.85
  Q 80.46 202.33 81.13 202.25
  Q 102.07 199.54 121.79 192.03
  A 0.24 0.23 38.9 0 0 121.74 191.58
  Z
  M 85.68 188.06
  Q 70.28 194.25 53.83 196.49
  Q 53.12 196.58 53.77 196.89
  Q 62.22 200.84 71.20 203.34
  A 0.96 0.95 -57.1 0 0 72.08 203.15
  Q 79.89 196.56 85.82 188.23
  A 0.11 0.11 0.0 0 0 85.68 188.06
  Z
  M 87.27 206.95
  Q 103.99 210.00 120.97 210.08
  A 0.79 0.78 14.0 0 0 121.66 209.67
  L 129.67 194.63
  Q 130.02 193.97 129.34 194.27
  C 115.72 200.38 101.78 203.69 87.27 206.63
  Q 86.45 206.80 87.27 206.95
  Z"
/>
</svg>
