<?xml version="1.0" encoding="UTF-8" standalone="no"?>
<!DOCTYPE svg PUBLIC "-//W3C//DTD SVG 1.1//EN" "http://www.w3.org/Graphics/SVG/1.1/DTD/svg11.dtd">
<svg xmlns="http://www.w3.org/2000/svg" version="1.1" viewBox="0.00 0.00 296.00 171.00">
<g stroke-width="1.10" fill="none" stroke-linecap="butt">
<path stroke="#dbe5f6" vector-effect="non-scaling-stroke" d="
  M 167.80 152.47
  L 169.83 152.76
  Q 170.32 152.83 170.80 152.69
  Q 172.17 152.29 173.71 152.43"
/>
<path stroke="#839e81" vector-effect="non-scaling-stroke" d="
  M 173.71 152.43
  Q 186.46 159.16 199.25 154.22
  Q 214.29 148.42 218.46 134.36
  C 223.26 118.21 215.80 102.65 200.51 95.36"
/>
<path stroke="#dbe5f6" vector-effect="non-scaling-stroke" d="
  M 200.51 95.36
  Q 200.30 95.27 200.44 94.76"
/>
<path stroke="#8795af" vector-effect="non-scaling-stroke" d="
  M 200.44 94.76
  Q 201.07 94.31 201.07 93.50
  Q 201.07 66.25 200.98 38.99
  Q 200.96 32.86 196.33 28.43
  C 187.68 20.16 175.20 16.77 163.14 15.09
  Q 139.53 11.79 117.24 18.52
  C 109.89 20.74 102.43 24.65 97.72 30.70
  Q 94.88 34.35 94.89 39.41
  Q 94.99 81.29 94.86 127.44
  C 94.85 132.98 96.03 137.04 100.31 140.90
  Q 103.84 144.07 108.26 146.36
  Q 114.37 149.52 120.15 151.06
  Q 127.24 152.94 133.01 153.75
  Q 139.35 154.64 149.26 154.60
  C 152.04 154.59 154.61 154.14 157.39 154.12
  C 160.90 154.10 164.32 153.16 167.80 152.47"
/>
<path stroke="#647ea8" vector-effect="non-scaling-stroke" d="
  M 200.44 94.76
  Q 200.12 94.53 199.76 93.84"
/>
<path stroke="#4f6d9c" vector-effect="non-scaling-stroke" d="
  M 199.76 93.84
  L 199.92 45.91"
/>
<path stroke="#7388a9" vector-effect="non-scaling-stroke" d="
  M 199.92 45.91
  Q 199.53 43.28 199.69 40.57
  Q 199.89 37.22 199.25 35.46
  C 196.21 27.02 185.76 21.95 177.71 19.56
  Q 152.83 12.16 126.28 17.50
  Q 113.12 20.15 103.95 26.48
  Q 95.39 32.40 96.11 41.05
  Q 96.28 43.08 96.04 45.64
  Q 95.85 47.69 96.03 49.79"
/>
<path stroke="#647ea8" vector-effect="non-scaling-stroke" d="
  M 96.03 49.79
  L 96.15 77.21"
/>
<path stroke="#7388a9" vector-effect="non-scaling-stroke" d="
  M 96.15 77.21
  L 96.01 80.89"
/>
<path stroke="#647ea8" vector-effect="non-scaling-stroke" d="
  M 96.01 80.89
  Q 95.99 90.45 96.24 100.25
  Q 96.30 102.51 96.18 104.82
  Q 95.86 110.56 96.00 128.23
  C 96.05 135.42 100.33 140.02 106.26 143.39
  Q 114.60 148.14 123.89 150.34
  Q 146.01 155.60 168.50 151.03
  Q 169.42 150.84 169.90 151.42
  Q 170.26 151.86 169.74 152.10
  Q 168.88 152.49 167.80 152.47"
/>
<path stroke="#c7d9ef" vector-effect="non-scaling-stroke" d="
  M 168.05 95.32
  Q 165.45 95.56 163.44 96.51
  Q 163.00 96.71 162.86 97.18
  Q 162.64 97.94 161.85 98.15
  Q 161.50 98.24 161.32 97.92
  Q 160.73 96.87 159.37 96.86
  C 151.85 96.78 144.97 97.27 137.21 96.70
  Q 136.73 96.67 136.34 96.38
  C 134.71 95.15 132.09 96.27 130.01 95.74
  Q 125.20 94.50 120.61 93.36
  Q 117.56 92.60 114.78 91.48
  Q 111.99 90.35 109.11 89.14
  Q 106.76 88.16 105.17 86.27
  Q 104.85 85.89 104.39 85.72
  Q 102.07 84.87 100.98 82.95
  Q 100.72 82.50 100.21 82.40
  Q 99.47 82.25 99.03 81.76
  Q 98.76 81.44 98.34 81.36
  L 96.01 80.89"
/>
<path stroke="#a3bee3" vector-effect="non-scaling-stroke" d="
  M 199.76 93.84
  Q 193.42 92.38 191.76 92.19
  Q 183.99 91.32 175.78 94.58
  Q 173.74 95.39 171.74 96.70
  Q 169.85 97.94 167.67 98.96
  Q 167.20 99.17 166.90 99.58
  Q 165.83 101.07 164.56 102.51
  Q 164.46 102.62 164.35 102.53
  L 164.35 102.52
  Q 164.28 102.47 164.32 102.40
  Q 165.38 100.75 166.44 99.22
  Q 166.65 98.90 166.29 98.76
  Q 166.23 98.74 166.19 98.70
  Q 165.77 98.27 165.36 98.72
  Q 164.82 99.31 164.23 99.81
  Q 164.18 99.85 164.14 99.80
  L 163.96 99.62
  Q 163.78 99.44 163.96 99.26
  L 168.05 95.32"
/>
<path stroke="#b2c8e4" vector-effect="non-scaling-stroke" d="
  M 168.05 95.32
  L 178.06 92.83
  Q 178.54 92.71 178.84 92.32
  Q 179.13 91.94 179.54 91.77
  Q 179.87 91.64 180.67 91.85
  Q 181.46 92.07 182.02 91.69
  Q 183.27 90.84 184.56 89.91
  Q 185.23 89.43 185.98 89.15
  Q 186.93 88.78 187.43 87.82
  Q 187.64 87.40 188.08 87.22
  Q 188.45 87.07 188.79 86.94
  Q 188.88 86.91 188.93 86.99
  Q 188.96 87.04 188.96 87.09
  Q 189.02 87.58 189.34 87.20
  Q 189.73 86.74 190.27 86.46
  Q 190.72 86.23 190.68 86.73
  Q 190.66 87.02 190.47 87.23
  Q 189.70 88.10 190.67 87.47
  Q 195.37 84.42 198.54 79.95
  A 0.76 0.76 0.0 0 0 198.59 79.14
  L 198.44 78.86
  Q 198.17 78.37 198.69 78.18
  Q 200.31 77.58 198.85 75.64"
/>
<path stroke="#4f6d9c" vector-effect="non-scaling-stroke" d="
  M 198.85 75.64
  L 198.80 75.02
  Q 198.72 73.99 198.26 74.91
  Q 196.79 77.79 195.68 78.85
  C 188.74 85.45 179.49 88.84 170.21 90.77"
/>
<path stroke="#a3bee3" vector-effect="non-scaling-stroke" d="
  M 170.21 90.77
  Q 170.63 90.12 170.63 89.81
  A 0.63 0.63 0.0 0 0 169.75 89.23
  Q 167.66 90.12 165.11 89.33
  Q 164.99 89.29 164.93 89.18
  Q 164.80 88.94 164.91 88.67
  A 0.52 0.52 0.0 0 1 165.45 88.33
  L 168.77 88.67
  Q 169.35 88.73 169.69 88.25
  Q 171.20 86.08 170.88 83.50
  Q 170.83 83.03 170.94 82.58
  Q 171.31 81.06 171.20 79.42
  Q 170.93 75.75 171.40 72.17
  A 2.06 2.00 36.2 0 0 171.20 71.00
  Q 170.47 69.51 170.53 67.87
  Q 170.57 66.56 169.29 66.63
  Q 168.14 66.69 169.19 66.22
  Q 170.82 65.49 172.37 64.55"
/>
<path stroke="#60877a" vector-effect="non-scaling-stroke" d="
  M 200.51 95.36
  Q 178.80 88.06 164.33 104.32
  Q 157.31 112.21 156.98 123.67"
/>
<path stroke="#c7d9ef" vector-effect="non-scaling-stroke" d="
  M 156.98 123.67
  Q 156.61 123.31 156.29 123.67"
/>
<path stroke="#647ea8" vector-effect="non-scaling-stroke" d="
  M 156.29 123.67
  Q 156.31 122.64 155.51 122.69
  Q 139.62 123.72 125.11 120.56
  C 114.20 118.18 103.16 113.88 97.44 104.91
  Q 97.41 104.86 97.35 104.85
  Q 97.30 104.84 97.25 104.86
  Q 97.13 104.89 97.19 105.00
  Q 98.61 107.68 99.76 109.60"
/>
<path stroke="#c7d9ef" vector-effect="non-scaling-stroke" d="
  M 99.76 109.60
  Q 100.47 113.84 105.89 117.11
  Q 115.38 122.83 123.41 123.62
  C 125.93 123.87 127.93 125.33 130.50 125.55
  C 133.41 125.79 136.12 126.50 139.10 126.59
  Q 146.96 126.85 154.90 127.00
  Q 155.43 127.01 155.76 127.42
  L 157.18 129.21"
/>
<path stroke="#65ba78" vector-effect="non-scaling-stroke" d="
  M 157.18 129.21
  L 157.83 131.90"
/>
<path stroke="#60877a" vector-effect="non-scaling-stroke" d="
  M 157.83 131.90
  Q 161.44 145.90 173.71 152.43"
/>
<path stroke="#b2c8e4" vector-effect="non-scaling-stroke" d="
  M 199.92 45.91
  L 198.71 50.03
  A 0.07 0.07 0.0 0 1 198.58 50.05
  Q 198.51 49.92 198.32 49.95
  Q 198.26 49.96 198.21 50.00
  Q 196.14 51.80 194.20 53.96
  C 191.87 56.57 188.89 57.78 185.82 59.09
  C 184.34 59.72 183.34 60.95 181.74 61.14
  Q 181.52 61.16 181.37 61.33
  Q 181.27 61.44 181.17 61.55
  Q 181.00 61.72 180.77 61.81
  Q 176.49 63.56 172.37 64.55"
/>
<path stroke="#c7d9ef" vector-effect="non-scaling-stroke" d="
  M 172.37 64.55
  Q 169.82 65.23 167.94 64.94
  Q 167.36 64.85 166.81 65.05
  Q 164.06 66.06 160.79 65.84
  Q 160.25 65.80 159.83 66.14
  Q 158.87 66.92 157.75 66.91
  Q 150.46 66.81 143.24 67.05
  C 140.57 67.14 137.93 66.65 135.34 66.04
  C 131.30 65.09 127.11 65.08 122.98 64.15
  C 121.49 63.82 120.40 63.02 118.81 62.94
  C 116.64 62.83 115.31 61.32 113.28 60.68
  Q 110.16 59.69 107.49 57.34
  Q 107.10 56.99 106.59 56.86
  Q 105.65 56.62 104.92 55.82
  A 0.64 0.64 0.0 0 0 104.05 55.75
  Q 103.74 56.01 103.42 55.80
  Q 103.00 55.53 102.73 55.05
  Q 101.14 52.27 98.84 50.18
  A 0.33 0.32 54.4 0 0 98.51 50.12
  Q 96.55 50.82 96.03 49.79"
/>
<path stroke="#647ea8" vector-effect="non-scaling-stroke" d="
  M 170.21 90.77
  Q 161.88 92.56 151.50 92.82
  Q 139.17 93.13 128.76 91.38
  Q 117.46 89.48 107.44 84.04
  Q 101.29 80.70 99.56 77.94
  Q 96.03 72.28 97.51 75.91"
/>
<path stroke="#c7d9ef" vector-effect="non-scaling-stroke" d="
  M 97.51 75.91
  Q 96.21 75.63 96.15 77.21"
/>
<path stroke="#7388a9" vector-effect="non-scaling-stroke" d="
  M 198.85 75.64
  Q 195.17 81.39 190.69 84.19
  Q 182.27 89.45 169.74 92.03
  Q 145.01 97.13 121.36 90.90
  C 112.77 88.64 102.26 84.06 97.51 75.91"
/>
<path stroke="#74c479" vector-effect="non-scaling-stroke" d="
  M 157.14 127.76
  L 157.18 129.21"
/>
<path stroke="#0d7304" vector-effect="non-scaling-stroke" d="
  M 157.83 131.90
  Q 158.75 133.74 159.51 135.24
  Q 161.12 138.42 162.88 141.48
  C 164.49 144.27 166.62 146.24 168.98 148.34"
/>
<path stroke="#388414" vector-effect="non-scaling-stroke" d="
  M 168.98 148.34
  Q 170.37 149.01 171.58 149.96
  Q 173.21 151.23 174.12 151.68
  Q 177.95 153.57 182.33 154.73
  Q 185.13 155.47 188.31 155.35
  Q 191.63 155.23 194.24 154.69
  Q 208.12 151.80 215.43 139.09"
/>
<path stroke="#0d7304" vector-effect="non-scaling-stroke" d="
  M 215.43 139.09
  Q 217.32 135.06 218.35 130.49
  Q 219.23 126.61 218.73 122.46
  C 217.61 113.07 214.03 105.17 206.01 99.60"
/>
<path stroke="#388414" vector-effect="non-scaling-stroke" d="
  M 206.01 99.60
  C 192.59 90.64 176.25 92.89 165.37 104.63
  Q 160.03 110.40 158.27 120.45"
/>
<path stroke="#0d7304" vector-effect="non-scaling-stroke" d="
  M 158.27 120.45
  Q 157.56 123.56 157.62 127.48
  Q 157.62 127.79 157.14 127.76"
/>
<path stroke="#6f927b" vector-effect="non-scaling-stroke" d="
  M 157.14 127.76
  L 156.98 123.67"
/>
<path stroke="#7388a9" vector-effect="non-scaling-stroke" d="
  M 156.29 123.67
  Q 156.16 123.74 156.06 123.80
  Q 155.95 123.86 155.81 123.88
  Q 136.50 125.59 118.03 119.86
  Q 112.32 118.09 107.16 115.09
  Q 103.63 113.03 99.76 109.60"
/>
<path stroke="#3db713" vector-effect="non-scaling-stroke" d="
  M 206.01 99.60
  Q 205.89 101.10 204.25 101.61
  A 0.96 0.96 0.0 0 0 203.67 102.94
  Q 204.27 104.19 205.25 105.20
  Q 206.09 106.08 206.64 107.35
  Q 208.16 110.92 210.72 113.88
  Q 211.09 114.31 211.06 113.74
  Q 211.04 113.10 210.48 112.75
  Q 210.39 112.69 210.36 112.59
  Q 210.23 112.25 210.50 112.49
  Q 211.33 113.19 211.59 114.18
  Q 212.26 116.71 213.00 119.51
  Q 213.65 122.00 213.77 124.49
  Q 213.95 128.26 214.16 131.99
  Q 214.25 133.68 214.70 135.51
  Q 215.13 137.24 215.43 139.09"
/>
<path stroke="#3db713" vector-effect="non-scaling-stroke" d="
  M 168.98 148.34
  Q 170.60 148.37 172.73 147.69
  A 0.90 0.90 0.0 0 0 173.07 146.18
  Q 172.43 145.59 172.02 144.43
  A 2.40 2.39 13.1 0 0 171.45 143.52
  Q 170.04 142.12 169.66 140.17
  A 2.49 2.49 0.0 0 0 169.03 138.95
  Q 166.81 136.53 166.41 133.62
  Q 166.09 131.37 164.83 129.27
  C 164.23 128.28 163.96 127.10 163.67 126.00
  C 163.16 124.14 163.29 122.27 162.58 120.41
  Q 162.17 119.32 162.15 120.49
  Q 162.09 123.70 163.02 126.81
  Q 163.06 126.95 162.92 126.91
  Q 162.83 126.89 162.92 126.87
  Q 162.99 126.86 162.97 126.79
  Q 161.81 123.46 161.81 119.92
  Q 161.81 119.39 161.28 119.36
  Q 160.15 119.30 158.27 120.45"
/>
<path stroke="#b2c8e4" vector-effect="non-scaling-stroke" d="
  M 134.13 46.51
  L 129.93 49.30"
/>
<path stroke="#c7d9ef" vector-effect="non-scaling-stroke" d="
  M 129.93 49.30
  L 120.20 55.38
  A 0.63 0.63 0.0 0 0 120.33 56.52
  Q 121.84 57.02 123.28 56.97
  Q 123.82 56.95 124.20 57.35
  Q 125.05 58.26 126.40 57.96
  A 1.77 1.76 -38.0 0 1 127.55 58.10
  C 129.58 59.12 131.61 58.67 133.73 59.27
  Q 135.28 59.70 136.92 59.58
  Q 137.47 59.54 137.90 59.89
  Q 139.37 61.09 141.53 60.12
  Q 142.05 59.88 142.61 59.88
  Q 147.52 59.88 152.40 59.87
  Q 153.49 59.86 154.58 60.14
  Q 155.93 60.49 157.34 59.98
  Q 158.76 59.48 160.47 59.31
  Q 163.49 59.03 166.30 58.45
  Q 166.78 58.35 167.26 58.41
  Q 167.79 58.48 168.15 58.10
  Q 168.49 57.72 169.01 57.67
  Q 174.70 57.20 178.59 54.99
  Q 180.20 54.08 182.13 53.82
  Q 185.90 53.31 189.02 50.38
  Q 189.46 49.97 190.06 49.92
  Q 191.12 49.84 191.83 49.05
  Q 192.88 47.89 193.89 46.64
  Q 195.24 44.99 193.33 44.23
  Q 192.94 44.07 192.89 43.66
  Q 192.60 41.42 191.28 39.48
  Q 187.15 33.42 181.51 28.73
  Q 180.27 27.70 175.35 25.89
  A 1.56 1.53 82.5 0 1 174.61 25.31
  Q 174.43 25.04 174.20 24.80
  Q 173.75 24.35 173.14 24.21
  Q 172.70 24.12 172.55 23.70
  Q 172.34 23.07 171.69 23.13
  C 169.68 23.31 168.24 22.28 166.25 22.90
  Q 164.36 23.49 162.80 24.29
  Q 161.40 25.02 160.09 25.29
  Q 158.26 25.68 156.48 26.18
  C 155.12 26.56 154.14 27.79 153.32 28.86
  Q 153.07 29.17 152.68 29.20
  Q 152.24 29.23 151.82 29.40
  Q 151.25 29.63 151.18 30.24
  Q 150.83 32.93 149.16 35.97
  Q 148.38 37.41 147.02 37.96
  Q 145.95 38.40 144.92 39.10
  Q 144.14 39.64 143.26 39.95
  Q 142.27 40.30 141.51 41.02
  Q 140.54 41.94 139.38 42.52
  Q 136.41 44.02 134.13 46.51"
/>
<path stroke="#a3bee3" vector-effect="non-scaling-stroke" d="
  M 129.93 49.30
  Q 131.64 50.09 133.51 49.95
  Q 135.29 49.81 137.03 49.76
  Q 139.96 49.67 142.48 47.32
  Q 146.44 43.64 146.87 40.06
  Q 146.93 39.59 146.48 39.44
  Q 145.73 39.18 145.18 39.73
  A 1.58 1.57 -75.0 0 1 144.44 40.16
  C 143.79 40.34 143.09 40.49 142.56 40.93
  Q 138.73 44.17 134.13 46.51"
/>
<path stroke="#c7d9ef" vector-effect="non-scaling-stroke" d="
  M 195.2090 44.8894
  A 0.92 0.44 109.1 0 0 195.9258 44.1640
  A 0.92 0.44 109.1 0 0 195.8110 43.1506
  A 0.92 0.44 109.1 0 0 195.0942 43.8760
  A 0.92 0.44 109.1 0 0 195.2090 44.8894"
/>
<path stroke="#7388a9" vector-effect="non-scaling-stroke" d="
  M 173.62 61.16
  C 181.59 59.14 189.44 55.79 195.49 50.08
  Q 197.87 47.83 199.13 44.38
  Q 199.17 44.27 199.07 44.21
  L 198.80 44.05
  Q 198.76 44.03 198.74 44.07
  Q 195.21 50.82 187.47 54.71
  C 173.77 61.58 158.01 63.73 142.10 62.83
  C 127.76 62.01 104.68 58.17 97.09 44.06
  A 0.04 0.04 0.0 0 0 97.03 44.05
  L 96.81 44.27
  Q 96.72 44.36 96.78 44.48
  Q 100.56 52.27 109.83 56.66
  Q 118.12 60.58 127.29 62.33
  Q 151.05 66.88 173.62 61.16"
/>
<path stroke="#377013" vector-effect="non-scaling-stroke" d="
  M 178.24 138.42
  A 1.46 1.46 0.0 0 0 180.43 139.68
  L 204.15 125.92
  A 1.46 1.46 0.0 0 0 204.15 123.40
  L 180.27 109.54
  A 1.46 1.46 0.0 0 0 178.08 110.81
  L 178.24 138.42"
/>
<path stroke="#828a80" vector-effect="non-scaling-stroke" d="
  M 180.29 110.59
  A 0.76 0.76 0.0 0 0 179.15 111.25
  L 179.10 137.96
  A 0.76 0.76 0.0 0 0 180.24 138.62
  L 203.52 125.31
  A 0.76 0.76 0.0 0 0 203.52 123.99
  L 180.29 110.59"
/>
</g>
<path fill="#fdfcfd" d="
  M 0.00 0.00
  L 296.00 0.00
  L 296.00 171.00
  L 0.00 171.00
  L 0.00 0.00
  Z
  M 167.80 152.47
  L 169.83 152.76
  Q 170.32 152.83 170.80 152.69
  Q 172.17 152.29 173.71 152.43
  Q 186.46 159.16 199.25 154.22
  Q 214.29 148.42 218.46 134.36
  C 223.26 118.21 215.80 102.65 200.51 95.36
  Q 200.30 95.27 200.44 94.76
  Q 201.07 94.31 201.07 93.50
  Q 201.07 66.25 200.98 38.99
  Q 200.96 32.86 196.33 28.43
  C 187.68 20.16 175.20 16.77 163.14 15.09
  Q 139.53 11.79 117.24 18.52
  C 109.89 20.74 102.43 24.65 97.72 30.70
  Q 94.88 34.35 94.89 39.41
  Q 94.99 81.29 94.86 127.44
  C 94.85 132.98 96.03 137.04 100.31 140.90
  Q 103.84 144.07 108.26 146.36
  Q 114.37 149.52 120.15 151.06
  Q 127.24 152.94 133.01 153.75
  Q 139.35 154.64 149.26 154.60
  C 152.04 154.59 154.61 154.14 157.39 154.12
  C 160.90 154.10 164.32 153.16 167.80 152.47
  Z"
/>
<path fill="#102d61" d="
  M 200.44 94.76
  Q 200.12 94.53 199.76 93.84
  L 199.92 45.91
  Q 199.53 43.28 199.69 40.57
  Q 199.89 37.22 199.25 35.46
  C 196.21 27.02 185.76 21.95 177.71 19.56
  Q 152.83 12.16 126.28 17.50
  Q 113.12 20.15 103.95 26.48
  Q 95.39 32.40 96.11 41.05
  Q 96.28 43.08 96.04 45.64
  Q 95.85 47.69 96.03 49.79
  L 96.15 77.21
  L 96.01 80.89
  Q 95.99 90.45 96.24 100.25
  Q 96.30 102.51 96.18 104.82
  Q 95.86 110.56 96.00 128.23
  C 96.05 135.42 100.33 140.02 106.26 143.39
  Q 114.60 148.14 123.89 150.34
  Q 146.01 155.60 168.50 151.03
  Q 169.42 150.84 169.90 151.42
  Q 170.26 151.86 169.74 152.10
  Q 168.88 152.49 167.80 152.47
  C 164.32 153.16 160.90 154.10 157.39 154.12
  C 154.61 154.14 152.04 154.59 149.26 154.60
  Q 139.35 154.64 133.01 153.75
  Q 127.24 152.94 120.15 151.06
  Q 114.37 149.52 108.26 146.36
  Q 103.84 144.07 100.31 140.90
  C 96.03 137.04 94.85 132.98 94.86 127.44
  Q 94.99 81.29 94.89 39.41
  Q 94.88 34.35 97.72 30.70
  C 102.43 24.65 109.89 20.74 117.24 18.52
  Q 139.53 11.79 163.14 15.09
  C 175.20 16.77 187.68 20.16 196.33 28.43
  Q 200.96 32.86 200.98 38.99
  Q 201.07 66.25 201.07 93.50
  Q 201.07 94.31 200.44 94.76
  Z"
/>
<path fill="#d5e3f0" d="
  M 199.92 45.91
  L 198.71 50.03
  A 0.07 0.07 0.0 0 1 198.58 50.05
  Q 198.51 49.92 198.32 49.95
  Q 198.26 49.96 198.21 50.00
  Q 196.14 51.80 194.20 53.96
  C 191.87 56.57 188.89 57.78 185.82 59.09
  C 184.34 59.72 183.34 60.95 181.74 61.14
  Q 181.52 61.16 181.37 61.33
  Q 181.27 61.44 181.17 61.55
  Q 181.00 61.72 180.77 61.81
  Q 176.49 63.56 172.37 64.55
  Q 169.82 65.23 167.94 64.94
  Q 167.36 64.85 166.81 65.05
  Q 164.06 66.06 160.79 65.84
  Q 160.25 65.80 159.83 66.14
  Q 158.87 66.92 157.75 66.91
  Q 150.46 66.81 143.24 67.05
  C 140.57 67.14 137.93 66.65 135.34 66.04
  C 131.30 65.09 127.11 65.08 122.98 64.15
  C 121.49 63.82 120.40 63.02 118.81 62.94
  C 116.64 62.83 115.31 61.32 113.28 60.68
  Q 110.16 59.69 107.49 57.34
  Q 107.10 56.99 106.59 56.86
  Q 105.65 56.62 104.92 55.82
  A 0.64 0.64 0.0 0 0 104.05 55.75
  Q 103.74 56.01 103.42 55.80
  Q 103.00 55.53 102.73 55.05
  Q 101.14 52.27 98.84 50.18
  A 0.33 0.32 54.4 0 0 98.51 50.12
  Q 96.55 50.82 96.03 49.79
  Q 95.85 47.69 96.04 45.64
  Q 96.28 43.08 96.11 41.05
  Q 95.39 32.40 103.95 26.48
  Q 113.12 20.15 126.28 17.50
  Q 152.83 12.16 177.71 19.56
  C 185.76 21.95 196.21 27.02 199.25 35.46
  Q 199.89 37.22 199.69 40.57
  Q 199.53 43.28 199.92 45.91
  Z
  M 134.13 46.51
  L 129.93 49.30
  L 120.20 55.38
  A 0.63 0.63 0.0 0 0 120.33 56.52
  Q 121.84 57.02 123.28 56.97
  Q 123.82 56.95 124.20 57.35
  Q 125.05 58.26 126.40 57.96
  A 1.77 1.76 -38.0 0 1 127.55 58.10
  C 129.58 59.12 131.61 58.67 133.73 59.27
  Q 135.28 59.70 136.92 59.58
  Q 137.47 59.54 137.90 59.89
  Q 139.37 61.09 141.53 60.12
  Q 142.05 59.88 142.61 59.88
  Q 147.52 59.88 152.40 59.87
  Q 153.49 59.86 154.58 60.14
  Q 155.93 60.49 157.34 59.98
  Q 158.76 59.48 160.47 59.31
  Q 163.49 59.03 166.30 58.45
  Q 166.78 58.35 167.26 58.41
  Q 167.79 58.48 168.15 58.10
  Q 168.49 57.72 169.01 57.67
  Q 174.70 57.20 178.59 54.99
  Q 180.20 54.08 182.13 53.82
  Q 185.90 53.31 189.02 50.38
  Q 189.46 49.97 190.06 49.92
  Q 191.12 49.84 191.83 49.05
  Q 192.88 47.89 193.89 46.64
  Q 195.24 44.99 193.33 44.23
  Q 192.94 44.07 192.89 43.66
  Q 192.60 41.42 191.28 39.48
  Q 187.15 33.42 181.51 28.73
  Q 180.27 27.70 175.35 25.89
  A 1.56 1.53 82.5 0 1 174.61 25.31
  Q 174.43 25.04 174.20 24.80
  Q 173.75 24.35 173.14 24.21
  Q 172.70 24.12 172.55 23.70
  Q 172.34 23.07 171.69 23.13
  C 169.68 23.31 168.24 22.28 166.25 22.90
  Q 164.36 23.49 162.80 24.29
  Q 161.40 25.02 160.09 25.29
  Q 158.26 25.68 156.48 26.18
  C 155.12 26.56 154.14 27.79 153.32 28.86
  Q 153.07 29.17 152.68 29.20
  Q 152.24 29.23 151.82 29.40
  Q 151.25 29.63 151.18 30.24
  Q 150.83 32.93 149.16 35.97
  Q 148.38 37.41 147.02 37.96
  Q 145.95 38.40 144.92 39.10
  Q 144.14 39.64 143.26 39.95
  Q 142.27 40.30 141.51 41.02
  Q 140.54 41.94 139.38 42.52
  Q 136.41 44.02 134.13 46.51
  Z
  M 195.2090 44.8894
  A 0.92 0.44 109.1 0 0 195.9258 44.1640
  A 0.92 0.44 109.1 0 0 195.8110 43.1506
  A 0.92 0.44 109.1 0 0 195.0942 43.8760
  A 0.92 0.44 109.1 0 0 195.2090 44.8894
  Z
  M 173.62 61.16
  C 181.59 59.14 189.44 55.79 195.49 50.08
  Q 197.87 47.83 199.13 44.38
  Q 199.17 44.27 199.07 44.21
  L 198.80 44.05
  Q 198.76 44.03 198.74 44.07
  Q 195.21 50.82 187.47 54.71
  C 173.77 61.58 158.01 63.73 142.10 62.83
  C 127.76 62.01 104.68 58.17 97.09 44.06
  A 0.04 0.04 0.0 0 0 97.03 44.05
  L 96.81 44.27
  Q 96.72 44.36 96.78 44.48
  Q 100.56 52.27 109.83 56.66
  Q 118.12 60.58 127.29 62.33
  Q 151.05 66.88 173.62 61.16
  Z"
/>
<path fill="#b8ceee" d="
  M 129.93 49.30
  Q 131.64 50.09 133.51 49.95
  Q 135.29 49.81 137.03 49.76
  Q 139.96 49.67 142.48 47.32
  Q 146.44 43.64 146.87 40.06
  Q 146.93 39.59 146.48 39.44
  Q 145.73 39.18 145.18 39.73
  A 1.58 1.57 -75.0 0 1 144.44 40.16
  C 143.79 40.34 143.09 40.49 142.56 40.93
  Q 138.73 44.17 134.13 46.51
  Q 136.41 44.02 139.38 42.52
  Q 140.54 41.94 141.51 41.02
  Q 142.27 40.30 143.26 39.95
  Q 144.14 39.64 144.92 39.10
  Q 145.95 38.40 147.02 37.96
  Q 148.38 37.41 149.16 35.97
  Q 150.83 32.93 151.18 30.24
  Q 151.25 29.63 151.82 29.40
  Q 152.24 29.23 152.68 29.20
  Q 153.07 29.17 153.32 28.86
  C 154.14 27.79 155.12 26.56 156.48 26.18
  Q 158.26 25.68 160.09 25.29
  Q 161.40 25.02 162.80 24.29
  Q 164.36 23.49 166.25 22.90
  C 168.24 22.28 169.68 23.31 171.69 23.13
  Q 172.34 23.07 172.55 23.70
  Q 172.70 24.12 173.14 24.21
  Q 173.75 24.35 174.20 24.80
  Q 174.43 25.04 174.61 25.31
  A 1.56 1.53 82.5 0 0 175.35 25.89
  Q 180.27 27.70 181.51 28.73
  Q 187.15 33.42 191.28 39.48
  Q 192.60 41.42 192.89 43.66
  Q 192.94 44.07 193.33 44.23
  Q 195.24 44.99 193.89 46.64
  Q 192.88 47.89 191.83 49.05
  Q 191.12 49.84 190.06 49.92
  Q 189.46 49.97 189.02 50.38
  Q 185.90 53.31 182.13 53.82
  Q 180.20 54.08 178.59 54.99
  Q 174.70 57.20 169.01 57.67
  Q 168.49 57.72 168.15 58.10
  Q 167.79 58.48 167.26 58.41
  Q 166.78 58.35 166.30 58.45
  Q 163.49 59.03 160.47 59.31
  Q 158.76 59.48 157.34 59.98
  Q 155.93 60.49 154.58 60.14
  Q 153.49 59.86 152.40 59.87
  Q 147.52 59.88 142.61 59.88
  Q 142.05 59.88 141.53 60.12
  Q 139.37 61.09 137.90 59.89
  Q 137.47 59.54 136.92 59.58
  Q 135.28 59.70 133.73 59.27
  C 131.61 58.67 129.58 59.12 127.55 58.10
  A 1.77 1.76 -38.0 0 0 126.40 57.96
  Q 125.05 58.26 124.20 57.35
  Q 123.82 56.95 123.28 56.97
  Q 121.84 57.02 120.33 56.52
  A 0.63 0.63 0.0 0 1 120.20 55.38
  L 129.93 49.30
  Z"
/>
<path fill="#8eadd7" d="
  M 129.93 49.30
  L 134.13 46.51
  Q 138.73 44.17 142.56 40.93
  C 143.09 40.49 143.79 40.34 144.44 40.16
  A 1.58 1.57 -75.0 0 0 145.18 39.73
  Q 145.73 39.18 146.48 39.44
  Q 146.93 39.59 146.87 40.06
  Q 146.44 43.64 142.48 47.32
  Q 139.96 49.67 137.03 49.76
  Q 135.29 49.81 133.51 49.95
  Q 131.64 50.09 129.93 49.30
  Z"
/>
<ellipse fill="#b8ceee" cx="0.00" cy="0.00" transform="translate(195.51,44.02) rotate(109.1)" rx="0.92" ry="0.44"/>
<path fill="#102d61" d="
  M 195.49 50.08
  C 189.44 55.79 181.59 59.14 173.62 61.16
  Q 151.05 66.88 127.29 62.33
  Q 118.12 60.58 109.83 56.66
  Q 100.56 52.27 96.78 44.48
  Q 96.72 44.36 96.81 44.27
  L 97.03 44.05
  A 0.04 0.04 0.0 0 1 97.09 44.06
  C 104.68 58.17 127.76 62.01 142.10 62.83
  C 158.01 63.73 173.77 61.58 187.47 54.71
  Q 195.21 50.82 198.74 44.07
  Q 198.76 44.03 198.80 44.05
  L 199.07 44.21
  Q 199.17 44.27 199.13 44.38
  Q 197.87 47.83 195.49 50.08
  Z"
/>
<path fill="#8eadd7" d="
  M 199.92 45.91
  L 199.76 93.84
  Q 193.42 92.38 191.76 92.19
  Q 183.99 91.32 175.78 94.58
  Q 173.74 95.39 171.74 96.70
  Q 169.85 97.94 167.67 98.96
  Q 167.20 99.17 166.90 99.58
  Q 165.83 101.07 164.56 102.51
  Q 164.46 102.62 164.35 102.53
  L 164.35 102.52
  Q 164.28 102.47 164.32 102.40
  Q 165.38 100.75 166.44 99.22
  Q 166.65 98.90 166.29 98.76
  Q 166.23 98.74 166.19 98.70
  Q 165.77 98.27 165.36 98.72
  Q 164.82 99.31 164.23 99.81
  Q 164.18 99.85 164.14 99.80
  L 163.96 99.62
  Q 163.78 99.44 163.96 99.26
  L 168.05 95.32
  L 178.06 92.83
  Q 178.54 92.71 178.84 92.32
  Q 179.13 91.94 179.54 91.77
  Q 179.87 91.64 180.67 91.85
  Q 181.46 92.07 182.02 91.69
  Q 183.27 90.84 184.56 89.91
  Q 185.23 89.43 185.98 89.15
  Q 186.93 88.78 187.43 87.82
  Q 187.64 87.40 188.08 87.22
  Q 188.45 87.07 188.79 86.94
  Q 188.88 86.91 188.93 86.99
  Q 188.96 87.04 188.96 87.09
  Q 189.02 87.58 189.34 87.20
  Q 189.73 86.74 190.27 86.46
  Q 190.72 86.23 190.68 86.73
  Q 190.66 87.02 190.47 87.23
  Q 189.70 88.10 190.67 87.47
  Q 195.37 84.42 198.54 79.95
  A 0.76 0.76 0.0 0 0 198.59 79.14
  L 198.44 78.86
  Q 198.17 78.37 198.69 78.18
  Q 200.31 77.58 198.85 75.64
  L 198.80 75.02
  Q 198.72 73.99 198.26 74.91
  Q 196.79 77.79 195.68 78.85
  C 188.74 85.45 179.49 88.84 170.21 90.77
  Q 170.63 90.12 170.63 89.81
  A 0.63 0.63 0.0 0 0 169.75 89.23
  Q 167.66 90.12 165.11 89.33
  Q 164.99 89.29 164.93 89.18
  Q 164.80 88.94 164.91 88.67
  A 0.52 0.52 0.0 0 1 165.45 88.33
  L 168.77 88.67
  Q 169.35 88.73 169.69 88.25
  Q 171.20 86.08 170.88 83.50
  Q 170.83 83.03 170.94 82.58
  Q 171.31 81.06 171.20 79.42
  Q 170.93 75.75 171.40 72.17
  A 2.06 2.00 36.2 0 0 171.20 71.00
  Q 170.47 69.51 170.53 67.87
  Q 170.57 66.56 169.29 66.63
  Q 168.14 66.69 169.19 66.22
  Q 170.82 65.49 172.37 64.55
  Q 176.49 63.56 180.77 61.81
  Q 181.00 61.72 181.17 61.55
  Q 181.27 61.44 181.37 61.33
  Q 181.52 61.16 181.74 61.14
  C 183.34 60.95 184.34 59.72 185.82 59.09
  C 188.89 57.78 191.87 56.57 194.20 53.96
  Q 196.14 51.80 198.21 50.00
  Q 198.26 49.96 198.32 49.95
  Q 198.51 49.92 198.58 50.05
  A 0.07 0.07 0.0 0 0 198.71 50.03
  L 199.92 45.91
  Z"
/>
<path fill="#b8ceee" d="
  M 96.03 49.79
  Q 96.55 50.82 98.51 50.12
  A 0.33 0.32 54.4 0 1 98.84 50.18
  Q 101.14 52.27 102.73 55.05
  Q 103.00 55.53 103.42 55.80
  Q 103.74 56.01 104.05 55.75
  A 0.64 0.64 0.0 0 1 104.92 55.82
  Q 105.65 56.62 106.59 56.86
  Q 107.10 56.99 107.49 57.34
  Q 110.16 59.69 113.28 60.68
  C 115.31 61.32 116.64 62.83 118.81 62.94
  C 120.40 63.02 121.49 63.82 122.98 64.15
  C 127.11 65.08 131.30 65.09 135.34 66.04
  C 137.93 66.65 140.57 67.14 143.24 67.05
  Q 150.46 66.81 157.75 66.91
  Q 158.87 66.92 159.83 66.14
  Q 160.25 65.80 160.79 65.84
  Q 164.06 66.06 166.81 65.05
  Q 167.36 64.85 167.94 64.94
  Q 169.82 65.23 172.37 64.55
  Q 170.82 65.49 169.19 66.22
  Q 168.14 66.69 169.29 66.63
  Q 170.57 66.56 170.53 67.87
  Q 170.47 69.51 171.20 71.00
  A 2.06 2.00 36.2 0 1 171.40 72.17
  Q 170.93 75.75 171.20 79.42
  Q 171.31 81.06 170.94 82.58
  Q 170.83 83.03 170.88 83.50
  Q 171.20 86.08 169.69 88.25
  Q 169.35 88.73 168.77 88.67
  L 165.45 88.33
  A 0.52 0.52 0.0 0 0 164.91 88.67
  Q 164.80 88.94 164.93 89.18
  Q 164.99 89.29 165.11 89.33
  Q 167.66 90.12 169.75 89.23
  A 0.63 0.63 0.0 0 1 170.63 89.81
  Q 170.63 90.12 170.21 90.77
  Q 161.88 92.56 151.50 92.82
  Q 139.17 93.13 128.76 91.38
  Q 117.46 89.48 107.44 84.04
  Q 101.29 80.70 99.56 77.94
  Q 96.03 72.28 97.51 75.91
  Q 96.21 75.63 96.15 77.21
  L 96.03 49.79
  Z"
/>
<path fill="#102d61" d="
  M 170.21 90.77
  C 179.49 88.84 188.74 85.45 195.68 78.85
  Q 196.79 77.79 198.26 74.91
  Q 198.72 73.99 198.80 75.02
  L 198.85 75.64
  Q 195.17 81.39 190.69 84.19
  Q 182.27 89.45 169.74 92.03
  Q 145.01 97.13 121.36 90.90
  C 112.77 88.64 102.26 84.06 97.51 75.91
  Q 96.03 72.28 99.56 77.94
  Q 101.29 80.70 107.44 84.04
  Q 117.46 89.48 128.76 91.38
  Q 139.17 93.13 151.50 92.82
  Q 161.88 92.56 170.21 90.77
  Z"
/>
<path fill="#d5e3f0" d="
  M 198.85 75.64
  Q 200.31 77.58 198.69 78.18
  Q 198.17 78.37 198.44 78.86
  L 198.59 79.14
  A 0.76 0.76 0.0 0 1 198.54 79.95
  Q 195.37 84.42 190.67 87.47
  Q 189.70 88.10 190.47 87.23
  Q 190.66 87.02 190.68 86.73
  Q 190.72 86.23 190.27 86.46
  Q 189.73 86.74 189.34 87.20
  Q 189.02 87.58 188.96 87.09
  Q 188.96 87.04 188.93 86.99
  Q 188.88 86.91 188.79 86.94
  Q 188.45 87.07 188.08 87.22
  Q 187.64 87.40 187.43 87.82
  Q 186.93 88.78 185.98 89.15
  Q 185.23 89.43 184.56 89.91
  Q 183.27 90.84 182.02 91.69
  Q 181.46 92.07 180.67 91.85
  Q 179.87 91.64 179.54 91.77
  Q 179.13 91.94 178.84 92.32
  Q 178.54 92.71 178.06 92.83
  L 168.05 95.32
  Q 165.45 95.56 163.44 96.51
  Q 163.00 96.71 162.86 97.18
  Q 162.64 97.94 161.85 98.15
  Q 161.50 98.24 161.32 97.92
  Q 160.73 96.87 159.37 96.86
  C 151.85 96.78 144.97 97.27 137.21 96.70
  Q 136.73 96.67 136.34 96.38
  C 134.71 95.15 132.09 96.27 130.01 95.74
  Q 125.20 94.50 120.61 93.36
  Q 117.56 92.60 114.78 91.48
  Q 111.99 90.35 109.11 89.14
  Q 106.76 88.16 105.17 86.27
  Q 104.85 85.89 104.39 85.72
  Q 102.07 84.87 100.98 82.95
  Q 100.72 82.50 100.21 82.40
  Q 99.47 82.25 99.03 81.76
  Q 98.76 81.44 98.34 81.36
  L 96.01 80.89
  L 96.15 77.21
  Q 96.21 75.63 97.51 75.91
  C 102.26 84.06 112.77 88.64 121.36 90.90
  Q 145.01 97.13 169.74 92.03
  Q 182.27 89.45 190.69 84.19
  Q 195.17 81.39 198.85 75.64
  Z"
/>
<path fill="#b8ceee" d="
  M 96.01 80.89
  L 98.34 81.36
  Q 98.76 81.44 99.03 81.76
  Q 99.47 82.25 100.21 82.40
  Q 100.72 82.50 100.98 82.95
  Q 102.07 84.87 104.39 85.72
  Q 104.85 85.89 105.17 86.27
  Q 106.76 88.16 109.11 89.14
  Q 111.99 90.35 114.78 91.48
  Q 117.56 92.60 120.61 93.36
  Q 125.20 94.50 130.01 95.74
  C 132.09 96.27 134.71 95.15 136.34 96.38
  Q 136.73 96.67 137.21 96.70
  C 144.97 97.27 151.85 96.78 159.37 96.86
  Q 160.73 96.87 161.32 97.92
  Q 161.50 98.24 161.85 98.15
  Q 162.64 97.94 162.86 97.18
  Q 163.00 96.71 163.44 96.51
  Q 165.45 95.56 168.05 95.32
  L 163.96 99.26
  Q 163.78 99.44 163.96 99.62
  L 164.14 99.80
  Q 164.18 99.85 164.23 99.81
  Q 164.82 99.31 165.36 98.72
  Q 165.77 98.27 166.19 98.70
  Q 166.23 98.74 166.29 98.76
  Q 166.65 98.90 166.44 99.22
  Q 165.38 100.75 164.32 102.40
  Q 164.28 102.47 164.35 102.52
  L 164.35 102.53
  Q 164.46 102.62 164.56 102.51
  Q 165.83 101.07 166.90 99.58
  Q 167.20 99.17 167.67 98.96
  Q 169.85 97.94 171.74 96.70
  Q 173.74 95.39 175.78 94.58
  Q 183.99 91.32 191.76 92.19
  Q 193.42 92.38 199.76 93.84
  Q 200.12 94.53 200.44 94.76
  Q 200.30 95.27 200.51 95.36
  Q 178.80 88.06 164.33 104.32
  Q 157.31 112.21 156.98 123.67
  Q 156.61 123.31 156.29 123.67
  Q 156.31 122.64 155.51 122.69
  Q 139.62 123.72 125.11 120.56
  C 114.20 118.18 103.16 113.88 97.44 104.91
  Q 97.41 104.86 97.35 104.85
  Q 97.30 104.84 97.25 104.86
  Q 97.13 104.89 97.19 105.00
  Q 98.61 107.68 99.76 109.60
  Q 100.47 113.84 105.89 117.11
  Q 115.38 122.83 123.41 123.62
  C 125.93 123.87 127.93 125.33 130.50 125.55
  C 133.41 125.79 136.12 126.50 139.10 126.59
  Q 146.96 126.85 154.90 127.00
  Q 155.43 127.01 155.76 127.42
  L 157.18 129.21
  L 157.83 131.90
  Q 161.44 145.90 173.71 152.43
  Q 172.17 152.29 170.80 152.69
  Q 170.32 152.83 169.83 152.76
  L 167.80 152.47
  Q 168.88 152.49 169.74 152.10
  Q 170.26 151.86 169.90 151.42
  Q 169.42 150.84 168.50 151.03
  Q 146.01 155.60 123.89 150.34
  Q 114.60 148.14 106.26 143.39
  C 100.33 140.02 96.05 135.42 96.00 128.23
  Q 95.86 110.56 96.18 104.82
  Q 96.30 102.51 96.24 100.25
  Q 95.99 90.45 96.01 80.89
  Z"
/>
<path fill="#084005" d="
  M 200.51 95.36
  C 215.80 102.65 223.26 118.21 218.46 134.36
  Q 214.29 148.42 199.25 154.22
  Q 186.46 159.16 173.71 152.43
  Q 161.44 145.90 157.83 131.90
  Q 158.75 133.74 159.51 135.24
  Q 161.12 138.42 162.88 141.48
  C 164.49 144.27 166.62 146.24 168.98 148.34
  Q 170.37 149.01 171.58 149.96
  Q 173.21 151.23 174.12 151.68
  Q 177.95 153.57 182.33 154.73
  Q 185.13 155.47 188.31 155.35
  Q 191.63 155.23 194.24 154.69
  Q 208.12 151.80 215.43 139.09
  Q 217.32 135.06 218.35 130.49
  Q 219.23 126.61 218.73 122.46
  C 217.61 113.07 214.03 105.17 206.01 99.60
  C 192.59 90.64 176.25 92.89 165.37 104.63
  Q 160.03 110.40 158.27 120.45
  Q 157.56 123.56 157.62 127.48
  Q 157.62 127.79 157.14 127.76
  L 156.98 123.67
  Q 157.31 112.21 164.33 104.32
  Q 178.80 88.06 200.51 95.36
  Z"
/>
<path fill="#67c823" d="
  M 206.01 99.60
  Q 205.89 101.10 204.25 101.61
  A 0.96 0.96 0.0 0 0 203.67 102.94
  Q 204.27 104.19 205.25 105.20
  Q 206.09 106.08 206.64 107.35
  Q 208.16 110.92 210.72 113.88
  Q 211.09 114.31 211.06 113.74
  Q 211.04 113.10 210.48 112.75
  Q 210.39 112.69 210.36 112.59
  Q 210.23 112.25 210.50 112.49
  Q 211.33 113.19 211.59 114.18
  Q 212.26 116.71 213.00 119.51
  Q 213.65 122.00 213.77 124.49
  Q 213.95 128.26 214.16 131.99
  Q 214.25 133.68 214.70 135.51
  Q 215.13 137.24 215.43 139.09
  Q 208.12 151.80 194.24 154.69
  Q 191.63 155.23 188.31 155.35
  Q 185.13 155.47 182.33 154.73
  Q 177.95 153.57 174.12 151.68
  Q 173.21 151.23 171.58 149.96
  Q 170.37 149.01 168.98 148.34
  Q 170.60 148.37 172.73 147.69
  A 0.90 0.90 0.0 0 0 173.07 146.18
  Q 172.43 145.59 172.02 144.43
  A 2.40 2.39 13.1 0 0 171.45 143.52
  Q 170.04 142.12 169.66 140.17
  A 2.49 2.49 0.0 0 0 169.03 138.95
  Q 166.81 136.53 166.41 133.62
  Q 166.09 131.37 164.83 129.27
  C 164.23 128.28 163.96 127.10 163.67 126.00
  C 163.16 124.14 163.29 122.27 162.58 120.41
  Q 162.17 119.32 162.15 120.49
  Q 162.09 123.70 163.02 126.81
  Q 163.06 126.95 162.92 126.91
  Q 162.83 126.89 162.92 126.87
  Q 162.99 126.86 162.97 126.79
  Q 161.81 123.46 161.81 119.92
  Q 161.81 119.39 161.28 119.36
  Q 160.15 119.30 158.27 120.45
  Q 160.03 110.40 165.37 104.63
  C 176.25 92.89 192.59 90.64 206.01 99.60
  Z
  M 178.24 138.42
  A 1.46 1.46 0.0 0 0 180.43 139.68
  L 204.15 125.92
  A 1.46 1.46 0.0 0 0 204.15 123.40
  L 180.27 109.54
  A 1.46 1.46 0.0 0 0 178.08 110.81
  L 178.24 138.42
  Z"
/>
<path fill="#12a502" d="
  M 206.01 99.60
  C 214.03 105.17 217.61 113.07 218.73 122.46
  Q 219.23 126.61 218.35 130.49
  Q 217.32 135.06 215.43 139.09
  Q 215.13 137.24 214.70 135.51
  Q 214.25 133.68 214.16 131.99
  Q 213.95 128.26 213.77 124.49
  Q 213.65 122.00 213.00 119.51
  Q 212.26 116.71 211.59 114.18
  Q 211.33 113.19 210.50 112.49
  Q 210.23 112.25 210.36 112.59
  Q 210.39 112.69 210.48 112.75
  Q 211.04 113.10 211.06 113.74
  Q 211.09 114.31 210.72 113.88
  Q 208.16 110.92 206.64 107.35
  Q 206.09 106.08 205.25 105.20
  Q 204.27 104.19 203.67 102.94
  A 0.96 0.96 0.0 0 1 204.25 101.61
  Q 205.89 101.10 206.01 99.60
  Z"
/>
<path fill="#102d61" d="
  M 156.29 123.67
  Q 156.16 123.74 156.06 123.80
  Q 155.95 123.86 155.81 123.88
  Q 136.50 125.59 118.03 119.86
  Q 112.32 118.09 107.16 115.09
  Q 103.63 113.03 99.76 109.60
  Q 98.61 107.68 97.19 105.00
  Q 97.13 104.89 97.25 104.86
  Q 97.30 104.84 97.35 104.85
  Q 97.41 104.86 97.44 104.91
  C 103.16 113.88 114.20 118.18 125.11 120.56
  Q 139.62 123.72 155.51 122.69
  Q 156.31 122.64 156.29 123.67
  Z"
/>
<path fill="#071702" d="
  M 178.24 138.42
  L 178.08 110.81
  A 1.46 1.46 0.0 0 1 180.27 109.54
  L 204.15 123.40
  A 1.46 1.46 0.0 0 1 204.15 125.92
  L 180.43 139.68
  A 1.46 1.46 0.0 0 1 178.24 138.42
  Z
  M 180.29 110.59
  A 0.76 0.76 0.0 0 0 179.15 111.25
  L 179.10 137.96
  A 0.76 0.76 0.0 0 0 180.24 138.62
  L 203.52 125.31
  A 0.76 0.76 0.0 0 0 203.52 123.99
  L 180.29 110.59
  Z"
/>
<path fill="#d5e3f0" d="
  M 99.76 109.60
  Q 103.63 113.03 107.16 115.09
  Q 112.32 118.09 118.03 119.86
  Q 136.50 125.59 155.81 123.88
  Q 155.95 123.86 156.06 123.80
  Q 156.16 123.74 156.29 123.67
  Q 156.61 123.31 156.98 123.67
  L 157.14 127.76
  L 157.18 129.21
  L 155.76 127.42
  Q 155.43 127.01 154.90 127.00
  Q 146.96 126.85 139.10 126.59
  C 136.12 126.50 133.41 125.79 130.50 125.55
  C 127.93 125.33 125.93 123.87 123.41 123.62
  Q 115.38 122.83 105.89 117.11
  Q 100.47 113.84 99.76 109.60
  Z"
/>
<path fill="#fdfcfd" d="
  M 180.29 110.59
  L 203.52 123.99
  A 0.76 0.76 0.0 0 1 203.52 125.31
  L 180.24 138.62
  A 0.76 0.76 0.0 0 1 179.10 137.96
  L 179.15 111.25
  A 0.76 0.76 0.0 0 1 180.29 110.59
  Z"
/>
<path fill="#12a502" d="
  M 168.98 148.34
  C 166.62 146.24 164.49 144.27 162.88 141.48
  Q 161.12 138.42 159.51 135.24
  Q 158.75 133.74 157.83 131.90
  L 157.18 129.21
  L 157.14 127.76
  Q 157.62 127.79 157.62 127.48
  Q 157.56 123.56 158.27 120.45
  Q 160.15 119.30 161.28 119.36
  Q 161.81 119.39 161.81 119.92
  Q 161.81 123.46 162.97 126.79
  Q 162.99 126.86 162.92 126.87
  Q 162.83 126.89 162.92 126.91
  Q 163.06 126.95 163.02 126.81
  Q 162.09 123.70 162.15 120.49
  Q 162.17 119.32 162.58 120.41
  C 163.29 122.27 163.16 124.14 163.67 126.00
  C 163.96 127.10 164.23 128.28 164.83 129.27
  Q 166.09 131.37 166.41 133.62
  Q 166.81 136.53 169.03 138.95
  A 2.49 2.49 0.0 0 1 169.66 140.17
  Q 170.04 142.12 171.45 143.52
  A 2.40 2.39 13.1 0 1 172.02 144.43
  Q 172.43 145.59 173.07 146.18
  A 0.90 0.90 0.0 0 1 172.73 147.69
  Q 170.60 148.37 168.98 148.34
  Z"
/>
</svg>
