<?xml version="1.0" encoding="UTF-8" standalone="no"?>
<!DOCTYPE svg PUBLIC "-//W3C//DTD SVG 1.1//EN" "http://www.w3.org/Graphics/SVG/1.1/DTD/svg11.dtd">
<svg xmlns="http://www.w3.org/2000/svg" version="1.1" viewBox="0.00 0.00 240.00 240.00">
<path fill="#00acc1" d="
  M 238.53 74.68
  L 238.97 73.28
  A 0.21 0.21 0.0 0 1 239.37 73.39
  Q 235.18 91.29 223.77 103.51
  C 207.12 121.36 176.29 123.31 154.40 115.60
  C 139.31 110.28 130.17 98.20 116.77 86.67
  Q 111.80 82.39 107.93 80.49
  C 91.15 72.24 73.42 78.39 62.44 92.83
  Q 59.76 96.37 60.99 92.10
  C 66.57 72.82 78.96 56.55 98.78 51.04
  Q 109.68 48.00 122.73 48.27
  Q 142.29 48.66 157.99 59.00
  C 166.14 64.37 175.15 73.78 183.08 81.41
  Q 185.90 84.13 190.31 86.74
  C 196.51 90.42 203.13 91.21 210.15 90.80
  C 221.22 90.15 231.04 83.36 237.59 74.65
  A 0.37 0.36 36.9 0 1 238.11 74.58
  L 238.32 74.75
  A 0.14 0.13 -61.8 0 0 238.53 74.68
  Z"
/>
<path fill="#00acc1" d="
  M 1.18 165.97
  L 0.95 166.48
  Q 0.28 167.90 0.58 166.36
  Q 1.65 160.84 5.20 153.00
  C 13.91 133.75 28.17 124.07 48.51 120.89
  Q 85.89 115.05 112.48 143.20
  C 119.29 150.40 126.39 158.25 135.12 161.09
  Q 140.96 162.98 147.46 163.21
  C 159.92 163.65 171.40 155.39 178.49 145.90
  A 0.48 0.47 -19.4 0 1 179.33 146.30
  C 173.06 169.59 158.75 186.13 134.74 190.74
  C 115.58 194.43 92.24 190.97 77.09 177.65
  Q 66.64 168.47 63.37 164.88
  C 56.01 156.82 48.01 150.22 37.25 149.38
  C 31.39 148.92 25.62 149.02 20.17 151.32
  Q 9.74 155.70 2.67 164.91
  Q 2.44 165.21 1.87 165.38
  Q 1.39 165.52 1.18 165.97
  Z"
/>
</svg>
