<?xml version="1.0" encoding="UTF-8" standalone="no"?>
<!DOCTYPE svg PUBLIC "-//W3C//DTD SVG 1.1//EN" "http://www.w3.org/Graphics/SVG/1.1/DTD/svg11.dtd">
<svg xmlns="http://www.w3.org/2000/svg" version="1.1" viewBox="0.00 0.00 300.00 300.00">
<g stroke-width="1.10" fill="none" stroke-linecap="butt">
<path stroke="#80bde6" vector-effect="non-scaling-stroke" d="
  M 221.45 215.85
  Q 230.48 219.69 238.28 223.67
  C 245.32 227.25 249.79 232.11 247.77 240.62
  C 246.40 246.38 240.06 249.70 234.44 250.56
  C 219.93 252.77 209.89 246.43 202.34 234.51
  A 0.59 0.59 0.0 0 0 201.56 234.32
  L 179.95 246.80
  A 0.84 0.83 61.2 0 0 179.63 247.91
  Q 188.65 265.01 207.24 271.88
  C 216.30 275.22 225.60 275.98 235.50 275.47
  Q 245.84 274.94 255.04 270.57
  Q 274.85 261.15 276.14 239.68
  Q 277.58 215.45 258.24 203.04
  C 247.77 196.33 236.43 192.08 225.24 186.59
  C 219.79 183.92 215.42 180.07 215.29 173.66
  C 215.04 160.47 230.47 158.81 238.85 164.14
  C 241.89 166.08 244.15 169.71 246.39 172.58
  A 0.69 0.69 0.0 0 0 247.32 172.73
  L 267.50 159.31
  A 0.77 0.76 -33.4 0 0 267.72 158.26
  C 256.36 140.50 241.68 135.27 221.01 137.47
  C 202.83 139.40 187.88 153.68 187.82 172.73
  Q 187.80 177.36 188.36 181.65
  C 190.65 199.44 205.98 209.27 221.45 215.85"
/>
<path stroke="#80bde6" vector-effect="non-scaling-stroke" d="
  M 104.72 163.24
  A 0.52 0.52 0.0 0 1 105.24 163.76
  L 105.24 273.54
  A 0.52 0.52 0.0 0 0 105.76 274.06
  L 132.27 274.06
  A 0.52 0.52 0.0 0 0 132.79 273.54
  L 132.78 163.74
  A 0.52 0.52 0.0 0 1 133.30 163.22
  L 171.36 163.23
  A 0.52 0.52 0.0 0 0 171.88 162.71
  L 171.71 139.02
  A 0.52 0.52 0.0 0 0 171.19 138.50
  L 66.99 138.63
  A 0.52 0.52 0.0 0 0 66.47 139.14
  L 66.21 162.68
  A 0.52 0.52 0.0 0 0 66.73 163.21
  L 104.72 163.24"
/>
</g>
<path fill="#007acd" d="
  M 0.00 0.00
  L 300.00 0.00
  L 300.00 300.00
  L 0.00 300.00
  L 0.00 0.00
  Z
  M 221.45 215.85
  Q 230.48 219.69 238.28 223.67
  C 245.32 227.25 249.79 232.11 247.77 240.62
  C 246.40 246.38 240.06 249.70 234.44 250.56
  C 219.93 252.77 209.89 246.43 202.34 234.51
  A 0.59 0.59 0.0 0 0 201.56 234.32
  L 179.95 246.80
  A 0.84 0.83 61.2 0 0 179.63 247.91
  Q 188.65 265.01 207.24 271.88
  C 216.30 275.22 225.60 275.98 235.50 275.47
  Q 245.84 274.94 255.04 270.57
  Q 274.85 261.15 276.14 239.68
  Q 277.58 215.45 258.24 203.04
  C 247.77 196.33 236.43 192.08 225.24 186.59
  C 219.79 183.92 215.42 180.07 215.29 173.66
  C 215.04 160.47 230.47 158.81 238.85 164.14
  C 241.89 166.08 244.15 169.71 246.39 172.58
  A 0.69 0.69 0.0 0 0 247.32 172.73
  L 267.50 159.31
  A 0.77 0.76 -33.4 0 0 267.72 158.26
  C 256.36 140.50 241.68 135.27 221.01 137.47
  C 202.83 139.40 187.88 153.68 187.82 172.73
  Q 187.80 177.36 188.36 181.65
  C 190.65 199.44 205.98 209.27 221.45 215.85
  Z
  M 104.72 163.24
  A 0.52 0.52 0.0 0 1 105.24 163.76
  L 105.24 273.54
  A 0.52 0.52 0.0 0 0 105.76 274.06
  L 132.27 274.06
  A 0.52 0.52 0.0 0 0 132.79 273.54
  L 132.78 163.74
  A 0.52 0.52 0.0 0 1 133.30 163.22
  L 171.36 163.23
  A 0.52 0.52 0.0 0 0 171.88 162.71
  L 171.71 139.02
  A 0.52 0.52 0.0 0 0 171.19 138.50
  L 66.99 138.63
  A 0.52 0.52 0.0 0 0 66.47 139.14
  L 66.21 162.68
  A 0.52 0.52 0.0 0 0 66.73 163.21
  L 104.72 163.24
  Z"
/>
<path fill="#ffffff" d="
  M 221.45 215.85
  C 205.98 209.27 190.65 199.44 188.36 181.65
  Q 187.80 177.36 187.82 172.73
  C 187.88 153.68 202.83 139.40 221.01 137.47
  C 241.68 135.27 256.36 140.50 267.72 158.26
  A 0.77 0.76 -33.4 0 1 267.50 159.31
  L 247.32 172.73
  A 0.69 0.69 0.0 0 1 246.39 172.58
  C 244.15 169.71 241.89 166.08 238.85 164.14
  C 230.47 158.81 215.04 160.47 215.29 173.66
  C 215.42 180.07 219.79 183.92 225.24 186.59
  C 236.43 192.08 247.77 196.33 258.24 203.04
  Q 277.58 215.45 276.14 239.68
  Q 274.85 261.15 255.04 270.57
  Q 245.84 274.94 235.50 275.47
  C 225.60 275.98 216.30 275.22 207.24 271.88
  Q 188.65 265.01 179.63 247.91
  A 0.84 0.83 61.2 0 1 179.95 246.80
  L 201.56 234.32
  A 0.59 0.59 0.0 0 1 202.34 234.51
  C 209.89 246.43 219.93 252.77 234.44 250.56
  C 240.06 249.70 246.40 246.38 247.77 240.62
  C 249.79 232.11 245.32 227.25 238.28 223.67
  Q 230.48 219.69 221.45 215.85
  Z"
/>
<path fill="#ffffff" d="
  M 104.72 163.24
  L 66.73 163.21
  A 0.52 0.52 0.0 0 1 66.21 162.68
  L 66.47 139.14
  A 0.52 0.52 0.0 0 1 66.99 138.63
  L 171.19 138.50
  A 0.52 0.52 0.0 0 1 171.71 139.02
  L 171.88 162.71
  A 0.52 0.52 0.0 0 1 171.36 163.23
  L 133.30 163.22
  A 0.52 0.52 0.0 0 0 132.78 163.74
  L 132.79 273.54
  A 0.52 0.52 0.0 0 1 132.27 274.06
  L 105.76 274.06
  A 0.52 0.52 0.0 0 1 105.24 273.54
  L 105.24 163.76
  A 0.52 0.52 0.0 0 0 104.72 163.24
  Z"
/>
</svg>
