<?xml version="1.0" encoding="UTF-8" standalone="no"?>
<!DOCTYPE svg PUBLIC "-//W3C//DTD SVG 1.1//EN" "http://www.w3.org/Graphics/SVG/1.1/DTD/svg11.dtd">
<svg xmlns="http://www.w3.org/2000/svg" version="1.1" viewBox="0.00 0.00 256.00 256.00">
<path stroke="#c3afe2" stroke-width="1.10" fill="none" stroke-linecap="butt" vector-effect="non-scaling-stroke" d="
  M 31.23 88.89
  A 0.34 0.34 0.0 0 0 30.65 89.13
  L 30.65 129.59
  A 0.34 0.34 0.0 0 0 31.23 129.83
  L 51.68 109.60
  A 0.34 0.34 0.0 0 0 51.68 109.12
  L 31.23 88.89"
/>
<path fill="#865fc4" d="
  M 192.02 0.00
  L 193.29 0.00
  Q 194.93 1.34 196.29 1.92
  Q 206.14 6.16 236.67 19.11
  Q 246.22 23.16 256.00 26.61
  L 256.00 229.54
  Q 251.88 230.77 247.92 232.40
  Q 223.71 242.36 199.58 252.53
  C 195.22 254.37 192.22 256.05 187.50 254.38
  Q 183.50 252.96 179.22 251.53
  Q 165.80 247.03 148.98 241.26
  Q 146.78 240.51 144.55 239.75
  Q 107.18 227.05 79.52 217.92
  Q 68.54 214.30 55.91 210.12
  Q 28.18 200.94 2.46 192.60
  A 0.94 0.93 2.0 0 1 1.85 191.96
  L 1.78 191.70
  Q 1.70 191.46 1.96 191.49
  Q 35.66 196.52 70.00 201.76
  Q 108.17 207.57 143.38 212.83
  Q 144.75 213.04 146.15 213.11
  C 147.52 213.18 148.78 213.69 150.20 213.88
  Q 171.61 216.70 191.54 220.32
  A 0.39 0.39 0.0 0 0 192.00 219.94
  L 192.02 0.00
  Z"
/>
<path fill="#865fc4" d="
  M 65.78 123.04
  Q 64.80 123.18 63.76 124.00
  Q 47.73 136.59 32.15 148.47
  A 3.88 3.85 33.8 0 1 28.77 149.13
  Q 24.72 148.03 21.05 146.71
  C 19.47 146.15 17.67 146.18 16.41 145.11
  Q 16.00 144.75 16.00 144.20
  L 16.00 74.78
  Q 16.00 73.25 17.47 72.79
  L 29.29 69.11
  A 2.49 2.48 -34.7 0 1 31.52 69.51
  L 64.45 94.75
  A 2.25 2.25 0.0 0 0 67.41 94.55
  Q 85.64 76.07 104.96 56.96
  Q 112.60 49.40 119.67 41.92
  C 121.84 39.62 124.13 36.59 127.73 38.31
  Q 141.25 44.76 150.95 48.54
  Q 155.38 50.27 159.32 52.18
  Q 159.98 52.51 159.99 53.24
  Q 160.03 95.12 159.85 135.47
  Q 159.79 150.30 160.02 164.62
  A 2.29 2.27 78.8 0 1 158.59 166.77
  Q 142.52 173.25 127.08 180.17
  C 124.47 181.33 122.56 178.92 120.94 177.31
  Q 93.36 149.74 66.93 123.43
  Q 66.45 122.95 65.78 123.04
  Z
  M 124.27 139.88
  A 0.46 0.46 0.0 0 0 125.01 139.51
  L 125.01 78.93
  A 0.46 0.46 0.0 0 0 124.27 78.56
  L 84.04 108.85
  A 0.46 0.46 0.0 0 0 84.04 109.59
  L 124.27 139.88
  Z
  M 31.23 88.89
  A 0.34 0.34 0.0 0 0 30.65 89.13
  L 30.65 129.59
  A 0.34 0.34 0.0 0 0 31.23 129.83
  L 51.68 109.60
  A 0.34 0.34 0.0 0 0 51.68 109.12
  L 31.23 88.89
  Z"
/>
<path fill="#ffffff" d="
  M 31.23 88.89
  L 51.68 109.12
  A 0.34 0.34 0.0 0 1 51.68 109.60
  L 31.23 129.83
  A 0.34 0.34 0.0 0 1 30.65 129.59
  L 30.65 89.13
  A 0.34 0.34 0.0 0 1 31.23 88.89
  Z"
/>
</svg>
