<?xml version="1.0" encoding="UTF-8" standalone="no"?>
<!DOCTYPE svg PUBLIC "-//W3C//DTD SVG 1.1//EN" "http://www.w3.org/Graphics/SVG/1.1/DTD/svg11.dtd">
<svg xmlns="http://www.w3.org/2000/svg" version="1.1" viewBox="0.00 0.00 300.00 299.00">
<g stroke-width="1.10" fill="none" stroke-linecap="butt">
<path stroke="#bc8cf3" vector-effect="non-scaling-stroke" d="
  M 300.00 117.81
  L 299.56 122.15
  Q 299.55 122.28 299.42 122.24
  L 299.14 122.15
  A 0.26 0.26 0.0 0 1 298.95 121.91
  L 298.60 117.79
  Q 298.54 117.14 297.90 117.28
  L 295.97 117.71
  Q 295.43 117.83 295.18 118.34
  Q 294.86 119.01 294.11 118.97
  Q 294.01 118.96 293.96 118.90
  Q 293.81 118.74 293.93 118.61
  A 0.06 0.06 0.0 0 0 293.89 118.50
  L 288.84 118.48
  Q 288.33 118.48 287.90 118.77
  Q 287.59 118.99 287.23 119.00
  Q 285.16 119.09 282.48 118.76
  C 280.82 118.55 279.58 119.19 277.97 119.25
  Q 276.49 119.31 275.28 119.93
  Q 273.11 121.05 270.61 121.94
  Q 270.03 122.15 269.52 122.51
  Q 268.25 123.40 266.91 122.49
  Q 266.66 122.32 266.40 122.45
  Q 265.04 123.13 263.38 122.70
  Q 263.18 122.65 263.19 122.44
  Q 263.23 121.97 262.83 122.22
  Q 261.89 122.82 260.75 122.79
  Q 260.02 122.76 259.43 122.40
  Q 258.77 121.99 258.02 122.23
  A 1.47 1.46 48.2 0 1 257.00 122.17
  Q 253.83 120.79 250.42 121.67
  A 0.40 0.40 0.0 0 0 250.12 122.03
  Q 250.11 122.18 250.11 122.33
  Q 250.13 122.97 249.49 122.86
  Q 248.44 122.68 247.58 123.19
  A 1.56 1.56 0.0 0 1 246.32 123.33
  Q 244.96 122.88 243.50 123.00
  Q 242.83 123.06 242.83 122.40
  Q 242.84 122.21 242.46 122.10
  Q 241.89 121.94 241.53 122.42
  Q 241.25 122.81 240.88 122.39
  A 0.95 0.95 0.0 0 0 239.81 122.13
  Q 237.10 123.18 235.39 125.28
  Q 235.30 125.39 235.17 125.35
  Q 234.97 125.30 234.99 125.11
  A 0.27 0.27 0.0 0 0 234.66 124.82
  Q 233.99 124.97 233.56 125.44
  Q 233.28 125.72 233.32 126.12
  Q 233.45 127.54 233.30 128.93
  Q 233.22 129.70 232.98 128.97
  Q 232.86 128.59 232.84 128.20
  A 0.73 0.72 -85.3 0 0 232.28 127.53
  Q 231.16 127.27 231.05 126.15
  Q 231.04 125.99 230.89 125.90
  Q 230.67 125.77 230.62 125.92
  Q 230.41 126.59 229.88 126.07
  Q 228.85 125.06 227.89 125.80
  Q 227.49 126.10 227.47 126.60
  Q 227.41 127.78 226.25 128.08
  Q 225.80 127.63 225.01 128.30"
/>
<path stroke="#a476d9" vector-effect="non-scaling-stroke" d="
  M 225.09 85.43
  Q 224.94 52.17 224.98 18.74
  Q 224.99 11.64 223.74 8.93
  Q 221.37 3.79 214.90 2.66
  Q 214.00 2.50 212.63 2.88
  Q 211.16 3.28 210.24 2.88"
/>
<path stroke="#8f60c7" vector-effect="non-scaling-stroke" d="
  M 147.34 149.81
  L 106.96 116.21"
/>
<path stroke="#9360cd" vector-effect="non-scaling-stroke" d="
  M 163.29 162.93
  Q 163.67 164.26 162.89 164.79
  Q 162.35 165.16 162.02 164.60
  L 161.74 164.12
  Q 161.39 163.52 160.82 163.92
  Q 160.07 164.44 159.59 163.77
  Q 159.29 163.34 158.77 163.31
  Q 157.79 163.25 157.49 164.19
  Q 157.37 164.59 156.95 164.66
  Q 155.29 164.93 154.40 163.45
  Q 154.26 163.20 154.00 163.10
  Q 153.85 163.04 153.80 163.19
  Q 153.61 163.74 153.10 163.46
  Q 150.72 162.15 148.82 163.74
  A 1.56 1.56 0.0 0 1 147.54 164.08
  Q 143.74 163.39 140.15 164.05
  Q 137.85 164.47 135.33 164.24
  Q 133.00 164.02 130.75 164.27
  Q 129.72 164.39 128.63 164.27
  C 126.84 164.08 124.94 164.45 123.09 164.39
  Q 115.25 164.11 109.75 164.35
  Q 108.65 164.40 105.72 165.13
  A 1.78 1.74 -36.1 0 1 104.41 164.94
  Q 103.88 164.62 103.28 164.47
  Q 101.06 163.91 99.91 165.74
  Q 99.73 166.03 99.39 166.10
  Q 97.91 166.38 96.71 167.28
  Q 96.55 167.40 96.35 167.41
  Q 96.15 167.42 95.98 167.35
  Q 95.25 167.06 95.55 167.85
  Q 96.06 169.18 94.65 170.08"
/>
<path stroke="#8856c3" vector-effect="non-scaling-stroke" d="
  M 94.65 170.08
  L 76.52 149.86"
/>
<path stroke="#8052b4" vector-effect="non-scaling-stroke" d="
  M 38.02 106.64
  Q 36.90 106.31 36.23 105.56
  Q 25.64 93.66 13.84 80.67
  C 11.40 77.99 8.38 75.87 4.66 77.28
  Q 3.46 77.74 2.27 79.03
  Q 1.23 80.14 0.00 80.93"
/>
<path stroke="#7141a8" vector-effect="non-scaling-stroke" d="
  M 37.06 193.18
  Q 35.80 194.83 33.45 197.38
  Q 23.55 208.09 13.19 219.27
  Q 9.63 223.11 4.58 222.16
  Q 2.79 221.82 2.05 220.08
  Q 1.78 219.43 1.11 219.23
  Q 0.53 219.06 0.00 219.25"
/>
<path stroke="#a36fdf" vector-effect="non-scaling-stroke" d="
  M 208.64 295.89
  Q 219.78 298.38 223.61 290.83
  Q 225.00 288.09 225.00 282.43
  Q 225.05 248.45 225.04 214.55"
/>
<path stroke="#844fc1" vector-effect="non-scaling-stroke" d="
  M 94.65 170.08
  L 106.68 183.43"
/>
</g>
<path fill="#c093f3" d="
  M 216.12 0.00
  L 223.48 0.00
  Q 233.92 5.33 244.54 10.15
  C 245.05 10.38 245.37 10.81 245.93 11.08
  Q 255.76 15.69 265.51 20.48
  Q 271.44 23.39 278.70 26.70
  Q 288.78 31.29 291.78 33.16
  Q 296.78 36.28 300.00 43.65
  L 300.00 117.81
  L 299.56 122.15
  Q 299.55 122.28 299.42 122.24
  L 299.14 122.15
  A 0.26 0.26 0.0 0 1 298.95 121.91
  L 298.60 117.79
  Q 298.54 117.14 297.90 117.28
  L 295.97 117.71
  Q 295.43 117.83 295.18 118.34
  Q 294.86 119.01 294.11 118.97
  Q 294.01 118.96 293.96 118.90
  Q 293.81 118.74 293.93 118.61
  A 0.06 0.06 0.0 0 0 293.89 118.50
  L 288.84 118.48
  Q 288.33 118.48 287.90 118.77
  Q 287.59 118.99 287.23 119.00
  Q 285.16 119.09 282.48 118.76
  C 280.82 118.55 279.58 119.19 277.97 119.25
  Q 276.49 119.31 275.28 119.93
  Q 273.11 121.05 270.61 121.94
  Q 270.03 122.15 269.52 122.51
  Q 268.25 123.40 266.91 122.49
  Q 266.66 122.32 266.40 122.45
  Q 265.04 123.13 263.38 122.70
  Q 263.18 122.65 263.19 122.44
  Q 263.23 121.97 262.83 122.22
  Q 261.89 122.82 260.75 122.79
  Q 260.02 122.76 259.43 122.40
  Q 258.77 121.99 258.02 122.23
  A 1.47 1.46 48.2 0 1 257.00 122.17
  Q 253.83 120.79 250.42 121.67
  A 0.40 0.40 0.0 0 0 250.12 122.03
  Q 250.11 122.18 250.11 122.33
  Q 250.13 122.97 249.49 122.86
  Q 248.44 122.68 247.58 123.19
  A 1.56 1.56 0.0 0 1 246.32 123.33
  Q 244.96 122.88 243.50 123.00
  Q 242.83 123.06 242.83 122.40
  Q 242.84 122.21 242.46 122.10
  Q 241.89 121.94 241.53 122.42
  Q 241.25 122.81 240.88 122.39
  A 0.95 0.95 0.0 0 0 239.81 122.13
  Q 237.10 123.18 235.39 125.28
  Q 235.30 125.39 235.17 125.35
  Q 234.97 125.30 234.99 125.11
  A 0.27 0.27 0.0 0 0 234.66 124.82
  Q 233.99 124.97 233.56 125.44
  Q 233.28 125.72 233.32 126.12
  Q 233.45 127.54 233.30 128.93
  Q 233.22 129.70 232.98 128.97
  Q 232.86 128.59 232.84 128.20
  A 0.73 0.72 -85.3 0 0 232.28 127.53
  Q 231.16 127.27 231.05 126.15
  Q 231.04 125.99 230.89 125.90
  Q 230.67 125.77 230.62 125.92
  Q 230.41 126.59 229.88 126.07
  Q 228.85 125.06 227.89 125.80
  Q 227.49 126.10 227.47 126.60
  Q 227.41 127.78 226.25 128.08
  Q 225.80 127.63 225.01 128.30
  L 225.09 85.43
  Q 224.94 52.17 224.98 18.74
  Q 224.99 11.64 223.74 8.93
  Q 221.37 3.79 214.90 2.66
  Q 214.00 2.50 212.63 2.88
  Q 211.16 3.28 210.24 2.88
  L 216.12 0.00
  Z"
/>
<path fill="#8758be" d="
  M 225.09 85.43
  Q 176.93 125.69 155.85 142.34
  Q 149.32 147.51 147.34 149.81
  L 106.96 116.21
  Q 112.48 109.54 115.64 106.13
  Q 129.09 91.60 144.83 74.08
  Q 149.45 68.94 154.02 63.76
  Q 158.87 58.25 163.23 53.46
  Q 187.57 26.74 196.54 16.79
  Q 198.62 14.49 201.88 10.39
  Q 205.73 5.55 210.24 2.88
  Q 211.16 3.28 212.63 2.88
  Q 214.00 2.50 214.90 2.66
  Q 221.37 3.79 223.74 8.93
  Q 224.99 11.64 224.98 18.74
  Q 224.94 52.17 225.09 85.43
  Z"
/>
<path fill="#9767cf" d="
  M 106.96 116.21
  L 147.34 149.81
  Q 149.37 152.04 150.55 152.94
  Q 157.02 157.85 163.29 162.93
  Q 163.67 164.26 162.89 164.79
  Q 162.35 165.16 162.02 164.60
  L 161.74 164.12
  Q 161.39 163.52 160.82 163.92
  Q 160.07 164.44 159.59 163.77
  Q 159.29 163.34 158.77 163.31
  Q 157.79 163.25 157.49 164.19
  Q 157.37 164.59 156.95 164.66
  Q 155.29 164.93 154.40 163.45
  Q 154.26 163.20 154.00 163.10
  Q 153.85 163.04 153.80 163.19
  Q 153.61 163.74 153.10 163.46
  Q 150.72 162.15 148.82 163.74
  A 1.56 1.56 0.0 0 1 147.54 164.08
  Q 143.74 163.39 140.15 164.05
  Q 137.85 164.47 135.33 164.24
  Q 133.00 164.02 130.75 164.27
  Q 129.72 164.39 128.63 164.27
  C 126.84 164.08 124.94 164.45 123.09 164.39
  Q 115.25 164.11 109.75 164.35
  Q 108.65 164.40 105.72 165.13
  A 1.78 1.74 -36.1 0 1 104.41 164.94
  Q 103.88 164.62 103.28 164.47
  Q 101.06 163.91 99.91 165.74
  Q 99.73 166.03 99.39 166.10
  Q 97.91 166.38 96.71 167.28
  Q 96.55 167.40 96.35 167.41
  Q 96.15 167.42 95.98 167.35
  Q 95.25 167.06 95.55 167.85
  Q 96.06 169.18 94.65 170.08
  L 76.52 149.86
  Q 76.17 149.13 75.31 148.19
  Q 65.59 137.63 40.81 109.94
  C 39.89 108.90 39.78 107.03 38.02 106.64
  Q 36.90 106.31 36.23 105.56
  Q 25.64 93.66 13.84 80.67
  C 11.40 77.99 8.38 75.87 4.66 77.28
  Q 3.46 77.74 2.27 79.03
  Q 1.23 80.14 0.00 80.93
  L 0.00 79.49
  C 1.26 77.73 1.71 75.82 3.25 74.34
  Q 5.36 72.30 7.43 71.47
  Q 17.62 67.39 27.05 63.31
  Q 28.71 62.60 30.52 61.84
  C 34.63 60.13 39.73 60.84 42.90 63.58
  Q 51.52 71.03 59.30 77.41
  Q 82.30 96.30 105.30 115.18
  Q 106.06 115.80 106.96 116.21
  Z"
/>
<path fill="#683d99" d="
  M 38.02 106.64
  Q 37.09 106.53 37.16 107.77
  C 37.21 108.73 37.64 109.91 37.64 111.08
  Q 37.64 144.79 37.68 178.50
  Q 37.69 185.48 37.06 193.18
  Q 35.80 194.83 33.45 197.38
  Q 23.55 208.09 13.19 219.27
  Q 9.63 223.11 4.58 222.16
  Q 2.79 221.82 2.05 220.08
  Q 1.78 219.43 1.11 219.23
  Q 0.53 219.06 0.00 219.25
  L 0.00 80.93
  Q 1.23 80.14 2.27 79.03
  Q 3.46 77.74 4.66 77.28
  C 8.38 75.87 11.40 77.99 13.84 80.67
  Q 25.64 93.66 36.23 105.56
  Q 36.90 106.31 38.02 106.64
  Z"
/>
<path fill="#b885f2" d="
  M 300.00 117.81
  L 300.00 255.46
  C 295.63 265.45 287.42 268.99 277.56 273.09
  C 274.91 274.18 272.38 275.69 269.74 276.92
  Q 246.80 287.65 224.09 299.00
  L 215.26 299.00
  L 208.64 295.89
  Q 219.78 298.38 223.61 290.83
  Q 225.00 288.09 225.00 282.43
  Q 225.05 248.45 225.04 214.55
  L 225.01 128.30
  Q 225.80 127.63 226.25 128.08
  Q 227.41 127.78 227.47 126.60
  Q 227.49 126.10 227.89 125.80
  Q 228.85 125.06 229.88 126.07
  Q 230.41 126.59 230.62 125.92
  Q 230.67 125.77 230.89 125.90
  Q 231.04 125.99 231.05 126.15
  Q 231.16 127.27 232.28 127.53
  A 0.73 0.72 -85.3 0 1 232.84 128.20
  Q 232.86 128.59 232.98 128.97
  Q 233.22 129.70 233.30 128.93
  Q 233.45 127.54 233.32 126.12
  Q 233.28 125.72 233.56 125.44
  Q 233.99 124.97 234.66 124.82
  A 0.27 0.27 0.0 0 1 234.99 125.11
  Q 234.97 125.30 235.17 125.35
  Q 235.30 125.39 235.39 125.28
  Q 237.10 123.18 239.81 122.13
  A 0.95 0.95 0.0 0 1 240.88 122.39
  Q 241.25 122.81 241.53 122.42
  Q 241.89 121.94 242.46 122.10
  Q 242.84 122.21 242.83 122.40
  Q 242.83 123.06 243.50 123.00
  Q 244.96 122.88 246.32 123.33
  A 1.56 1.56 0.0 0 0 247.58 123.19
  Q 248.44 122.68 249.49 122.86
  Q 250.13 122.97 250.11 122.33
  Q 250.11 122.18 250.12 122.03
  A 0.40 0.40 0.0 0 1 250.42 121.67
  Q 253.83 120.79 257.00 122.17
  A 1.47 1.46 48.2 0 0 258.02 122.23
  Q 258.77 121.99 259.43 122.40
  Q 260.02 122.76 260.75 122.79
  Q 261.89 122.82 262.83 122.22
  Q 263.23 121.97 263.19 122.44
  Q 263.18 122.65 263.38 122.70
  Q 265.04 123.13 266.40 122.45
  Q 266.66 122.32 266.91 122.49
  Q 268.25 123.40 269.52 122.51
  Q 270.03 122.15 270.61 121.94
  Q 273.11 121.05 275.28 119.93
  Q 276.49 119.31 277.97 119.25
  C 279.58 119.19 280.82 118.55 282.48 118.76
  Q 285.16 119.09 287.23 119.00
  Q 287.59 118.99 287.90 118.77
  Q 288.33 118.48 288.84 118.48
  L 293.89 118.50
  A 0.06 0.06 0.0 0 1 293.93 118.61
  Q 293.81 118.74 293.96 118.90
  Q 294.01 118.96 294.11 118.97
  Q 294.86 119.01 295.18 118.34
  Q 295.43 117.83 295.97 117.71
  L 297.90 117.28
  Q 298.54 117.14 298.60 117.79
  L 298.95 121.91
  A 0.26 0.26 0.0 0 0 299.14 122.15
  L 299.42 122.24
  Q 299.55 122.28 299.56 122.15
  L 300.00 117.81
  Z"
/>
<path fill="#7944b6" d="
  M 76.52 149.86
  L 94.65 170.08
  L 106.68 183.43
  Q 105.18 184.01 104.53 184.55
  Q 77.34 206.98 50.17 229.44
  Q 47.63 231.53 45.20 233.92
  C 42.80 236.28 38.01 239.18 34.42 238.59
  Q 31.89 238.17 29.50 237.20
  Q 18.94 232.91 8.69 228.56
  Q 3.58 226.40 2.34 223.92
  Q 1.25 221.73 0.00 219.64
  L 0.00 219.25
  Q 0.53 219.06 1.11 219.23
  Q 1.78 219.43 2.05 220.08
  Q 2.79 221.82 4.58 222.16
  Q 9.63 223.11 13.19 219.27
  Q 23.55 208.09 33.45 197.38
  Q 35.80 194.83 37.06 193.18
  Q 39.25 191.72 40.90 189.63
  Q 43.93 185.75 43.99 185.69
  Q 60.27 167.79 76.52 149.86
  Z"
/>
<path fill="#8e59cb" d="
  M 163.29 162.93
  Q 192.08 186.66 220.85 210.34
  C 222.37 211.59 223.52 213.18 225.04 214.55
  Q 225.05 248.45 225.00 282.43
  Q 225.00 288.09 223.61 290.83
  Q 219.78 298.38 208.64 295.89
  L 106.68 183.43
  L 94.65 170.08
  Q 96.06 169.18 95.55 167.85
  Q 95.25 167.06 95.98 167.35
  Q 96.15 167.42 96.35 167.41
  Q 96.55 167.40 96.71 167.28
  Q 97.91 166.38 99.39 166.10
  Q 99.73 166.03 99.91 165.74
  Q 101.06 163.91 103.28 164.47
  Q 103.88 164.62 104.41 164.94
  A 1.78 1.74 -36.1 0 0 105.72 165.13
  Q 108.65 164.40 109.75 164.35
  Q 115.25 164.11 123.09 164.39
  C 124.94 164.45 126.84 164.08 128.63 164.27
  Q 129.72 164.39 130.75 164.27
  Q 133.00 164.02 135.33 164.24
  Q 137.85 164.47 140.15 164.05
  Q 143.74 163.39 147.54 164.08
  A 1.56 1.56 0.0 0 0 148.82 163.74
  Q 150.72 162.15 153.10 163.46
  Q 153.61 163.74 153.80 163.19
  Q 153.85 163.04 154.00 163.10
  Q 154.26 163.20 154.40 163.45
  Q 155.29 164.93 156.95 164.66
  Q 157.37 164.59 157.49 164.19
  Q 157.79 163.25 158.77 163.31
  Q 159.29 163.34 159.59 163.77
  Q 160.07 164.44 160.82 163.92
  Q 161.39 163.52 161.74 164.12
  L 162.02 164.60
  Q 162.35 165.16 162.89 164.79
  Q 163.67 164.26 163.29 162.93
  Z"
/>
</svg>
