<?xml version="1.0" encoding="UTF-8" standalone="no"?>
<!DOCTYPE svg PUBLIC "-//W3C//DTD SVG 1.1//EN" "http://www.w3.org/Graphics/SVG/1.1/DTD/svg11.dtd">
<svg xmlns="http://www.w3.org/2000/svg" version="1.1" viewBox="0.00 0.00 736.00 736.00">
<g stroke-width="1.10" fill="none" stroke-linecap="butt">
<path stroke="#2797e1" vector-effect="non-scaling-stroke" d="
  M 457.99 582.32
  Q 465.39 581.46 469.90 578.65
  Q 473.83 576.20 475.78 571.56
  Q 476.94 568.81 476.98 562.82
  Q 477.09 549.38 476.81 533.34
  C 476.80 532.71 477.12 531.86 477.10 531.12
  Q 476.62 505.93 477.13 480.20
  Q 477.16 478.69 476.34 477.36
  Q 476.07 476.93 476.12 476.42
  L 476.27 475.06"
/>
<path stroke="#2797e1" vector-effect="non-scaling-stroke" d="
  M 476.44 268.20
  Q 476.88 265.00 476.86 261.00
  Q 476.66 217.04 476.68 173.05
  Q 476.69 167.15 475.34 164.15
  Q 471.37 155.27 458.81 153.99"
/>
<path stroke="#137bc0" vector-effect="non-scaling-stroke" d="
  M 278.08 419.84
  Q 274.74 416.98 271.45 414.03
  Q 254.45 398.80 237.59 383.40
  Q 227.49 374.17 222.60 368.14"
/>
<path stroke="#1b89d2" vector-effect="non-scaling-stroke" d="
  M 207.93 355.12
  Q 208.71 355.34 209.14 354.94
  Q 209.21 354.88 209.30 354.93
  Q 209.47 355.03 209.40 355.23
  Q 209.26 355.61 209.64 355.47
  Q 209.98 355.34 209.87 355.13
  Q 209.75 354.89 210.01 354.96
  Q 210.65 355.12 210.89 355.68
  Q 211.06 356.09 210.82 355.61
  Q 210.75 355.49 210.61 355.41
  Q 210.34 355.26 210.24 355.56
  Q 209.92 356.51 211.10 357.34
  Q 211.62 357.70 211.91 357.13
  Q 212.20 356.54 212.84 356.30
  Q 213.34 356.11 213.17 355.61
  Q 213.08 355.38 212.90 355.20
  Q 212.30 354.59 213.00 355.08
  Q 213.75 355.60 214.74 355.60
  Q 215.79 355.60 216.50 355.08
  Q 216.78 354.89 217.03 355.11
  Q 217.18 355.23 217.21 355.43
  Q 217.23 355.54 217.34 355.54
  Q 217.54 355.54 217.55 355.30
  A 0.30 0.30 0.0 0 1 217.94 355.03
  Q 219.90 355.65 221.90 356.02
  Q 223.11 356.25 223.84 355.24
  Q 223.90 355.16 223.97 355.22
  Q 224.06 355.30 224.19 355.36
  Q 224.24 355.38 224.30 355.37
  Q 225.76 355.00 225.39 353.67
  Q 225.27 353.25 225.66 353.44
  Q 226.70 353.96 227.97 353.70
  Q 229.04 353.48 230.08 353.59
  Q 236.87 354.32 242.00 353.98
  Q 244.34 353.83 246.50 353.79
  Q 257.56 353.61 269.50 353.60
  Q 270.81 353.60 271.94 353.03
  A 1.03 1.01 -49.7 0 1 272.68 352.96
  Q 274.08 353.36 275.38 352.75
  Q 275.58 352.66 275.72 352.83
  Q 276.65 353.98 277.99 353.38
  Q 279.77 352.58 281.59 352.84
  Q 283.47 353.11 285.34 352.94
  Q 286.75 352.81 288.22 352.90
  Q 289.86 353.00 291.41 352.81
  Q 294.55 352.43 297.42 352.50
  Q 299.27 352.55 301.24 352.41
  Q 303.28 352.27 305.12 352.64
  Q 305.51 352.72 305.78 352.43
  Q 306.10 352.10 306.57 352.11
  Q 309.30 352.20 311.61 350.80
  Q 312.01 350.56 312.47 350.62
  Q 313.81 350.79 315.03 350.27
  Q 315.55 350.06 315.81 350.56
  Q 316.02 350.97 316.52 350.81
  A 0.64 0.62 -85.2 0 0 316.90 350.48
  Q 317.67 348.89 319.27 348.58
  Q 320.84 348.29 319.57 347.33
  Q 304.16 335.75 288.69 323.66
  Q 287.77 322.93 283.56 320.21
  Q 280.85 318.44 278.82 316.20"
/>
</g>
<path fill="#40abf2" d="
  M 457.99 582.32
  Q 465.39 581.46 469.90 578.65
  Q 473.83 576.20 475.78 571.56
  Q 476.94 568.81 476.98 562.82
  Q 477.09 549.38 476.81 533.34
  C 476.80 532.71 477.12 531.86 477.10 531.12
  Q 476.62 505.93 477.13 480.20
  Q 477.16 478.69 476.34 477.36
  Q 476.07 476.93 476.12 476.42
  L 476.27 475.06
  Q 476.11 472.05 476.47 469.08
  C 476.78 466.57 478.38 465.48 477.81 462.58
  Q 477.42 460.58 477.40 458.50
  C 476.77 401.95 476.92 343.78 477.51 276.75
  C 477.54 273.48 478.88 271.58 476.44 268.20
  Q 476.88 265.00 476.86 261.00
  Q 476.66 217.04 476.68 173.05
  Q 476.69 167.15 475.34 164.15
  Q 471.37 155.27 458.81 153.99
  Q 462.07 152.11 463.75 152.00
  C 468.43 151.69 473.94 151.52 478.50 153.22
  C 482.20 154.60 485.38 156.74 488.92 158.45
  C 511.28 169.28 533.73 179.79 556.01 190.69
  C 567.15 196.15 578.08 199.12 583.95 211.49
  Q 585.10 213.90 585.08 216.46
  C 585.06 219.43 585.94 222.22 586.02 225.21
  Q 586.26 235.07 586.14 241.13
  Q 585.01 296.35 585.38 352.25
  C 585.70 402.18 584.72 453.82 585.92 506.07
  C 586.02 510.61 585.06 514.81 585.05 519.21
  C 585.03 524.55 579.79 531.09 576.20 534.34
  Q 573.44 536.84 565.61 540.58
  Q 532.77 556.26 500.77 571.73
  Q 492.82 575.57 484.72 579.77
  C 476.94 583.80 471.47 585.22 463.01 584.15
  Q 460.31 583.81 457.99 582.32
  Z"
/>
<path fill="#0e82cf" d="
  M 458.81 153.99
  Q 471.37 155.27 475.34 164.15
  Q 476.69 167.15 476.68 173.05
  Q 476.66 217.04 476.86 261.00
  Q 476.88 265.00 476.44 268.20
  L 346.34 367.11
  A 0.81 0.81 0.0 0 0 346.25 368.32
  C 349.83 371.97 353.91 374.62 357.96 377.59
  Q 389.70 400.89 418.96 423.47
  Q 422.26 426.02 425.77 428.69
  Q 445.82 443.97 468.26 460.94
  C 473.45 464.86 475.95 468.03 475.73 474.25
  Q 475.71 474.96 476.27 475.06
  L 476.12 476.42
  Q 476.07 476.93 476.34 477.36
  Q 477.16 478.69 477.13 480.20
  Q 476.62 505.93 477.10 531.12
  C 477.12 531.86 476.80 532.71 476.81 533.34
  Q 477.09 549.38 476.98 562.82
  Q 476.94 568.81 475.78 571.56
  Q 473.83 576.20 469.90 578.65
  Q 465.39 581.46 457.99 582.32
  Q 455.37 581.04 453.28 579.22
  Q 442.58 569.93 429.87 558.14
  Q 369.98 502.57 309.42 447.95
  Q 294.55 434.54 283.50 423.51
  Q 281.03 421.05 278.08 419.84
  Q 274.74 416.98 271.45 414.03
  Q 254.45 398.80 237.59 383.40
  Q 227.49 374.17 222.60 368.14
  L 207.93 355.12
  Q 208.71 355.34 209.14 354.94
  Q 209.21 354.88 209.30 354.93
  Q 209.47 355.03 209.40 355.23
  Q 209.26 355.61 209.64 355.47
  Q 209.98 355.34 209.87 355.13
  Q 209.75 354.89 210.01 354.96
  Q 210.65 355.12 210.89 355.68
  Q 211.06 356.09 210.82 355.61
  Q 210.75 355.49 210.61 355.41
  Q 210.34 355.26 210.24 355.56
  Q 209.92 356.51 211.10 357.34
  Q 211.62 357.70 211.91 357.13
  Q 212.20 356.54 212.84 356.30
  Q 213.34 356.11 213.17 355.61
  Q 213.08 355.38 212.90 355.20
  Q 212.30 354.59 213.00 355.08
  Q 213.75 355.60 214.74 355.60
  Q 215.79 355.60 216.50 355.08
  Q 216.78 354.89 217.03 355.11
  Q 217.18 355.23 217.21 355.43
  Q 217.23 355.54 217.34 355.54
  Q 217.54 355.54 217.55 355.30
  A 0.30 0.30 0.0 0 1 217.94 355.03
  Q 219.90 355.65 221.90 356.02
  Q 223.11 356.25 223.84 355.24
  Q 223.90 355.16 223.97 355.22
  Q 224.06 355.30 224.19 355.36
  Q 224.24 355.38 224.30 355.37
  Q 225.76 355.00 225.39 353.67
  Q 225.27 353.25 225.66 353.44
  Q 226.70 353.96 227.97 353.70
  Q 229.04 353.48 230.08 353.59
  Q 236.87 354.32 242.00 353.98
  Q 244.34 353.83 246.50 353.79
  Q 257.56 353.61 269.50 353.60
  Q 270.81 353.60 271.94 353.03
  A 1.03 1.01 -49.7 0 1 272.68 352.96
  Q 274.08 353.36 275.38 352.75
  Q 275.58 352.66 275.72 352.83
  Q 276.65 353.98 277.99 353.38
  Q 279.77 352.58 281.59 352.84
  Q 283.47 353.11 285.34 352.94
  Q 286.75 352.81 288.22 352.90
  Q 289.86 353.00 291.41 352.81
  Q 294.55 352.43 297.42 352.50
  Q 299.27 352.55 301.24 352.41
  Q 303.28 352.27 305.12 352.64
  Q 305.51 352.72 305.78 352.43
  Q 306.10 352.10 306.57 352.11
  Q 309.30 352.20 311.61 350.80
  Q 312.01 350.56 312.47 350.62
  Q 313.81 350.79 315.03 350.27
  Q 315.55 350.06 315.81 350.56
  Q 316.02 350.97 316.52 350.81
  A 0.64 0.62 -85.2 0 0 316.90 350.48
  Q 317.67 348.89 319.27 348.58
  Q 320.84 348.29 319.57 347.33
  Q 304.16 335.75 288.69 323.66
  Q 287.77 322.93 283.56 320.21
  Q 280.85 318.44 278.82 316.20
  Q 286.57 309.39 294.21 302.59
  C 306.95 291.25 321.16 277.24 332.33 267.34
  Q 358.29 244.32 383.64 220.64
  C 387.40 217.11 391.48 213.72 395.23 210.19
  Q 404.99 201.02 414.47 192.58
  C 426.35 182.01 437.76 171.00 449.26 160.29
  Q 454.37 155.54 458.81 153.99
  Z"
/>
<path fill="#288fd5" d="
  M 278.82 316.20
  Q 280.85 318.44 283.56 320.21
  Q 287.77 322.93 288.69 323.66
  Q 304.16 335.75 319.57 347.33
  Q 320.84 348.29 319.27 348.58
  Q 317.67 348.89 316.90 350.48
  A 0.64 0.62 -85.2 0 1 316.52 350.81
  Q 316.02 350.97 315.81 350.56
  Q 315.55 350.06 315.03 350.27
  Q 313.81 350.79 312.47 350.62
  Q 312.01 350.56 311.61 350.80
  Q 309.30 352.20 306.57 352.11
  Q 306.10 352.10 305.78 352.43
  Q 305.51 352.72 305.12 352.64
  Q 303.28 352.27 301.24 352.41
  Q 299.27 352.55 297.42 352.50
  Q 294.55 352.43 291.41 352.81
  Q 289.86 353.00 288.22 352.90
  Q 286.75 352.81 285.34 352.94
  Q 283.47 353.11 281.59 352.84
  Q 279.77 352.58 277.99 353.38
  Q 276.65 353.98 275.72 352.83
  Q 275.58 352.66 275.38 352.75
  Q 274.08 353.36 272.68 352.96
  A 1.03 1.01 -49.7 0 0 271.94 353.03
  Q 270.81 353.60 269.50 353.60
  Q 257.56 353.61 246.50 353.79
  Q 244.34 353.83 242.00 353.98
  Q 236.87 354.32 230.08 353.59
  Q 229.04 353.48 227.97 353.70
  Q 226.70 353.96 225.66 353.44
  Q 225.27 353.25 225.39 353.67
  Q 225.76 355.00 224.30 355.37
  Q 224.24 355.38 224.19 355.36
  Q 224.06 355.30 223.97 355.22
  Q 223.90 355.16 223.84 355.24
  Q 223.11 356.25 221.90 356.02
  Q 219.90 355.65 217.94 355.03
  A 0.30 0.30 0.0 0 0 217.55 355.30
  Q 217.54 355.54 217.34 355.54
  Q 217.23 355.54 217.21 355.43
  Q 217.18 355.23 217.03 355.11
  Q 216.78 354.89 216.50 355.08
  Q 215.79 355.60 214.74 355.60
  Q 213.75 355.60 213.00 355.08
  Q 212.30 354.59 212.90 355.20
  Q 213.08 355.38 213.17 355.61
  Q 213.34 356.11 212.84 356.30
  Q 212.20 356.54 211.91 357.13
  Q 211.62 357.70 211.10 357.34
  Q 209.92 356.51 210.24 355.56
  Q 210.34 355.26 210.61 355.41
  Q 210.75 355.49 210.82 355.61
  Q 211.06 356.09 210.89 355.68
  Q 210.65 355.12 210.01 354.96
  Q 209.75 354.89 209.87 355.13
  Q 209.98 355.34 209.64 355.47
  Q 209.26 355.61 209.40 355.23
  Q 209.47 355.03 209.30 354.93
  Q 209.21 354.88 209.14 354.94
  Q 208.71 355.34 207.93 355.12
  Q 202.48 350.18 197.01 345.22
  Q 178.88 328.74 158.41 310.57
  C 155.10 307.63 150.96 303.01 150.81 298.41
  C 150.70 295.17 150.07 290.59 151.93 287.71
  C 154.62 283.55 158.35 280.49 162.11 277.36
  Q 165.03 274.92 168.07 272.08
  Q 173.47 267.04 180.06 261.03
  C 184.61 256.87 190.16 254.57 196.12 255.77
  C 199.19 256.39 202.43 258.74 205.02 260.73
  Q 233.42 282.54 260.01 302.95
  Q 267.25 308.51 274.93 314.57
  Q 275.79 315.25 278.82 316.20
  Z"
/>
<path fill="#1773b1" d="
  M 222.60 368.14
  Q 227.49 374.17 237.59 383.40
  Q 254.45 398.80 271.45 414.03
  Q 274.74 416.98 278.08 419.84
  Q 276.25 419.87 274.93 420.91
  Q 257.62 434.61 241.03 447.06
  C 238.03 449.31 235.28 451.76 232.33 453.97
  Q 218.90 464.03 204.82 474.97
  C 200.10 478.64 195.12 481.54 188.77 480.23
  C 184.75 479.40 181.49 476.48 178.11 473.49
  Q 168.96 465.43 159.58 456.88
  C 153.02 450.90 149.58 446.54 150.76 437.10
  Q 151.41 431.87 155.40 428.39
  C 166.09 419.05 176.72 409.80 187.62 399.75
  Q 205.09 383.65 222.60 368.14
  Z"
/>
</svg>
